<svg width="48" height="48" viewBox="0 0 48 48" fill="none" xmlns="http://www.w3.org/2000/svg">
<path fill-rule="evenodd" clip-rule="evenodd" d="M24 0C37.2655 0 48 10.7345 48 24C48 37.2655 37.2655 48 24 48C10.7345 48 0 37.2655 0 24C0 10.7345 10.7345 0 24 0ZM36.742 34.56C35.8693 37.2654 34.5602 39.2727 32.7275 40.7563C30.8947 42.24 28.4511 43.0254 25.3966 43.2873L24.7857 39.2727C26.7929 39.0109 28.2766 38.5745 29.2366 37.8763C29.5857 37.6145 30.2838 36.8291 30.2838 36.8291L23.0402 13.6145H29.062L33.2511 30.9818L37.702 13.6145H43.5493L36.742 34.56ZM19.4626 13.44C18.4154 13.0036 17.1063 12.8291 15.7099 12.8291C13.7026 12.8291 11.9572 13.3527 10.4735 14.1381C8.9899 15.0981 7.76808 16.4072 6.98263 18.1527C6.19717 19.8109 5.76081 21.8181 5.76081 24C5.76081 26.2691 6.19717 28.1891 6.98263 29.8472C7.76808 31.5054 8.9899 32.8145 10.4735 33.6872C12.0444 34.56 13.7899 34.9963 15.8844 34.9963C18.5026 34.9963 20.7717 34.2109 22.779 32.5527L20.3354 29.0618C19.4626 29.5854 18.7644 29.9345 18.1535 30.1963C17.5426 30.4581 16.8444 30.5454 16.1463 30.5454C14.6626 30.5454 13.6154 30.1091 12.8299 29.0618C12.0444 28.1018 11.6954 26.4436 11.6954 24.0872C11.6954 19.4618 13.179 17.1927 16.1463 17.1927C16.8444 17.1927 17.6299 17.28 18.2408 17.5418C18.8517 17.8036 19.5499 18.1527 20.2481 18.6763L22.6917 15.36C21.6444 14.4872 20.5972 13.8763 19.4626 13.44Z" fill="#4A4A4D"/>
</svg>
