<svg width="48" height="48" viewBox="0 0 48 48" fill="none" xmlns="http://www.w3.org/2000/svg">
<rect width="48" height="48"/>
<path d="M10.8232 36.2446C10.8608 36.1508 10.8983 36.0571 10.9358 35.9633L10.9545 35.9258C11.0483 35.7007 11.1421 35.4568 11.2359 35.2317C11.3484 34.9316 11.461 34.6128 11.5735 34.3126C11.6486 34.1438 11.7048 33.975 11.7611 33.7874C11.9112 33.3748 12.1175 32.8308 12.3613 32.3056C12.5114 31.9868 12.6239 31.7617 12.7552 31.5553C12.9053 31.3115 13.0553 31.0864 13.2242 30.8613L13.3555 30.6738L13.5618 30.5425C13.5805 30.5237 13.6181 30.5049 13.6556 30.4862C13.7494 30.4299 13.8619 30.3924 13.9369 30.3549C14.0682 30.2986 14.237 30.2423 14.4246 30.1861C14.6872 30.111 14.9873 30.036 15.3437 29.961C15.8689 29.8484 16.4316 29.7359 17.1444 29.6234C18.2135 29.4545 19.3577 29.3045 20.727 29.1544C23.1467 28.8918 25.5663 28.7043 27.8922 28.5917C29.1302 28.5354 30.0681 28.5167 30.9496 28.5167C31.1372 28.5167 31.3248 28.5167 31.5124 28.5167C32.0938 28.5355 32.7691 28.5542 33.3881 28.648C33.6131 28.6855 33.8195 28.723 33.9695 28.7793C34.0258 28.798 34.0821 28.8168 34.1008 28.8356L34.2884 28.9106L34.4385 29.0419C34.4947 29.0982 34.551 29.1544 34.6073 29.2107C34.8136 29.417 35.0387 29.6609 35.2638 29.9422C35.9765 30.8426 36.6143 31.9305 37.177 33.1685C37.721 34.3689 38.0586 35.4381 38.2649 36.4885L38.5463 37.9703H35.095L34.8886 36.9762C34.6635 35.9258 31.8312 33.1497 30.4244 32.6057C30.2744 32.5495 29.6742 32.3807 27.8172 32.3807C23.9907 32.3807 18.5887 33.0559 17.8196 33.2247C16.9006 33.6561 15.4938 35.4568 14.6872 37.2575L14.3496 37.989" fill="white"/>
<path d="M34.269 30.7676C34.1002 30.5425 33.9126 30.3361 33.7063 30.1486C33.6688 30.1111 33.6125 30.0548 33.575 30.0173C33.575 30.0173 33.5563 30.0173 33.5375 29.9985C33.4437 29.961 33.3124 29.9422 33.1811 29.9235C32.6372 29.8485 32.0557 29.8297 31.4742 29.8109C30.2925 29.7922 29.1108 29.8297 27.9291 29.886C25.5657 29.9985 23.1836 30.1861 20.8389 30.4487C19.6572 30.58 18.4755 30.73 17.3126 30.9176C16.7311 31.0114 16.1496 31.1052 15.5869 31.2365C15.3056 31.2928 15.0242 31.3678 14.7616 31.4428C14.6303 31.4803 14.499 31.5178 14.3865 31.5741C14.3302 31.5929 14.2739 31.6116 14.2552 31.6491C14.2552 31.6491 14.2364 31.6491 14.2364 31.6679C14.1051 31.8555 13.9738 32.043 13.8425 32.2494C13.7112 32.4557 13.6174 32.6808 13.5049 32.9059C13.2986 33.356 13.111 33.825 12.9422 34.2939C12.7734 34.7628 12.5858 35.2505 12.417 35.7382C12.3232 35.982 12.2294 36.2259 12.1169 36.4697C12.0793 36.5823 12.0231 36.6948 11.9668 36.8073H13.5612C14.424 34.8754 16.0559 32.662 17.4064 32.1181C17.7815 31.968 23.8213 31.2177 27.8166 31.2177C29.2984 31.2177 30.3113 31.3303 30.874 31.5366C32.5059 32.1743 35.7696 35.1942 36.1072 36.8261H37.0263C36.8387 35.7945 36.4636 34.7816 36.0322 33.8062C35.5445 32.6808 34.963 31.6491 34.269 30.7676Z" fill="#BA8449"/>
<path d="M35.9949 37.9891L35.8074 36.9762C35.6385 36.1321 35.3572 35.2318 34.907 34.2376C34.4193 33.1872 33.8941 32.2681 33.2939 31.5366C33.1813 31.3865 33.0688 31.2552 32.9563 31.1427C32.4873 31.0677 31.9434 31.0677 31.4557 31.0489C31.2869 31.0489 31.1181 31.0489 30.9305 31.0489C30.0864 31.0489 29.1861 31.0677 27.9856 31.1239C25.6973 31.2365 23.3526 31.4241 20.9705 31.6867C19.6387 31.8367 18.532 31.9868 17.5191 32.1368C16.8627 32.2306 16.3375 32.3432 15.8685 32.4369C15.5684 32.512 15.3433 32.5682 15.137 32.6245C15.0995 32.6245 15.0807 32.6433 15.062 32.6433C15.0245 32.7183 14.9682 32.7746 14.9307 32.8496C14.8369 32.9997 14.7619 33.1685 14.6306 33.3936C14.4242 33.825 14.2554 34.2751 14.1054 34.669C14.0303 34.8379 13.9741 35.0067 13.9178 35.1755C13.8052 35.4944 13.6927 35.8132 13.5614 36.1321C13.4676 36.3759 13.3551 36.6198 13.2613 36.8824L13.2425 36.9199C13.205 37.0324 13.1487 37.145 13.1112 37.2388L12.7736 37.9891H10.579L10.2601 37.839L10.2226 37.8202C9.47234 37.3888 9.47234 36.7511 9.4911 36.4885V36.4322L9.52861 36.2634L9.58489 36.0571C9.6224 35.9258 9.65991 35.7757 9.69743 35.6444C9.77246 35.3631 9.86624 35.1005 9.96003 34.8379C10.1288 34.3502 10.3352 33.825 10.579 33.2623C10.8416 32.6808 11.0855 32.1743 11.3668 31.7054C11.4981 31.4616 11.6482 31.2177 11.8357 30.9364C12.0046 30.6738 12.1921 30.4112 12.3797 30.1673C12.5485 29.961 12.6986 29.8297 12.8111 29.7547H12.8299C12.9424 29.6609 13.055 29.6046 13.1112 29.5859C13.28 29.4921 13.4113 29.4358 13.5051 29.3983C13.7302 29.3045 13.9365 29.2482 14.1054 29.192C14.4805 29.0794 14.8369 29.0044 15.0995 28.9481C15.6434 28.8356 16.2249 28.723 16.9564 28.6105C18.0443 28.4417 19.1885 28.3104 20.5953 28.1603C23.0337 27.9165 25.4722 27.7289 27.8356 27.6351C28.961 27.5976 29.8426 27.5601 30.6491 27.5601C30.9493 27.5601 31.2306 27.5601 31.512 27.5601C32.1122 27.5788 32.7875 27.5976 33.519 27.7101H33.5377C33.7066 27.7477 33.9691 27.7852 34.2693 27.879H34.288C34.3631 27.9165 34.4756 27.954 34.6069 28.0103C34.7007 28.0665 34.7757 28.104 34.832 28.1416L34.9258 28.2166L35.0008 28.2729L35.0758 28.3479C35.1508 28.4229 35.2071 28.4792 35.2822 28.5542C35.526 28.7981 35.7511 29.0607 35.9949 29.3795C36.7452 30.3549 37.4017 31.4803 38.0019 32.8121C38.2833 33.4311 38.5271 34.0501 38.7147 34.6503C38.921 35.3068 39.0711 35.9258 39.1836 36.526L39.4087 37.9703H35.9949V37.9891V37.9891Z" fill="white"/>
<path d="M12.0234 37.989L12.8487 36.2071C13.5428 34.7253 15.2121 32.0055 17.0691 31.2365L17.1066 31.2177C17.7256 30.9926 23.9905 30.2611 27.8169 30.2611C29.9552 30.2611 30.7618 30.4674 31.1745 30.6363C33.1064 31.3865 36.464 34.5565 36.9141 36.4322L37.2893 37.9703H12.0234V37.989Z" fill="white"/>
<path d="M34.7385 37.989L34.5134 37.0324C34.307 36.1508 31.6623 33.5061 30.293 32.9621C30.1617 32.9059 29.6178 32.7558 27.8171 32.7558C24.1407 32.7558 18.8137 33.4123 17.9508 33.5811C17.2381 33.9375 15.9438 35.4568 15.0997 37.2575L14.7621 37.9703H11.6484L12.4362 36.2259C13.3553 34.1626 15.1748 31.6116 16.9567 30.8989C17.6507 30.6175 23.9906 29.9047 27.8358 29.9047C29.5052 29.9047 30.6306 30.036 31.3247 30.2986C33.2566 31.0489 36.8768 34.3127 37.3269 36.4885L37.6271 37.989H34.7385Z" fill="white"/>
<path d="M36.1828 37.9891L35.8264 37.6514C34.4759 36.3947 34.1007 33.7875 34.5134 32.7183C34.7947 32.0055 35.395 31.7617 35.8451 31.7617C35.9764 31.7617 36.089 31.7804 36.2015 31.818C36.4454 31.7992 37.0081 31.3303 37.1769 31.0677C37.4395 30.58 37.9459 30.2799 38.5649 30.2799C39.484 30.2799 40.9846 31.0114 41.4723 31.7054C41.7536 32.0993 41.8287 32.5682 41.6786 32.9809C41.6599 33.0184 41.6411 33.0934 41.6036 33.1872C41.0971 34.7066 40.4406 36.5635 39.9154 37.4263L39.5591 38.0078L36.1828 37.9891Z" fill="white"/>
<path d="M36.0703 37.9891L37.2333 36.0946C37.796 35.1755 38.1899 34.4252 38.4525 33.8437C37.796 34.3127 36.8769 34.594 35.5076 34.669L35.4701 34.6315L35.4514 34.7628C34.6448 34.7628 33.9883 34.1063 33.9508 33.2998C33.932 32.9059 34.0821 32.512 34.3447 32.2119C34.6073 31.9117 34.9824 31.7429 35.3763 31.7242C36.7268 31.6679 36.8957 31.349 37.1395 30.8801C37.4771 30.2424 38.2087 29.8672 39.1653 29.8672C39.4091 29.8672 39.653 29.886 39.878 29.9422C41.0597 30.2048 41.8288 31.1052 41.8851 32.2681C41.9413 33.4498 41.2848 35.1755 39.9718 37.3888L39.6154 37.9891H36.0703Z" fill="white"/>
<path d="M41.0031 34.2939C39.4838 34.2939 37.8332 33.2998 36.9891 32.3244C36.2201 31.4428 36.145 30.655 36.2201 30.1486C36.3138 29.5296 36.8203 28.9106 37.7394 28.9106C37.9082 28.9106 38.077 28.9294 38.2271 28.9481C38.3771 28.2729 38.7335 26.8661 40.1778 26.8661C40.2528 26.8661 40.3091 26.8661 40.3841 26.8661C41.0782 26.9411 41.6034 27.3725 41.8097 28.029C42.0348 27.9165 42.2974 27.8227 42.5975 27.8227C43.0477 27.8227 43.4791 28.0103 43.7979 28.3479C44.3044 28.8919 44.4169 29.6421 44.0981 30.3549C44.4357 30.5612 44.6983 30.8801 44.8108 31.2928C44.9609 31.818 44.8671 32.3807 44.5295 32.8309C43.873 33.75 42.3536 34.1814 41.1532 34.2189C41.0782 34.2939 41.0406 34.2939 41.0031 34.2939Z" fill="white"/>
<path d="M39.5029 3.40089C38.1336 4.26372 36.6331 6.23322 34.7949 8.93424C34.5135 9.36566 34.0446 9.59074 33.5194 9.59074C32.8441 9.59074 31.9813 9.17809 30.9872 8.37153C29.4116 7.09605 29.374 6.38328 29.3553 6.10192C29.3178 5.35163 29.8805 4.71389 30.6683 4.63886C32.1876 4.50756 33.4443 3.58846 34.6636 2.70688C35.8828 1.82529 37.0082 1.01874 38.3587 1.01874C38.6213 1.01874 38.9027 1.05625 39.1653 1.11252" fill="white"/>
<path d="M30.7803 5.8956C34.4567 5.55797 36.6137 1.75027 38.8458 2.33174C37.3453 3.2696 35.8635 5.14531 33.7814 8.22148C33.275 8.95301 29.7674 5.98938 30.7803 5.8956Z" fill="#FFF8EE"/>
<path d="M6.95898 4.15119C7.87808 3.30712 9.11605 2.8757 10.6354 2.8757C11.9484 2.8757 13.5052 3.19457 15.2496 3.83232C15.7186 4.00113 16.3375 4.03864 16.8065 4.03864C16.9378 4.03864 17.0691 4.03864 17.1816 4.03864C17.2942 4.03864 17.4067 4.03864 17.5005 4.03864C17.9319 4.03864 18.851 4.03864 19.2449 4.88271C19.3762 5.20158 19.545 5.85808 19.0386 6.62713C18.4196 7.58374 16.7877 8.59663 15.2121 8.59663C15.1934 8.59663 15.1558 8.59663 15.1371 8.59663C14.293 8.57787 13.5052 8.1277 12.5861 7.62125C11.4419 6.98351 10.1477 6.25198 8.60961 6.25198C8.40328 6.25198 8.1782 6.27074 7.97187 6.2895" fill="white"/>
<path d="M35.2442 13.2484C34.569 13.2484 33.2935 12.967 32.4869 11.0538C32.0368 10.0409 31.8867 8.89675 31.8867 8.25901C31.8867 6.94601 32.5807 6.58962 33.0121 6.49584C33.3123 6.19572 33.875 5.42668 34.2876 4.84521C35.9945 2.51933 37.2325 1 38.6768 1C38.9206 1 39.1457 1.03751 39.3708 1.1313C41.3028 1.90034 42.2407 3.53221 41.9218 5.5955C41.6967 7.11482 40.7401 8.91551 39.3333 10.5661C38.6768 11.3352 36.9699 13.1359 35.4506 13.2484C35.3755 13.2484 35.3193 13.2484 35.2442 13.2484Z" fill="white"/>
<path d="M13.0735 13.9612C12.9047 13.9612 12.7359 13.9612 12.5858 13.9237C10.1849 13.5298 7.18379 11.1101 6.05836 8.61541C5.28932 6.90851 5.62694 5.74557 6.05836 5.07031C6.75237 3.96364 7.78401 3.38217 9.0595 3.38217C10.5976 3.38217 12.1357 4.22624 13.4862 4.95777C14.0114 5.23913 14.7617 5.65178 15.0805 5.72681C15.1931 5.6893 15.3056 5.67054 15.4369 5.67054C15.9246 5.67054 16.3748 5.93314 16.6374 6.38331C17.2564 7.47123 16.8812 10.3973 15.9059 12.0855C15.2306 13.3234 14.2177 13.9612 13.0735 13.9612Z" fill="white"/>
<path d="M21.4395 34.8941C15.8124 34.8941 10.2415 32.1368 8.38455 30.1298C6.45256 28.0478 5.75855 25.6844 6.28375 23.0959C6.73392 20.9763 7.91562 19.0819 8.94726 17.3937C9.66003 16.2308 10.3353 15.1429 10.5229 14.3551C12.8112 4.24499 18.5509 2.95074 23.2965 2.95074C23.5966 2.95074 23.9155 2.95075 24.2718 2.9695C34.3819 3.26962 35.3948 8.14647 35.995 11.0726C36.1076 11.6165 36.2201 12.123 36.3514 12.4606C39.7465 20.7888 40.3092 25.7782 38.2271 29.1544C36.1826 32.4745 31.6997 34.1063 22.7713 34.8379C22.3399 34.8754 21.8897 34.8941 21.4395 34.8941Z" fill="white"/>
<path d="M21.233 34.9129C15.4933 34.9129 10.185 32.0618 8.4031 30.1298C6.47112 28.0478 5.77711 25.6844 6.30231 23.0959C6.75248 20.9763 7.93418 19.0819 8.96582 17.3937C9.67859 16.2308 10.3538 15.1429 10.5414 14.3551C12.8298 4.24499 18.5695 2.95074 23.315 2.95074C23.6151 2.95074 23.934 2.95075 24.2904 2.9695C34.4005 3.26962 35.4134 8.14647 36.0136 11.0726C36.1261 11.6165 36.2387 12.123 36.37 12.4606C39.7087 20.6575 40.2527 25.6094 38.2082 28.9856C35.8635 32.8684 30.3489 34.1251 22.8086 34.8379C22.2834 34.8941 21.7582 34.9129 21.233 34.9129Z" fill="white"/>
<path d="M35.8448 27.8602C35.9199 27.6914 35.9949 27.5038 36.0699 27.335C36.839 25.4968 37.4204 23.8837 36.5013 22.852C35.4134 21.6516 30.8179 19.4758 26.7289 17.5625C18.9071 13.8674 14.0678 11.4852 13.3738 9.12183C13.205 8.5216 13.28 7.90262 13.5989 7.37742C14.9494 5.25786 18.7196 2.98825 23.8778 2.98825C23.934 2.98825 23.9716 2.98825 24.0278 2.98825C28.8859 3.02576 32.4123 4.43255 34.5318 7.13358C36.3325 9.42195 36.7264 12.1042 37.0265 14.055C37.1203 14.7115 37.2516 15.5555 37.3829 15.7806C41.0593 22.1018 39.3712 26.7723 38.0394 28.9669L35.8448 27.8602Z" fill="white"/>
<path d="M31.9993 20.5824C30.1048 20.5824 26.9349 20.1135 25.8469 19.0631C24.9841 18.2378 24.6652 16.8685 24.3276 15.5368C24.1963 14.974 23.9712 14.0737 23.7649 13.661H23.7461C23.6711 13.8674 23.5773 14.13 23.5023 14.3363C22.9959 15.7618 22.2831 17.7313 20.8013 18.8005C20.1635 19.2694 17.8564 19.6821 16.0745 19.6821C14.2926 19.6821 12.942 19.3069 12.0417 18.5379C10.7475 17.45 9.77209 15.443 9.11559 12.5731C9.07807 12.5544 9.05932 12.5356 9.0218 12.5169C8.72169 12.3105 8.32779 12.0667 8.12146 11.6353C7.78383 10.96 7.91513 9.75957 8.27152 9.12182C8.53412 8.6529 8.98429 8.35278 9.47197 8.31527C9.52824 8.31527 9.56576 8.31527 9.64079 8.31527C9.90339 8.31527 10.166 8.35278 10.4661 8.40905C10.7662 8.46533 11.1226 8.5216 11.4227 8.5216C11.4977 8.5216 11.554 8.5216 11.5915 8.5216C13.3735 8.259 15.0428 8.14645 16.5622 8.14645C20.2573 8.14645 22.2081 8.89674 22.9396 9.19685C22.9959 9.21561 23.0521 9.23437 23.0896 9.25312C23.296 9.3094 23.6899 9.38442 24.1025 9.38442C24.2526 9.38442 24.4026 9.38442 24.5339 9.34691C26.2033 9.08431 27.7977 8.97177 29.2607 8.97177C33.1622 8.97177 35.2255 9.85335 36.1259 10.2473C36.2009 10.2848 36.2759 10.3223 36.3322 10.3223C36.3322 10.3223 36.3697 10.3223 36.4072 10.3223C36.6511 10.3223 37.0074 10.2473 37.3076 10.191C37.5326 10.1347 37.7577 10.0972 37.9641 10.0597C38.0203 10.0597 38.0766 10.0597 38.1329 10.0597C38.7143 10.0597 39.2395 10.3973 39.5584 10.96C39.9148 11.6165 40.1586 12.9858 39.6522 13.7736C39.3146 14.2988 38.7706 14.5426 38.3204 14.749C38.2642 14.7677 38.1891 14.8052 38.1329 14.8427C37.9828 15.1053 37.7202 15.6305 37.4951 16.062C36.8386 17.3374 36.1071 18.8005 35.4318 19.5883C34.8316 20.2636 33.7062 20.5824 31.9993 20.5824Z" fill="white"/>
<g opacity="0.3">
<g opacity="0.3">
<path opacity="0.3" d="M31.2453 20.2788C29.7447 20.2788 27.6251 20.0537 26.1058 18.9846C25.243 18.3656 24.8491 17.1276 24.3051 15.1394C24.1551 14.5767 23.93 13.7889 23.7612 13.395C23.6674 13.62 23.5548 13.9202 23.4611 14.164C22.8983 15.6833 22.1293 17.7466 20.7225 18.6094C19.991 19.0596 17.7214 19.4723 15.9582 19.4723C14.0637 19.4723 12.6945 19.0409 11.9067 18.2155C9.89965 16.1147 9.50575 14.1077 9.26191 12.926C9.2244 12.7572 9.18688 12.5321 9.14937 12.4008C7.96767 11.7818 7.89264 10.8627 7.91139 10.4688C7.96767 9.73732 8.53038 9.19336 9.22439 9.19336C9.69332 9.19336 9.99344 9.41844 10.2185 9.5685C10.2373 9.58726 10.256 9.60602 10.2936 9.60602C10.3123 9.60602 10.3686 9.62478 10.3873 9.64353C10.6875 9.73732 11.569 9.98116 11.7566 11.1253C11.7941 11.3317 12.0942 12.5321 12.5819 13.7889C13.351 15.7959 13.8949 16.1335 13.9512 16.1523C14.5889 16.3773 15.3392 16.4899 16.1833 16.4899C17.5713 16.4899 18.7343 16.1898 19.2032 16.0397C19.4845 15.6083 20.0473 14.4829 20.4412 13.7138C21.6229 11.3692 21.8292 11.0128 22.3356 10.7502C22.617 10.6001 22.9546 10.5251 23.386 10.5251C23.9487 10.5251 24.7553 10.6564 25.1304 10.8252C25.9933 11.2004 26.4434 12.3258 27.4563 15.2332C27.6439 15.7584 27.869 16.4336 28.019 16.7712C28.7693 17.1276 30.4762 17.3715 32.2581 17.3715C32.7646 17.3715 33.1397 17.3527 33.3836 17.334C33.5524 16.9776 33.7962 16.4711 34.0026 16.0397C35.4281 13.0011 35.6532 12.6447 36.0096 12.3633C36.6286 11.8944 37.7165 11.5755 38.3355 11.5755C39.1608 11.5755 39.6109 12.1195 39.7235 12.6447C39.9298 13.7326 38.8607 14.1452 38.5043 14.2765C38.4105 14.3141 38.2792 14.3703 38.1854 14.4078C38.0541 14.6329 37.8103 15.1206 37.6227 15.5145C36.0846 18.5157 35.5782 19.341 34.9967 19.6974C34.2839 20.0913 32.5583 20.2788 31.2453 20.2788Z" fill="white"/>
</g>
</g>
<g opacity="0.3">
<g opacity="0.3">
<path opacity="0.3" d="M11.4768 11.3945C11.2517 11.3945 10.8203 11.357 9.95743 11.0756C9.73235 11.0006 9.52602 10.9256 9.39472 10.8693C9.11336 10.7567 8.38184 10.4754 8.38184 9.61255V8.35582H9.6198C9.78862 8.35582 9.90116 8.39334 9.99495 8.41209C10.2575 8.44961 11.1016 8.50588 11.383 8.52464L11.5518 8.5434C11.7769 8.5434 12.4709 8.44961 12.771 8.41209C13.1461 8.35582 13.2587 8.33707 13.4087 8.33707H14.4779L14.6467 9.38747C14.7217 9.91267 14.4404 10.5692 13.7464 10.7755C13.7089 10.7943 13.5776 10.8318 13.465 10.8693C12.8085 11.1131 12.152 11.3382 11.5893 11.357C11.5518 11.3945 11.5143 11.3945 11.4768 11.3945Z" fill="white"/>
</g>
</g>
<g opacity="0.3">
<g opacity="0.3">
<path opacity="0.3" d="M36.2548 13.1941C35.8421 13.1941 35.4295 13.0253 34.8668 12.6314C34.3228 12.2563 33.9102 11.8811 33.9102 11.2246V9.9679H35.1294C35.2982 9.9679 35.467 10.0054 35.6358 10.0804C35.7671 10.1367 36.2736 10.3055 36.4986 10.3618C36.5737 10.3618 36.7237 10.3243 37.0238 10.268C37.1739 10.2305 37.2677 10.2305 37.399 10.2305H38.4681L38.6369 11.2809C38.712 11.7873 38.4869 12.4251 37.7929 12.6689C37.7554 12.6877 37.6428 12.744 37.5678 12.7815C37.2302 12.9503 36.8363 13.1378 36.4424 13.2129C36.4049 13.1941 36.3298 13.1941 36.2548 13.1941Z" fill="white"/>
</g>
</g>
<path d="M32.168 40.7464H27.5537V36.7511H32.168V40.7464Z" fill="white"/>
<path d="M34.269 30.7676C34.1002 30.5425 33.9126 30.3361 33.7063 30.1486C33.6688 30.1111 33.6125 30.0548 33.575 30.0173C33.575 30.0173 33.5563 30.0173 33.5375 29.9985C33.4437 29.961 33.3124 29.9422 33.1811 29.9235C32.6372 29.8485 32.0557 29.8297 31.4742 29.8109C30.2925 29.7922 29.1108 29.8297 27.9291 29.886C25.5657 29.9985 23.1836 30.1861 20.8389 30.4487C19.6572 30.58 18.4755 30.73 17.3126 30.9176C16.7311 31.0114 16.1496 31.1052 15.5869 31.2365C15.3056 31.2928 15.0242 31.3678 14.7616 31.4428C14.6303 31.4803 14.499 31.5178 14.3865 31.5741C14.3302 31.5929 14.2739 31.6116 14.2552 31.6491C14.2552 31.6491 14.2364 31.6491 14.2364 31.6679C14.1051 31.8555 13.9738 32.043 13.8425 32.2494C13.7112 32.4557 13.6174 32.6808 13.5049 32.9059C13.2986 33.356 13.111 33.825 12.9422 34.2939C12.7734 34.7628 12.5858 35.2505 12.417 35.7382C12.3232 35.982 12.2294 36.2259 12.1169 36.4697C12.0793 36.5823 12.0231 36.6948 11.9668 36.8073H13.5612C14.424 34.8754 16.0559 32.662 17.4064 32.1181C17.7815 31.968 23.8213 31.2177 27.8166 31.2177C29.2984 31.2177 30.3113 31.3303 30.874 31.5366C32.5059 32.1743 35.7696 35.1942 36.1072 36.8261H37.0263C36.8387 35.7945 36.4636 34.7816 36.0322 33.8062C35.5445 32.6808 34.963 31.6491 34.269 30.7676Z" fill="#BA8449"/>
<path d="M36.8951 33.3373C36.3886 32.2118 35.8072 31.1427 35.0381 30.1673C34.8505 29.9235 34.6442 29.6796 34.4191 29.4545C34.3629 29.3983 34.3066 29.342 34.2503 29.2857L34.2128 29.2482L34.194 29.2295L34.1565 29.1919C34.119 29.1732 34.0815 29.1544 34.0628 29.1357C34.0065 29.0982 33.9502 29.0794 33.8939 29.0606C33.6876 28.9856 33.5376 28.9669 33.3687 28.9293C32.731 28.8356 32.1308 28.8168 31.5305 28.798C30.3113 28.7793 29.1296 28.798 27.9292 28.8543C25.5283 28.9481 23.1461 29.1357 20.7639 29.3795C19.5822 29.5108 18.3818 29.6421 17.1813 29.8297C16.5811 29.9235 15.9996 30.0173 15.3994 30.1486C15.0993 30.2236 14.7992 30.2799 14.4991 30.3736C14.349 30.4112 14.199 30.4674 14.0301 30.5425C13.9551 30.58 13.8613 30.6175 13.7675 30.6738C13.73 30.7113 13.6738 30.73 13.6175 30.7675C13.5612 30.8051 13.5049 30.8613 13.4299 30.9551C13.2611 31.1614 13.0923 31.4053 12.9422 31.6304C12.7922 31.8555 12.6421 32.0993 12.5108 32.3431C12.2482 32.8121 12.0044 33.2998 11.7793 33.7874C11.573 34.2751 11.3666 34.7628 11.1978 35.2693C11.104 35.5131 11.029 35.7569 10.9727 36.0195C10.9352 36.1508 10.8977 36.2634 10.8602 36.3947L10.8039 36.5823L10.7852 36.676C10.7852 36.6948 10.8227 36.7136 10.8977 36.7698H10.9165H12.0044C12.0606 36.6573 12.0982 36.5447 12.1544 36.4322C12.2482 36.1884 12.3608 35.9445 12.4545 35.7194C12.6421 35.2317 12.8109 34.7628 12.9797 34.2751C13.1486 33.8062 13.3361 33.3185 13.5425 32.8871C13.655 32.662 13.7675 32.4557 13.8801 32.2306C14.0114 32.0243 14.1239 31.8367 14.274 31.6491C14.274 31.6491 14.2927 31.6491 14.2927 31.6304C14.3303 31.6116 14.3865 31.5929 14.424 31.5553C14.5366 31.5178 14.6679 31.4616 14.7992 31.424C15.0618 31.349 15.3431 31.274 15.6245 31.2177C16.1872 31.0864 16.7687 30.9926 17.3501 30.8988C18.5131 30.7113 19.6948 30.5612 20.8765 30.4299C23.2399 30.1673 25.6033 29.9797 27.9667 29.8672C29.1484 29.8109 30.3301 29.7734 31.5118 29.7922C32.0933 29.8109 32.6935 29.8297 33.2187 29.9047C33.35 29.9235 33.4813 29.961 33.5751 29.9797C33.5938 29.9797 33.6126 29.9797 33.6126 29.9985C33.6501 30.036 33.7064 30.0923 33.7439 30.1298C33.9502 30.3361 34.119 30.5425 34.3066 30.7488C35.0006 31.6304 35.5821 32.662 36.0698 33.7124C36.5012 34.6878 36.8763 35.7007 37.0639 36.7323H38.0017C37.908 36.1508 37.7579 35.5881 37.5891 35.0442C37.364 34.4627 37.1389 33.9 36.8951 33.3373Z" fill="#895B2E"/>
<path d="M30.7433 31.818C30.2556 31.6304 29.2615 31.5179 27.8359 31.5179C23.8219 31.5179 17.8946 32.2681 17.5758 32.3994C16.3566 32.8871 14.8372 34.9504 13.9932 36.7511H35.7327C35.3763 35.3443 32.3564 32.4557 30.7433 31.818Z" fill="#FFF8EE"/>
<path d="M30.8744 31.4616C30.3304 31.2552 29.2988 31.1427 27.8169 31.1427C23.8217 31.1427 17.7819 31.893 17.4067 32.043C16.0375 32.6058 14.4244 34.8003 13.5615 36.7323H13.9742C14.8183 34.9504 16.3376 32.8871 17.5568 32.3807C17.8757 32.2494 23.8029 31.4991 27.8169 31.4991C29.2425 31.4991 30.2366 31.5929 30.7243 31.7992C32.3374 32.4182 35.3573 35.3255 35.7137 36.7323H36.0888C35.77 35.1192 32.5062 32.0993 30.8744 31.4616Z" fill="#E5D0AE"/>
<path d="M38.3016 31.6304C38.0766 32.0993 36.8949 33.2998 35.9007 33.0184C35.3755 32.8684 35.4693 35.6444 36.6698 36.7511H38.8456C39.4458 35.7945 40.3837 32.8683 40.4962 32.5682C40.6275 32.2119 38.5267 31.1615 38.3016 31.6304Z" fill="#BA8449"/>
<path d="M40.6093 32.3244C40.5718 31.7242 40.2154 31.2928 39.5776 31.1427C39.0712 31.0302 38.3959 31.124 38.2271 31.4428C37.8895 32.0806 37.4768 32.8496 35.4323 32.9622C35.301 32.9622 35.1885 33.0935 35.1885 33.2248C35.1885 33.3561 35.3198 33.4686 35.4511 33.4686C37.5894 33.3748 38.2084 32.5495 38.6585 31.7054C38.7523 31.6304 39.2588 31.5366 39.6714 31.7054C39.9715 31.8367 40.1028 32.0431 40.1216 32.3619C40.1779 33.5249 38.9587 35.6819 38.3022 36.7699H38.8836C39.6152 35.4944 40.6656 33.5249 40.6093 32.3244Z" fill="#895B2E"/>
<g opacity="0.15">
<g opacity="0.15">
<path opacity="0.15" d="M36.3955 36.8074C37.7273 36.4885 38.909 35.1567 39.0028 33.2623C39.0215 32.9059 38.29 32.2306 38.29 32.0431C38.29 31.8555 40.5221 32.0806 40.6346 32.6058C40.7284 33.131 39.2466 36.3009 38.7402 36.8261C38.2525 37.3326 35.6077 36.9949 36.3955 36.8074Z" fill="#E3AB5E"/>
</g>
</g>
<path d="M37.4396 30.3361C37.2708 31.4991 39.5404 33.0934 41.0784 33.0559C42.3539 33.0184 43.7982 32.4182 43.5919 31.7054C43.3856 30.9739 42.1476 31.8367 42.0351 31.3303C41.9413 30.8426 43.4794 29.9235 42.8604 29.2482C42.2789 28.6292 41.6036 30.2236 40.9284 29.9985C40.2531 29.7734 41.0597 28.2166 40.2156 28.1228C39.2215 28.029 39.5966 30.2424 38.8464 30.2799C38.3212 30.3361 37.4958 29.961 37.4396 30.3361Z" fill="#FCD4C3"/>
<path d="M37.4396 30.3361C37.2708 31.4991 39.5404 33.0934 41.0784 33.0559C42.3539 33.0184 43.7982 32.4182 43.5919 31.7054C43.3856 30.9739 42.1476 31.8367 42.0351 31.3303C41.9413 30.8426 43.4794 29.9235 42.8604 29.2482C42.2789 28.6292 41.6036 30.2236 40.9284 29.9985C40.2531 29.7734 41.0597 28.2166 40.2156 28.1228C39.2215 28.029 39.5966 30.2424 38.8464 30.2799C38.3212 30.3361 37.4958 29.961 37.4396 30.3361Z" stroke="#F8A38F" stroke-width="2" stroke-miterlimit="10"/>
<g opacity="0.5">
<g opacity="0.5">
<path opacity="0.5" d="M38.084 30.3252C38.3278 30.5128 39.2094 30.7567 39.3407 30.4378C39.4908 30.1189 39.6033 29.4812 39.5095 29.3874C39.4345 29.6875 39.3407 30.2502 39.0218 30.3815C38.778 30.4753 38.2528 30.3628 38.084 30.3252Z" fill="#FCD4C3"/>
</g>
</g>
<g opacity="0.5">
<g opacity="0.5">
<path opacity="0.5" d="M40.5073 29.0873C40.4698 29.2936 40.301 30.269 40.8074 30.4003C41.2388 30.5129 41.5577 30.2503 41.8953 29.7063C41.7078 29.8751 41.2388 30.2878 40.8824 30.1377C40.5261 29.9689 40.4885 29.5938 40.5073 29.0873Z" fill="#FCD4C3"/>
</g>
</g>
<g opacity="0.25">
<g opacity="0.25">
<path opacity="0.25" d="M38.335 31.7163C40.8859 30.4596 41.4111 32.5041 41.2798 32.9168C40.2669 33.0856 38.485 32.0352 38.335 31.7163Z" fill="#FCD4C3"/>
</g>
</g>
<g opacity="0.5">
<g opacity="0.5">
<path opacity="0.5" d="M42.0447 30.9168C41.6133 31.4045 41.8196 31.7984 42.101 31.8546C42.4574 31.9297 42.9263 31.5545 42.8513 31.5545C42.7575 31.5545 42.0635 31.7796 41.9322 31.442C41.8384 31.1794 41.9884 31.0293 42.0447 30.9168Z" fill="#FCD4C3"/>
</g>
</g>
<g opacity="0.15">
<g opacity="0.15">
<path opacity="0.15" d="M12.9113 34.175C21.1082 38.883 37.3706 34.0999 36.5078 32.5619C35.3636 30.5173 34.9134 29.2418 32.4 29.3544C29.9053 29.4857 13.8492 30.7612 13.1927 31.2489C12.5549 31.7553 11.8422 33.556 12.9113 34.175Z" fill="#E3AB5E"/>
</g>
</g>
<path d="M30.7803 5.8956C34.4567 5.55797 36.6137 1.75027 38.8458 2.33174C37.3453 3.2696 35.8635 5.14531 33.7814 8.22148C33.275 8.95301 29.7674 5.98938 30.7803 5.8956Z" fill="#FFF8EE"/>
<path d="M30.7803 5.8956C34.4567 5.55797 36.6137 1.75027 38.8458 2.33174C37.3453 3.2696 35.8635 5.14531 33.7814 8.22148C33.275 8.95301 29.7674 5.98938 30.7803 5.8956Z" stroke="#E5D0AE" stroke-width="3" stroke-miterlimit="10" stroke-linecap="round" stroke-linejoin="round"/>
<path d="M7.80273 5.07029C9.45336 3.5322 12.4357 4.13243 14.8367 4.99526C16.2059 5.48294 17.9879 5.08904 18.1004 5.3704C18.4005 6.0269 16.6186 7.37741 15.1555 7.3399C13.7112 7.32114 11.2916 4.60136 7.80273 5.07029Z" fill="#BA8449"/>
<path d="M7.80273 5.07029C9.45336 3.5322 12.4357 4.13243 14.8367 4.99526C16.2059 5.48294 17.9879 5.08904 18.1004 5.3704C18.4005 6.0269 16.6186 7.37741 15.1555 7.3399C13.7112 7.32114 11.2916 4.60136 7.80273 5.07029Z" stroke="#895B2E" stroke-width="2" stroke-miterlimit="10" stroke-linecap="round" stroke-linejoin="round"/>
<path d="M33.2937 7.71505C34.1378 7.95889 37.3452 1.67525 38.9021 2.29424C43.854 4.26374 37.4015 11.8416 35.357 12.0104C33.2937 12.1605 32.8248 7.56499 33.2937 7.71505Z" fill="#FCD4C3"/>
<path d="M33.2937 7.71505C34.1378 7.95889 37.3452 1.67525 38.9021 2.29424C43.854 4.26374 37.4015 11.8416 35.357 12.0104C33.2937 12.1605 32.8248 7.56499 33.2937 7.71505Z" stroke="#F8A38F" stroke-width="2" stroke-miterlimit="10"/>
<path d="M15.4 6.96476C14.0307 7.56499 9.17263 2.48181 7.1281 5.74555C5.77759 7.90262 9.86664 12.2543 12.7928 12.7232C15.7189 13.1921 16.1128 6.64589 15.4 6.96476Z" fill="#FCD4C3"/>
<path d="M15.4 6.96476C14.0307 7.56499 9.17263 2.48181 7.1281 5.74555C5.77759 7.90262 9.86664 12.2543 12.7928 12.7232C15.7189 13.1921 16.1128 6.64589 15.4 6.96476Z" stroke="#F8A38F" stroke-width="2" stroke-miterlimit="10"/>
<path d="M37.1143 3.51355C36.8517 4.37638 34.6384 6.60848 34.9385 8.52171C35.051 9.23448 35.8013 11.3353 36.1202 11.2602C36.4391 11.1852 37.2456 10.6788 37.1706 10.7913C37.0956 10.9039 36.0452 11.6729 35.6513 11.8792C35.2574 11.6729 33.588 7.79018 33.8318 7.58385C34.5634 6.92735 36.7955 3.55106 37.1143 3.51355Z" fill="#FCD4C3"/>
<path d="M7.19043 5.87695C8.691 4.95785 11.4295 5.35175 13.0239 6.90859C13.5866 7.47131 13.7554 9.34702 12.4799 10.6225C11.9735 11.129 15.4811 8.82182 15.4998 8.14656C15.4998 7.47131 15.2748 7.28374 14.7496 7.09616C12.8176 6.38339 10.7918 4.73277 9.02863 4.77028C7.88444 4.78904 7.35924 5.57684 7.19043 5.87695Z" fill="#FCD4C3"/>
<g opacity="0.25">
<g opacity="0.25">
<path opacity="0.25" d="M37.7204 3.02107C41.1342 4.89679 35.6384 7.74787 36.0511 11.293C35.3383 11.2179 33.5751 7.78539 34.0065 7.48527C34.6068 7.07262 37.139 2.87102 37.7204 3.02107Z" fill="#FCD4C3"/>
</g>
</g>
<path d="M11.3859 14.5426C11.4421 14.2988 11.4796 14.0362 11.4796 13.7923C11.4984 13.5297 11.5172 13.2671 11.5734 13.0233C11.5922 12.892 11.6297 12.7607 11.686 12.6482C11.7422 12.5356 11.7798 12.4043 11.8173 12.2918C11.9111 12.0479 12.0048 11.8041 12.1174 11.579C12.5488 10.6224 13.0365 9.72205 13.6367 8.87798C14.2369 8.03391 14.8934 7.24611 15.6437 6.57085C16.394 5.87684 17.2756 5.31413 18.2135 4.93898C19.1513 4.54508 20.1642 4.30124 21.1771 4.1887C22.19 4.0574 23.2029 4.03864 24.2157 4.0574C25.2286 4.07616 26.2415 4.13243 27.2544 4.26373C28.2673 4.39503 29.2802 4.62011 30.2555 4.9765C30.7432 5.16407 31.2121 5.3704 31.6623 5.633C32.1125 5.8956 32.5439 6.21447 32.9378 6.58961C33.3317 6.946 33.6693 7.37741 33.9507 7.82758C34.232 8.27775 34.4384 8.76544 34.6259 9.27188C34.7948 9.75957 34.9261 10.266 35.0386 10.7725C35.1511 11.2789 35.2262 11.7666 35.3387 12.2355C35.395 12.4606 35.47 12.6857 35.545 12.9108C35.6388 13.1358 35.7326 13.3797 35.8076 13.6235C35.9765 14.0925 36.164 14.5801 36.3328 15.0491C36.9893 16.9623 37.5708 18.913 37.9272 20.9013C38.096 21.8954 38.2273 22.9083 38.2461 23.9212C38.2648 24.9341 38.171 25.947 37.8897 26.9223C37.8147 27.1662 37.7396 27.41 37.6458 27.6351C37.5521 27.8602 37.4208 28.0853 37.3457 28.3291C37.3082 28.4604 37.2707 28.573 37.2144 28.6855C37.1582 28.798 37.0831 28.9106 37.0081 29.0231C36.8768 29.2295 36.708 29.4546 36.5392 29.6421C35.8827 30.4299 35.0386 31.0677 34.1383 31.5553C33.2379 32.043 32.2625 32.4182 31.2872 32.6995C30.293 32.9809 29.3177 33.206 28.3048 33.3935C27.2919 33.5811 26.2978 33.7124 25.3037 33.8437C24.7972 33.9 24.2908 33.9563 23.7843 34.0125L23.034 34.0876C22.7902 34.1063 22.5276 34.1251 22.265 34.1438C20.2017 34.2564 18.1384 33.9563 16.1689 33.4123C15.1748 33.1309 14.2182 32.7933 13.2803 32.3807C12.3425 31.968 11.4234 31.4991 10.5605 30.9364C10.1291 30.655 9.69772 30.3361 9.30382 29.9797C9.21004 29.886 9.09749 29.7922 9.00371 29.6984C8.90992 29.6046 8.83489 29.4921 8.74111 29.3983C8.57229 29.1919 8.40348 28.9856 8.25342 28.7793C7.67195 27.9165 7.20302 26.9036 7.05297 25.8532C6.88415 24.784 7.03421 23.6961 7.33432 22.702C7.63444 21.6891 8.10337 20.77 8.59105 19.8697C9.09749 18.9881 9.64145 18.1252 10.1666 17.2812C10.4292 16.8498 10.6731 16.4183 10.8982 15.9869C11.1045 15.4242 11.2921 14.9928 11.3859 14.5426ZM12.1361 14.7114C12.0048 15.2366 11.7798 15.7243 11.5359 16.1933C11.2921 16.6622 11.0295 17.0936 10.7669 17.525C10.2417 18.3878 9.69772 19.2319 9.22879 20.0947C8.75987 20.9576 8.32845 21.8579 8.06585 22.777C7.80325 23.6961 7.69071 24.6527 7.84077 25.5906C7.99082 26.5097 8.38472 27.3913 8.94744 28.1603C9.07874 28.3479 9.24755 28.5354 9.39761 28.723C9.47264 28.8168 9.56642 28.9106 9.64145 28.9856C9.71648 29.0794 9.81026 29.1544 9.88529 29.2295C10.2229 29.5483 10.6168 29.8297 11.0295 30.111C11.8548 30.6362 12.7176 31.1052 13.6367 31.4991C14.5371 31.893 15.4749 32.2306 16.4315 32.4932C17.3881 32.7558 18.3448 32.9621 19.3201 33.0934C20.2955 33.2247 21.2709 33.2622 22.2462 33.2247C22.4901 33.206 22.7339 33.1872 22.9778 33.1685L23.7281 33.0934C24.2157 33.0559 24.7222 32.9996 25.2286 32.9434C26.2227 32.8496 27.2169 32.7183 28.1922 32.5495C29.1864 32.3807 30.143 32.1931 31.0996 31.9305C32.0562 31.6679 32.9941 31.3678 33.8944 30.9739C34.776 30.5612 35.6388 30.0548 36.3328 29.3608C36.5017 29.192 36.6705 29.0044 36.8205 28.8168C36.8956 28.723 36.9706 28.6105 37.0456 28.5167C37.1206 28.4229 37.2144 28.3291 37.2895 28.2166C37.4583 28.0103 37.5333 27.7852 37.6458 27.5601C37.7396 27.335 37.8147 27.0912 37.8709 26.8473C38.1148 25.8719 38.171 24.8591 38.1148 23.8649C38.0397 22.8708 37.8709 21.8767 37.6271 20.9013C37.1582 18.9506 36.4641 17.0748 35.7326 15.2179C35.545 14.749 35.3575 14.28 35.1699 13.8299L34.8698 13.1358C34.776 12.892 34.6822 12.6294 34.6072 12.3856C34.4759 11.8791 34.3821 11.3914 34.2696 10.9037C34.1758 10.4161 34.0445 9.94714 33.8944 9.49697C33.5755 8.57787 33.1066 7.75255 32.4126 7.09605C31.7373 6.43955 30.8933 5.93311 29.9929 5.55797C29.0926 5.18283 28.1172 4.93898 27.1418 4.77017C26.1665 4.60136 25.1724 4.50757 24.1782 4.4513C23.1841 4.41378 22.1712 4.39503 21.1771 4.50757C20.183 4.62011 19.2076 4.82644 18.2885 5.22034C17.3694 5.59548 16.5253 6.13944 15.8125 6.8147C15.081 7.48995 14.4995 8.31527 14.0681 9.17809C13.618 10.0597 13.2991 10.9975 13.0177 11.9354C12.9427 12.1605 12.8864 12.4043 12.8302 12.6482C12.7926 12.7607 12.7739 12.892 12.7364 13.0045C12.7176 13.0608 12.7176 13.1358 12.6989 13.1921C12.6801 13.2484 12.6613 13.3047 12.6238 13.3609C12.53 13.586 12.4175 13.8111 12.305 14.0362C12.2674 14.2425 12.1924 14.4676 12.1361 14.7114Z" fill="#E5D0AE"/>
<path d="M11.7609 14.6364C10.9731 18.1253 4.0892 23.6399 9.32243 29.2857C11.1044 31.199 16.8816 34.1438 22.6775 33.5999C37.7582 32.1743 41.5659 28.5355 35.2073 12.9295C34.1756 10.3973 35.3386 4.5451 24.2531 4.20747C19.6013 4.07617 14.0117 4.71391 11.7609 14.6364Z" fill="#FFF8EE"/>
<path d="M14.3683 7.80885C14.856 7.05856 15.4937 6.43958 16.2065 5.93314C16.9193 5.42669 17.7258 5.05155 18.5324 4.75144C20.183 4.15121 21.9087 3.92612 23.6343 3.86985C25.36 3.83234 27.1044 3.96364 28.7925 4.39505C29.6366 4.62014 30.4619 4.92025 31.2497 5.35167C32.0375 5.78308 32.7691 6.30828 33.388 6.96478C34.007 7.62128 34.5135 8.35281 34.9074 9.15936C35.3013 9.96592 35.5826 10.81 35.789 11.6541C35.9953 12.5169 36.1266 13.361 36.2391 14.205C36.2954 14.6364 36.3517 15.0491 36.4455 15.443C36.483 15.6493 36.5392 15.8369 36.5955 15.987C36.6143 16.0245 36.633 16.062 36.6518 16.0995L36.6705 16.1183L36.6893 16.137L36.7268 16.212L36.8956 16.4934C37.7209 18.0127 38.3399 19.6821 38.565 21.4265C38.6776 22.2894 38.6963 23.1709 38.6025 24.0525C38.5087 24.9153 38.2837 25.7782 37.946 26.5847C37.7772 26.9786 37.5896 27.3725 37.3646 27.7664C37.3083 27.8602 37.252 27.954 37.1957 28.0478C37.1395 28.1416 37.0832 28.2166 37.0082 28.3291C36.9894 28.3479 36.9894 28.3667 36.9707 28.3854C36.9144 28.3479 37.0457 28.5167 36.6705 28.3854C36.5768 28.2166 36.633 28.2541 36.6143 28.2166C36.6143 28.1603 36.633 28.1416 36.633 28.1041L36.6893 27.9352L36.7831 27.6351C37.0457 26.8286 37.2708 26.022 37.3646 25.1779C37.4021 24.7653 37.4208 24.3526 37.3646 23.9212C37.3083 23.5086 37.1957 23.1147 36.9894 22.777C36.9331 22.6833 36.8769 22.6082 36.8018 22.5332C36.7268 22.4582 36.6705 22.3831 36.5955 22.3081C36.4455 22.1581 36.2954 22.0268 36.1266 21.8955C35.789 21.6329 35.4326 21.4265 35.0574 21.239C34.2884 20.9013 33.4443 20.77 32.619 20.8075C31.7749 20.8451 30.9496 21.0139 30.1431 21.239C29.7304 21.3515 29.3365 21.4828 28.9238 21.6141C28.7175 21.6891 28.5112 21.7454 28.3049 21.8017C28.1923 21.8392 28.0985 21.8579 27.9672 21.8767C27.8547 21.8955 27.7609 21.9142 27.6484 21.9142C26.7855 22.008 25.9415 22.0643 25.0599 22.0455C24.1971 22.0268 23.3342 21.933 22.4714 21.7454C21.6273 21.5578 20.7833 21.2765 19.9955 20.9201C19.2077 20.5449 18.4574 20.0948 17.7821 19.5321C17.1069 18.9693 16.5066 18.3316 15.9814 17.6376C14.931 16.2308 14.237 14.5989 13.8994 12.892C13.7306 12.0292 13.6555 11.1664 13.6931 10.2848C13.7118 9.85338 13.7681 9.40321 13.8619 8.97179C13.9744 8.63416 14.1245 8.20275 14.3683 7.80885ZM14.7435 8.05269C14.5371 8.39032 14.4058 8.76546 14.312 9.17812C14.2183 9.57202 14.1807 9.98468 14.1432 10.3973C14.1057 11.2226 14.1995 12.0667 14.3683 12.8733C14.7247 14.5051 15.4187 16.062 16.4316 17.375C16.938 18.0315 17.5195 18.6317 18.1573 19.1569C18.795 19.6821 19.5078 20.1323 20.2581 20.4887C21.0083 20.8451 21.7961 21.1077 22.6215 21.2952C23.428 21.4828 24.2721 21.5953 25.0974 21.6141C25.9415 21.6516 26.7668 21.6141 27.6108 21.5203L27.9297 21.4828C28.0235 21.464 28.1173 21.4453 28.2298 21.4265C28.4362 21.3703 28.6237 21.314 28.8301 21.2577C29.2427 21.1452 29.6554 21.0139 30.068 20.9201C30.8933 20.7138 31.7562 20.5637 32.6378 20.5637C33.5006 20.5637 34.3822 20.7138 35.17 21.0889C35.5639 21.2765 35.939 21.5016 36.2766 21.7642C36.4455 21.8955 36.6143 22.0455 36.7643 22.1956C36.8394 22.2706 36.9144 22.3456 36.9894 22.4207C37.0644 22.4957 37.1395 22.5895 37.1957 22.6833C37.4396 23.0584 37.5709 23.4898 37.6272 23.94C37.6834 24.3901 37.6834 24.8216 37.6459 25.253C37.5709 26.1158 37.3833 26.9599 37.1395 27.7852L37.0457 28.0853L37.0082 28.2354C37.0082 28.2541 36.9894 28.2916 37.0082 28.2916C36.9894 28.2729 37.0457 28.3291 36.9707 28.1603C36.6143 28.029 36.7456 28.1978 36.7081 28.1416C36.7456 28.0665 36.8018 27.9728 36.8581 27.879C36.9144 27.7852 36.9519 27.6914 37.0082 27.5976C37.1957 27.2225 37.3646 26.8473 37.5146 26.4534C38.0773 24.8966 38.1899 23.1897 37.9085 21.5578C37.7772 20.7325 37.5334 19.9447 37.2333 19.1757C36.9331 18.4066 36.5768 17.6563 36.1641 16.9248L36.014 16.6622L35.9765 16.5872L35.9578 16.5497L35.939 16.5122C35.9015 16.4559 35.8827 16.3996 35.864 16.3433C35.7702 16.1183 35.7139 15.8744 35.6577 15.6681C35.5639 15.2367 35.4888 14.8053 35.4326 14.3926C35.3013 13.5485 35.1887 12.7232 34.9824 11.9167C34.7948 11.1101 34.5322 10.3223 34.1758 9.59078C33.8195 8.85925 33.388 8.18399 32.8253 7.58376C31.7374 6.40206 30.2368 5.61427 28.6425 5.14534C27.0481 4.67641 25.36 4.52635 23.6719 4.52635C22.0025 4.52635 20.3143 4.73268 18.7387 5.25788C17.9509 5.52048 17.2006 5.87687 16.5066 6.34579C15.7939 6.79596 15.1936 7.35868 14.7435 8.05269Z" fill="#E5BFA1"/>
<path d="M14.1433 7.71505C14.4246 7.26488 14.7622 6.90849 15.0999 6.57087C15.4563 6.23324 15.8314 5.95188 16.2253 5.68928C17.0131 5.16408 17.8572 4.75142 18.7388 4.43255C20.5019 3.81357 22.3589 3.56973 24.1971 3.60724C26.0165 3.66351 27.8547 3.8886 29.6179 4.52634C30.4995 4.84521 31.3435 5.25787 32.1126 5.82058C32.8816 6.36454 33.5569 7.03979 34.1196 7.80884C34.6636 8.57788 35.0762 9.42195 35.3951 10.3035C35.6952 11.1851 35.9015 12.0855 36.0516 12.967C36.1266 13.4172 36.1829 13.8486 36.2579 14.2988C36.3329 14.7302 36.3892 15.1804 36.4642 15.5743C36.5018 15.7806 36.558 15.9682 36.633 16.1182L36.6518 16.1558L36.6706 16.1933L36.7081 16.2683L36.7831 16.4184L36.9519 16.7185C37.1582 17.1124 37.3646 17.525 37.5521 17.9377C37.9085 18.763 38.2086 19.6446 38.415 20.5449C38.6213 21.4265 38.7151 22.3456 38.7151 23.2647C38.6963 25.1029 38.1899 26.9223 37.2333 28.4792C37.1582 28.5917 37.0082 28.648 36.8956 28.573C36.7831 28.4979 36.7456 28.3666 36.7831 28.2729C37.0457 27.5976 37.3271 26.9599 37.5334 26.3034C37.7585 25.6469 37.9085 24.9716 37.9085 24.3151C37.9085 23.6586 37.7397 23.0209 37.3458 22.5144C37.3271 22.4769 37.2895 22.4394 37.2708 22.4206L37.2333 22.3831L37.1958 22.3269C37.1395 22.2706 37.0832 22.2143 37.027 22.158C36.9144 22.0455 36.7831 21.933 36.6518 21.8392C36.3892 21.6328 36.0891 21.4453 35.8077 21.2577C34.626 20.5262 33.3693 19.8884 32.0938 19.2507C30.8183 18.6317 29.5241 18.0315 28.2486 17.45C25.6601 16.2683 23.0716 15.0866 20.5207 13.8111C19.2452 13.1546 17.9885 12.4981 16.7505 11.7103C16.094 11.2414 15.4938 10.8287 14.9123 10.3035C14.6309 10.0409 14.3496 9.74082 14.1245 9.32816C14.012 9.12184 13.9182 8.87799 13.8994 8.57788C13.8994 8.42782 13.8994 8.27776 13.9369 8.12771C13.9557 8.05268 13.9744 7.97765 14.012 7.90262C14.0307 7.84635 14.087 7.73381 14.1057 7.71505H14.1433ZM15.1937 8.35279C15.1561 8.40906 15.1749 8.39031 15.1561 8.40906C15.1561 8.42782 15.1561 8.42782 15.1374 8.44658C15.1374 8.46534 15.1374 8.48409 15.1374 8.52161C15.1374 8.57788 15.1749 8.67166 15.2124 8.78421C15.325 9.00929 15.5313 9.25313 15.7564 9.45946C16.2253 9.90963 16.7693 10.3223 17.3507 10.6974C18.4949 11.4665 19.7329 12.1417 20.9896 12.817C23.4843 14.13 26.054 15.3492 28.605 16.5872C29.8805 17.2062 31.156 17.8439 32.4315 18.4816C33.7069 19.1381 34.9637 19.7946 36.1829 20.6012C36.483 20.8075 36.7831 21.0139 37.0645 21.2577C37.2145 21.3702 37.3458 21.5015 37.4959 21.6328C37.5709 21.7079 37.6272 21.7641 37.7022 21.8579L37.7397 21.9142L37.796 21.9705C37.8335 22.008 37.8523 22.0455 37.8898 22.083C38.1149 22.4019 38.2837 22.7583 38.3962 23.1334C38.5088 23.5085 38.5275 23.9025 38.5275 24.2776C38.5088 25.0279 38.3024 25.7594 38.0586 26.4534C37.8147 27.1474 37.5146 27.7852 37.2333 28.4417L36.7831 28.2166C37.6647 26.716 38.0773 24.9904 38.0586 23.2647C38.0211 21.5391 37.5709 19.8322 36.8394 18.2566C36.6518 17.8627 36.4642 17.4688 36.2391 17.0936L35.9015 16.4934C35.7702 16.2495 35.714 16.0057 35.6577 15.7806C35.5451 15.3117 35.4701 14.8803 35.3951 14.4301C35.32 13.9799 35.245 13.5485 35.17 13.1359C35.0012 12.273 34.7949 11.4477 34.4947 10.6412C34.1946 9.85336 33.8007 9.08432 33.313 8.42782C32.8254 7.75256 32.2064 7.17109 31.5311 6.70217C30.8371 6.23324 30.0868 5.8581 29.2803 5.5955C27.6671 5.05154 25.9415 4.86397 24.2158 4.84521C23.353 4.84521 22.5089 4.88272 21.6649 5.03278C20.8208 5.16408 19.9955 5.37041 19.2077 5.65177C18.4199 5.93312 17.6508 6.28951 16.9568 6.73968C16.6004 6.96477 16.2816 7.20861 15.9815 7.48996C15.6813 7.77132 15.4 8.05268 15.1937 8.35279Z" fill="#895B2E"/>
<path d="M14.5559 7.92138C12.4926 11.1101 14.9498 23.3585 27.911 21.7079C29.2802 21.5391 33.8382 19.1006 36.9144 22.5144C38.5838 24.3901 36.3329 29.1357 36.9144 28.1416C37.5709 27.0537 40.0843 22.8521 36.3141 16.3808C35.1137 14.2988 37.1019 4.30126 24.122 4.16996C19.1514 4.1512 15.9252 5.80183 14.5559 7.92138Z" fill="#BA8449"/>
<g opacity="0.15">
<g opacity="0.15">
<path opacity="0.15" d="M14.2119 8.69662C17.9446 6.29571 29.2364 6.46452 32.8378 12.223C35.2387 16.0494 30.8495 25.503 29.2176 26.7035C27.6045 27.9039 25.3537 28.9543 19.4264 27.5288C14.3995 26.3283 21.9586 21.6578 16.0689 20.9825C10.6856 20.3636 10.1416 11.3226 14.2119 8.69662Z" fill="#E3AB5E"/>
</g>
</g>
<g opacity="0.25">
<g opacity="0.25">
<path opacity="0.25" d="M24.6474 17.9876C24.6474 18.2689 24.1035 18.5128 23.4282 18.5128C22.7529 18.5128 22.209 18.2877 22.209 17.9876C22.209 17.7062 22.7529 17.4624 23.4282 17.4624C24.1035 17.4811 24.6474 17.7062 24.6474 17.9876Z" fill="#E3AB5E"/>
</g>
</g>
<path d="M22.4896 16.4559C22.771 16.2683 24.2716 16.3246 24.4591 16.5309C24.6467 16.7185 25.0594 17.5063 24.5904 17.8439C24.4216 17.9564 24.4216 17.4875 24.0465 17.5625C23.5963 17.6563 23.8401 18.2378 23.4838 18.2378C22.9398 18.219 23.465 17.6 22.9961 17.525C22.6397 17.45 22.5647 17.8064 22.3958 17.7689C21.8519 17.6563 22.0957 16.7185 22.4896 16.4559Z" fill="#F8A38F"/>
<path d="M23.3 16.3443C22.9436 16.3443 22.606 16.3818 22.4935 16.4569C22.0996 16.7195 21.8557 17.6573 22.3809 17.7511H22.3997C22.531 17.7511 22.606 17.4885 22.8874 17.4885C22.9249 17.4885 22.9436 17.4885 22.9811 17.4885C23.4501 17.5635 22.9436 18.2013 23.4688 18.2013C23.8065 18.2013 23.5626 17.6386 24.0315 17.5448C24.0691 17.5448 24.0878 17.5448 24.1066 17.5448C24.3692 17.5448 24.4067 17.8449 24.5192 17.8449C24.538 17.8449 24.5567 17.8449 24.5755 17.8261C25.0632 17.4885 24.6505 16.7007 24.4442 16.5131C24.3504 16.4194 23.8065 16.3443 23.3 16.3443ZM23.3 16.4756C23.8627 16.4756 24.2941 16.5507 24.3692 16.6069C24.4817 16.7195 24.7068 17.1321 24.6693 17.4322C24.6505 17.5448 24.613 17.6386 24.538 17.6948C24.538 17.6761 24.5192 17.6761 24.5005 17.6573C24.4254 17.5635 24.3129 17.4135 24.1066 17.4135C24.0691 17.4135 24.0315 17.4135 24.0128 17.4322C23.6939 17.5073 23.6376 17.7511 23.5814 17.9199C23.5439 18.0887 23.5251 18.0887 23.4688 18.0887C23.3188 18.0887 23.3188 18.0512 23.3188 17.8824C23.3188 17.7136 23.3188 17.451 22.9811 17.3947C22.9436 17.3947 22.9061 17.3947 22.8686 17.3947C22.6623 17.3947 22.531 17.526 22.4372 17.6011C22.4184 17.6198 22.3809 17.6573 22.3622 17.6573C22.2871 17.6386 22.2121 17.6011 22.1746 17.451C22.1183 17.1884 22.3059 16.7382 22.5122 16.5882C22.6248 16.5131 22.8874 16.4756 23.3 16.4756Z" fill="#F8A38F"/>
<g opacity="0.25">
<g opacity="0.25">
<path opacity="0.25" d="M35.0004 21.3796C35.5632 24.981 31.0614 29.5015 25.0029 30.4393C18.9443 31.3584 14.4801 25.9564 13.9174 22.3363C13.3547 18.7349 17.0686 20.1042 23.1272 19.1851C29.1857 18.266 34.4377 17.7783 35.0004 21.3796Z" fill="#F7E8D0"/>
</g>
</g>
<g opacity="0.5">
<g opacity="0.5">
<path opacity="0.5" d="M19.1911 26.8617C19.0223 26.5991 18.9285 26.2802 18.8347 25.9801C18.741 25.68 18.6472 25.3799 18.5534 25.0797C18.3658 24.4795 18.1595 23.8793 17.8781 23.3166C17.5968 22.7539 17.2404 22.2287 16.7902 21.8348C16.34 21.4409 15.7961 21.1783 15.2146 21.0657C15.0083 20.9907 14.9145 20.7844 14.9895 20.5968C15.0646 20.4092 15.2521 20.3154 15.4209 20.353C16.7715 20.6718 18.1782 20.8219 19.5663 20.8406C20.9543 20.8594 22.3798 20.7844 23.7866 20.6156C25.1934 20.4467 26.5814 20.2029 27.9507 19.884C29.32 19.5652 30.6892 19.19 32.021 18.7398C32.2273 18.6648 32.4337 18.7774 32.4899 18.9649C32.5462 19.115 32.4899 19.265 32.3774 19.3588C32.3399 19.3963 32.2648 19.4526 32.2086 19.5089C32.1523 19.5652 32.096 19.6402 32.0398 19.6965C31.9272 19.8278 31.8147 19.9778 31.7021 20.1279C31.477 20.428 31.2707 20.7281 31.0831 21.047C30.6705 21.666 30.2953 22.3037 29.939 22.9602C29.5826 23.6167 29.2262 24.2732 28.9073 24.9297C28.7385 25.2673 28.5884 25.6049 28.4571 25.9426C28.3821 26.1114 28.3258 26.2802 28.2508 26.4678C28.2133 26.5616 28.1945 26.6366 28.1758 26.7304C28.1758 26.7304 28.1758 26.7491 28.1758 26.7679C28.1758 26.7866 28.1758 26.7866 28.157 26.8054C28.157 26.8242 28.1383 26.8429 28.1195 26.8429C28.1008 26.8617 28.082 26.8804 28.0445 26.8992C28.007 26.9367 27.9507 26.9555 27.9132 26.9742C27.5568 27.1243 27.1817 27.1993 26.8253 27.2743C26.4689 27.3494 26.0938 27.4056 25.7186 27.4431C24.9683 27.5369 24.2368 27.612 23.4865 27.6307C22.7362 27.6682 21.9859 27.6682 21.2544 27.5932C20.8793 27.5557 20.5041 27.4994 20.1477 27.4056C19.9602 27.3494 19.7914 27.2931 19.6225 27.1993C19.4537 27.1243 19.3037 27.0117 19.1911 26.8617ZM19.2099 26.8429C19.3037 26.993 19.4725 27.1055 19.6413 27.1805C19.8101 27.2556 19.9789 27.3118 20.1665 27.3681C20.5229 27.4619 20.898 27.5182 21.2732 27.5369C22.0235 27.5932 22.755 27.5932 23.5053 27.5557C24.2556 27.5182 24.9871 27.4244 25.7186 27.3306C26.075 27.2743 26.4501 27.2181 26.8065 27.1243C27.1629 27.0305 27.538 26.9555 27.8569 26.8054C27.8944 26.7866 27.9319 26.7679 27.9695 26.7304C28.007 26.7116 28.0257 26.6929 28.0257 26.6741C28.0445 26.5803 28.0632 26.4865 28.1008 26.3927C28.157 26.2052 28.2133 26.0364 28.2696 25.8488C28.4009 25.4924 28.5322 25.1548 28.6822 24.7984C28.9823 24.1044 29.2825 23.4291 29.6013 22.7539C29.9202 22.0786 30.2578 21.4034 30.6142 20.7469C30.783 20.4092 30.9706 20.0904 31.1769 19.7527C31.2707 19.5839 31.3833 19.4151 31.4958 19.265C31.5521 19.19 31.6083 19.0962 31.6646 19.0212C31.7396 18.9462 31.7959 18.8524 31.8897 18.7774L32.2461 19.4151C30.8768 19.884 29.5075 20.2592 28.1008 20.578C26.694 20.8969 25.2872 21.1595 23.8617 21.3283C22.4361 21.4971 20.9918 21.5909 19.5475 21.5534C18.1032 21.5159 16.6589 21.3471 15.2334 21.0095L15.4397 20.2592C16.0587 20.6343 16.6214 20.9907 17.0528 21.4971C17.4842 22.0036 17.7843 22.5851 18.0282 23.1853C18.2533 23.7855 18.4408 24.4045 18.5909 25.0047C18.6659 25.3048 18.7597 25.6237 18.8347 25.9238C18.9473 26.2802 19.0411 26.5803 19.2099 26.8429Z" fill="#D8CAB2"/>
</g>
</g>
<g opacity="0.5">
<g opacity="0.5">
<path opacity="0.5" d="M19.1947 26.8639C19.0259 26.6013 18.9321 26.3012 18.8383 26.001C18.7445 25.7009 18.6695 25.4008 18.5757 25.1007C18.3882 24.5005 18.2006 23.9002 17.9192 23.3188C17.6566 22.7561 17.3003 22.2309 16.8688 21.8182C16.4187 21.3868 15.8747 21.0867 15.2932 20.9554V20.9366C15.1995 20.8991 15.1432 20.7866 15.1807 20.6928C15.2182 20.599 15.312 20.5427 15.4058 20.5615C16.7751 20.8803 18.1818 21.0304 19.6074 21.0492C21.0329 21.0679 22.4397 20.9929 23.8465 20.8241C25.2533 20.6553 26.6413 20.3927 28.0293 20.0925C29.4174 19.7737 30.7866 19.3985 32.1184 18.9484C32.2122 18.9109 32.3247 18.9671 32.3622 19.0609C32.381 19.1359 32.3622 19.211 32.306 19.2672C32.1934 19.361 32.0621 19.5111 31.9496 19.6424C31.837 19.7737 31.7245 19.9425 31.6119 20.0738C31.4056 20.3739 31.1993 20.6928 31.0117 21.0116C30.6178 21.6306 30.2427 22.2871 29.8863 22.9436C29.5299 23.6001 29.1923 24.2566 28.8922 24.9319C28.7421 25.2695 28.592 25.6071 28.442 25.9448C28.367 26.1136 28.3107 26.2824 28.2544 26.47C28.2169 26.5638 28.1981 26.6388 28.1794 26.7326C28.1606 26.8076 28.1044 26.8264 28.0668 26.8639C28.0293 26.9014 27.9731 26.9201 27.9355 26.9389C27.5792 27.089 27.204 27.164 26.8476 27.239C26.4912 27.314 26.1161 27.3703 25.741 27.4266C25.0094 27.5204 24.2591 27.5954 23.5089 27.6329C22.7586 27.6704 22.0083 27.6704 21.2768 27.5954C20.9016 27.5579 20.5265 27.5016 20.1701 27.4078C19.9825 27.3516 19.8137 27.2953 19.6449 27.2203C19.4573 27.1265 19.2885 27.0139 19.1947 26.8639ZM19.1947 26.8451C19.2885 26.9952 19.4573 27.1077 19.6261 27.2015C19.795 27.2765 19.9638 27.3328 20.1513 27.3891C20.5077 27.4829 20.8829 27.5391 21.258 27.5579C22.0083 27.6329 22.7398 27.6142 23.4901 27.5766C24.2404 27.5391 24.9719 27.4641 25.7222 27.3516C26.0786 27.2953 26.4537 27.239 26.8289 27.1452C27.1853 27.0702 27.5604 26.9764 27.8793 26.8264C27.9168 26.8076 27.9543 26.7888 27.9918 26.7513C28.0293 26.7326 28.0668 26.6951 28.0668 26.6763C28.0856 26.5825 28.1044 26.4887 28.1419 26.3949C28.1981 26.2074 28.2544 26.0386 28.3294 25.8697C28.4607 25.5134 28.6108 25.1757 28.7609 24.8381C29.061 24.1441 29.3798 23.4876 29.7175 22.8123C30.0551 22.1371 30.3927 21.4806 30.7679 20.8241C30.9554 20.4865 31.143 20.1676 31.3493 19.8675C31.4431 19.6986 31.5557 19.5486 31.6682 19.3985C31.7808 19.2485 31.8933 19.0984 32.0621 18.9484L32.2497 19.286C30.8992 19.7549 29.5111 20.1301 28.1231 20.4489C26.7351 20.7678 25.3283 21.0116 23.9028 21.1992C22.4772 21.368 21.0517 21.4618 19.6074 21.4243C18.1818 21.3868 16.7375 21.2367 15.3308 20.9179L15.4245 20.5615C16.0435 20.8053 16.6062 21.1805 17.0377 21.6681C17.4691 22.1558 17.7879 22.7185 18.0318 23.3C18.2756 23.8815 18.4632 24.4817 18.632 25.1007C18.707 25.4008 18.8008 25.7009 18.8946 26.0198C18.9321 26.2824 19.0259 26.5825 19.1947 26.8451Z" fill="#D8CAB2"/>
</g>
</g>
<path d="M19.2075 26.8473C20.1641 28.3479 27.9859 27.3163 28.1172 26.716C28.4548 25.1967 31.2683 19.8322 32.1687 19.0819C30.5556 19.6446 22.1711 22.3269 15.3623 20.695C18.4197 21.7266 18.4572 25.6844 19.2075 26.8473Z" fill="#333333"/>
<path d="M32.1404 19.11C30.8836 19.5414 25.5941 21.2483 20.1171 21.2483C18.5039 21.2483 16.8908 21.0983 15.334 20.7419C18.4102 21.736 18.4477 25.7125 19.1979 26.8755C19.5543 27.4382 20.9236 27.6445 22.4804 27.6445C24.9939 27.6445 28.0138 27.1193 28.1076 26.7442C28.4452 25.2061 31.24 19.8415 32.1404 19.11ZM31.09 19.8415C29.8708 21.6797 28.1076 25.2248 27.7512 26.5566C27.2823 26.8192 24.8626 27.2694 22.4804 27.2694C20.5672 27.2694 19.7044 26.9505 19.5168 26.6691C19.3293 26.3878 19.1792 25.8626 19.0291 25.2624C18.7103 24.1182 18.2601 22.5426 17.1909 21.4547C18.1288 21.5672 19.1042 21.6235 20.1358 21.6235C24.6 21.6047 28.9704 20.4793 31.09 19.8415Z" fill="#333333"/>
<path d="M22.4151 27.6351C20.802 27.6351 19.7516 27.41 19.3389 26.9599C19.3014 26.9223 19.3014 26.6973 19.489 26.2658C19.9392 25.2342 21.3272 23.471 23.7281 23.321C23.8969 23.321 24.047 23.3022 24.197 23.3022C27.0106 23.3022 28.6987 24.7278 28.6987 24.9716C28.6612 25.0466 28.6237 25.1592 28.5674 25.3092C28.4174 25.6656 28.1923 26.2283 27.986 26.8286C27.7421 27.0724 24.9286 27.6351 22.4151 27.6351Z" fill="#FCD4C3"/>
<path d="M24.1972 23.2085C24.0284 23.2085 23.8783 23.2085 23.7095 23.2272C20.427 23.4335 18.9077 26.6785 19.2453 27.0724C19.733 27.5976 20.9897 27.7852 22.4153 27.7852C24.9475 27.7852 28.0049 27.2037 28.0987 26.9224C28.38 26.0783 28.6989 25.3843 28.8302 25.0467C28.9428 24.709 27.0483 23.1897 24.1972 23.2085ZM24.1972 23.4523C26.7107 23.4523 28.3988 24.6528 28.5676 25.0091C28.5301 25.0842 28.4926 25.178 28.4551 25.2905C28.305 25.6469 28.0799 26.1721 27.8736 26.7723C27.4797 26.9974 24.8537 27.5038 22.4153 27.5038C20.896 27.5038 19.8456 27.2787 19.4517 26.8848C19.4329 26.7535 19.5642 26.2284 20.0331 25.5719C20.4458 24.9716 21.6462 23.5648 23.7283 23.4523C23.8783 23.4523 24.0472 23.4523 24.1972 23.4523Z" fill="#F8A38F"/>
<path d="M19.2979 26.8693C19.0729 27.8821 25.2815 22.9115 28.6202 25.2937C29.3143 24.3746 25.6191 22.8177 23.462 23.1741C21.6426 23.493 19.7669 24.6559 19.2979 26.8693Z" fill="#FCD4C3"/>
<path d="M20.5576 21.5203C20.8765 22.083 21.458 24.8215 21.7018 24.8778C21.9456 24.9341 23.4837 25.3655 23.6901 25.2717C23.9151 25.1779 23.8964 24.6527 24.1215 24.8028C24.309 24.9341 24.4028 25.1779 24.5904 25.0841C24.928 24.9153 25.9222 24.2963 26.091 24.0337C26.241 23.7524 26.2223 22.1956 26.091 20.9576C25.4532 21.2577 21.683 21.6516 20.5576 21.5203Z" fill="#FFF7E3"/>
<path d="M26.1007 20.9669C25.538 21.2108 22.5932 21.5484 21.1113 21.5484C20.8863 21.5484 20.7174 21.5484 20.5674 21.5297C20.8863 22.0924 21.4677 24.8309 21.7116 24.8872C21.9367 24.9435 23.2121 25.2998 23.606 25.2998C23.6435 25.2998 23.6811 25.2998 23.6998 25.2811C23.8874 25.2061 23.9062 24.7934 24.0562 24.7934C24.075 24.7934 24.1125 24.7934 24.1312 24.8309C24.3001 24.9247 24.3751 25.131 24.5251 25.131C24.5439 25.131 24.5814 25.131 24.6002 25.1123C24.9378 24.9435 25.9319 24.3245 26.1007 24.0619C26.2695 23.7805 26.232 22.2237 26.1007 20.9669ZM26.0069 21.1358C26.1195 22.4112 26.1195 23.7618 26.0069 23.9868C25.8756 24.2119 24.9753 24.7934 24.5626 24.9997H24.5439C24.5064 24.9997 24.4501 24.9435 24.4126 24.8872C24.3563 24.8309 24.3001 24.7746 24.225 24.7184C24.1688 24.6809 24.1312 24.6621 24.075 24.6621C23.9061 24.6621 23.8499 24.8309 23.7936 24.9622C23.7561 25.0372 23.7186 25.1498 23.6623 25.1685C23.6623 25.1685 23.6435 25.1685 23.606 25.1685C23.2872 25.1685 22.3306 24.9059 21.9367 24.8122C21.8616 24.7934 21.8054 24.7746 21.7678 24.7746C21.6553 24.6433 21.4115 23.7618 21.2239 23.124C21.0551 22.5425 20.905 21.9986 20.7737 21.6797C20.8675 21.6797 20.9988 21.6797 21.1301 21.6797C22.5369 21.6797 25.1629 21.3796 26.0069 21.1358Z" fill="#FFDC99"/>
<path d="M20.9986 22.8427C20.9048 21.8298 25.5753 21.4922 26.1568 21.586C26.1568 21.3421 26.1193 21.1921 26.1193 20.9107C25.3502 21.3046 21.1487 21.7173 20.5859 21.5484C20.6422 21.661 20.8485 22.2237 20.9986 22.8427Z" fill="#EADCBE"/>
<path d="M23.3264 22.077C23.4202 22.3021 23.514 22.5084 23.589 22.7335C23.664 22.9586 23.7391 23.1837 23.8141 23.4088L24.0204 24.084L24.2268 24.7593L23.9079 24.8531L23.7578 24.1591L23.589 23.4651C23.5327 23.24 23.4765 23.0149 23.4202 22.7898C23.3452 22.5647 23.2889 22.3396 23.2139 22.1333L23.3264 22.077Z" fill="#FFDC99"/>
<g opacity="0.4">
<g opacity="0.4">
<path opacity="0.4" d="M7.53711 6.19883C10.0131 6.83657 9.61915 11.1132 11.0822 11.4508C12.564 11.7885 14.496 7.92448 14.6836 7.08041C11.8325 5.8612 10.5007 4.43566 8.45621 4.84831C7.78095 4.97961 6.8431 6.01126 7.53711 6.19883Z" fill="#FCD4C3"/>
</g>
</g>
<g opacity="0.5">
<g opacity="0.5">
<path opacity="0.5" d="M14.3995 18.7129C17.5132 18.9567 20.0829 19.088 21.002 18.1314C21.9211 17.1748 22.2588 12.9357 23.7593 13.0483C25.0348 13.142 25.4662 18.6566 26.2915 18.8067C27.1169 18.9755 32.9503 20.5699 34.4134 19.0693C35.8577 17.5687 36.5329 16.6309 36.1953 15.7305C35.8577 14.8302 27.3232 11.9228 25.5788 11.754C23.8344 11.5852 12.0549 13.067 11.7548 13.7985C11.4547 14.5488 11.1358 14.4363 11.1921 15.2241C11.3046 16.7434 11.2858 18.4691 14.3995 18.7129Z" fill="#E3AB5E"/>
</g>
</g>
<path d="M23.127 12.4419C23.3521 12.4419 24.2337 12.3668 24.44 12.5356C25.5654 13.4172 25.5279 17.0373 26.7096 18.1628C27.76 19.1757 33.4997 19.9072 34.4938 18.763C35.4879 17.6188 36.951 14.13 37.2886 13.8674C37.6263 13.6236 38.3765 13.436 38.6016 13.0796C38.8267 12.742 38.6391 11.2039 38.1139 11.2789C37.5887 11.3539 36.5946 11.6728 35.9756 11.504C35.3566 11.3164 32.3367 9.42196 24.7401 10.5661C24.0086 10.6787 23.2771 10.5661 22.7706 10.4348C22.2642 10.3035 19.4131 8.65291 11.7789 9.74083C11.0287 9.85337 9.97825 9.51574 9.60311 9.55325C9.22797 9.59077 9.11542 10.7725 9.26548 11.0726C9.41554 11.3727 10.2033 11.6353 10.2971 12.0104C10.3909 12.3856 11.0849 16.062 12.8856 17.5813C14.7988 19.1944 19.6757 18.069 20.1071 17.7689C22.0391 16.3996 22.4705 12.4419 23.127 12.4419Z" fill="#333333"/>
<path d="M16.5515 9.38876C15.2197 9.38876 13.6254 9.48255 11.7496 9.76391C11.6371 9.78266 11.5246 9.78266 11.412 9.78266C10.7555 9.78266 9.98647 9.57633 9.63009 9.57633C9.61133 9.57633 9.59257 9.57633 9.57382 9.57633C9.19867 9.61385 9.08613 10.7955 9.23618 11.0957C9.38624 11.4145 10.174 11.6584 10.2678 12.0335C10.3616 12.4087 11.0556 16.0851 12.8563 17.6044C13.6066 18.2421 14.8446 18.4485 16.0825 18.4485C17.9582 18.4485 19.8152 17.9795 20.0778 17.792C22.0285 16.4039 22.4787 12.4462 23.1352 12.4462C23.229 12.4462 23.4728 12.4274 23.6979 12.4274C23.998 12.4274 24.3169 12.4462 24.4295 12.5212C25.5549 13.4028 25.5174 17.0229 26.6991 18.1483C27.3743 18.7861 29.9628 19.33 31.9886 19.33C33.1328 19.33 34.1081 19.1612 34.4645 18.7486C35.4586 17.6044 36.9217 14.1156 37.2593 13.853C37.597 13.5904 38.3472 13.4215 38.5723 13.0652C38.7787 12.7275 38.6098 11.2645 38.1034 11.2645C38.1034 11.2645 38.0846 11.2645 38.0659 11.2645C37.6532 11.3207 36.9405 11.5271 36.359 11.5271C36.2089 11.5271 36.0589 11.5083 35.9276 11.4708C35.4399 11.3207 33.5454 10.1766 29.2313 10.1766C27.937 10.1766 26.4365 10.2703 24.6921 10.5329C24.4857 10.5705 24.2606 10.5705 24.0731 10.5705C23.5666 10.5705 23.0977 10.4954 22.7413 10.4016C22.3662 10.3641 20.6405 9.38876 16.5515 9.38876ZM16.5515 9.76391C19.9465 9.76391 21.6909 10.4392 22.3287 10.7018C22.46 10.758 22.5537 10.7955 22.6475 10.8143C22.9852 10.8893 23.4916 11.0019 24.0731 11.0019C24.2982 11.0019 24.542 10.9831 24.7483 10.9456C26.3427 10.7018 27.8433 10.5892 29.2313 10.5892C32.7951 10.5892 34.6521 11.377 35.4586 11.7334C35.6275 11.8084 35.74 11.846 35.8338 11.8835C36.0026 11.9397 36.1714 11.9585 36.3777 11.9585C36.7904 11.9585 37.2406 11.8647 37.6157 11.7897C37.7845 11.7522 37.9533 11.7147 38.0846 11.6959C38.2535 11.8835 38.366 12.7088 38.2722 12.9339C38.1972 13.0464 37.8783 13.1965 37.6532 13.2902C37.4281 13.384 37.2218 13.4778 37.0718 13.5904C36.8654 13.7404 36.6591 14.1343 36.0589 15.3348C35.4774 16.479 34.7646 17.9045 34.2207 18.5235C34.0331 18.7486 33.3578 18.9737 32.0073 18.9737C30.0378 18.9737 27.5244 18.4485 26.9617 17.9045C26.4365 17.4168 26.1739 16.2726 25.9113 15.166C25.6112 13.928 25.3298 12.765 24.6733 12.2398C24.5045 12.1085 24.2419 12.0523 23.7167 12.0523C23.5666 12.0523 23.4166 12.0523 23.304 12.0523C23.229 12.0523 23.1727 12.0523 23.1352 12.0523C22.61 12.0523 22.3849 12.6713 21.991 13.7967C21.5596 15.0347 20.9406 16.704 19.8715 17.4731C19.6276 17.6231 17.8645 18.0733 16.0825 18.0733C14.7133 18.0733 13.6816 17.8107 13.1002 17.323C12.3874 16.7228 11.3933 15.316 10.6805 12.1085C10.6617 12.0335 10.643 11.9772 10.643 11.9397C10.5492 11.5833 10.2116 11.377 9.9302 11.1894C9.81766 11.1144 9.63008 10.9831 9.59257 10.9269C9.51754 10.758 9.59257 10.139 9.70511 9.93272C9.83641 9.93272 10.024 9.97024 10.2303 10.0078C10.5867 10.064 11.0369 10.139 11.4495 10.139C11.5808 10.139 11.7309 10.1391 11.8434 10.1015C13.5128 9.89521 15.1072 9.76391 16.5515 9.76391Z" fill="#1A1A1A"/>
<g opacity="0.5">
<g opacity="0.5">
<path opacity="0.5" d="M12.3795 12.0761C12.2107 12.3012 12.0981 15.6212 13.5049 16.5215C14.424 17.1217 18.3255 16.9904 19.1133 16.559C20.3325 15.865 21.533 12.7138 21.1953 12.2636C20.6326 11.5134 16.5811 10.5192 13.5424 11.307C13.1673 11.3821 12.5858 11.7947 12.3795 12.0761Z" stroke="#333333" stroke-width="4" stroke-miterlimit="10"/>
</g>
</g>
<path d="M12.3795 12.0667C12.2107 12.2918 12.0981 15.6118 13.5049 16.5121C14.424 17.1124 18.3255 16.9811 19.1133 16.5497C20.3325 15.8556 21.533 12.7044 21.1953 12.2543C20.6326 11.504 16.5811 10.5099 13.5424 11.2977C13.1673 11.3914 12.5858 11.7853 12.3795 12.0667Z" fill="white"/>
<g opacity="0.5">
<g opacity="0.5">
<path opacity="0.5" d="M35.2999 13.5228C35.4499 13.7667 35.1123 17.0679 33.6117 17.7994C32.6176 18.2684 28.7724 17.6306 28.0596 17.1054C26.9342 16.2614 26.1464 12.9789 26.5403 12.5662C27.1968 11.8909 31.3421 11.4408 34.2495 12.6037C34.6058 12.735 35.131 13.2227 35.2999 13.5228Z" stroke="#333333" stroke-width="4" stroke-miterlimit="10"/>
</g>
</g>
<path d="M35.3008 13.5298C35.4509 13.7736 35.1133 17.0749 33.6127 17.8064C32.6186 18.2753 28.7734 17.6376 28.0606 17.1124C26.9352 16.2683 26.1474 12.9858 26.5413 12.5732C27.1978 11.8979 31.3431 11.4477 34.2504 12.6107C34.6068 12.742 35.1133 13.2109 35.3008 13.5298Z" fill="white"/>
<path d="M16.8249 14.0925C16.7311 14.824 16.3559 15.368 15.9996 15.3117C15.6432 15.2554 15.4556 14.6364 15.5494 13.9049C15.6432 13.1734 16.0183 12.6294 16.3747 12.6857C16.7311 12.742 16.9187 13.361 16.8249 14.0925Z" fill="black"/>
<path d="M31.7741 14.9178C31.8491 15.6493 31.6241 16.2683 31.2864 16.3058C30.93 16.3433 30.5924 15.7806 30.5174 15.0491C30.4424 14.3176 30.6674 13.6986 31.0051 13.6611C31.3427 13.6423 31.6803 14.205 31.7741 14.9178Z" fill="black"/>
<g opacity="0.3">
<g opacity="0.3">
<path opacity="0.3" d="M9.61757 10.6318C10.049 10.9131 10.4429 10.7443 10.5367 11.3071C10.6305 11.8698 11.9247 16.7466 13.5378 17.3093C16.1826 18.2284 19.5213 17.3281 19.9715 17.0467C20.4217 16.7654 22.5412 12.0198 22.8976 11.8322C23.254 11.6447 24.3794 11.851 24.6233 11.9635C25.3548 12.2824 26.7053 17.4219 27.0617 17.6845C28.6936 18.8287 33.9268 18.7349 34.1706 18.4348C34.4332 18.1159 36.384 13.6329 36.7404 13.3703C37.2468 12.9764 38.4285 12.7138 38.466 12.8826C38.5035 13.0515 37.5094 13.2203 37.2093 13.5767C36.9092 13.9518 34.9397 18.2472 34.3207 18.6223C33.7017 18.9975 29.125 19.6165 26.7991 17.9846C25.6924 17.1968 25.261 12.5263 24.3794 12.2637C23.8167 12.0949 23.3853 12.1136 22.9726 12.2261C22.4287 12.5825 21.6596 16.559 20.0278 17.5532C19.3713 17.9471 14.2881 18.9412 12.7688 17.3468C9.93644 14.3832 10.7993 11.7385 9.88017 11.3633C9.26118 11.1007 9.12988 10.7631 9.12988 10.538C9.18615 10.2942 9.39248 10.4817 9.61757 10.6318Z" fill="#333333"/>
</g>
</g>
<g opacity="0.3">
<g opacity="0.3">
<path opacity="0.3" d="M9.66947 9.63765C9.36936 9.5251 10.945 10.1816 11.5264 10.1441C12.1079 10.1066 13.0833 9.69391 13.4021 9.60013C13.6835 9.50634 11.9391 9.82522 11.5077 9.80646C11.0763 9.7877 9.83829 9.69392 9.66947 9.63765Z" fill="#333333"/>
</g>
</g>
<g opacity="0.3">
<g opacity="0.3">
<path opacity="0.3" d="M21.833 10.5192C22.377 10.7631 22.6208 11.3821 23.146 11.4383C23.6712 11.4946 24.3089 11.5884 24.6091 11.4196C24.9092 11.2508 25.6595 10.8569 25.8658 10.8193C26.0909 10.7818 24.2339 11.0632 23.5399 11.0069C22.8459 10.9319 22.0393 10.538 21.833 10.5192Z" fill="#333333"/>
</g>
</g>
<g opacity="0.3">
<g opacity="0.3">
<path opacity="0.3" d="M35.1466 11.2367C34.9215 11.1429 35.9719 11.987 36.2908 11.9495C36.6096 11.912 37.1723 11.5556 37.4162 11.4618C37.6038 11.3868 36.6659 11.6494 36.3845 11.5931C36.1032 11.5743 35.3717 11.3305 35.1466 11.2367Z" fill="#333333"/>
</g>
</g>
<g opacity="0.3">
<g opacity="0.3">
<path opacity="0.3" d="M11.789 11.5837C13.177 10.2144 16.4783 10.6833 17.0785 10.7959C13.1207 11.0772 13.0457 11.3774 12.3517 12.0714C12.2579 12.6153 12.1266 14.416 12.7456 15.9916C12.0516 15.6165 11.3201 12.0526 11.789 11.5837Z" fill="#333333"/>
</g>
</g>
<g opacity="0.3">
<g opacity="0.3">
<path opacity="0.3" d="M36.0623 13.0604C34.8618 11.5224 31.5418 11.5411 30.9229 11.5974C34.8056 12.4039 34.8431 12.7041 35.4433 13.4919C35.4808 14.0358 35.3683 15.8365 34.5617 17.3183C35.2745 17.0182 36.4562 13.5669 36.0623 13.0604Z" fill="#333333"/>
</g>
</g>
<path d="M12.4193 14.3504C12.5506 12.7373 12.7007 11.4243 15.9082 11.3305C18.4779 11.2555 20.5224 11.8557 20.8038 12.4747C20.9913 12.8686 20.8413 14.5942 19.5658 16.1698C20.3911 15.4383 21.7041 12.5309 21.1414 12.1746C19.0594 10.8428 14.914 10.8053 13.376 11.3492C13.0946 11.443 12.6444 11.7619 12.3443 12.0995C12.288 12.5122 12.288 14.1253 12.4193 14.3504Z" fill="#D0DDDC"/>
<path d="M12.5082 14.4676C12.9959 17.6188 18.7543 16.6622 19.0919 16.5309C19.0732 16.6997 16.0721 17.5438 13.5586 16.5684C12.5457 16.1933 12.4707 14.1112 12.5082 14.4676Z" fill="#D0DDDC"/>
<path d="M35.0305 15.7594C35.1056 14.1275 35.1056 12.8333 31.9544 12.3456C29.4222 11.9517 27.3214 12.2893 26.9462 12.8708C26.7211 13.2272 26.6461 14.9716 27.734 16.6973C27.0025 15.8532 26.0459 12.8333 26.6649 12.5332C28.897 11.464 33.0235 11.9329 34.4678 12.6645C34.7304 12.7958 35.1618 13.1522 35.4057 13.5461C35.3869 13.94 35.1993 15.5531 35.0305 15.7594Z" fill="#D0DDDC"/>
<path d="M34.9229 15.8582C34.0601 18.9156 28.4517 17.265 28.1328 17.0961C28.1328 17.265 31.0027 18.4654 33.6286 17.8277C34.679 17.5651 35.0354 15.5018 34.9229 15.8582Z" fill="#D0DDDC"/>
<g opacity="0.25">
<g opacity="0.25">
<path opacity="0.25" d="M16.7267 13.1546C16.7267 13.0608 16.6517 12.967 16.5391 12.967C16.4266 12.967 16.3516 13.0421 16.3516 13.1546C16.3516 13.2672 16.4266 13.3422 16.5391 13.3422C16.6517 13.3422 16.7267 13.2672 16.7267 13.1546Z" fill="white"/>
</g>
</g>
<g opacity="0.25">
<g opacity="0.25">
<path opacity="0.25" d="M31.5451 14.0362C31.5451 13.9424 31.47 13.8486 31.3575 13.8486C31.2637 13.8486 31.1699 13.9237 31.1699 14.0362C31.1699 14.1487 31.245 14.2238 31.3575 14.2238C31.4513 14.2238 31.5451 14.13 31.5451 14.0362Z" fill="white"/>
</g>
</g>
<g opacity="0.1">
<g opacity="0.1">
<path opacity="0.1" d="M9.7207 10.4302C10.1709 10.9366 10.4522 10.9929 11.0525 10.9178C16.8859 10.1676 20.1122 10.1863 21.7065 11.6681C22.0441 11.987 21.8566 10.7115 21.2188 10.5427C16.3045 9.24846 12.7406 10.4114 11.9903 10.5052C11.2213 10.6177 10.6773 10.4489 9.7207 10.4302Z" fill="#D0DDDC"/>
</g>
</g>
<g opacity="0.1">
<g opacity="0.1">
<path opacity="0.1" d="M25.8515 11.1804C25.7202 11.3117 25.7765 12.6623 26.4142 12.1558C28.2524 10.6928 32.0977 11.0304 34.7799 11.9307C34.3485 11.0867 31.2161 10.5052 29.4529 10.5239C28.6088 10.5615 26.2079 10.8053 25.8515 11.1804Z" fill="#D0DDDC"/>
</g>
</g>
<path d="M36.9517 12.2543C36.9517 12.3105 36.6516 12.3481 36.2952 12.3481C35.9388 12.3481 35.6387 12.3105 35.6387 12.2543C35.6387 12.198 35.9388 12.1605 36.2952 12.1605C36.6703 12.1605 36.9517 12.2168 36.9517 12.2543Z" fill="#D0DDDC"/>
<path d="M11.667 10.6412C11.667 10.6974 11.3669 10.6974 11.0105 10.6412C10.6541 10.5849 10.3728 10.4911 10.3915 10.4348C10.4103 10.3786 10.6916 10.3786 11.048 10.4348C11.4044 10.4724 11.6858 10.5661 11.667 10.6412Z" fill="#D0DDDC"/>
<path d="M47.9883 40.6968C47.8758 39.5526 47.0317 39.0462 46.2626 39.0462C45.9063 39.0462 45.6249 39.14 45.5124 39.1963L45.3623 39.2713L45.231 39.3651C45.0434 39.4964 44.7246 39.7027 44.4432 39.7965C44.4244 39.5714 44.4432 39.2713 44.4807 39.0087V38.9712C44.687 36.9642 44.2744 35.7825 43.224 35.4823C43.0552 35.4261 42.8676 35.4073 42.68 35.4073C42.0423 35.4073 41.4796 35.7074 41.1232 35.97C40.8231 35.5761 40.2979 35.3698 39.6601 35.3698C38.7035 35.3698 37.9345 35.82 37.6531 36.5327C37.6156 36.6078 37.5781 36.7203 37.5406 36.8704C36.9779 35.6324 35.8337 35.1635 34.7645 35.1635C33.7516 35.1635 32.7763 35.5574 32.4199 35.8387C32.4011 35.8575 32.3824 35.8575 32.3636 35.8762C31.407 36.5515 30.6567 37.4143 30.1315 38.446C29.8689 37.5644 29.3062 36.7203 28.3121 36.1013L28.2933 36.0826C28.2558 36.0638 28.237 36.0451 28.2183 36.0451C29.2124 34.3006 30.0752 31.9748 29.55 29.7614C28.9873 27.398 27.5993 27.0604 26.8303 27.0604C26.5114 27.0604 26.1738 27.1167 25.8361 27.2292H25.8174H25.7986C24.3356 27.8107 23.6978 28.6735 23.5478 28.8798C23.3977 29.1049 21.8033 31.5433 21.4094 35.1072C21.3719 35.5011 21.3157 35.9138 21.2781 36.3264C21.0531 36.0075 20.6779 35.7074 20.0964 35.5386C19.9089 35.4823 19.7213 35.4636 19.5337 35.4636C18.7272 35.4636 18.0707 35.9513 17.7143 36.2889C17.4142 35.8387 16.9265 35.5574 16.3825 35.5386C16.345 35.5386 16.2888 35.5386 16.2512 35.5386C15.3884 35.5386 14.7132 35.9138 14.2067 36.3452C13.8878 35.7825 13.2876 35.4261 12.5936 35.4261C12.5373 35.4261 12.4811 35.4261 12.4248 35.4261C12.3873 35.4261 12.3498 35.4261 12.3122 35.4261C11.3556 35.4261 10.6053 35.8762 10.3052 36.6265C10.2865 36.6828 10.249 36.7578 10.2302 36.8516C9.47991 35.9138 8.5233 35.4823 7.22906 35.4823C7.19154 35.4823 7.15403 35.4823 7.09776 35.4823C6.2912 35.5011 4.30294 35.8387 3.06497 38.596C2.8774 39.0274 2.72735 39.4589 2.61481 39.8715C2.35221 39.7402 2.08961 39.7215 1.92079 39.7215C1.28305 39.7215 0.795364 40.0778 0.570278 40.4342C0.382707 40.7156 -0.217516 41.691 0.0825977 42.6663C0.251412 43.1915 0.607793 43.5854 1.13299 43.7917C1.60192 43.9793 2.1834 44.1481 2.61481 44.2794C2.87741 44.8984 3.36509 45.5924 4.22792 46.2489C4.82815 46.7179 5.61595 46.9429 6.51629 46.9429C8.05437 46.9429 9.53619 46.2864 9.68625 46.2114L9.74252 46.1739L9.76127 46.1551C10.0614 46.4553 10.4365 46.6803 10.9242 46.7741C11.0743 46.8116 11.2618 46.8304 11.4869 46.8304C12.3122 46.8304 12.8937 46.399 13.4377 45.6112C13.8691 46.3052 14.6756 46.6803 15.6135 46.6803C15.6698 46.6803 15.7073 46.7179 15.7823 46.7179C16.27 46.7179 16.9077 46.549 17.4142 45.705C17.8456 46.474 18.6334 46.9242 19.5713 46.9242C20.3966 46.9242 21.1281 46.5866 21.2594 46.5115L21.2969 46.4928C21.5783 46.3427 21.8033 46.2114 21.9909 46.1176C22.6099 46.4553 23.5478 46.8116 24.7107 46.8116C24.917 46.8116 25.1046 46.8116 25.3109 46.7741H25.3672H25.4235C27.8619 46.2864 29.4563 45.705 30.4129 45.2548C31.0694 46.0051 32.1385 46.7179 33.6391 46.8304C33.8079 46.8492 33.9767 46.8492 34.1455 46.8492C35.3835 46.8492 36.3776 46.4928 37.1092 46.1176C37.3342 46.3615 37.6344 46.5866 38.0095 46.7366C38.2346 46.8304 38.4784 46.8679 38.7035 46.8679C40.2228 46.8679 40.9356 45.0672 41.1232 44.4482L41.4796 43.4729C41.7984 43.8105 42.2111 44.0919 42.7363 44.2419C43.0177 44.3169 43.3365 44.3732 43.6366 44.3732C45.306 44.3732 46.9191 43.1915 47.163 42.9852C47.5944 42.5538 48.0821 41.766 47.9883 40.6968Z" fill="white"/>
<path d="M32.6659 41.1989C32.6659 41.1989 32.4596 40.4486 33.2474 39.0231C34.0352 37.5975 34.6354 38.3666 34.6354 38.3666C34.6354 38.3666 35.3107 39.0981 34.5416 40.186C33.7726 41.2739 32.6659 41.1989 32.6659 41.1989ZM26.6449 42.2305C25.7445 44.5752 23.5687 43.6186 23.5687 43.6186C23.5687 43.6186 23.3249 42.7745 24.0376 40.4298C24.7504 38.0852 26.401 39.0043 26.401 39.0043C26.401 39.0043 27.5452 39.8859 26.6449 42.2305ZM25.013 32.383C25.013 32.383 26.3635 28.8379 26.7012 30.5636C27.0388 32.2892 23.8501 37.4099 23.8501 37.4099C23.8876 36.2658 25.013 32.383 25.013 32.383ZM5.5994 41.1989C5.65567 38.9293 7.13748 37.9351 7.66268 38.4228C8.18788 38.9105 8.00031 39.9984 7.00618 40.6549C6.04957 41.3302 5.5994 41.1989 5.5994 41.1989ZM46.7338 40.8237C46.6587 40.0547 45.9647 40.3361 45.9647 40.3361C45.9647 40.3361 44.8581 41.1989 43.8827 41.1051C42.9073 41.0113 43.2262 38.8355 43.2262 38.8355C43.2262 38.8355 43.4325 36.8285 42.8698 36.6597C42.2883 36.4908 41.5943 37.1849 41.5943 37.1849C41.5943 37.1849 40.7127 38.1602 40.3001 39.3982L40.1875 39.4357C40.1875 39.4357 40.3188 37.2599 40.1688 36.7534C40.0562 36.5096 39.0058 36.5284 38.837 36.9598C38.6682 37.3912 37.8241 40.4486 37.7679 41.7428C37.7679 41.7428 36.1172 43.1309 34.6917 43.3747C33.2474 43.5998 32.9098 42.6995 32.9098 42.6995C32.9098 42.6995 36.8112 41.6115 36.6799 38.4979C36.5486 35.3842 33.5288 36.5284 33.1911 36.791C32.8535 37.0348 31.1091 38.104 30.5839 41.0301C30.5651 41.1239 30.5276 41.574 30.5276 41.574C30.5276 41.574 29.0083 42.5869 28.183 42.8495C28.183 42.8495 30.5276 38.8918 27.6578 37.0911C26.3635 36.3033 25.3131 37.9539 25.3131 37.9539C25.3131 37.9539 29.1959 33.6398 28.333 29.9821C27.9204 28.2377 27.0575 28.0501 26.251 28.3315C25.0318 28.8192 24.5816 29.5132 24.5816 29.5132C24.5816 29.5132 23.006 31.7828 22.6496 35.1778C22.2932 38.5729 21.7493 42.6432 21.7493 42.6432C21.7493 42.6432 20.999 43.3747 20.3237 43.4122C19.6297 43.4497 19.9486 41.3677 19.9486 41.3677C19.9486 41.3677 20.4738 38.1977 20.4363 37.6538C20.3988 37.1098 20.3613 36.8285 19.7235 36.6409C19.1045 36.4533 18.4105 37.2599 18.4105 37.2599C18.4105 37.2599 16.5911 40.0172 16.441 40.4298L16.3472 40.5987L16.2534 40.4861C16.2534 40.4861 17.5289 36.7347 16.3097 36.6784C15.0905 36.6221 14.2839 38.0102 14.2839 38.0102C14.2839 38.0102 12.8959 40.3548 12.8396 40.6174L12.7459 40.5049C12.7459 40.5049 13.3273 37.7851 13.2148 37.1098C13.1022 36.4346 12.4645 36.5846 12.4645 36.5846C12.4645 36.5846 11.6579 36.4908 11.4516 37.016C11.2453 37.5412 10.4762 40.955 10.3825 42.043C10.3825 42.043 8.37545 43.4873 7.06245 43.4873C5.74945 43.506 5.88075 42.6432 5.88075 42.6432C5.88075 42.6432 10.7201 40.9926 9.40709 37.7101C8.80686 36.866 8.1316 36.6034 7.15623 36.6221C6.18086 36.6409 5.03668 37.2411 4.24888 38.9855C3.87374 39.8296 3.72368 40.6174 3.72368 41.2176C3.72368 41.2176 2.82334 41.3865 2.35441 41.0113C1.88548 40.6362 1.62288 41.0113 1.62288 41.0113C1.62288 41.0113 0.816325 42.1555 1.60412 42.4556C2.39192 42.7557 3.59238 43.0558 3.59238 43.0558C3.70492 43.5435 4.02379 44.3688 4.98041 45.0816C6.40595 46.1695 9.16325 44.9128 9.16325 44.9128L10.2887 44.2375C10.2887 44.2375 10.3262 45.2504 11.1515 45.4005C11.9768 45.5505 12.3144 45.3817 13.7587 41.9117C14.6028 40.1297 14.6591 40.2235 14.6591 40.2235L14.7529 40.2048C14.7529 40.2048 14.0964 43.5998 14.359 44.5189C14.6216 45.438 15.6907 45.3442 15.6907 45.3442C15.6907 45.3442 16.291 45.5505 16.7599 43.8624C17.2476 42.1743 18.1479 40.4111 18.1479 40.4111H18.2605C18.2605 40.4111 17.8666 43.8061 18.4668 44.9128C19.0858 46.0195 20.6614 45.2504 20.6614 45.2504C20.6614 45.2504 21.768 44.669 21.9369 44.5001C21.9369 44.5001 23.2499 45.6068 25.1068 45.4005C29.2521 44.5752 30.7339 43.4685 30.7339 43.4685C30.7339 43.4685 31.4467 45.2692 33.6601 45.438C36.1923 45.6256 37.5615 44.0312 37.5615 44.0312C37.5615 44.0312 37.5428 45.0629 38.4244 45.4192C39.3059 45.7756 39.9062 43.8624 39.9062 43.8624L41.388 39.9046H41.5193C41.5193 39.9046 41.5943 42.4369 43.0574 42.8495C44.5204 43.2622 46.4149 41.7991 46.4149 41.7991C46.4149 41.7991 46.8276 41.5928 46.7338 40.8237Z" fill="#E24B31"/>
</svg>
