<svg width="48" height="48" viewBox="0 0 48 48" fill="none" xmlns="http://www.w3.org/2000/svg">
<path d="M35.8952 42.3724L35.7268 42.4552L35.8952 42.3724L35.6426 42.1241L35.7268 42.0414L35.5584 41.9586H35.6426C35.6426 41.8483 35.5865 41.7931 35.4742 41.7931L35.6426 41.6276V41.5448H35.5584C35.5023 41.5448 35.4462 41.5724 35.39 41.6276H35.3058L35.39 41.8759C35.2778 41.8759 35.2216 41.8483 35.2216 41.7931L35.1375 41.8759C35.1936 41.7103 35.2216 41.6276 35.2216 41.6276C35.1655 41.5724 35.0533 41.4897 34.8849 41.3793L34.8007 41.5448L35.0533 41.7103H34.8849V41.6276H34.7165L34.8007 41.5448C34.6323 41.5448 34.5762 41.5724 34.6323 41.6276L34.7165 41.7931H34.8007L34.6323 41.7103V41.7931H34.4639V41.8759C34.4639 41.7655 34.4078 41.7103 34.2955 41.7103V41.7931H34.3797C34.3236 41.8483 34.2955 41.931 34.2955 42.0414H34.3797C34.4359 41.9862 34.5481 41.9586 34.7165 41.9586C34.6042 42.069 34.492 42.1241 34.3797 42.1241C34.2675 42.069 34.2113 42.0966 34.2113 42.2069C34.3236 42.3724 34.3797 42.4828 34.3797 42.5379L34.4639 42.4552L34.2955 42.7035L34.3797 42.869C34.492 42.8138 34.5762 42.7862 34.6323 42.7862C34.5762 42.8414 34.52 42.9241 34.4639 43.0345C34.4078 43.0897 34.3517 43.1448 34.2955 43.2C34.2394 43.2 34.2113 43.1448 34.2113 43.0345L34.3797 42.869H34.2955L34.2113 42.9517C34.2113 42.8965 34.1552 42.869 34.043 42.869L33.9588 43.0345H34.043V43.1172H34.1271V43.2L34.043 43.2828H34.3797C34.3797 43.2828 34.3236 43.3379 34.2113 43.4483L34.3797 43.6138L34.2955 43.6966H34.3797L34.4639 43.7793C34.3517 43.8345 34.2955 43.8897 34.2955 43.9448H34.3797L34.4639 44.0276V44.1103H34.7165L34.8007 44.2759H34.6323L34.7165 44.3586L34.6323 44.4414L34.8007 44.5241L34.7165 44.6069H34.8007V44.7724L34.9691 44.8552L35.0533 45.0207L34.8007 44.7724C34.6884 44.7172 34.6323 44.7172 34.6323 44.7724C34.5762 44.6069 34.4639 44.5241 34.2955 44.5241L34.2113 44.6069L34.2955 44.6897V44.6069H34.3797V44.6897C34.3797 44.8 34.3236 44.8 34.2113 44.6897V44.7724V44.8552L34.043 44.9379V44.8552C33.9868 44.8 33.9026 44.7172 33.7904 44.6069H33.8746V44.5241H33.7904L33.7062 44.2759L33.622 44.3586C33.5659 44.3034 33.3133 44.1931 32.8643 44.0276L32.9485 43.9448V43.8621L32.8643 43.7793V43.6966C32.5836 43.3103 32.331 43.1172 32.1065 43.1172L32.1907 42.9517L31.5172 42.0414C31.5172 41.9862 31.4049 42.0414 31.1804 42.2069L30.8436 41.8759H31.3488L31.433 41.9586V41.8759C31.433 41.7103 31.3207 41.6276 31.0962 41.6276C30.9278 41.6276 30.8436 41.6 30.8436 41.5448C30.8436 41.4345 30.9278 41.3241 31.0962 41.2138C30.984 41.1586 30.8998 41.0759 30.8436 40.9655L30.6753 40.6345L30.7595 40.5517H30.6753L30.5911 40.469H30.6753V40.3862C30.6191 40.3862 30.563 40.4138 30.5069 40.469L30.4227 40.3862H30.5069V40.3034H30.4227C30.1982 39.8621 30.0859 39.7517 30.0859 39.9724C30.0859 40.1379 29.9456 40.1379 29.6649 39.9724C29.6649 39.8621 29.6369 39.8069 29.5808 39.8069C29.5246 39.7517 29.4966 39.6414 29.4966 39.4759C29.2721 39.4759 29.1317 39.3655 29.0756 39.1448C29.0756 38.869 29.0195 38.6759 28.9072 38.5655L28.823 38.6483C28.823 38.7586 28.7388 38.6483 28.5704 38.3172L28.6546 38.2345C28.5424 38.1241 28.2898 37.6828 27.8969 36.9103C27.6724 35.5862 27.5601 34.9793 27.5601 35.0897H27.4759C27.5321 34.9241 27.5601 34.8138 27.5601 34.7586H27.4759V34.8414L27.3076 34.6759H27.4759V34.1793L27.1392 34.2621L27.2234 34.1793H27.3076V34.0966H27.2234L27.1392 34.0138L27.2234 33.931H27.1392L27.2234 33.7655H27.1392C27.083 33.7655 27.055 33.7103 27.055 33.6L26.9708 33.5172V33.3517H27.055C27.1111 33.2966 27.1672 33.269 27.2234 33.269V33.1862L26.8024 33.269V33.4345C26.7463 33.269 26.6901 33.269 26.634 33.4345C26.6901 33.4345 26.606 33.4897 26.3814 33.6C26.3814 33.6 26.3534 33.5448 26.2973 33.4345H26.2131L26.1289 33.3517H26.2131V33.1862H26.2973L26.3814 33.269L26.2131 33.0207L26.5498 33.1034H26.4656L26.5498 33.0207V32.9379L26.634 33.0207C26.634 33.131 26.6621 33.1862 26.7182 33.1862V33.1034L26.8024 33.1862V32.8552L26.4656 32.7724V32.8552C26.2973 32.9655 26.185 32.9931 26.1289 32.9379C26.1289 32.8276 26.0727 32.8 25.9605 32.8552C26.0166 32.6897 26.1008 32.5793 26.2131 32.5241V32.6069L26.3814 32.5241C26.3814 32.6345 26.4656 32.6897 26.634 32.6897H26.7182V32.6069H26.634L26.5498 32.5241L26.634 32.4414H26.7182L26.4656 32.1103C26.4095 32.1655 26.3253 32.1931 26.2131 32.1931L26.2973 32.0276C26.2973 31.9724 26.3534 31.9172 26.4656 31.8621H26.5498V31.9448L26.634 31.8621C26.5218 31.8069 26.4095 31.7793 26.2973 31.7793V31.6138L26.2131 31.531L26.1289 31.6138L25.9605 31.531L26.0447 31.4483H25.8763V31.2828L25.7921 31.3655C25.9605 31.531 26.0166 31.6138 25.9605 31.6138H25.8763C25.9324 31.6138 25.9605 31.669 25.9605 31.7793C26.0166 31.7793 25.9605 31.6965 25.7921 31.531L25.5395 31.6965L25.6237 31.6138C25.5115 31.5586 25.4553 31.5034 25.4553 31.4483C25.5115 31.4483 25.5676 31.4483 25.6237 31.4483V31.3655L25.5395 31.2C25.4273 31.3103 25.3711 31.3655 25.3711 31.3655V31.4483L25.2869 31.3655L25.3711 31.2828C25.2589 31.2828 25.1747 31.2552 25.1186 31.2L25.0344 31.1172L25.1186 31.0345V31.1172L25.2869 31.0345V30.9517H25.2027L25.3711 30.869V30.7862C25.3711 30.731 25.3431 30.6483 25.2869 30.5379L25.2027 30.4552L24.9502 30.6207C24.894 30.5103 24.8379 30.4828 24.7818 30.5379V30.4552L24.9502 30.3724H24.6976C24.6976 30.4828 24.6976 30.5655 24.6976 30.6207L24.6134 30.5379H24.5292C24.6415 30.4276 24.5853 30.3724 24.3608 30.3724L24.1924 30.5379H23.6873L23.6031 30.6207V30.5379L23.5189 30.4552H23.6031V30.3724H23.4347C23.3786 30.3172 23.2383 30.3448 23.0137 30.4552C23.0137 30.731 22.9015 30.6483 22.677 30.2069C22.5086 30.3172 22.4244 30.4 22.4244 30.4552V30.5379V30.4552H22.256C22.256 30.4552 22.256 30.4 22.256 30.2897C22.1999 30.2345 22.2279 30.1793 22.3402 30.1241C22.3963 29.9034 22.3683 29.7103 22.256 29.5448H22.1718C22.2279 29.6 22.1718 29.6552 22.0034 29.7103L21.9192 29.5448C21.9192 29.6552 21.807 29.7103 21.5825 29.7103C21.3018 29.6 21.0773 29.5172 20.9089 29.4621H20.6564V29.7103C20.6564 29.5448 20.5441 29.4621 20.3196 29.4621C20.2635 29.5172 20.2354 29.5724 20.2354 29.6276C20.2354 29.6828 20.2635 29.7379 20.3196 29.7931C20.4318 29.9034 20.4038 29.9586 20.2354 29.9586C20.2354 29.9034 20.1512 29.8483 19.9828 29.7931C19.8706 29.7379 19.8144 29.6828 19.8144 29.6276C19.8144 29.5724 19.8425 29.5172 19.8986 29.4621H20.1512L20.2354 29.3793L19.9828 29.2138L20.067 28.6345C20.1793 28.3586 20.2915 28.1931 20.4038 28.1379L20.1512 27.8897L20.2354 27.8069L19.9828 27.5586C20.0951 27.5586 20.1512 27.531 20.1512 27.4759C19.9267 27.4207 19.8144 27.3379 19.8144 27.2276L19.8986 27.1448V27.0621L19.8144 27.1448C19.5899 26.9793 19.4215 26.6759 19.3093 26.2345C19.197 25.7931 19.0006 25.4897 18.7199 25.3241L18.299 24.9103H18.2148C18.0464 24.7448 17.9622 24.5241 17.9622 24.2483V24.1655H18.0464C18.2709 24.0552 18.3832 23.8621 18.3832 23.5862L18.299 23.0897C18.1867 23.1448 18.1306 23.2276 18.1306 23.3379C18.1867 23.4483 18.1867 23.5034 18.1306 23.5034C18.0745 23.7241 18.0464 23.9172 18.0464 24.0828L17.9622 24H17.878C17.8219 23.8897 17.7096 23.7517 17.5412 23.5862C17.3729 25.2414 17.2325 26.9241 17.1203 28.6345L16.7835 33.6828C16.7835 33.9034 16.7274 34.2345 16.6151 34.6759V35.0897C16.6712 35.9172 16.5871 37.1862 16.3625 38.8966V38.9793L16.2784 39.0621H15.7732L15.689 38.9793C15.7451 39.2552 15.6609 39.6966 15.4364 40.3034H15.5206C15.3522 40.3034 15.268 40.3862 15.268 40.5517C15.3242 40.7172 15.2961 40.8 15.1838 40.8C15.0716 40.7448 14.9874 40.7448 14.9313 40.8C14.8751 40.6345 14.7348 40.4138 14.5103 40.1379C14.4542 40.0828 14.4822 40 14.5945 39.8897L14.4261 39.7241C14.0893 39.5586 14.0613 39.4759 14.3419 39.4759V38.4828C14.2297 38.3724 14.2016 38.2621 14.2577 38.1517L14.3419 37.8207H14.1735L14.3419 37.7379C14.1735 37.7379 14.0893 37.6828 14.0893 37.5724V37.4069C14.0332 37.5172 14.0052 37.4897 14.0052 37.3241H14.0893V37.0759H14.1735V36.7448H14.0893V36.4138H13.921L13.8368 36.1655C13.949 36.1655 14.0052 36.1931 14.0052 36.2483H14.1735V36.1655H14.0052V36.0828H14.1735C14.1735 35.7517 14.1174 35.6414 14.0052 35.7517C14.0052 35.6966 13.9771 35.6414 13.921 35.5862L14.0893 35.4207H14.0052L14.0893 35.3379L13.7526 34.1793C13.7526 34.2897 13.7245 34.3448 13.6684 34.3448H13.5842C13.6403 34.2897 13.6684 34.2345 13.6684 34.1793H13.5842V34.2621L13.4158 34.3448C13.4158 34.2345 13.3597 34.1793 13.2474 34.1793C13.1913 34.1793 13.1913 34.0966 13.2474 33.931V33.8483L13.3316 34.0138L13.5 33.6H13.5842V33.3517H13.5L13.5842 33.269C13.4719 33.1586 13.3877 33.131 13.3316 33.1862L13.1632 33.3517V33.1862H13.2474C13.2474 33.0207 13.2194 32.9379 13.1632 32.9379C13.1632 32.9931 13.1071 33.0207 12.9948 33.0207C13.051 32.9655 13.051 32.8552 12.9948 32.6897L13.079 32.6069L12.8265 32.3586L12.9107 32.2759H12.8265L12.9107 32.1931L12.9948 32.0276V31.9448C13.1071 31.8897 13.2194 31.8069 13.3316 31.6965V31.2828H13.2474C13.2474 31.2276 13.2755 31.1448 13.3316 31.0345L13.2474 30.869L12.9948 30.7862L13.1632 30.6207H13.079L13.1632 30.5379L13.2474 30.7034V30.3724L13.1632 29.9586L13.079 29.3793L12.9948 28.469V28.3862L12.9107 27.9724V27.8897H12.8265L12.9107 27.8069V27.5586C12.7984 27.6138 12.7423 27.669 12.7423 27.7241V27.5586C12.7423 27.5586 12.7984 27.5586 12.9107 27.5586L12.8265 27.2276V26.8966L12.7423 26.8138V26.4L12.6581 26.3172C12.5458 26.4276 12.4616 26.4552 12.4055 26.4L12.3213 26.3172V26.4828H12.4897L12.4055 26.5655H12.3213L12.2371 26.6483L12.4055 26.8138V26.8966C12.3494 26.9517 12.2932 26.9793 12.2371 26.9793C12.181 26.9793 12.1249 26.9517 12.0687 26.8966H11.8162V26.6483C11.76 26.5931 11.8162 26.5655 11.9845 26.5655V26.6483C12.209 26.6483 12.2932 26.5931 12.2371 26.4828H12.1529L12.2371 26.4L12.1529 26.3172L12.0687 26.4C12.1249 26.2897 12.1529 26.2345 12.1529 26.2345V26.1517H12.2371H12.3213C12.3213 26.0414 12.2371 25.9862 12.0687 25.9862H11.9845L12.0687 25.9034C12.1249 25.9586 12.209 25.931 12.3213 25.8207C12.3213 25.6552 12.2932 25.6 12.2371 25.6552H11.8162L12.0687 25.1586C11.9565 25.0483 12.0687 24.9931 12.4055 24.9931V24.9103H12.3213C12.3774 24.9103 12.4055 24.8276 12.4055 24.6621H12.3213L12.2371 24.5793C12.2932 24.5241 12.3213 24.469 12.3213 24.4138L12.5739 24.1655L12.7423 24.331H12.6581V24.4965H12.5739V24.5793C12.5739 24.6345 12.63 24.6621 12.7423 24.6621L12.6581 24.7448H12.7423V24.4965L12.8265 24.1655V23.8345L12.7423 23.9172H12.5739L12.6581 23.8345H12.5739V23.7517C12.5178 23.6966 12.4616 23.5862 12.4055 23.4207H12.5739L12.7423 23.1724C12.7984 23.2276 12.8265 23.2828 12.8265 23.3379L12.9107 23.0897L12.8265 23.0069H12.9107V22.9241L12.6581 22.8414V22.7586H12.5739L12.6581 22.6759H12.4897C12.4897 22.6759 12.4897 22.6207 12.4897 22.5103L12.4055 22.4276C12.5739 22.2621 12.6861 22.2069 12.7423 22.2621L12.6581 22.3448C12.8826 22.3448 12.9668 22.3172 12.9107 22.2621V22.0138H12.5739C12.5739 22.0138 12.63 21.9862 12.7423 21.931L12.6581 21.8483C12.5458 21.7379 12.5458 21.6828 12.6581 21.6828C12.8265 21.6828 12.9107 21.6 12.9107 21.4345C12.9107 21.2138 12.7984 21.0483 12.5739 20.9379L12.6581 20.8552L12.5739 20.7724H12.6581V20.6897L12.5739 20.6069H12.7423C12.63 20.4966 12.5739 20.4138 12.5739 20.3586H12.4055L12.4897 20.5241L12.3213 20.2759C12.4336 20.2759 12.4616 20.2483 12.4055 20.1931C12.3494 20.0828 12.4055 20 12.5739 19.9448L12.6581 20.1103H12.7423L12.6581 20.0276V19.6966C12.5458 19.8069 12.4897 19.8897 12.4897 19.9448V19.8621L12.3213 20.0276V19.8621V19.7793C12.2652 19.7793 12.2371 19.7241 12.2371 19.6138V19.531C12.4055 19.531 12.4897 19.5586 12.4897 19.6138C12.4336 19.4483 12.3213 19.3655 12.1529 19.3655L12.2371 19.4483L12.1529 19.531L12.0687 19.4483V19.2828H12.2371C12.2932 19.3379 12.3494 19.3379 12.4055 19.2828H12.5739L12.3213 19.1172C12.3213 19.0621 12.3774 19.0345 12.4897 19.0345V19.1172L12.5739 19.0345C12.5178 19.0345 12.4897 18.9793 12.4897 18.869V18.7862H12.4055L12.3213 18.869V18.9517H12.2371C12.2932 18.8965 12.2932 18.7862 12.2371 18.6207H12.1529C12.1529 18.5655 12.2371 18.4552 12.4055 18.2897L12.2371 18.0414L12.1529 18.1241L12.2371 17.9586H12.3213L12.2371 17.8759C12.181 17.8759 12.209 17.7379 12.3213 17.4621L12.2371 17.5448H11.9003V17.131L12.0687 17.0483H12.1529L12.0687 16.9655H12.2371V17.131L12.3213 17.0483V16.9655C12.3774 16.8552 12.3774 16.7448 12.3213 16.6345C12.2652 16.5241 12.2932 16.4138 12.4055 16.3034V16.0552C12.2932 16.1655 12.209 16.2207 12.1529 16.2207C12.0968 16.1655 12.0687 16.0828 12.0687 15.9724V15.8897C12.1249 15.8897 12.181 15.9172 12.2371 15.9724V15.8069C12.2371 15.6965 12.2652 15.5586 12.3213 15.3931C12.2652 15.3379 12.1529 15.3103 11.9845 15.3103L12.4897 11.5862C12.6581 10.3724 12.7984 9.13104 12.9107 7.86207L12.5739 4.88276C12.4616 3.94483 12.3774 3.0069 12.3213 2.06896L12.8265 1.32414C12.9948 1.21379 13.2755 0.910345 13.6684 0.413793C13.949 0.413793 14.1455 0.358619 14.2577 0.248273C14.6506 0.248273 15.0155 0.165515 15.3522 0C15.8013 0.331034 16.0258 0.468964 16.0258 0.413793L16.11 0.331035C16.2222 0.386207 16.3625 0.49655 16.5309 0.662065C16.6993 0.827584 16.8958 0.855171 17.1203 0.744828C17.6816 1.57241 18.0745 2.67586 18.299 4.05517C18.8041 4.22069 19.4215 4.8 20.1512 5.7931C20.5441 6.62069 21.0212 7.91724 21.5825 9.68276C21.6386 9.95862 21.7228 10.1793 21.8351 10.3448C21.8912 10.4 21.8912 10.4552 21.8351 10.5103C21.7789 10.6207 21.807 10.6759 21.9192 10.6759C22.3121 11.8345 22.6208 12.8552 22.8454 13.7379L22.7612 13.8207L22.8454 13.9034L22.7612 14.069H22.8454C22.677 14.1241 22.5928 14.2069 22.5928 14.3172C22.5928 14.3724 22.6489 14.4276 22.7612 14.4828C22.9857 14.6483 22.9576 14.731 22.677 14.731C22.677 14.8966 22.6489 14.9793 22.5928 14.9793L22.5086 15.0621L22.5928 15.1448C22.5928 15.3103 22.5086 15.3379 22.3402 15.2276V15.4759V15.5586L22.4244 15.4759V15.8069L22.3402 15.9724H22.4244C22.4805 15.9724 22.5086 16.0276 22.5086 16.1379C22.5086 16.5793 22.5367 16.7448 22.5928 16.6345C22.705 16.8 22.8173 17.1586 22.9296 17.7103C22.9296 17.8207 22.9296 17.8759 22.9296 17.8759H22.8454L22.9296 18.0414H23.0137C23.1821 18.2069 23.2383 18.2897 23.1821 18.2897H23.0137L23.0979 18.4552H23.0137L23.0979 18.6207L23.0137 18.7034V18.7862V18.869C22.9576 19.0345 22.9296 19.1172 22.9296 19.1172H22.8454L22.9296 19.2C22.9857 19.2552 22.9576 19.3379 22.8454 19.4483L23.0137 19.531H22.9296V19.6138C23.0418 19.6138 23.0979 19.6414 23.0979 19.6966L23.2663 19.9448H23.8557L23.7715 20.0276H23.6873C23.575 20.0276 23.3786 20.0828 23.0979 20.1931V20.1103L23.0137 20.1931V20.3586H22.8454V20.5241L23.0137 20.6897V20.7724H23.5189V21.0207H23.6873C23.6312 21.0207 23.6031 21.0759 23.6031 21.1862L23.6873 21.269H23.7715V21.5172C24.0521 21.7931 24.2766 21.9862 24.445 22.0965C24.445 22.3172 24.5292 22.4828 24.6976 22.5931C24.9221 22.7034 25.0624 22.8138 25.1186 22.9241C25.3992 23.2 25.5956 23.3379 25.7079 23.3379C25.9885 23.7793 26.3814 24.4414 26.8866 25.3241C26.8866 25.4897 26.9147 25.5724 26.9708 25.5724C27.083 25.5724 27.1392 25.6276 27.1392 25.7379L27.3076 25.6552C27.1392 25.4897 27.083 25.2966 27.1392 25.0759V23.9172C27.083 23.6414 27.055 23.4207 27.055 23.2552C26.9989 23.0897 27.0269 22.869 27.1392 22.5931C27.2514 22.3724 27.2234 22.1517 27.055 21.931C27.055 21.6 27.083 21.2414 27.1392 20.8552C27.1392 20.469 27.1111 20.1103 27.055 19.7793C27.055 19.7241 27.0269 19.669 26.9708 19.6138C26.9708 19.5034 26.9989 19.3655 27.055 19.2C27.055 17.4345 27.1953 16.2483 27.4759 15.6414C27.5321 15.6966 27.5601 15.5862 27.5601 15.3103C27.6724 14.7586 27.7285 14.3724 27.7285 14.1517H27.8127C27.8127 14.0414 28.0372 12.4138 28.4863 9.26896L28.7388 8.68965C28.6827 8.68965 28.6266 8.71724 28.5704 8.77241V7.61379L28.4863 7.53103C28.5985 6.5931 28.9072 5.51724 29.4124 4.30345C29.4124 4.02759 29.5527 3.75172 29.8333 3.47586C30.4507 3.25517 30.984 3.14483 31.433 3.14483C31.882 3.14483 32.2749 3.22759 32.6117 3.3931C33.5659 4.16552 34.0149 4.9931 33.9588 5.87586C33.9588 6.2069 33.9307 6.48276 33.8746 6.70345C33.7623 6.97931 33.7623 7.22759 33.8746 7.44828L33.7904 8.02759L33.2852 8.77241L33.1168 10.3448L33.201 10.4276L33.1168 10.5103C33.0607 11.0621 32.9765 11.9172 32.8643 13.0759C32.752 14.2345 32.6678 15.0897 32.6117 15.6414V17.131C32.4994 20 32.4433 21.7103 32.4433 22.2621C32.2749 23.8069 32.2468 25.3241 32.3591 26.8138C32.4714 28.4138 32.5556 29.9034 32.6117 31.2828C32.6117 31.4483 32.6678 31.531 32.7801 31.531C32.9485 31.4759 33.0326 31.531 33.0326 31.6965C32.8643 31.6965 32.752 31.7241 32.6959 31.7793L32.6117 31.9448L32.5275 31.8621L32.6117 32.0276H32.5275C32.6397 32.3034 32.6678 32.4414 32.6117 32.4414L32.4433 33.3517L32.5275 33.4345V33.8483H32.6117L32.5275 33.931L32.6117 34.0138H32.6959V34.1793H32.5275C32.5275 34.3448 32.5836 34.4276 32.6959 34.4276H32.8643C32.6959 34.5379 32.6678 34.5931 32.7801 34.5931L32.9485 34.6759V34.8414L32.8643 35.0069C32.8081 34.9517 32.7801 34.9793 32.7801 35.0897H32.9485C33.0046 35.2552 33.0046 35.3931 32.9485 35.5034C32.9485 35.6138 32.9765 35.6966 33.0326 35.7517C33.1449 35.7517 33.201 35.8069 33.201 35.9172L33.3694 36.0828V36H33.4536C33.3414 35.6138 33.2852 35.5034 33.2852 35.669C33.173 35.669 33.201 35.5862 33.3694 35.4207H33.201C33.2572 35.2552 33.4536 35.1724 33.7904 35.1724C33.9588 35.4483 34.0149 35.6966 33.9588 35.9172L33.7062 36.1655L33.7904 36.2483C33.6781 36.2483 33.5659 36.3034 33.4536 36.4138C33.3975 36.5241 33.3414 36.5517 33.2852 36.4965V36.6621C33.3975 36.6621 33.4817 36.6345 33.5378 36.5793L33.622 36.6621L33.4536 36.8276H33.5378L33.4536 36.9103V36.9931H33.3694C33.3694 37.0483 33.3975 37.131 33.4536 37.2414C33.5097 37.2966 33.5939 37.3793 33.7062 37.4897L33.8746 37.3241L33.7904 37.2414L33.7062 37.3241H33.7904L33.7062 37.4069C33.5939 37.4069 33.622 37.3241 33.7904 37.1586C33.6781 37.1035 33.5659 37.0483 33.4536 36.9931L33.5378 36.9103L33.622 36.8276C33.622 36.9379 33.6501 36.9931 33.7062 36.9931V37.0759H33.7904V37.2414H33.9588C33.9588 37.2966 33.9307 37.3517 33.8746 37.4069L33.9588 37.4897C34.0149 37.4345 34.071 37.4069 34.1271 37.4069C34.1833 37.4069 34.2394 37.4345 34.2955 37.4897H34.043V37.5724C34.1552 37.6276 34.3236 37.6552 34.5481 37.6552L34.3797 37.4897C34.3236 37.3793 34.2394 37.2414 34.1271 37.0759H34.2113C33.8746 36.9103 33.7623 36.8276 33.8746 36.8276L33.9588 36.7448L34.043 36.6621L34.1271 36.5793C34.2394 36.469 34.3797 36.469 34.5481 36.5793C34.7165 36.7448 34.8288 36.6897 34.8849 36.4138C34.9971 36.3586 35.0533 36.2483 35.0533 36.0828C35.3339 36.0828 35.4742 36.1379 35.4742 36.2483H35.39V36.1655C35.2217 36.1655 35.1655 36.2483 35.2216 36.4138C35.2778 36.5793 35.2216 36.6621 35.0533 36.6621C34.9971 36.7172 35.0533 36.8828 35.2216 37.1586C35.39 37.1586 35.4742 37.2138 35.4742 37.3241C35.4742 37.4345 35.5023 37.5172 35.5584 37.5724C35.5584 37.6276 35.5584 37.7103 35.5584 37.8207C35.8952 38.4828 36.0636 38.731 36.0636 38.5655C36.4565 39.2276 37.1019 40.2483 38 41.6276C37.8316 41.6276 37.6913 41.5172 37.579 41.2966C37.4668 41.0759 37.3545 40.9655 37.2423 40.9655C37.1861 40.9655 37.1019 41.0207 36.9897 41.131C37.0458 40.9103 36.9897 40.6621 36.8213 40.3862C36.7652 40.2759 36.6529 40.1379 36.4845 39.9724C36.3162 39.8069 36.232 39.6414 36.232 39.4759L36.1478 39.3931V39.2276L35.811 39.1448L35.8952 39.0621L35.811 38.9793C35.7549 39.0345 35.7268 38.9517 35.7268 38.731L35.6426 38.8138C35.6426 38.7586 35.6145 38.6759 35.5584 38.5655L35.39 38.8138L35.4742 38.8966C35.4742 39.0069 35.4462 39.0621 35.39 39.0621H35.5584L35.6426 39.1448H35.7268V39.4759C35.5584 39.3655 35.4462 39.3103 35.39 39.3103C35.3339 39.3655 35.362 39.4759 35.4742 39.6414H35.3058C35.3058 39.7517 35.362 39.8069 35.4742 39.8069C35.4742 40.0828 35.4181 40.2207 35.3058 40.2207L35.4742 40.3862L35.39 40.3034V40.3862L35.6426 40.6345V40.7172V40.6345C35.7549 40.7448 35.7549 40.8 35.6426 40.8V40.7172C35.5865 40.7172 35.5304 40.7724 35.4742 40.8828C35.5304 40.8276 35.5304 40.7448 35.4742 40.6345V40.7172H35.39L35.3058 40.8C35.1936 40.8 35.1936 40.8552 35.3058 40.9655C35.4742 41.1862 35.6426 41.2414 35.811 41.131L35.8952 41.0483V41.131H35.9794C36.0355 41.0207 36.0636 41.0759 36.0636 41.2966C36.0636 41.5172 36.0916 41.6552 36.1478 41.7103L36.4003 41.9586C36.5126 41.7379 36.6249 41.6 36.7371 41.5448C36.9055 41.5448 37.0458 41.6 37.1581 41.7103C37.2703 41.9862 37.2703 42.2621 37.1581 42.5379L36.7371 42.9517V43.0345L36.6529 43.1172H36.5687C36.4003 43.0621 36.3162 43.0069 36.3162 42.9517C36.26 42.9517 36.26 42.8966 36.3162 42.7862L36.232 42.7035C36.2881 42.6483 36.2881 42.5931 36.232 42.5379L36.1478 42.6207L35.8952 42.3724ZM35.0533 30.2069C35.0533 30.2621 34.941 30.4552 34.7165 30.7862C34.5481 31.0621 34.52 31.2828 34.6323 31.4483C34.4639 31.5586 34.3236 31.7517 34.2113 32.0276C34.1552 32.3034 34.071 32.4414 33.9588 32.4414L33.622 32.2759C33.0607 31.2276 32.8362 30.5379 32.9485 30.2069C32.8923 30.2069 32.8643 30.1517 32.8643 30.0414L32.9485 30.1241C32.9485 29.9034 33.0607 29.5724 33.2852 29.131C33.0607 28.9655 32.9765 28.8 33.0326 28.6345C33.1449 28.4138 33.1168 28.2207 32.9485 28.0552C32.9485 27.8897 33.0046 27.7793 33.1168 27.7241C33.2852 27.7241 33.3694 27.7793 33.3694 27.8897C33.3133 28 33.2852 28.0828 33.2852 28.1379C33.2852 28.1931 33.3414 28.2483 33.4536 28.3034C33.5659 28.3586 33.622 28.469 33.622 28.6345C33.6781 28.6345 33.7343 28.6069 33.7904 28.5517C33.9026 28.4414 34.043 28.3862 34.2113 28.3862C34.492 28.331 34.7726 28.5241 35.0533 28.9655V30.2069ZM36.232 47.5035C35.8952 47.8345 35.6987 48 35.6426 48C35.2497 47.8897 34.9971 47.669 34.8849 47.3379C34.6042 46.8966 34.6042 46.4552 34.8849 46.0138C34.8849 45.8483 34.941 45.7379 35.0533 45.6828C35.1655 45.6828 35.2216 45.6276 35.2216 45.5172H35.4742C35.6426 45.5172 35.8952 45.6276 36.232 45.8483C36.3442 46.2345 36.4003 46.5655 36.4003 46.8414C36.4003 47.1172 36.3442 47.3379 36.232 47.5035ZM36.6529 1.40689C36.7652 1.62758 36.709 1.90345 36.4845 2.23448C36.0355 2.4 35.7829 2.45517 35.7268 2.4C35.6145 2.34483 35.4462 2.15172 35.2216 1.82069C35.1094 1.6 35.1655 1.35172 35.39 1.07586C35.5023 1.07586 35.5865 1.04828 35.6426 0.993101C35.6987 0.882757 35.811 0.827585 35.9794 0.827585C36.4284 0.993104 36.6529 1.18621 36.6529 1.40689ZM35.2216 10.0965C35.2778 10.2069 35.2497 10.5103 35.1375 11.0069C34.8007 11.2276 34.52 11.2828 34.2955 11.1724C34.071 11.0069 33.9588 10.7862 33.9588 10.5103C33.9588 10.4 33.9868 10.2621 34.043 10.0965C34.0991 9.87586 34.3236 9.71034 34.7165 9.6C34.941 9.71034 35.1094 9.87586 35.2216 10.0965ZM36.232 31.6965C36.232 32.0828 36.0636 32.3035 35.7268 32.3586C35.2778 32.5241 35.0533 32.4138 35.0533 32.0276C34.9971 31.9724 34.9691 31.8897 34.9691 31.7793C34.9691 31.669 34.9971 31.5586 35.0533 31.4483L35.7268 31.1172C36.0636 31.2276 36.232 31.4207 36.232 31.6965ZM33.4536 26.5655C33.4536 27.1172 33.3414 27.4207 33.1168 27.4759C32.6678 27.3655 32.4994 27.1172 32.6117 26.731C32.7239 26.4 32.8362 26.2069 32.9485 26.1517C33.1168 26.0966 33.2852 26.2345 33.4536 26.5655ZM23.8557 32.0276L23.9399 32.1103V32.1931C23.8276 32.0828 23.7434 32.0276 23.6873 32.0276C23.575 32.2483 23.6031 32.4138 23.7715 32.5241H23.9399V32.6069H23.7715C23.7153 32.6069 23.6592 32.5793 23.6031 32.5241H23.5189L22.9296 32.2759C22.9296 32.331 22.9576 32.3862 23.0137 32.4414H22.8454V32.3586L22.7612 32.2759C22.5928 32.4414 22.5367 32.5241 22.5928 32.5241V32.6069L22.5086 32.5241C22.3963 32.5241 22.3963 32.469 22.5086 32.3586C22.4525 32.3035 22.5367 32.2759 22.7612 32.2759C22.705 32.2759 22.705 32.2207 22.7612 32.1103L23.0979 31.7793H23.1821L23.2663 31.6965L23.1821 31.8621C23.1821 31.9172 23.2383 31.9448 23.3505 31.9448L23.2663 31.8621L23.3505 31.7793V31.9448C23.4066 31.8897 23.4908 31.8345 23.6031 31.7793L23.6873 31.6965V31.7793C23.6873 31.8345 23.7434 31.8621 23.8557 31.8621C23.8557 31.9724 23.8557 32.0276 23.8557 32.0276ZM18.2148 22.9241L17.9622 21.931C18.0183 21.931 17.9341 22.069 17.7096 22.3448C17.878 22.3448 17.9622 22.3724 17.9622 22.4276L17.878 22.5103C17.878 22.6759 17.7938 22.8414 17.6254 23.0069H17.5412V23.0897L17.6254 23.1724V23.4207H17.5412C17.5412 23.531 17.5693 23.5862 17.6254 23.5862C17.6254 23.4759 17.6535 23.4207 17.7096 23.4207V23.5862C17.7658 23.5862 17.7938 23.669 17.7938 23.8345H17.878C17.878 23.5586 17.9903 23.2552 18.2148 22.9241ZM35.5584 15.0621C35.5584 15.2828 35.4742 15.3931 35.3058 15.3931C35.0252 15.3931 34.8568 15.3379 34.8007 15.2276C34.6884 15.0621 34.7726 14.8966 35.0533 14.731C35.39 14.5655 35.5584 14.6759 35.5584 15.0621ZM33.5378 25.5724C33.5378 25.7379 33.4817 25.8759 33.3694 25.9862C33.201 26.0414 33.0607 25.931 32.9485 25.6552C32.9485 25.3793 33.0326 25.2138 33.201 25.1586C33.2572 25.2138 33.3694 25.3517 33.5378 25.5724ZM34.6323 6.45517C34.6323 6.67586 34.5481 6.81379 34.3797 6.86897C34.1552 6.86897 34.0149 6.78621 33.9588 6.62069C33.9588 6.45517 34.043 6.31724 34.2113 6.2069C34.3236 6.15172 34.4639 6.23448 34.6323 6.45517ZM34.1271 33.0207C34.1271 33.2414 34.043 33.3793 33.8746 33.4345C33.7623 33.4345 33.6501 33.3241 33.5378 33.1034C33.5378 32.9379 33.622 32.8 33.7904 32.6897C33.9026 32.7448 34.0149 32.8552 34.1271 33.0207ZM25.8763 21.3517L25.7921 21.269V21.3517C25.6237 21.1862 25.5676 21.0759 25.6237 21.0207V20.7724C25.5676 20.7172 25.5115 20.7172 25.4553 20.7724C25.4553 20.6069 25.3711 20.4966 25.2027 20.4414C24.9782 20.4414 25.0063 20.3862 25.2869 20.2759V20.1931L25.6237 20.6069C25.8482 20.8828 25.9324 21.131 25.8763 21.3517ZM22.5928 31.6138C22.5367 31.669 22.4805 31.6965 22.4244 31.6965H22.3402V31.7793L22.1718 32.0276L22.0876 32.1103V32.0276C22.0315 32.0828 22.0034 32 22.0034 31.7793C21.7789 31.7241 21.6386 31.669 21.5825 31.6138C21.6947 31.669 21.7509 31.6138 21.7509 31.4483C21.9192 31.4483 22.0876 31.531 22.256 31.6965L22.3402 31.6138L22.4244 31.6965C22.5367 31.6414 22.5928 31.6138 22.5928 31.6138ZM17.1203 19.2L16.9519 19.3655H16.8677C16.8677 19.4207 16.8396 19.4759 16.7835 19.531L16.8677 19.6138V19.7793H16.7835V19.8621L16.6993 19.7793C16.7554 19.8345 16.7274 19.9724 16.6151 20.1931L16.8677 20.0276V20.1103C16.8677 19.8897 16.8958 19.8069 16.9519 19.8621H17.0361C17.0922 19.4207 17.1203 19.2 17.1203 19.2ZM35.0533 42.9517H34.9691L34.8849 43.0345L34.8007 43.2H34.8849H35.0533L34.8007 43.3655C34.6323 43.0897 34.5762 42.9517 34.6323 42.9517C34.6884 42.9517 34.7446 42.9793 34.8007 43.0345C34.6323 42.869 34.6323 42.7586 34.8007 42.7035C34.8568 42.7035 34.9129 42.6483 34.9691 42.5379C35.0252 42.5931 35.0533 42.731 35.0533 42.9517ZM26.0447 32.6069C25.6518 32.6069 25.4273 32.5793 25.3711 32.5241C25.315 32.5793 25.2589 32.5793 25.2027 32.5241C25.0344 32.5241 24.9221 32.4966 24.866 32.4414H25.0344V32.3586H25.1186L25.0344 32.2759H25.2027C25.2589 32.331 25.315 32.3034 25.3711 32.1931C25.5956 32.4138 25.6798 32.5241 25.6237 32.5241C25.6237 32.5793 25.764 32.6069 26.0447 32.6069ZM36.1478 0.413793C36.1478 0.634483 36.0636 0.744828 35.8952 0.744828C35.7829 0.744828 35.6987 0.71724 35.6426 0.662065C35.6426 0.551722 35.6426 0.468964 35.6426 0.413793C35.6426 0.358621 35.7268 0.331035 35.8952 0.331035C36.0636 0.386207 36.1478 0.413793 36.1478 0.413793ZM22.5928 30.7034C22.3121 30.7034 22.1718 30.7862 22.1718 30.9517H22.0034C21.7789 30.9517 21.7509 30.869 21.9192 30.7034V30.6207C21.9192 30.5103 22.0034 30.5103 22.1718 30.6207C22.2841 30.6759 22.3683 30.6483 22.4244 30.5379C22.5367 30.6483 22.5928 30.7034 22.5928 30.7034ZM35.0533 5.7931C35.0533 6.01379 34.9691 6.04138 34.8007 5.87586L34.6323 5.71034L34.8007 5.54483C34.9691 5.71035 35.0533 5.7931 35.0533 5.7931ZM34.8007 41.4621L34.7165 41.2966L34.5481 41.3793H34.4639L34.5481 41.2966L34.4639 41.2138V41.2966C34.3517 41.4069 34.2955 41.4069 34.2955 41.2966C34.1271 41.4621 34.071 41.5448 34.1271 41.5448H34.043L34.2113 41.6276V41.5448C34.3236 41.5448 34.4078 41.5724 34.4639 41.6276C34.6884 41.5172 34.8007 41.4621 34.8007 41.4621ZM21.1615 31.3655H21.0773V31.531H20.9931C20.937 31.5862 20.8528 31.6414 20.7406 31.6965C20.6283 31.7517 20.5441 31.8069 20.488 31.8621L20.5722 31.9448L20.4038 31.8621L20.9931 31.2828C21.1054 31.3379 21.1615 31.3655 21.1615 31.3655ZM35.3058 41.9586H35.39L35.3058 42.0414V42.1241H35.2216L35.1375 42.2069L35.2216 42.2897C35.1655 42.4 35.1655 42.4552 35.2216 42.4552C35.1094 42.4 35.0533 42.3448 35.0533 42.2897L34.9691 42.3724L34.8849 42.2897L34.8007 42.2069V42.1241H34.8849L34.9691 42.2069L35.0533 42.0414H35.2216L35.1375 41.9586C35.2497 41.9586 35.3058 41.9586 35.3058 41.9586ZM35.1375 38.6483C35.0252 38.5379 34.941 38.4828 34.8849 38.4828C34.8288 38.5379 34.8007 38.6207 34.8007 38.731H34.7165V38.8138L34.8007 38.8966V38.9793L34.8849 38.8138H34.9691L35.1375 38.6483ZM34.8007 2.97931C34.8007 3.2 34.6884 3.25517 34.4639 3.14483C34.4639 2.97931 34.492 2.89655 34.5481 2.89655C34.7165 2.95172 34.8007 2.97931 34.8007 2.97931ZM25.0344 31.9448L24.866 32.1103H24.9502L24.7818 32.1931V32.0276L24.6134 32.1103L24.6976 32.0276C24.6415 32.0276 24.6134 31.9724 24.6134 31.8621H24.6976V31.6965L24.866 31.7793L24.7818 31.8621L25.0344 31.9448ZM12.7423 26.2345L12.6581 25.9034H12.4055L12.3213 26.1517C12.6019 26.2069 12.7423 26.2345 12.7423 26.2345ZM10.3007 24.6621C10.2446 24.6069 10.2165 24.5241 10.2165 24.4138C10.2165 24.3586 10.2446 24.3034 10.3007 24.2483L10.4691 24.1655C10.5252 24.2759 10.4971 24.3862 10.3849 24.4965L10.3007 24.6621ZM26.1289 33.6828L26.0447 33.7655C25.9885 33.7103 25.9044 33.6828 25.7921 33.6828L25.7079 33.6C25.764 33.5448 25.7921 33.4621 25.7921 33.3517L25.8763 33.4345V33.3517L25.9605 33.269V33.3517L26.0447 33.4345L25.9605 33.5172C26.0727 33.6276 26.1289 33.6828 26.1289 33.6828ZM12.6581 23.1724C12.5458 23.2276 12.4897 23.2 12.4897 23.0897L12.2371 22.9241H12.4055V22.8414L12.4897 22.7586L12.3213 22.6759H12.4897C12.5458 22.731 12.5739 22.8138 12.5739 22.9241L12.4897 23.0069L12.5739 23.0897H12.6581V23.0069H12.7423C12.6861 23.0621 12.6581 23.1172 12.6581 23.1724ZM10.3849 25.3241C9.93585 25.1034 9.87973 24.9931 10.2165 24.9931L10.3007 24.9103C10.3007 25.0207 10.3288 25.1586 10.3849 25.3241ZM33.7062 23.5862C33.7062 23.7517 33.6501 23.8345 33.5378 23.8345C33.3133 23.6138 33.3133 23.5034 33.5378 23.5034C33.6501 23.5586 33.7062 23.5862 33.7062 23.5862ZM36.0636 3.14483C36.0636 3.36552 35.9794 3.42069 35.811 3.31034C35.7549 3.36552 35.7268 3.31034 35.7268 3.14483L35.811 2.97931C35.9794 3.08965 36.0636 3.14483 36.0636 3.14483ZM33.7904 22.5103C33.7904 22.6207 33.7343 22.6759 33.622 22.6759C33.5097 22.6759 33.4536 22.6207 33.4536 22.5103C33.4536 22.4 33.5097 22.3448 33.622 22.3448C33.7343 22.4552 33.7904 22.5103 33.7904 22.5103ZM34.9691 38.3172L34.8849 38.2345H34.4639L34.2955 37.9862H34.3797L34.2955 37.9034L34.2113 38.069C34.3797 38.2345 34.52 38.3172 34.6323 38.3172C34.7446 38.3172 34.8568 38.3172 34.9691 38.3172ZM35.39 7.11724C35.39 7.22759 35.362 7.31034 35.3058 7.36552C35.1936 7.36552 35.1375 7.28276 35.1375 7.11724C35.1375 6.95172 35.2217 6.95172 35.39 7.11724ZM24.3608 32.0276L24.2766 32.1103H24.0241L23.9399 31.8621H23.8557V31.6965C23.9679 31.6965 24.0802 31.7517 24.1924 31.8621C24.3047 31.9724 24.3608 32.0276 24.3608 32.0276ZM24.6976 31.1172L24.3608 31.2828C24.3608 31.3931 24.3889 31.4483 24.445 31.4483C24.3889 31.4483 24.3328 31.4759 24.2766 31.531C24.2205 31.4759 24.2486 31.3931 24.3608 31.2828L24.1924 31.3655V31.2828L24.2766 31.2C24.445 31.1448 24.5853 31.1172 24.6976 31.1172ZM23.5189 32.8552C23.4066 32.8552 23.3225 32.8276 23.2663 32.7724C23.2102 32.6621 23.126 32.6069 23.0137 32.6069C23.1821 32.9379 23.2663 33.0483 23.2663 32.9379L23.5189 32.8552ZM21.9192 32.0276H21.4983C21.4983 31.8069 21.4702 31.6965 21.4141 31.6965V31.6138C21.5825 31.7793 21.7509 31.9172 21.9192 32.0276ZM19.0567 26.731C18.8322 26.2897 18.6638 25.9862 18.5515 25.8207C18.6638 25.8207 18.7199 25.8483 18.7199 25.9034H18.8041V26.1517L18.8883 26.2345H18.8041L19.0567 26.731ZM33.9588 20.7724L33.8746 20.8552L33.7904 20.7724V20.6069L33.8746 20.5241C34.0991 20.5241 34.1271 20.6069 33.9588 20.7724ZM35.5584 42.6207L35.3058 42.7862L35.1375 42.6207H35.3058L35.2216 42.5379L35.3058 42.4552L35.39 42.6207H35.5584ZM23.2663 19.2C23.2663 19.531 23.2102 19.5862 23.0979 19.3655H23.0137L23.0979 19.1172C23.2102 19.1724 23.2663 19.2 23.2663 19.2ZM19.3093 27.0621H19.1409L19.0567 26.8138V26.6483C19.2251 26.9241 19.3093 27.0621 19.3093 27.0621ZM11.9845 27.3103C11.76 27.3103 11.6758 27.2828 11.732 27.2276V27.1448C11.732 27.0897 11.7881 27.0897 11.9003 27.1448L11.8162 27.0621C11.8162 27.0069 11.8723 27.0345 11.9845 27.1448V27.3103ZM35.0533 39.1448V39.0621H34.9691L34.8849 39.1448V39.2276L34.9691 39.3103L34.8849 39.3931H34.8007C34.8568 39.4483 34.941 39.4207 35.0533 39.3103V39.1448ZM25.7921 32.1103C25.6798 32.2207 25.6237 32.2483 25.6237 32.1931L25.5395 32.1103C25.3711 32.1103 25.3711 32.0552 25.5395 31.9448C25.5395 31.8897 25.6237 31.9448 25.7921 32.1103ZM35.0533 5.13103C35.0533 5.29655 35.0252 5.37931 34.9691 5.37931C34.8568 5.37931 34.8007 5.35172 34.8007 5.29655C34.9691 5.18621 35.0533 5.13103 35.0533 5.13103ZM34.7165 42.3724H34.8007C34.8007 42.5379 34.7726 42.5931 34.7165 42.5379C34.5481 42.5379 34.4639 42.5103 34.4639 42.4552H34.5481L34.6323 42.3724L34.7165 42.4552L34.6323 42.2897L34.7165 42.3724ZM35.39 38.3172C35.3339 38.2069 35.2216 38.0966 35.0533 37.9862C34.9971 37.9862 34.9971 38.069 35.0533 38.2345L35.39 38.3172ZM26.1289 32.1103H25.9605C25.9605 32.4414 26.0447 32.469 26.2131 32.1931L26.1289 32.1103ZM12.6581 25.7379V25.6552L12.5739 25.4897C12.4616 25.6 12.3774 25.6276 12.3213 25.5724C12.3774 25.6276 12.4055 25.6828 12.4055 25.7379L12.4897 25.6552L12.5739 25.8207L12.6581 25.7379ZM30.9278 43.2L30.6753 43.4483C30.3385 43.4483 30.4227 43.3655 30.9278 43.2ZM34.5481 32.8552H34.4639C34.4078 32.9655 34.3797 32.8552 34.3797 32.5241C34.492 32.7448 34.5481 32.8552 34.5481 32.8552ZM34.8849 38.069L34.8007 37.9862H34.7165L34.6323 37.9034L34.4639 37.9862C34.5762 37.931 34.6323 37.9586 34.6323 38.069C34.6323 38.1793 34.7165 38.1793 34.8849 38.069ZM13.2474 33.6V33.5172C13.3036 33.5172 13.3597 33.4897 13.4158 33.4345L13.5 33.6C13.3316 33.6 13.2474 33.6 13.2474 33.6ZM20.7406 30.5379C20.6844 30.4828 20.6564 30.3448 20.6564 30.1241C20.7125 30.4 20.7406 30.5379 20.7406 30.5379ZM31.1804 42.2897C31.0682 42.5103 30.984 42.6483 30.9278 42.7035C31.2085 42.5931 31.2927 42.4552 31.1804 42.2897ZM19.8144 28.2207L19.7302 28.0552C19.6741 28 19.646 27.8897 19.646 27.7241L19.8144 28.2207ZM11.9845 28.2207C11.8162 28.3862 11.732 28.4414 11.732 28.3862L11.6478 28.3034C11.8723 28.2483 11.9845 28.2207 11.9845 28.2207ZM26.2973 34.0966V34.1793L26.2131 34.2621L26.0447 34.1793H26.1289C26.0727 34.1793 26.1289 34.1517 26.2973 34.0966ZM12.6581 32.3586L12.5739 32.4414C12.5739 32.4414 12.5178 32.469 12.4055 32.5241C12.4055 32.3035 12.4897 32.2483 12.6581 32.3586ZM10.5533 25.8207L10.4691 25.9862H10.3007C10.3007 25.931 10.3849 25.8759 10.5533 25.8207ZM26.8024 26.8966L26.4656 26.731C26.4656 26.8414 26.5218 26.8966 26.634 26.8966L26.5498 26.9793V27.0621C26.7182 26.9517 26.8024 26.8966 26.8024 26.8966ZM12.9948 28.8828L12.9107 28.9655V28.8828H12.6581L12.7423 28.8H12.8265L12.9948 28.8828ZM33.8746 41.8759V41.7103C33.8746 41.7655 33.8184 41.7931 33.7062 41.7931C33.7062 42.0138 33.7623 42.0414 33.8746 41.8759ZM33.7062 36.6621H33.7904V36.8276H33.7062C33.6501 36.8828 33.6501 36.8276 33.7062 36.6621ZM24.2766 32.9379C24.3328 32.9379 24.3889 32.9931 24.445 33.1034C24.1082 33.1034 24.0521 33.0483 24.2766 32.9379ZM17.2045 19.1172L17.1203 19.0345L17.0361 19.1172V19.0345L16.9519 18.9517H16.8677L16.9519 19.0345L17.2045 19.1172ZM34.2955 36.4138L34.043 36.1655C34.2113 36.1103 34.2955 36.1931 34.2955 36.4138ZM12.2371 27.3103C12.2371 27.4759 12.209 27.531 12.1529 27.4759H12.0687C12.181 27.3655 12.2371 27.3103 12.2371 27.3103ZM24.3608 30.869C24.3047 30.9241 24.1924 30.9517 24.0241 30.9517H23.8557C24.1924 30.8966 24.3608 30.869 24.3608 30.869ZM24.1924 19.7793V19.8621H24.0241C23.9679 19.8621 23.9118 19.8345 23.8557 19.7793C24.0802 19.7793 24.1924 19.7793 24.1924 19.7793ZM23.4347 30.9517L23.2663 30.7862L23.1821 30.869V30.7862H23.2663H23.1821L23.2663 30.7034C23.3225 30.6483 23.3786 30.6207 23.4347 30.6207L23.3505 30.7034L23.4347 30.9517ZM23.7715 33.0207L23.8557 33.1034C23.9679 33.0483 24.0802 32.9931 24.1924 32.9379H24.0241C23.8557 32.9931 23.7715 33.0207 23.7715 33.0207ZM10.7216 24.9931L10.4691 25.0759V24.9103L10.5533 24.9931L10.6375 24.9103L10.7216 24.9931ZM13.5 34.7586C13.4439 34.7034 13.3597 34.6759 13.2474 34.6759C13.3036 34.6207 13.3877 34.6483 13.5 34.7586ZM24.0241 19.8621L23.8557 19.9448H24.2766C24.1082 19.8897 24.0241 19.8621 24.0241 19.8621ZM26.2973 26.4828L26.1289 26.3172V26.4C26.2411 26.4552 26.2973 26.4828 26.2973 26.4828ZM12.5739 17.2966C12.5739 17.2414 12.5178 17.2138 12.4055 17.2138L12.4897 17.3793H12.4055L12.4897 17.4621L12.5739 17.2966ZM12.1529 29.3793C12.0968 29.3241 12.0687 29.1862 12.0687 28.9655C12.1249 29.2414 12.1529 29.3793 12.1529 29.3793ZM22.1718 14.731V14.4828C22.0034 14.4828 22.0034 14.5655 22.1718 14.731ZM26.2131 31.8621L26.0447 31.6965C26.1569 31.9724 26.2411 32 26.2973 31.7793L26.2131 31.8621ZM35.6426 39.5586V39.8069L35.5584 39.8897V39.7241C35.6145 39.6138 35.6426 39.5586 35.6426 39.5586ZM24.9502 31.1172H24.6976C24.7537 31.0621 24.8379 31.0621 24.9502 31.1172ZM23.1821 19.9448L23.0979 19.8621H22.9296L23.0137 19.9448C23.0699 20.0552 23.126 20.0552 23.1821 19.9448ZM34.8849 45.3517C34.5481 45.2966 34.4639 45.269 34.6323 45.269L34.8849 45.3517ZM24.2766 19.9448L24.3608 19.7793L24.445 19.6966C24.445 19.8621 24.3889 19.9448 24.2766 19.9448ZM12.2371 22.1793C12.3494 22.1793 12.4055 22.1241 12.4055 22.0138C12.4055 22.1241 12.4055 22.1793 12.4055 22.1793H12.2371ZM12.3213 23.2552C12.1529 23.3103 12.1249 23.3655 12.2371 23.4207V23.3379L12.3213 23.4207V23.2552ZM34.4639 43.6138L34.5481 43.6966H34.6323V43.7793L34.4639 43.6138ZM23.9399 30.3724L23.8557 30.2897H23.7715V30.3724H23.9399ZM24.0241 31.2H23.8557L23.9399 31.0345L24.0241 31.2ZM35.2216 44.1103C35.1655 44.0552 35.0533 44.0276 34.8849 44.0276V43.9448C35.1094 44.0552 35.2216 44.1103 35.2216 44.1103ZM12.0687 27.8069V27.5586C12.1249 27.669 12.181 27.7241 12.2371 27.7241C12.1249 27.7793 12.0687 27.8069 12.0687 27.8069ZM33.7904 42.2897C33.9588 42.2897 34.0149 42.2621 33.9588 42.2069C33.8465 42.2621 33.7904 42.2897 33.7904 42.2897ZM12.5739 21.7655C12.5178 21.8759 12.4336 21.8759 12.3213 21.7655L12.4055 21.6828L12.5739 21.7655ZM16.6151 19.7793H16.4467C16.4467 19.9448 16.5029 19.9448 16.6151 19.7793ZM23.3505 20.5241L23.4347 20.6897C23.3225 20.6345 23.2944 20.5793 23.3505 20.5241ZM13.8368 35.5862H13.7526L13.6684 35.5034H13.8368V35.5862ZM13.5842 34.0138L13.6684 34.0966L13.5842 33.8483V33.931L13.5 33.8483C13.5 33.9586 13.5281 34.0138 13.5842 34.0138ZM23.4347 32.9379H23.5189C23.575 32.8828 23.6592 32.9103 23.7715 33.0207C23.547 32.9655 23.4347 32.9379 23.4347 32.9379ZM11.6478 26.6483L11.3952 26.5655H11.5636L11.6478 26.6483ZM11.9003 27.8069L11.8162 27.7241L11.9845 27.8069H12.0687C11.9565 27.8069 11.9003 27.8069 11.9003 27.8069ZM11.9003 28.3862L11.732 28.6345H11.8162V28.7172L11.732 28.6345H11.6478L11.9003 28.3862ZM12.2371 32.6897H12.4055H12.2371ZM36.1478 36.2483H35.9794C35.9794 36.2483 36.0074 36.1931 36.0636 36.0828L36.1478 36.2483ZM24.7818 30.869L24.6134 30.7862C24.5011 30.7862 24.5573 30.8138 24.7818 30.869ZM12.0687 32.2759L12.1529 32.3586L12.0687 32.4414V32.2759ZM23.5189 20.1931L23.4347 20.2759V20.1931L23.3505 20.2759L23.4347 20.3586C23.4908 20.2483 23.5189 20.1931 23.5189 20.1931ZM26.3814 34.4276L26.2131 34.3448H26.2973L26.3814 34.4276ZM33.7062 36.4138L33.7904 36.331L33.8746 36.4138H33.7062ZM12.7423 24.0828L12.4897 24.1655V24.0828H12.7423ZM12.3213 23.5034H12.2371V23.4207L12.3213 23.5034ZM12.5739 27.0621C12.4616 27.0621 12.4055 27.0897 12.4055 27.1448L12.5739 26.8138V27.0621ZM12.3213 27.8897H12.2371C12.2932 27.8345 12.3213 27.7793 12.3213 27.7241C12.3213 27.8345 12.3213 27.8897 12.3213 27.8897ZM12.0687 28.6345L11.9845 28.7172L12.0687 28.6345ZM12.3213 32.3586V32.1931V32.3586ZM26.2131 33.931L26.1289 34.0138L26.0447 34.0966C26.1569 33.9862 26.2131 33.931 26.2131 33.931ZM34.8849 39.5586H35.0533H34.8849ZM34.2113 41.2966L34.1271 41.2138L34.2113 41.131C34.043 41.1862 34.043 41.2414 34.2113 41.2966ZM12.3213 20.9379V20.7724H12.4897C12.3774 20.8828 12.3213 20.9379 12.3213 20.9379ZM12.4055 27.2276C12.4055 27.1724 12.3213 27.1448 12.1529 27.1448L12.2371 27.0621C12.2932 27.1172 12.3494 27.1724 12.4055 27.2276ZM33.8746 36.4965C33.8746 36.6069 33.9307 36.6621 34.043 36.6621C33.9307 36.5517 33.8746 36.4965 33.8746 36.4965ZM34.7165 41.7931H34.8007V41.8759L34.7165 41.7931ZM34.9691 41.8759L34.8007 41.9586L34.9691 41.8759ZM33.0326 32.1103H32.8643C32.9204 32.1103 32.9765 32.1103 33.0326 32.1103ZM23.3505 20.4414L23.2663 20.5241H23.1821L23.3505 20.4414ZM27.3076 26.069C27.3076 25.8483 27.2795 25.7655 27.2234 25.8207L27.3076 26.069ZM26.8866 34.0138H27.055H27.1392C27.1392 33.9586 27.055 33.9586 26.8866 34.0138ZM35.39 36.8276C35.3339 36.7724 35.2497 36.7448 35.1375 36.7448C35.1375 36.6897 35.2217 36.7172 35.39 36.8276ZM35.6426 42.4552V42.3724V42.4552ZM35.1375 42.5379H34.9691H35.1375ZM28.4863 37.3241V37.4897H28.5704C28.5143 37.3793 28.4863 37.3241 28.4863 37.3241ZM12.3213 21.6828V21.7655H12.2371L12.3213 21.8483V21.6828ZM26.8866 33.4345L26.8024 33.6L26.8866 33.4345ZM12.5739 29.2966L12.4055 29.2138L12.3213 29.3793V29.2966C12.3774 29.2414 12.4055 29.1862 12.4055 29.131C12.5178 29.2414 12.5739 29.2966 12.5739 29.2966ZM35.4742 40.8828L35.39 40.9655C35.4462 40.9103 35.4742 40.8828 35.4742 40.8828ZM25.3711 31.9448C25.2589 31.9448 25.2027 31.9724 25.2027 32.0276L25.3711 31.9448ZM23.0979 20.6069H23.1821V20.5241L23.0979 20.6069ZM30.8436 42.6207L30.9278 42.7035L30.8436 42.6207ZM24.7818 32.3586H24.6976H24.7818ZM12.3213 20.0276C12.2652 20.0276 12.2652 20.0276 12.3213 20.0276V20.0276ZM34.5481 44.0276V43.9448L34.4639 43.8621C34.4639 43.9172 34.492 43.9724 34.5481 44.0276ZM22.3402 15.0621V15.2276C22.3402 15.1172 22.3402 15.0621 22.3402 15.0621ZM24.5292 30.5379H24.3608C24.4731 30.5379 24.5292 30.5379 24.5292 30.5379ZM13.079 29.5448L12.9948 29.4621L13.079 29.5448ZM34.1271 37.1586L34.043 37.0759L34.1271 37.1586ZM25.2869 30.7034H25.2027H25.2869ZM35.4742 40.3034L35.5584 40.3862L35.4742 40.3034ZM12.7423 27.8069V27.8897L12.6581 27.8069H12.7423ZM25.2027 31.8621V31.9448V31.8621ZM11.8162 25.8207V25.6552V25.8207ZM12.7423 23.9172V24V23.9172ZM12.8265 23.7517V23.669V23.7517ZM25.2027 30.7862H25.2869H25.2027ZM24.3608 19.7793C24.3047 19.7793 24.2486 19.8069 24.1924 19.8621C24.3047 19.8069 24.3608 19.7793 24.3608 19.7793ZM11.9845 27.2276L12.1529 27.1448L11.9845 27.2276ZM12.8265 27.9724H12.7423H12.8265ZM10.5533 25.6552L10.4691 25.7379L10.5533 25.6552ZM12.4055 17.9586V17.8759V17.9586ZM12.0687 26.2345V26.1517V26.2345ZM12.1529 28.8L12.2371 28.8828L12.1529 28.8ZM34.3797 37.5724V37.4897V37.5724ZM33.9588 41.3793L34.043 41.4621L33.9588 41.3793ZM26.7182 32.9379V33.0207V32.9379ZM26.2131 33.6L26.1289 33.6828L26.2131 33.6ZM23.0137 18.7034V18.7862V18.869C23.0137 18.7586 23.0137 18.7034 23.0137 18.7034ZM12.1529 17.3793V17.2966V17.3793ZM35.4742 42.2897L35.5584 42.3724L35.4742 42.2897ZM12.4055 29.0483L12.3213 28.9655L12.4055 29.0483ZM12.8265 32.2759V32.1931V32.2759ZM12.8265 21.931H12.7423H12.8265ZM23.6873 20.4414H23.6031H23.6873ZM11.0584 25.1586L11.1426 24.9931L11.0584 25.1586ZM23.0137 17.7931V17.7103V17.7931ZM24.7818 30.7034H24.6976H24.7818ZM17.0361 18.9517V18.869V18.9517ZM26.4656 33.6H26.3814H26.4656ZM24.445 31.4483H24.5292H24.445ZM12.2371 28.7172H12.1529H12.2371ZM24.5292 32.1931L24.6134 32.2759L24.5292 32.1931ZM31.2646 40.9655L31.1804 41.0483L31.2646 40.9655ZM16.9519 19.7793H16.8677H16.9519ZM10.4691 24.6621L10.3849 24.5793L10.4691 24.6621ZM24.9502 30.6207H24.866H24.9502ZM14.0893 36.7448L14.0052 36.6621L14.0893 36.7448ZM25.2027 32.1103H25.1186H25.2027ZM32.9485 35.0069H32.8643H32.9485ZM12.4897 24V24.0828V24ZM35.811 36.331L35.8952 36.2483L35.811 36.331ZM16.4467 19.6138V19.6966V19.6138ZM23.5189 20.4414H23.4347H23.5189ZM22.9296 20.5241H22.8454H22.9296ZM23.6031 20.3586V20.4414V20.3586ZM23.5189 20.3586L23.4347 20.4414L23.5189 20.3586ZM12.4055 20.0276H12.3213H12.4055ZM35.3058 43.1172L35.39 43.0345L35.3058 43.1172ZM12.9948 30.7862V30.7034V30.7862ZM12.1529 32.4414H12.0687H12.1529ZM21.5825 31.531V31.6138V31.531ZM25.4553 31.3655L25.3711 31.4483L25.4553 31.3655ZM23.1821 30.7862L23.0979 30.7034L23.1821 30.7862ZM35.1375 41.9586V41.8759V41.9586ZM12.2371 17.2966H12.1529H12.2371ZM24.866 32.1103V32.0276V32.1103ZM12.4897 19.6138H12.5739H12.4897ZM33.4536 36.8276V36.7448V36.8276ZM34.3797 42.5379H34.2955H34.3797ZM33.4536 36L33.5378 36.0828L33.4536 36ZM33.9588 42.1241V42.2069V42.1241ZM12.2371 19.6138L12.3213 19.6966L12.2371 19.6138ZM34.043 37.7379H34.1271H34.043ZM19.0567 26.8138L19.1409 26.8966L19.0567 26.8138ZM26.5498 27.0621H26.634H26.5498ZM34.4639 41.6276H34.5481H34.4639ZM34.3797 42.869H34.4639H34.3797ZM17.0361 18.869L17.1203 18.7862L17.0361 18.869ZM35.3058 40.2207V40.0552V40.2207ZM35.0533 39.3103L34.9691 39.4759L35.0533 39.3103ZM34.9691 38.8138L35.0533 38.8966L34.9691 38.8138ZM34.043 41.4621V41.5448V41.4621ZM34.4639 44.2759V44.1931V44.2759ZM35.3058 40.2207L35.39 40.3034L35.3058 40.2207ZM14.0052 36.2483V36.331V36.2483ZM20.4038 28.1379L20.488 28.0552L20.4038 28.1379ZM12.2371 15.9724V16.0552V15.9724ZM17.1203 19.0345L17.2045 18.9517L17.1203 19.0345ZM13.5842 34.1793L13.5 34.0138L13.5842 34.1793ZM12.1529 26.2345H12.2371L12.3213 26.1517L12.1529 26.2345ZM23.6031 30.5379L23.6873 30.3724L23.6031 30.5379ZM13.2474 30.7034H13.1632V30.7862L13.2474 30.7034ZM16.4467 19.7793V19.6966H16.3625L16.4467 19.7793ZM31.433 40.9655C31.3769 40.9655 31.3207 40.9931 31.2646 41.0483H31.3488L31.433 40.9655ZM23.3505 31.9448C23.2383 32 23.2663 32.0276 23.4347 32.0276L23.3505 31.9448ZM25.4553 30.9517V31.1172L25.5395 31.2L25.4553 30.9517ZM25.7079 31.2C25.6518 31.1448 25.6237 31.2 25.6237 31.3655L25.7079 31.2ZM34.2113 44.7724H33.9588L34.043 44.8552V44.9379L34.2113 44.7724ZM16.7835 19.4483C16.7274 19.4483 16.6432 19.4759 16.5309 19.531L16.4467 19.4483V19.531H16.6151L16.6993 19.6138C16.7554 19.5034 16.7835 19.4483 16.7835 19.4483ZM12.6581 23.8345C12.7142 23.8345 12.7423 23.7793 12.7423 23.669L12.5739 23.5862V23.7517V23.8345H12.6581ZM12.3213 25.3241L12.4055 25.4069H12.1529L12.0687 25.4897L12.1529 25.4069H11.9845V25.4897H12.0687C12.0126 25.5448 12.0687 25.5724 12.2371 25.5724V25.4897H12.3213L12.4055 25.4069L12.3213 25.3241Z" fill="#6FC165"/>
</svg>
