<svg width="48" height="48" viewBox="0 0 48 48" fill="none" xmlns="http://www.w3.org/2000/svg">
<g clip-path="url(#clip0)">
<rect width="48" height="48"/>
<path d="M42.0232 18.3095C41.4928 17.9607 40.782 18.0683 40.3801 18.5619C40.1791 18.8272 40.0991 19.1668 40.1605 19.4953C40.2219 19.8237 40.4192 20.1095 40.7039 20.2858C41.4854 20.7608 41.9525 21.2785 41.9525 21.659C41.9376 21.8464 41.865 22.0245 41.7422 22.1674C41.3161 22.6035 40.823 22.9709 40.2852 23.2604C37.9033 24.5092 33.0911 25.773 26.089 25.773C17.2276 25.773 11.8466 23.7484 10.5399 22.2955L10.445 22.186C10.3147 22.0394 10.2366 21.8538 10.2217 21.659C10.2217 21.2841 10.698 20.7794 11.4554 20.2951C11.9485 20.0056 12.1755 19.4136 12.0024 18.8699C11.8833 18.5303 11.6172 18.2613 11.2786 18.1406C10.9381 18.02 10.5622 18.059 10.2552 18.2483C8.25852 19.4693 7.83984 20.7756 7.83984 21.6645C7.8417 22.0969 7.93847 22.5218 8.12455 22.9134C8.28644 23.2529 8.48927 23.5721 8.7293 23.8634L21.8537 39.501V46.8125C21.8537 47.1279 21.9802 47.4304 22.2035 47.6531C22.4268 47.8757 22.7283 48.0001 23.0446 48.0001H29.0421C29.3584 48.0001 29.6617 47.8757 29.885 47.6531C30.1083 47.4304 30.233 47.1279 30.233 46.8125V39.501L43.0949 24.1808C43.841 23.5554 44.2876 22.6443 44.3193 21.672C44.3379 20.8091 43.9342 19.525 42.0232 18.3095Z" fill="#1FB6FF" fill-opacity="0.2"/>
<path d="M18.4331 15.0735C18.6283 14.8782 18.6283 14.5616 18.4331 14.3664C18.2378 14.1711 17.9212 14.1711 17.726 14.3664L18.4331 15.0735ZM15.5195 17.2799L15.166 16.9264C14.9707 17.1217 14.9707 17.4382 15.166 17.6335L15.5195 17.2799ZM17.726 20.1935C17.9212 20.3888 18.2378 20.3888 18.4331 20.1935C18.6283 19.9982 18.6283 19.6817 18.4331 19.4864L17.726 20.1935ZM17.726 14.3664L15.166 16.9264L15.8731 17.6335L18.4331 15.0735L17.726 14.3664ZM15.166 17.6335L17.726 20.1935L18.4331 19.4864L15.8731 16.9264L15.166 17.6335Z" fill="#1FB6FF" fill-opacity="0.2"/>
<path d="M24.1265 15.0735C23.9312 14.8782 23.9312 14.5616 24.1265 14.3664C24.3217 14.1711 24.6383 14.1711 24.8336 14.3664L24.1265 15.0735ZM27.04 17.2799L27.3936 16.9264C27.5889 17.1217 27.5889 17.4382 27.3936 17.6335L27.04 17.2799ZM24.8336 20.1935C24.6383 20.3888 24.3217 20.3888 24.1265 20.1935C23.9312 19.9982 23.9312 19.6817 24.1265 19.4864L24.8336 20.1935ZM24.8336 14.3664L27.3936 16.9264L26.6865 17.6335L24.1265 15.0735L24.8336 14.3664ZM27.3936 17.6335L24.8336 20.1935L24.1265 19.4864L26.6865 16.9264L27.3936 17.6335Z" fill="#1FB6FF" fill-opacity="0.2"/>
<path d="M21.9206 13.44L20.6406 21.12" stroke="#1FB6FF" stroke-opacity="0.2" stroke-linecap="round"/>
<path d="M31.8735 9.31348C32.0688 9.11822 32.0688 8.80164 31.8735 8.60638C31.6783 8.41111 31.3617 8.41111 31.1664 8.60638L31.8735 9.31348ZM28.96 11.5199L28.6064 11.1664C28.4111 11.3616 28.4111 11.6782 28.6064 11.8735L28.96 11.5199ZM31.1664 14.4335C31.3617 14.6288 31.6783 14.6288 31.8735 14.4335C32.0688 14.2382 32.0688 13.9216 31.8735 13.7264L31.1664 14.4335ZM31.1664 8.60638L28.6064 11.1664L29.3135 11.8735L31.8735 9.31348L31.1664 8.60638ZM28.6064 11.8735L31.1664 14.4335L31.8735 13.7264L29.3135 11.1664L28.6064 11.8735Z" fill="#1FB6FF" fill-opacity="0.2"/>
<path d="M37.5659 9.31348C37.3707 9.11822 37.3707 8.80164 37.5659 8.60638C37.7612 8.41111 38.0778 8.41111 38.273 8.60638L37.5659 9.31348ZM40.4795 11.5199L40.833 11.1664C41.0283 11.3616 41.0283 11.6782 40.833 11.8735L40.4795 11.5199ZM38.273 14.4335C38.0778 14.6288 37.7612 14.6288 37.5659 14.4335C37.3707 14.2382 37.3707 13.9216 37.5659 13.7264L38.273 14.4335ZM38.273 8.60638L40.833 11.1664L40.1259 11.8735L37.5659 9.31348L38.273 8.60638ZM40.833 11.8735L38.273 14.4335L37.5659 13.7264L40.1259 11.1664L40.833 11.8735Z" fill="#1FB6FF" fill-opacity="0.2"/>
<path d="M35.3601 7.68002L34.0801 15.36" stroke="#1FB6FF" stroke-opacity="0.2" stroke-linecap="round"/>
<path d="M16.5132 3.5535C16.7084 3.35824 16.7084 3.04166 16.5132 2.8464C16.3179 2.65114 16.0013 2.65114 15.8061 2.8464L16.5132 3.5535ZM13.5996 5.75995L13.2461 5.4064C13.0508 5.60166 13.0508 5.91824 13.2461 6.11351L13.5996 5.75995ZM15.8061 8.67351C16.0013 8.86877 16.3179 8.86877 16.5132 8.67351C16.7084 8.47825 16.7084 8.16166 16.5132 7.9664L15.8061 8.67351ZM15.8061 2.8464L13.2461 5.4064L13.9532 6.11351L16.5132 3.5535L15.8061 2.8464ZM13.2461 6.11351L15.8061 8.67351L16.5132 7.9664L13.9532 5.4064L13.2461 6.11351Z" fill="#1FB6FF" fill-opacity="0.2"/>
<path d="M22.2066 3.5535C22.0113 3.35824 22.0113 3.04166 22.2066 2.8464C22.4018 2.65114 22.7184 2.65114 22.9137 2.8464L22.2066 3.5535ZM25.1201 5.75995L25.4737 5.4064C25.6689 5.60166 25.6689 5.91824 25.4737 6.11351L25.1201 5.75995ZM22.9137 8.67351C22.7184 8.86877 22.4018 8.86877 22.2066 8.67351C22.0113 8.47825 22.0113 8.16166 22.2066 7.9664L22.9137 8.67351ZM22.9137 2.8464L25.4737 5.4064L24.7666 6.11351L22.2066 3.5535L22.9137 2.8464ZM25.4737 6.11351L22.9137 8.67351L22.2066 7.9664L24.7666 5.4064L25.4737 6.11351Z" fill="#1FB6FF" fill-opacity="0.2"/>
<path d="M20.0007 1.92001L18.7207 9.60002" stroke="#1FB6FF" stroke-opacity="0.2" stroke-linecap="round"/>
<path d="M38.1833 16.3895C37.653 16.0406 36.9422 16.1483 36.5403 16.6419C36.3393 16.9072 36.2593 17.2468 36.3207 17.5752C36.3821 17.9037 36.5793 18.1895 36.864 18.3658C37.6455 18.8408 38.1126 19.3585 38.1126 19.7389C38.0977 19.9264 38.0252 20.1045 37.9024 20.2474C37.4762 20.6835 36.9831 21.0509 36.4453 21.3404C34.0635 22.5892 29.2512 23.8529 22.2491 23.8529C13.3877 23.8529 8.00671 21.8284 6.70003 20.3755L6.60513 20.266C6.47487 20.1194 6.39672 19.9338 6.38183 19.739C6.38183 19.3641 6.8582 18.8594 7.61553 18.375C8.10867 18.0856 8.33565 17.4936 8.16259 16.9499C8.0435 16.6103 7.7774 16.3413 7.43875 16.2206C7.09822 16.1 6.72234 16.139 6.41532 16.3282C4.41868 17.5493 4 18.8556 4 19.7445C4.00186 20.1769 4.09862 20.6018 4.28471 20.9933C4.44659 21.3329 4.64943 21.6521 4.88945 21.9434L18.0138 37.581V44.8925C18.0138 45.2079 18.1404 45.5104 18.3637 45.733C18.587 45.9557 18.8884 46.0801 19.2047 46.0801H25.2022C25.5185 46.0801 25.8219 45.9557 26.0451 45.733C26.2684 45.5104 26.3931 45.2079 26.3931 44.8925V37.581L39.255 22.2608C40.0012 21.6354 40.4478 20.7243 40.4794 19.7519C40.498 18.8891 40.0944 17.605 38.1833 16.3895ZM24.2887 36.3899C24.1082 36.6033 24.0114 36.8742 24.0114 37.1544V43.7049H20.3959V37.1488C20.3959 36.8723 20.2991 36.6032 20.1205 36.3898L10.3978 24.7977C14.2665 25.7979 18.2522 26.2766 22.2494 26.2228C26.2147 26.2655 30.1671 25.7867 34.0061 24.7977L24.2887 36.3899Z" fill="#1FB6FF"/>
<path d="M14.9468 13.507C15.3373 13.1165 15.3373 12.4833 14.9468 12.0928C14.5563 11.7023 13.9231 11.7023 13.5326 12.0928L14.9468 13.507ZM11.6797 15.3599L10.9726 14.6528C10.5821 15.0433 10.5821 15.6765 10.9726 16.067L11.6797 15.3599ZM13.5326 18.627C13.9231 19.0176 14.5563 19.0176 14.9468 18.627C15.3373 18.2365 15.3373 17.6033 14.9468 17.2128L13.5326 18.627ZM13.5326 12.0928L10.9726 14.6528L12.3868 16.067L14.9468 13.507L13.5326 12.0928ZM10.9726 16.067L13.5326 18.627L14.9468 17.2128L12.3868 14.6528L10.9726 16.067Z" fill="#1FB6FF"/>
<path d="M19.9331 13.507C19.5426 13.1165 19.5426 12.4833 19.9331 12.0928C20.3236 11.7023 20.9568 11.7023 21.3473 12.0928L19.9331 13.507ZM23.2002 15.3599L23.9073 14.6528C24.2978 15.0433 24.2978 15.6765 23.9073 16.067L23.2002 15.3599ZM21.3473 18.627C20.9568 19.0176 20.3236 19.0176 19.9331 18.627C19.5426 18.2365 19.5426 17.6033 19.9331 17.2128L21.3473 18.627ZM21.3473 12.0928L23.9073 14.6528L22.4931 16.067L19.9331 13.507L21.3473 12.0928ZM23.9073 16.067L21.3473 18.627L19.9331 17.2128L22.4931 14.6528L23.9073 16.067Z" fill="#1FB6FF"/>
<path d="M18.0808 11.52L16.8008 19.2" stroke="#1FB6FF" stroke-width="2" stroke-linecap="round"/>
<path d="M28.3872 7.74702C28.7778 7.3565 28.7778 6.72333 28.3872 6.33281C27.9967 5.94229 27.3635 5.94229 26.973 6.33281L28.3872 7.74702ZM25.1201 9.59992L24.413 8.89281C24.0225 9.28334 24.0225 9.9165 24.413 10.307L25.1201 9.59992ZM26.973 12.867C27.3635 13.2576 27.9967 13.2576 28.3872 12.867C28.7778 12.4765 28.7778 11.8433 28.3872 11.4528L26.973 12.867ZM26.973 6.33281L24.413 8.89281L25.8272 10.307L28.3872 7.74702L26.973 6.33281ZM24.413 10.307L26.973 12.867L28.3872 11.4528L25.8272 8.89281L24.413 10.307Z" fill="#1FB6FF"/>
<path d="M33.3725 7.74702C32.982 7.3565 32.982 6.72333 33.3725 6.33281C33.7631 5.94229 34.3962 5.94229 34.7868 6.33281L33.3725 7.74702ZM36.6396 9.59992L37.3468 8.89281C37.7373 9.28334 37.7373 9.9165 37.3468 10.307L36.6396 9.59992ZM34.7868 12.867C34.3962 13.2576 33.7631 13.2576 33.3725 12.867C32.982 12.4765 32.982 11.8433 33.3725 11.4528L34.7868 12.867ZM34.7868 6.33281L37.3468 8.89281L35.9325 10.307L33.3725 7.74702L34.7868 6.33281ZM37.3468 10.307L34.7868 12.867L33.3725 11.4528L35.9325 8.89281L37.3468 10.307Z" fill="#1FB6FF"/>
<path d="M31.5202 5.76001L30.2402 13.44" stroke="#1FB6FF" stroke-width="2" stroke-linecap="round"/>
<path d="M13.0269 1.98704C13.4174 1.59652 13.4174 0.963355 13.0269 0.572831C12.6364 0.182307 12.0032 0.182307 11.6127 0.572831L13.0269 1.98704ZM9.75977 3.83994L9.05266 3.13283C8.66213 3.52336 8.66213 4.15652 9.05266 4.54705L9.75977 3.83994ZM11.6127 7.10705C12.0032 7.49757 12.6364 7.49757 13.0269 7.10705C13.4174 6.71652 13.4174 6.08336 13.0269 5.69284L11.6127 7.10705ZM11.6127 0.572831L9.05266 3.13283L10.4669 4.54705L13.0269 1.98704L11.6127 0.572831ZM9.05266 4.54705L11.6127 7.10705L13.0269 5.69284L10.4669 3.13283L9.05266 4.54705Z" fill="#1FB6FF"/>
<path d="M18.0132 1.98704C17.6226 1.59652 17.6226 0.963355 18.0132 0.572831C18.4037 0.182307 19.0369 0.182307 19.4274 0.572831L18.0132 1.98704ZM21.2803 3.83994L21.9874 3.13283C22.3779 3.52336 22.3779 4.15652 21.9874 4.54705L21.2803 3.83994ZM19.4274 7.10705C19.0369 7.49757 18.4037 7.49757 18.0132 7.10705C17.6226 6.71652 17.6226 6.08336 18.0132 5.69284L19.4274 7.10705ZM19.4274 0.572831L21.9874 3.13283L20.5732 4.54705L18.0132 1.98704L19.4274 0.572831ZM21.9874 4.54705L19.4274 7.10705L18.0132 5.69284L20.5732 3.13283L21.9874 4.54705Z" fill="#1FB6FF"/>
<path d="M16.1609 0L14.8809 7.68001" stroke="#1FB6FF" stroke-width="2" stroke-linecap="round"/>
</g>
<defs>
<clipPath id="clip0">
<rect width="48" height="48" fill="white"/>
</clipPath>
</defs>
</svg>
