<svg width="48" height="48" viewBox="0 0 48 48" fill="none" xmlns="http://www.w3.org/2000/svg">
<g clip-path="url(#clip0)">
<path fill-rule="evenodd" clip-rule="evenodd" d="M47.3781 13.6276C47.1678 12.944 46.5435 12.4846 45.8243 12.4846C45.6102 12.4846 45.4006 12.5265 45.2013 12.6089C44.6911 12.82 43.8954 13.067 42.9007 13.1129C40.8903 11.6598 36.0153 8.14941 33.123 6.17994C33.123 6.17994 33.5282 7.35049 34.0878 9.53737C34.0878 9.53737 29.5144 6.97147 26.4696 5C26.4696 5 27.6073 7.30809 27.7015 8.05545C27.7015 8.05545 24.0804 7.43447 18.7854 6.29493C18.7854 6.29493 22.724 8.48275 23.694 9.8C23.694 9.8 18.9562 9.48111 13.376 9.1641C13.376 9.1641 16.2044 10.5873 17.5842 11.7367C17.5842 11.7367 12.5259 12.4763 8.67263 12.6635C8.67263 12.6635 11.5306 14.8856 12.684 15.9618C12.684 15.9618 7.87268 17.8515 2.12686 21.1701C2.12686 21.1701 5.15463 21.3193 7.33761 22.0116C7.33761 22.0116 4.70466 24.3237 0.000226099 29.6251C0.000226099 29.6251 3.02126 29.5144 5.45872 29.1866C5.45872 29.1866 3.55001 32.1256 1.17666 37.405C1.17666 37.405 2.80466 36.3803 4.38125 36.0093C4.38125 36.0093 4.55045 41.9354 7.82965 42.8848L7.83237 42.8807C7.99301 42.931 8.14632 42.9487 8.27941 42.9487C8.43958 42.9487 8.60695 42.9243 8.77705 42.876C9.81759 42.5818 10.6051 41.5672 11.5169 40.3925L11.5172 40.3921C11.7292 40.119 11.9454 39.8407 12.1697 39.5643C12.5566 38.9488 13.1188 38.2684 13.8317 37.6875C15.085 36.6663 16.8579 35.9103 19.03 36.3865L19.0238 36.4147C20.9643 36.8312 22.2115 38.8191 23.228 40.4395L23.2281 40.4395C24.0541 41.7563 24.7066 42.7964 25.6173 42.896C25.6813 42.903 25.7451 42.9065 25.8072 42.9065C27.1976 42.9065 27.6873 41.3041 28.3058 39.2742C28.7258 37.5131 29.6728 35.5759 30.8501 33.844C32.3294 31.668 34.2383 29.7191 36.0758 28.8124L36.0997 28.8609C37.0924 28.2925 38.1367 27.7558 39.1664 27.2267L39.1674 27.2262C42.3588 25.5862 45.3732 24.0372 46.8853 21.6871C47.6417 20.5116 48.0166 19.0692 47.9996 17.3999C47.9844 15.9026 47.6533 14.522 47.3781 13.6276ZM34.2151 31.4233C33.3287 32.2635 32.463 33.2969 31.6988 34.421C30.3956 36.338 29.4422 38.4386 29.1736 40.1703C30.0578 41.5935 30.8538 42.2933 31.5982 42.3052L31.6218 42.3054C32.3152 42.3054 32.7724 41.8449 32.981 40.9368C33.1368 40.2589 33.1701 39.3275 33.2086 38.2489L33.2086 38.2473C33.2778 36.3064 33.3673 33.8125 34.2151 31.4233ZM14.9316 42.3125C14.2158 42.3125 13.5783 41.6215 12.9831 40.2004C13.3022 39.672 13.8048 39.0332 14.48 38.4831C15.4177 37.719 16.6484 37.1572 18.1357 37.2856C17.9707 37.725 17.782 38.2082 17.5797 38.6918C16.8676 40.3954 16.0156 42.1563 15.0965 42.2997C15.042 42.3081 14.9865 42.3125 14.9316 42.3125ZM26.946 9.73067L30.9661 12.2771L33.5741 12.0655L26.946 9.73067ZM26.2802 15.0487L19.913 13.4387L29.0568 14.1377L26.2802 15.0487ZM32.624 15.5761L31.2653 16.5936L27.3656 16.4501L32.624 15.5761ZM20.0783 18.0356L22.2561 16.5935L14.0427 17.4674L20.0783 18.0356ZM31.2657 18.9755L29.0566 20.197L23.0523 19.8495L31.2657 18.9755ZM21.4327 24.0536L22.9725 21.5528L13.7266 25.9166L21.4327 24.0536ZM7.37894 25.6879L13.3449 23.0925L14.7021 20.4972L7.37894 25.6879ZM9.84655 28.8007L10.082 26.2043L6.4212 33.0462L9.84655 28.8007Z" fill="#9E66BF"/>
</g>
<defs>
<clipPath id="clip0">
<rect width="48" height="48" fill="white"/>
</clipPath>
</defs>
</svg>
