<svg width="48" height="48" viewBox="0 0 48 48" fill="none" xmlns="http://www.w3.org/2000/svg">
<path d="M1.48148 38.9131H18.2011C18.2011 38.9131 15.0053 24.4513 25.5873 18.5952C27.8942 17.4828 35.2381 13.3269 47.2593 22.1425C47.6402 21.8276 48 21.5757 48 21.5757C48 21.5757 36.9947 10.6822 24.7407 11.8996C18.582 12.4453 11.0053 18.0075 6.56085 25.3539C2.1164 32.7002 1.48148 38.9131 1.48148 38.9131ZM36.3175 13.075L36.4021 11.6687C36.2116 11.5637 35.6825 11.3119 34.3492 10.9341L34.2646 12.3194C34.963 12.5503 35.6402 12.8021 36.3175 13.075ZM34.3069 17.5248L34.2222 18.8471C34.9206 18.8681 35.619 18.9521 36.3175 19.099L36.4021 17.7976C35.6825 17.6507 34.9841 17.5667 34.3069 17.5248ZM26.4762 10.976H26.6878L26.2646 9.69568C25.6085 9.69568 24.9312 9.73766 24.2328 9.82162L24.6349 11.06C25.2487 10.997 25.8624 10.976 26.4762 10.976ZM27.4921 18.7002L27.9788 20.1485C28.5926 19.8546 29.2063 19.6027 29.8201 19.4138L29.3545 18.0285C28.6349 18.2384 28.0212 18.4693 27.4921 18.7002ZM17.8836 13.1799L16.9312 11.7317C16.4021 12.0045 15.8519 12.2984 15.2804 12.6342L16.254 14.1035C16.8042 13.7676 17.3333 13.4528 17.8836 13.1799ZM22.2222 22.6252L23.2381 24.1365C23.5979 23.6117 24.0212 23.129 24.4868 22.6462L23.5344 21.2189C23.0476 21.6597 22.6032 22.1425 22.2222 22.6252ZM19.1534 29.3838L20.8677 30.7272C20.9524 29.9086 21.1005 29.09 21.3122 28.2714L19.7884 27.075C19.5132 27.8516 19.3228 28.6282 19.1534 29.3838ZM9.8836 19.4138L8.38095 18.1125C7.83069 18.6372 7.30159 19.1619 6.81481 19.6867L8.44444 21.072C8.88889 20.5053 9.37566 19.9386 9.8836 19.4138ZM3.49206 28.7961L1.0582 27.9146C0.656085 28.8171 0.21164 29.8666 0 30.4333L2.43386 31.3149C2.70899 30.6012 3.15344 29.5727 3.49206 28.7961ZM18.836 34.7152C18.8783 35.8276 18.9841 36.7302 19.0899 37.3598L21.6296 38.2624C21.4392 37.4438 21.2487 36.5203 21.1217 35.5338L18.836 34.7152Z" fill="#CC0000"/>
</svg>
