<svg width="48" height="48" viewBox="0 0 48 48" fill="none" xmlns="http://www.w3.org/2000/svg">
<rect width="48" height="48"/>
<path d="M39.4656 16.8419C38.9677 16.6705 38.4517 16.5084 37.9205 16.355C38.0078 15.9986 38.0879 15.6469 38.1592 15.3011C39.3288 9.62342 38.5641 5.04942 35.9526 3.54347C33.4486 2.09946 29.3534 3.60507 25.2174 7.20446C24.8197 7.55057 24.4209 7.91702 24.0222 8.30107C23.7566 8.04698 23.4914 7.80142 23.2269 7.56655C18.8923 3.71785 14.5475 2.09595 11.9386 3.60627C9.43695 5.05446 8.6961 9.35445 9.74897 14.7353C9.85065 15.255 9.96949 15.7857 10.1039 16.3254C9.48898 16.4999 8.89535 16.686 8.32735 16.884C3.2455 18.6557 0 21.4325 0 24.3127C0 27.2875 3.48405 30.2712 8.77718 32.0804C9.1949 32.2232 9.62833 32.3581 10.075 32.4863C9.93002 33.0699 9.80391 33.6419 9.69805 34.1997C8.69414 39.4871 9.47813 43.6855 11.9731 45.1246C14.5502 46.6107 18.8753 45.0831 23.0869 41.4017C23.4198 41.1107 23.7538 40.8021 24.0885 40.4786C24.5223 40.8964 24.9554 41.2917 25.3862 41.6625C29.4656 45.1729 33.4946 46.5905 35.9873 45.1474C38.5619 43.657 39.3986 39.1469 38.3123 33.6596C38.2293 33.2406 38.1328 32.8124 38.0244 32.3767C38.3281 32.2869 38.6263 32.1942 38.917 32.0978C44.4197 30.2746 48 27.3272 48 24.3127C48 21.4221 44.6498 18.6266 39.4656 16.8419ZM38.2721 30.1514C38.0097 30.2383 37.7404 30.3223 37.4659 30.4037C36.8585 28.4806 36.0386 26.4356 35.0353 24.3227C35.9927 22.2602 36.7809 20.2414 37.3713 18.3307C37.8624 18.4728 38.3389 18.6227 38.7982 18.7808C43.24 20.3099 45.9495 22.5707 45.9495 24.3127C45.9495 26.1683 43.0233 28.5771 38.2721 30.1514ZM36.3007 34.0579C36.781 36.4843 36.8497 38.678 36.5315 40.3929C36.2456 41.9339 35.6707 42.9613 34.9598 43.3728C33.4471 44.2484 30.2122 43.1103 26.7235 40.1081C26.3235 39.7639 25.9207 39.3965 25.5165 39.0076C26.8691 37.5283 28.2208 35.8087 29.5401 33.8989C31.8605 33.693 34.0528 33.3563 36.0409 32.8968C36.1388 33.2917 36.2258 33.6791 36.3007 34.0579ZM16.3643 43.2215C14.8864 43.7435 13.7093 43.7584 12.9977 43.3481C11.4836 42.4748 10.8542 39.1039 11.7128 34.5821C11.8111 34.0643 11.9282 33.5323 12.0631 32.9886C14.0294 33.4234 16.2056 33.7363 18.5316 33.9248C19.8598 35.7937 21.2506 37.5114 22.6521 39.0155C22.3459 39.3111 22.0409 39.5926 21.7376 39.8578C19.8752 41.4856 18.009 42.6406 16.3643 43.2215ZM9.44037 30.1401C7.09984 29.3401 5.16695 28.3004 3.84204 27.1658C2.65152 26.1463 2.05046 25.1341 2.05046 24.3127C2.05046 22.5649 4.65627 20.3355 9.00232 18.8203C9.52965 18.6364 10.0817 18.4631 10.6545 18.3004C11.2552 20.2542 12.0431 22.297 12.994 24.3626C12.0308 26.459 11.2317 28.5343 10.6252 30.511C10.2168 30.3936 9.82108 30.2701 9.44037 30.1401ZM11.7613 14.3415C10.8593 9.73133 11.4584 6.2536 12.9659 5.38093C14.5718 4.45126 18.1227 5.77677 21.8653 9.09993C22.1045 9.31233 22.3447 9.53465 22.5856 9.76465C21.1909 11.2621 19.8129 12.967 18.4965 14.8248C16.239 15.034 14.0781 15.3702 12.0913 15.8202C11.9664 15.3178 11.8557 14.8241 11.7613 14.3415ZM32.4664 19.4541C31.9914 18.6337 31.5038 17.8327 31.0067 17.0536C32.5382 17.2472 34.0055 17.5042 35.3835 17.8187C34.9698 19.1445 34.4542 20.5308 33.8472 21.9519C33.4118 21.1253 32.9513 20.2918 32.4664 19.4541ZM24.0229 11.2301C24.9687 12.2548 25.9159 13.3988 26.8475 14.6401C25.9087 14.5957 24.9583 14.5727 24 14.5727C23.0508 14.5727 22.1073 14.5952 21.1743 14.6388C22.1069 13.4091 23.0623 12.2666 24.0229 11.2301ZM15.5254 19.4683C15.0509 20.2909 14.5989 21.1199 14.1704 21.9504C13.5732 20.5342 13.0624 19.1416 12.6451 17.797C14.0146 17.4905 15.475 17.2399 16.9968 17.05C16.4927 17.8363 16.0011 18.6432 15.5254 19.4681V19.4683ZM17.0406 31.7218C15.4684 31.5464 13.986 31.3087 12.6168 31.0107C13.0408 29.642 13.5629 28.2197 14.1727 26.7731C14.6024 27.6029 15.0561 28.4322 15.5335 29.2567H15.5336C16.0198 30.0967 16.5235 30.9194 17.0406 31.7218ZM24.0796 37.54C23.1078 36.4914 22.1384 35.3314 21.1916 34.0838C22.1107 34.1198 23.0477 34.1383 24 34.1383C24.9784 34.1383 25.9455 34.1162 26.8975 34.0739C25.9628 35.344 25.019 36.5057 24.0796 37.54ZM33.8668 26.6993C34.5084 28.1616 35.0492 29.5765 35.4786 30.9218C34.0869 31.2393 32.5843 31.495 31.0011 31.6851C31.4994 30.8954 31.9912 30.0807 32.4746 29.2426C32.9635 28.3947 33.4278 27.5455 33.8668 26.6993ZM30.6984 28.2182C29.948 29.5192 29.1777 30.7611 28.3957 31.9334C26.9713 32.0353 25.4998 32.0877 24 32.0877C22.5063 32.0877 21.0533 32.0413 19.6541 31.9505C18.8406 30.7628 18.0535 29.5172 17.308 28.2294H17.3081C16.5646 26.9451 15.8802 25.6499 15.2601 24.362C15.88 23.0711 16.5626 21.7744 17.3019 20.4924L17.3017 20.4927C18.043 19.2072 18.8231 17.9677 19.6292 16.7874C21.0567 16.6795 22.5205 16.6232 23.9999 16.6232H24C25.486 16.6232 26.9518 16.6799 28.3789 16.7888C29.1726 17.9604 29.9474 19.196 30.6916 20.4816C31.4442 21.7816 32.1356 23.0696 32.7609 24.3328C32.1375 25.6177 31.4477 26.9187 30.6984 28.2182ZM34.9284 5.31992C36.5357 6.24685 37.1608 9.98517 36.1509 14.8873C36.0865 15.2 36.014 15.5186 35.9352 15.8415C33.9438 15.382 31.7813 15.0401 29.5172 14.8277C28.1983 12.9495 26.8315 11.242 25.4596 9.76371C25.8285 9.40888 26.1968 9.07054 26.5636 8.75125C30.1073 5.66732 33.4193 4.44972 34.9284 5.31992ZM24 20.0265C26.3672 20.0265 28.2862 21.9455 28.2862 24.3127C28.2862 26.6799 26.3672 28.599 24 28.599C21.6328 28.599 19.7138 26.6799 19.7138 24.3127C19.7138 21.9455 21.6328 20.0265 24 20.0265Z" fill="#00D8FF"/>
</svg>
