<svg width="300" height="300" viewBox="0 0 300 300" fill="none" xmlns="http://www.w3.org/2000/svg">
<g opacity="0.06" clip-path="url(#clip0)">
<path fill-rule="evenodd" clip-rule="evenodd" d="M9.86551 -12.1107C8.14764 -11.4854 6.67212 -10.2035 5.85423 -8.40266L5.24267 -7.0494L3.90859 -7.68123C0.340604 -9.38889 -3.93503 -7.83268 -5.57065 -4.23106C-7.20626 -0.629446 -5.64572 3.65798 -2.0778 5.36545C2.33358 7.47616 6.75309 9.59541 11.1647 11.7062C11.4547 11.8451 11.7883 11.8617 12.0922 11.7511C12.3947 11.641 12.6396 11.4139 12.7724 11.1211L18.8247 -2.25564C20.4554 -5.85711 18.8998 -10.1447 15.3319 -11.8522C13.5479 -12.706 11.5818 -12.7353 9.86392 -12.11L9.86551 -12.1107ZM10.6736 -9.8907C11.7983 -10.3001 13.0872 -10.2537 14.2897 -9.67709C16.6958 -8.52589 17.7331 -5.67121 16.6326 -3.24019L11.0871 9.0075C7.04584 7.07303 3.01194 5.13588 -1.0294 3.20144C-3.43543 2.05025 -4.47973 -0.818937 -3.37648 -3.24711C-2.27332 -5.67554 0.466447 -6.67274 2.87248 -5.52154L5.30884 -4.34644C5.59883 -4.20756 5.93242 -4.19096 6.23636 -4.30159C6.53882 -4.41167 6.78371 -4.63882 6.91804 -4.93214L8.04079 -7.40265C8.59135 -8.61733 9.54891 -9.48134 10.6736 -9.8907Z" fill="#333333"/>
<path fill-rule="evenodd" clip-rule="evenodd" d="M309.866 -12.1107C308.148 -11.4854 306.672 -10.2035 305.854 -8.40266L305.243 -7.0494L303.909 -7.68123C300.341 -9.38889 296.065 -7.83268 294.429 -4.23106C292.794 -0.629446 294.354 3.65798 297.922 5.36545C302.334 7.47616 306.753 9.59541 311.165 11.7062C311.455 11.8451 311.788 11.8617 312.092 11.7511C312.395 11.641 312.64 11.4139 312.772 11.1211L318.825 -2.25564C320.455 -5.85711 318.9 -10.1447 315.332 -11.8522C313.548 -12.706 311.582 -12.7353 309.864 -12.11L309.866 -12.1107ZM310.674 -9.8907C311.798 -10.3001 313.087 -10.2537 314.29 -9.67709C316.696 -8.52589 317.733 -5.67121 316.633 -3.24019L311.087 9.0075C307.046 7.07303 303.012 5.13588 298.971 3.20144C296.565 2.05025 295.52 -0.818937 296.624 -3.24711C297.727 -5.67554 300.466 -6.67274 302.872 -5.52154L305.309 -4.34644C305.599 -4.20756 305.932 -4.19096 306.236 -4.30159C306.539 -4.41167 306.784 -4.63882 306.918 -4.93214L308.041 -7.40265C308.591 -8.61733 309.549 -9.48134 310.674 -9.8907Z" fill="#333333"/>
<path fill-rule="evenodd" clip-rule="evenodd" d="M9.86551 287.889C8.14764 288.515 6.67211 289.797 5.85423 291.597L5.24267 292.951L3.90859 292.319C0.340604 290.611 -3.93503 292.167 -5.57065 295.769C-7.20626 299.371 -5.64572 303.658 -2.0778 305.365C2.33358 307.476 6.7531 309.595 11.1647 311.706C11.4547 311.845 11.7883 311.862 12.0922 311.751C12.3947 311.641 12.6396 311.414 12.7724 311.121L18.8247 297.744C20.4554 294.143 18.8998 289.855 15.3319 288.148C13.5479 287.294 11.5818 287.265 9.86392 287.89L9.86551 287.889ZM10.6736 290.109C11.7983 289.7 13.0872 289.746 14.2897 290.323C16.6958 291.474 17.7331 294.329 16.6326 296.76L11.0871 309.008C7.04584 307.073 3.01194 305.136 -1.0294 303.201C-3.43543 302.05 -4.47973 299.181 -3.37648 296.753C-2.27332 294.324 0.466447 293.327 2.87248 294.478L5.30884 295.654C5.59883 295.792 5.93242 295.809 6.23636 295.698C6.53882 295.588 6.78371 295.361 6.91804 295.068L8.04079 292.597C8.59135 291.383 9.54891 290.519 10.6736 290.109Z" fill="#333333"/>
<path fill-rule="evenodd" clip-rule="evenodd" d="M309.866 287.889C308.148 288.515 306.672 289.797 305.854 291.597L305.243 292.951L303.909 292.319C300.341 290.611 296.065 292.167 294.429 295.769C292.794 299.371 294.354 303.658 297.922 305.365C302.334 307.476 306.753 309.595 311.165 311.706C311.455 311.845 311.788 311.862 312.092 311.751C312.395 311.641 312.64 311.414 312.772 311.121L318.825 297.744C320.455 294.143 318.9 289.855 315.332 288.148C313.548 287.294 311.582 287.265 309.864 287.89L309.866 287.889ZM310.674 290.109C311.798 289.7 313.087 289.746 314.29 290.323C316.696 291.474 317.733 294.329 316.633 296.76L311.087 309.008C307.046 307.073 303.012 305.136 298.971 303.201C296.565 302.05 295.52 299.181 296.624 296.753C297.727 294.324 300.466 293.327 302.872 294.478L305.309 295.654C305.599 295.792 305.932 295.809 306.236 295.698C306.539 295.588 306.784 295.361 306.918 295.068L308.041 292.597C308.591 291.383 309.549 290.519 310.674 290.109Z" fill="#333333"/>
<path fill-rule="evenodd" clip-rule="evenodd" d="M45 14H66C67.6567 14 69 15.351 69 17.0175V53.9825C69 55.649 67.6567 57 66 57H45C43.3433 57 42 55.649 42 53.9825V17.0175C42 15.351 43.3433 14 45 14ZM45 16.2632C44.5857 16.2632 44.25 16.6009 44.25 17.0175V53.9825C44.25 54.3991 44.5857 54.7368 45 54.7368H66C66.4143 54.7368 66.75 54.3991 66.75 53.9825V17.0175C66.75 16.6009 66.4143 16.2632 66 16.2632H63.7915L63.7771 17.0539C63.762 17.8714 63.095 18.5263 62.2773 18.5263H48.7751C47.937 18.5263 47.2615 17.8395 47.2754 17.0014L47.2876 16.2632H45ZM53.6272 16.2632C53.4189 16.2632 53.25 16.432 53.25 16.6404C53.25 16.8487 53.4189 17.0175 53.6272 17.0175H57.3728C57.5811 17.0175 57.75 16.8487 57.75 16.6404C57.75 16.432 57.5811 16.2632 57.3728 16.2632H53.6272Z" fill="#333333"/>
<path fill-rule="evenodd" clip-rule="evenodd" d="M96.1983 1.00982L107.428 -12.1866C108.263 -13.1362 108.17 -14.5607 107.241 -15.4148C106.313 -16.269 104.92 -16.1735 104.085 -15.2239L91.5563 -0.50995C90.8146 0.344227 90.8146 1.6732 91.5563 2.52738L104.085 17.2413C104.549 17.7161 105.107 18 105.755 18C106.313 18 106.868 17.8091 107.241 17.4297C107.705 17.0504 107.983 16.4801 107.983 15.8169C107.983 15.2466 107.796 14.5833 107.425 14.1085L96.1983 1.00982Z" fill="#333333"/>
<path fill-rule="evenodd" clip-rule="evenodd" d="M131.219 -15.2431C130.828 -15.7168 130.241 -16 129.558 -16C128.971 -16 128.288 -15.8095 127.799 -15.4311C126.821 -14.5789 126.723 -13.1579 127.603 -12.2106L139.528 0.952652L127.701 14.1178C127.31 14.5914 127.113 15.1604 127.113 15.8221C127.113 16.391 127.406 16.9574 127.895 17.4311C128.285 17.8095 128.872 18 129.46 18C130.145 18 130.828 17.7168 131.219 17.2431L144.414 2.5641C145.195 1.71195 145.195 0.386131 144.414 -0.466019L131.219 -15.2431Z" fill="#333333"/>
<path fill-rule="evenodd" clip-rule="evenodd" d="M122.134 -19.9456C120.899 -20.2278 119.663 -19.3789 119.377 -18.153L112.055 18.2636C111.77 19.4896 112.626 20.7154 113.861 21H114.337C115.477 21 116.428 20.246 116.619 19.1125L123.941 -17.3041C124.225 -18.5301 123.465 -19.6635 122.134 -19.9456H122.134Z" fill="#333333"/>
<path fill-rule="evenodd" clip-rule="evenodd" d="M96.1983 301.01L107.428 287.813C108.263 286.864 108.17 285.439 107.241 284.585C106.313 283.731 104.92 283.827 104.085 284.776L91.5563 299.49C90.8146 300.344 90.8146 301.673 91.5563 302.527L104.085 317.241C104.549 317.716 105.107 318 105.755 318C106.313 318 106.868 317.809 107.241 317.43C107.705 317.05 107.983 316.48 107.983 315.817C107.983 315.247 107.796 314.583 107.425 314.109L96.1983 301.01Z" fill="#333333"/>
<path fill-rule="evenodd" clip-rule="evenodd" d="M131.219 284.757C130.828 284.283 130.241 284 129.558 284C128.971 284 128.288 284.19 127.799 284.569C126.821 285.421 126.723 286.842 127.603 287.789L139.528 300.953L127.701 314.118C127.31 314.591 127.113 315.16 127.113 315.822C127.113 316.391 127.406 316.957 127.895 317.431C128.285 317.81 128.872 318 129.46 318C130.145 318 130.828 317.717 131.219 317.243L144.414 302.564C145.195 301.712 145.195 300.386 144.414 299.534L131.219 284.757Z" fill="#333333"/>
<path fill-rule="evenodd" clip-rule="evenodd" d="M122.134 280.054C120.899 279.772 119.663 280.621 119.377 281.847L112.055 318.264C111.77 319.49 112.626 320.715 113.861 321H114.337C115.477 321 116.428 320.246 116.619 319.113L123.941 282.696C124.225 281.47 123.465 280.336 122.134 280.054H122.134Z" fill="#333333"/>
<path fill-rule="evenodd" clip-rule="evenodd" d="M211.401 -9.5002H184.6C183.699 -9.5002 183 -8.801 183 -7.9006V11.4004C183 12.3008 183.699 13 184.6 13H211.401C212.301 13 213 12.3008 213 11.4004V-7.9006C213 -8.801 212.301 -9.5002 211.401 -9.5002ZM211.151 -7.6506V-2.7502H184.901V-7.5998H211.151V-7.6506ZM184.901 11.1504V-0.849602H211.151V11.1504H184.901ZM186.949 -5.0506C186.949 -5.6502 187.449 -6.1502 188.049 -6.1502C188.649 -6.1502 189.149 -5.6502 189.149 -5.0506C189.149 -4.451 188.649 -3.951 188.049 -3.951C187.449 -3.94904 186.949 -4.44904 186.949 -5.0506ZM190.301 -5.0506C190.301 -5.6502 190.801 -6.1502 191.401 -6.1502C192 -6.1502 192.5 -5.6502 192.5 -5.0506C192.5 -4.451 192 -3.951 191.401 -3.951C190.801 -3.94904 190.301 -4.44904 190.301 -5.0506ZM193.699 -5.0506C193.699 -5.6502 194.199 -6.1502 194.799 -6.1502C195.399 -6.1502 195.899 -5.6502 195.899 -5.0506C195.899 -4.451 195.399 -3.951 194.799 -3.951C194.199 -3.94904 193.699 -4.44904 193.699 -5.0506Z" fill="#333333"/>
<path fill-rule="evenodd" clip-rule="evenodd" d="M211.401 290.5H184.6C183.699 290.5 183 291.199 183 292.099V311.4C183 312.301 183.699 313 184.6 313H211.401C212.301 313 213 312.301 213 311.4V292.099C213 291.199 212.301 290.5 211.401 290.5ZM211.151 292.349V297.25H184.901V292.4H211.151V292.349ZM184.901 311.15V299.15H211.151V311.15H184.901ZM186.949 294.949C186.949 294.35 187.449 293.85 188.049 293.85C188.649 293.85 189.149 294.35 189.149 294.949C189.149 295.549 188.649 296.049 188.049 296.049C187.449 296.051 186.949 295.551 186.949 294.949ZM190.301 294.949C190.301 294.35 190.801 293.85 191.401 293.85C192 293.85 192.5 294.35 192.5 294.949C192.5 295.549 192 296.049 191.401 296.049C190.801 296.051 190.301 295.551 190.301 294.949ZM193.699 294.949C193.699 294.35 194.199 293.85 194.799 293.85C195.399 293.85 195.899 294.35 195.899 294.949C195.899 295.549 195.399 296.049 194.799 296.049C194.199 296.051 193.699 295.551 193.699 294.949Z" fill="#333333"/>
<path fill-rule="evenodd" clip-rule="evenodd" d="M283.15 25.7367C282.909 24.8997 282.158 24.327 281.283 24.3117C281.022 24.3072 280.766 24.3537 280.521 24.4498C279.895 24.696 278.921 24.9799 277.709 25.0147C275.291 23.2023 269.429 18.8236 265.949 16.3636C265.949 16.3636 266.417 17.7977 267.052 20.4729C267.052 20.4729 261.537 17.2508 257.871 14.7851C257.871 14.7851 259.207 17.6202 259.306 18.5324C259.306 18.5324 254.909 17.6991 248.485 16.1987C248.485 16.1987 253.235 18.9469 254.389 20.5717C254.389 20.5717 248.625 20.0826 241.836 19.5779C241.836 19.5779 245.251 21.3713 246.907 22.8004C246.907 22.8004 240.731 23.5936 236.034 23.7396C236.034 23.7396 239.467 26.5066 240.849 27.8416C240.849 27.8416 234.95 30.0407 227.881 33.9601C227.881 33.9601 231.566 34.2062 234.209 35.0957C234.209 35.0957 230.954 37.8554 225.112 44.2117C225.112 44.2117 228.793 44.1411 231.769 43.7937C231.769 43.7937 229.382 47.3323 226.379 53.7114C226.379 53.7114 228.383 52.4981 230.311 52.0798C230.311 52.0798 230.391 59.3004 234.365 60.5263L234.368 60.5214C234.563 60.586 234.749 60.6109 234.911 60.6137C235.106 60.6171 235.311 60.5909 235.519 60.5358C236.792 60.1996 237.773 58.9805 238.909 57.569C239.173 57.2409 239.442 56.9065 239.721 56.5746C240.205 55.8333 240.904 55.0167 241.785 54.3245C243.333 53.1075 245.508 52.2244 248.143 52.8506L248.135 52.8848C250.49 53.4334 251.966 55.8808 253.17 57.8758C254.148 59.497 254.92 60.7775 256.027 60.9182C256.105 60.9281 256.182 60.9338 256.258 60.9351C257.952 60.9646 258.582 59.022 259.379 56.5615C259.928 54.4266 261.122 52.0888 262.592 50.0056C264.44 47.387 266.807 45.0542 269.063 43.9891L269.091 44.0486C270.312 43.3775 271.596 42.746 272.861 42.1236C276.783 40.194 280.487 38.3716 282.379 35.5414C283.325 34.1259 283.812 32.3773 283.827 30.3439C283.84 28.5201 283.467 26.8318 283.15 25.7367ZM266.742 47.1293C265.644 48.1337 264.568 49.3737 263.614 50.7263C261.986 53.0333 260.78 55.5713 260.416 57.6746C261.463 59.4265 262.417 60.2955 263.323 60.3258L263.352 60.3266C264.197 60.3414 264.763 59.7902 265.036 58.6888C265.241 57.8661 265.301 56.7318 265.371 55.4182C265.496 53.056 265.659 50.0209 266.742 47.1293ZM243.026 59.9803C242.154 59.9651 241.393 59.1101 240.698 57.3668C241.098 56.7301 241.723 55.9628 242.557 55.3072C243.716 54.3965 245.226 53.7385 247.035 53.9265C246.825 54.4581 246.585 55.0426 246.328 55.6273C245.424 57.6868 244.349 59.8131 243.227 59.9682C243.161 59.9774 243.093 59.9815 243.026 59.9803ZM263.192 23.7431L258.35 20.5565L266.373 23.5408L263.192 23.7431ZM249.707 24.9227L257.427 27.0188L260.828 25.9684L249.707 24.9227ZM263.465 29.0062L265.141 27.796L258.719 28.7485L263.465 29.0062ZM252.493 28.8146L249.81 30.5245L242.472 29.7042L252.493 28.8146ZM260.698 33.3476L263.415 31.907L253.393 32.7968L260.698 33.3476ZM253.26 34.8694L251.332 37.8823L241.907 39.9872L253.26 34.8694ZM241.503 36.5399L234.182 39.5737L243.211 33.408L241.503 36.5399ZM237.463 40.2601L237.121 43.4171L232.859 48.5146L237.463 40.2601Z" fill="#3F3A40"/>
<path fill-rule="evenodd" clip-rule="evenodd" d="M36.938 77.0902C36.9303 76.5088 36.4093 76.0352 35.7749 76.0328L28.2415 76C26.4878 76 26.4904 78.3891 28.2441 78.3914L31.5169 78.3938C32.0637 78.3938 32.1952 78.6775 31.8032 79.0338L26.3846 83.9597C25.8714 84.4262 25.8714 85.1812 26.3872 85.6501C26.9004 86.1166 27.7335 86.1166 28.2467 85.6501L33.6653 80.7242C34.0521 80.3726 34.3668 80.4851 34.3668 80.9845L34.3693 83.962C34.3719 85.5539 37.0026 85.5563 37 83.9644L36.938 77.0902Z" fill="#333333"/>
<path fill-rule="evenodd" clip-rule="evenodd" d="M16.0564 95.912C16.0634 96.4935 16.537 96.9672 17.1138 96.9695L23.9623 97C25.5565 97.0023 25.5542 94.6106 23.9599 94.6106L20.9846 94.6083C20.4876 94.6083 20.368 94.3246 20.7244 93.9681L25.6504 89.0417C26.1169 88.5751 26.1169 87.8177 25.648 87.3511C25.1814 86.8845 24.4241 86.8822 23.9576 87.3488L19.0316 92.2775C18.6799 92.6293 18.3939 92.5144 18.3939 92.0173L18.3915 89.0394C18.3892 87.4473 15.9977 87.445 16 89.0371L16.0564 95.912Z" fill="#333333"/>
<path fill-rule="evenodd" clip-rule="evenodd" d="M179.394 46.4116C179.704 46.0705 180.327 45.8439 180.782 45.9063L182.308 46.1134C182.764 46.1747 182.949 45.9 182.721 45.5003L181.958 44.1643C181.729 43.7641 181.706 43.1023 181.905 42.6876L182.573 41.3011C182.774 40.8861 182.57 40.6254 182.119 40.719L180.612 41.0324C180.161 41.1263 179.525 40.9429 179.192 40.6247L178.08 39.5607C177.747 39.2426 177.436 39.3559 177.386 39.8132L177.218 41.3432C177.168 41.8016 176.797 42.3505 176.392 42.5683L175.036 43.2972C174.63 43.5153 174.643 43.8465 175.062 44.035L176.465 44.6677C176.885 44.8577 177.293 45.3795 177.374 45.8325L177.648 47.3465C177.731 47.8 178.05 47.8906 178.359 47.5505L179.394 46.4116Z" fill="#333333"/>
<path fill-rule="evenodd" clip-rule="evenodd" d="M259.394 174.412C259.704 174.07 260.327 173.844 260.782 173.906L262.308 174.113C262.764 174.175 262.949 173.9 262.721 173.5L261.958 172.164C261.729 171.764 261.706 171.102 261.905 170.688L262.573 169.301C262.774 168.886 262.57 168.625 262.119 168.719L260.612 169.032C260.161 169.126 259.525 168.943 259.192 168.625L258.08 167.561C257.747 167.243 257.436 167.356 257.386 167.813L257.218 169.343C257.168 169.802 256.797 170.351 256.392 170.568L255.036 171.297C254.63 171.515 254.643 171.847 255.062 172.035L256.465 172.668C256.885 172.858 257.293 173.379 257.374 173.832L257.648 175.346C257.731 175.8 258.05 175.891 258.359 175.551L259.394 174.412Z" fill="#333333"/>
<path fill-rule="evenodd" clip-rule="evenodd" d="M103.631 254.412C103.941 254.07 104.563 253.844 105.019 253.906L106.544 254.113C107.001 254.175 107.185 253.9 106.958 253.5L106.194 252.164C105.965 251.764 105.942 251.102 106.142 250.688L106.81 249.301C107.011 248.886 106.807 248.625 106.356 248.719L104.849 249.032C104.398 249.126 103.761 248.943 103.429 248.625L102.316 247.561C101.984 247.243 101.672 247.356 101.623 247.813L101.455 249.343C101.405 249.802 101.034 250.351 100.629 250.568L99.2725 251.297C98.8666 251.515 98.8795 251.846 99.2989 252.035L100.702 252.668C101.122 252.858 101.53 253.379 101.611 253.832L101.885 255.346C101.968 255.8 102.286 255.891 102.596 255.551L103.631 254.412Z" fill="#333333"/>
<path fill-rule="evenodd" clip-rule="evenodd" d="M135.075 58.7529C135.588 58.6623 136.078 59.0052 136.168 59.5188L137.691 68.1529C137.781 68.6665 137.438 69.1562 136.925 69.2467C136.411 69.3373 135.922 68.9944 135.831 68.4808L134.309 59.8467C134.218 59.3331 134.561 58.8434 135.075 58.7529Z" fill="#333333"/>
<path fill-rule="evenodd" clip-rule="evenodd" d="M85.4844 79.0001C84.6935 79.007 83.9847 79.6542 84.0003 80.3532V85.6554C83.9885 86.3562 84.7072 87 85.5 87C86.2928 87 87.0114 86.3562 86.9997 85.6554V80.3532C87.0173 79.6456 86.285 78.9932 85.4844 79.0001ZM70.2235 81.0015C69.7409 81.0252 69.2835 81.3733 69.0958 81.8598C68.9082 82.3447 69.002 82.9442 69.3254 83.3343L72.7568 87.5334C73.1991 88.0947 74.0754 88.1603 74.5848 87.6719C75.0941 87.1816 75.1427 86.2303 74.687 85.6817L71.2556 81.4826C71.0026 81.1637 70.6105 80.9814 70.2235 81.0015L70.2235 81.0015ZM100.601 81.0054C100.273 81.0382 99.9581 81.2149 99.7437 81.4862L96.3129 85.683C95.8573 86.2313 95.9059 87.1821 96.4151 87.6721C96.9244 88.1602 97.8005 88.0946 98.2427 87.5336L101.673 83.3369C102.018 82.9216 102.101 82.2731 101.869 81.7722C101.64 81.2731 101.114 80.9543 100.601 81.0053L100.601 81.0054ZM74.7995 90C74.3413 90.0213 73.903 90.2807 73.6693 90.6681L67.178 101.584C66.8665 102.11 66.9733 102.842 67.4243 103.261L85.0437 119.635C85.4983 120.06 86.2626 120.122 86.7824 119.778C86.8513 119.74 86.9002 119.682 86.9563 119.635L104.576 103.261C105.027 102.842 105.134 102.11 104.822 101.584L98.3307 90.6681C98.0843 90.2612 97.6098 89.9982 97.128 90H86H74.7996H74.7995ZM77 92H84L79.3385 99L77 92ZM88 92H95L92.6616 99L88 92ZM86 94L91 101H81L86 94ZM74.8168 94L77 101H71L74.8168 94ZM97.1832 94L101 101H95L97.1832 94ZM71 103H77.3676L82 113L71 103ZM81 103H91L86 116L81 103ZM94.6325 103H101L90 113L94.6325 103Z" fill="#333333"/>
<mask id="path-22-outside-1" maskUnits="userSpaceOnUse" x="197.343" y="84.3431" width="11.3137" height="11.3137" fill="black">
<rect fill="white" x="197.343" y="84.3431" width="11.3137" height="11.3137"/>
<path fill-rule="evenodd" clip-rule="evenodd" d="M203.467 87.832C203.467 87.5741 203.258 87.365 203 87.365C202.742 87.365 202.533 87.5741 202.533 87.832L202.533 89.533L200.832 89.533C200.574 89.533 200.365 89.7421 200.365 90C200.365 90.2579 200.574 90.467 200.832 90.467H202.533V92.168C202.533 92.4259 202.742 92.635 203 92.635C203.258 92.635 203.467 92.4259 203.467 92.168V90.467H205.168C205.426 90.467 205.635 90.2579 205.635 90C205.635 89.7421 205.426 89.533 205.168 89.533L203.467 89.533L203.467 87.832Z"/>
</mask>
<path fill-rule="evenodd" clip-rule="evenodd" d="M203.467 87.832C203.467 87.5741 203.258 87.365 203 87.365C202.742 87.365 202.533 87.5741 202.533 87.832L202.533 89.533L200.832 89.533C200.574 89.533 200.365 89.7421 200.365 90C200.365 90.2579 200.574 90.467 200.832 90.467H202.533V92.168C202.533 92.4259 202.742 92.635 203 92.635C203.258 92.635 203.467 92.4259 203.467 92.168V90.467H205.168C205.426 90.467 205.635 90.2579 205.635 90C205.635 89.7421 205.426 89.533 205.168 89.533L203.467 89.533L203.467 87.832Z" fill="#333333"/>
<path d="M202.533 89.533L202.533 90.633L203.633 90.633L203.633 89.533L202.533 89.533ZM200.365 90L201.465 90L200.365 90ZM200.832 90.467L200.832 89.367L200.832 90.467ZM202.533 90.467H203.633V89.367H202.533V90.467ZM202.533 92.168H203.633H202.533ZM203 92.635V91.535V92.635ZM203.467 92.168H202.367H203.467ZM203.467 90.467V89.367H202.367V90.467H203.467ZM205.168 90.467L205.168 89.367L205.168 90.467ZM205.635 90L204.535 90L205.635 90ZM203.467 89.533H202.367L202.367 90.633H203.467L203.467 89.533ZM203 88.465C202.651 88.465 202.367 88.1816 202.367 87.832L204.567 87.832C204.567 86.9666 203.866 86.265 203 86.265V88.465ZM203.633 87.832C203.633 88.1812 203.35 88.465 203 88.465V86.265C202.134 86.265 201.433 86.9669 201.433 87.832L203.633 87.832ZM203.633 89.533L203.633 87.832L201.433 87.832L201.433 89.533L203.633 89.533ZM200.832 90.633L202.533 90.633L202.533 88.433L200.832 88.433V90.633ZM201.465 90C201.465 90.3496 201.181 90.633 200.832 90.633V88.433C199.966 88.433 199.265 89.1346 199.265 90L201.465 90ZM200.832 89.367C201.181 89.367 201.465 89.6504 201.465 90L199.265 90C199.265 90.8654 199.966 91.567 200.832 91.567L200.832 89.367ZM202.533 89.367L200.832 89.367L200.832 91.567L202.533 91.567V89.367ZM203.633 92.168V90.467H201.433L201.433 92.168L203.633 92.168ZM203 91.535C203.35 91.535 203.633 91.8188 203.633 92.168L201.433 92.168C201.433 93.0331 202.134 93.735 203 93.735V91.535ZM202.367 92.168C202.367 91.8184 202.651 91.535 203 91.535V93.735C203.866 93.735 204.567 93.0334 204.567 92.168L202.367 92.168ZM202.367 90.467V92.168L204.567 92.168L204.567 90.467H202.367ZM205.168 89.367L203.467 89.367V91.567L205.168 91.567L205.168 89.367ZM204.535 90C204.535 89.6504 204.819 89.367 205.168 89.367L205.168 91.567C206.034 91.567 206.735 90.8654 206.735 90L204.535 90ZM205.168 90.633C204.819 90.633 204.535 90.3496 204.535 90L206.735 90C206.735 89.1346 206.034 88.433 205.168 88.433V90.633ZM203.467 90.633L205.168 90.633V88.433L203.467 88.433V90.633ZM202.367 87.832L202.367 89.533H204.567L204.567 87.832L202.367 87.832Z" fill="#333333" mask="url(#path-22-outside-1)"/>
<path fill-rule="evenodd" clip-rule="evenodd" d="M160.675 103.498L157.273 105.293C156.841 105.521 156.307 105.356 156.079 104.924C155.851 104.492 156.016 103.958 156.448 103.73L159.849 101.934C160.281 101.706 160.816 101.872 161.044 102.303C161.272 102.735 161.106 103.27 160.675 103.498ZM149.808 102.62C152.516 103.466 154.601 105.667 154.916 108.673C155.297 112.304 155.62 115.934 155.884 119.563L165.995 118.678C169.215 118.397 172.168 121.854 172.475 125.364C172.605 126.855 172.104 128.507 171.244 129.894C172.102 131.089 172.511 133.184 172.167 135.037C171.862 136.681 171.031 138.023 169.698 138.905C170.433 141.819 168.492 146.191 165.008 146.496L158.538 147.062C156.541 147.236 154.882 145.475 154.715 143.561C154.607 142.33 155.175 140.859 156.095 139.935C155.325 139.302 154.833 138.286 154.747 136.953C154.632 135.167 155.211 133.523 156.238 132.603C155.516 131.898 155.085 130.884 154.979 129.667C154.78 127.398 156.209 125.604 158.475 125.406C159.7 125.298 161.81 125.213 164.816 125.149C165.304 125.139 165.708 125.526 165.718 126.014C165.729 126.502 165.342 126.906 164.853 126.917C161.884 126.98 159.805 127.064 158.629 127.167C157.356 127.278 156.625 128.197 156.74 129.513C156.875 131.056 157.648 131.907 159.128 131.917C161.219 131.931 164.724 131.625 167.018 131.226C168.881 130.902 170.917 127.838 170.714 125.519C170.482 122.878 168.244 120.256 166.149 120.439L154.247 121.481L154.184 120.584C153.91 116.677 153.568 112.768 153.158 108.857C152.922 106.609 151.357 104.956 149.28 104.307C147.686 103.809 146.726 104.12 146.82 104.588C148.076 110.841 147.802 117.749 144.42 119.637C140.743 121.689 138.11 124.587 138.296 126.405C138.36 127.034 138.475 127.81 138.67 128.969C138.698 129.131 138.779 129.604 138.876 130.162C139.022 131.008 139.202 132.051 139.28 132.513C139.679 134.887 139.989 136.967 140.258 139.195C140.805 143.743 143.401 145.263 150.798 144.616C151.284 144.573 151.713 144.933 151.756 145.42C151.798 145.906 151.438 146.335 150.952 146.377C145.372 146.865 141.964 146.184 140.126 143.873C139.952 144.188 139.658 144.435 139.29 144.543L130.209 147.197C129.463 147.415 128.681 146.987 128.463 146.241C128.439 146.159 128.423 146.074 128.414 145.989L126.331 125.567C126.252 124.793 126.815 124.103 127.588 124.024C127.673 124.015 127.758 124.014 127.843 124.021L136.25 124.694C136.433 124.708 136.606 124.758 136.764 124.836C137.554 122.497 140.184 119.977 143.558 118.093C145.922 116.774 146.176 110.361 145.086 104.936C144.62 102.613 147.156 101.791 149.808 102.62ZM166.466 139.998C167.035 139.936 167.564 139.827 168.052 139.675C168.327 141.636 166.962 144.55 164.854 144.734L158.384 145.3C157.463 145.381 156.565 144.428 156.476 143.407C156.386 142.381 157.268 140.866 157.99 140.803C158.121 140.792 158.242 140.753 158.349 140.692C158.478 140.692 158.61 140.686 158.743 140.674C159.026 140.649 159.253 140.634 159.54 140.619L159.982 140.596C161.302 140.527 162.911 140.387 166.466 139.998ZM158.199 133.598C158.17 133.604 158.139 133.607 158.108 133.609C157.197 133.672 156.397 135.059 156.512 136.84C156.611 138.376 157.367 139.02 158.589 138.913C158.893 138.886 159.14 138.869 159.446 138.853L159.891 138.83C161.172 138.764 162.75 138.626 166.274 138.241C168.739 137.971 170.064 136.678 170.429 134.714C170.647 133.538 170.452 132.219 170.076 131.385C169.259 132.211 168.303 132.797 167.321 132.968C164.925 133.384 161.315 133.7 159.115 133.685C158.793 133.683 158.487 133.653 158.199 133.598ZM142.397 106.094L137.739 103.918C137.297 103.712 136.771 103.903 136.564 104.345C136.357 104.788 136.549 105.314 136.991 105.52L141.649 107.696C142.092 107.902 142.618 107.711 142.824 107.269C143.031 106.826 142.84 106.3 142.397 106.094ZM158.216 111.752L162.697 112.247C163.182 112.301 163.619 111.951 163.672 111.466C163.726 110.98 163.376 110.543 162.891 110.49L158.41 109.994C157.925 109.941 157.488 110.291 157.435 110.776C157.381 111.261 157.731 111.698 158.216 111.752ZM137.738 112.736L141.715 110.733C142.151 110.514 142.683 110.689 142.902 111.125C143.122 111.561 142.947 112.093 142.51 112.312L138.533 114.315C138.097 114.535 137.566 114.359 137.346 113.923C137.126 113.487 137.302 112.956 137.738 112.736ZM128.134 125.818L130.129 145.378L134.591 144.074L133.03 136.254C132.935 135.775 133.245 135.31 133.724 135.214C134.203 135.119 134.668 135.429 134.764 135.908L136.295 143.576L138.488 142.935L135.826 126.434L128.134 125.818ZM134.037 133.407C134.079 133.893 133.715 134.322 133.224 134.365C132.733 134.408 132.3 134.049 132.257 133.562C132.215 133.076 132.579 132.647 133.07 132.604C133.561 132.561 133.994 132.92 134.037 133.407Z" fill="#333333"/>
<path fill-rule="evenodd" clip-rule="evenodd" d="M20.0206 137.234C19.905 135.913 19.2625 134.693 18.2356 133.842C17.2087 132.99 15.8808 132.577 14.5438 132.694L-5.62015 134.458C-8.40449 134.702 -10.4661 137.129 -10.2254 139.88L-7.61068 169.766C-7.4951 171.087 -6.85261 172.307 -5.82572 173.159C-4.79882 174.01 -3.47094 174.423 -2.13392 174.306L18.03 172.542C19.367 172.425 20.603 171.787 21.4665 170.771C22.33 169.754 22.7508 168.441 22.6352 167.12L20.0206 137.234ZM17.812 170.051L-2.35191 171.815C-3.74408 171.937 -4.96994 170.921 -5.09029 169.546L-7.70496 139.66C-7.82531 138.284 -6.79453 137.07 -5.40236 136.949L14.7616 135.185C15.4291 135.126 16.0941 135.333 16.6075 135.758C17.1209 136.184 17.4423 136.795 17.5 137.455L20.1146 167.34C20.1723 168 19.962 168.658 19.5303 169.166C19.0986 169.674 18.4796 169.993 17.812 170.051Z" fill="#333333"/>
<path fill-rule="evenodd" clip-rule="evenodd" d="M7.10156 124.053C7.84644 123.749 8.65283 123.626 9.45654 123.694L12.6958 123.977C13.3909 124.038 13.907 124.646 13.8469 125.333C13.7869 126.02 13.1729 126.529 12.4778 126.468L9.23853 126.185C8.83862 126.153 8.43603 126.218 8.06763 126.37C7.41943 126.633 6.67847 126.327 6.41309 125.686C6.14575 125.045 6.45361 124.316 7.10156 124.053ZM29.4026 127.949C30.1331 128.013 30.7988 128.386 31.2295 128.975C31.6697 129.431 32.3826 129.494 32.8953 129.121C33.408 128.75 33.5598 128.057 33.2507 127.507C32.3945 126.34 31.0708 125.593 29.6204 125.458L27.8186 125.301C27.1216 125.24 26.5095 125.749 26.4495 126.436C26.3894 127.122 26.9036 127.73 27.6006 127.791L29.4026 127.949ZM3.46655 134.098L3.90234 129.117C3.9624 128.43 4.57642 127.921 5.27148 127.982C5.6062 128.011 5.91553 128.172 6.13159 128.426C6.34741 128.68 6.45166 129.009 6.42285 129.338L5.98706 134.319C5.92676 135.007 5.31299 135.514 4.61792 135.454C3.92261 135.393 3.40625 134.787 3.46655 134.098ZM2.59497 144.06L3.03076 139.079C3.09082 138.392 3.70483 137.883 4.3999 137.944C4.73462 137.973 5.04395 138.134 5.26001 138.388C5.47583 138.642 5.58008 138.971 5.55127 139.3L5.11548 144.281C5.05518 144.969 4.44141 145.476 3.74634 145.416C3.05103 145.355 2.53467 144.749 2.59497 144.06ZM3.90894 158.933C3.87939 158.589 3.70483 158.272 3.42969 158.059C3.15479 157.845 2.80371 157.754 2.45996 157.804C2.11401 157.856 1.80566 158.047 1.6084 158.329C1.40894 158.614 1.34033 158.967 1.41406 159.304C1.76416 161.584 3.64673 163.335 5.96997 163.542C6.66504 163.603 7.27905 163.094 7.33936 162.407C7.39941 161.72 6.88306 161.112 6.18799 161.051C5.02637 160.948 4.08521 160.071 3.90894 158.933ZM11.229 161.492L16.27 161.933C16.9651 161.994 17.4814 162.602 17.4214 163.289C17.3611 163.976 16.7473 164.485 16.052 164.424L11.011 163.983C10.3159 163.922 9.7998 163.314 9.85986 162.627C9.91992 161.941 10.5339 161.432 11.229 161.492ZM22.8149 124.863L17.7739 124.422C17.0789 124.361 16.4648 124.87 16.4048 125.557C16.3447 126.244 16.8608 126.851 17.5559 126.912L22.5969 127.353C23.2922 127.414 23.906 126.905 23.9663 126.218C24.0264 125.531 23.51 124.924 22.8149 124.863ZM30.1951 147.918L30.6309 142.937C30.6909 142.25 31.3049 141.741 32 141.802C32.3347 141.831 32.644 141.991 32.8601 142.246C33.0759 142.5 33.1802 142.828 33.1514 143.157L32.7156 148.138C32.6553 148.827 32.0415 149.334 31.3464 149.273C30.6511 149.212 30.1348 148.607 30.1951 147.918ZM31.5024 132.975L31.0667 137.956C31.0063 138.645 31.5227 139.25 32.218 139.311C32.9131 139.372 33.5269 138.865 33.5872 138.176L34.0229 133.195C34.0518 132.867 33.9475 132.538 33.7317 132.284C33.5156 132.03 33.2063 131.869 32.8716 131.84C32.1765 131.779 31.5625 132.288 31.5024 132.975ZM21.3108 162.374L26.3518 162.815C27.1672 162.887 27.967 162.564 28.4973 161.948C28.95 161.423 29.749 161.362 30.2813 161.81C30.8135 162.259 30.8772 163.048 30.4246 163.574C29.3645 164.804 27.7644 165.448 26.134 165.306L21.093 164.865C20.3979 164.804 19.8816 164.196 19.9416 163.509C20.0017 162.822 20.6157 162.313 21.3108 162.374ZM29.7593 152.899L29.3235 157.88C29.2632 158.568 29.7795 159.174 30.4749 159.235C31.1699 159.296 31.7837 158.789 31.844 158.1L32.2798 153.119C32.3086 152.79 32.2043 152.462 31.9885 152.208C31.7725 151.953 31.4631 151.793 31.1284 151.764C30.4333 151.703 29.8193 152.212 29.7593 152.899ZM1.72339 154.022L2.15918 149.041C2.21924 148.354 2.83325 147.845 3.52832 147.906C3.86304 147.935 4.17236 148.096 4.38843 148.35C4.60425 148.604 4.7085 148.933 4.67969 149.262L4.2439 154.242C4.18359 154.931 3.56982 155.438 2.87476 155.377C2.17944 155.317 1.66309 154.711 1.72339 154.022Z" fill="#333333"/>
<path fill-rule="evenodd" clip-rule="evenodd" d="M320.021 137.234C319.905 135.913 319.262 134.693 318.236 133.842C317.209 132.99 315.881 132.577 314.544 132.694L294.38 134.458C291.596 134.702 289.534 137.129 289.775 139.88L292.389 169.766C292.505 171.087 293.147 172.307 294.174 173.159C295.201 174.01 296.529 174.423 297.866 174.306L318.03 172.542C319.367 172.425 320.603 171.787 321.466 170.771C322.33 169.754 322.751 168.441 322.635 167.12L320.021 137.234ZM317.812 170.051L297.648 171.815C296.256 171.937 295.03 170.921 294.91 169.546L292.295 139.66C292.175 138.284 293.205 137.07 294.598 136.949L314.762 135.185C315.429 135.126 316.094 135.333 316.608 135.758C317.121 136.184 317.442 136.795 317.5 137.455L320.115 167.34C320.172 168 319.962 168.658 319.53 169.166C319.099 169.674 318.48 169.993 317.812 170.051Z" fill="#333333"/>
<path fill-rule="evenodd" clip-rule="evenodd" d="M70.707 148.293C70.3167 147.902 69.6833 147.902 69.293 148.293C68.9023 148.683 68.9023 149.317 69.293 149.707L73.5356 153.95C73.7375 154.152 74.0046 154.249 74.2693 154.242C74.5339 154.249 74.8005 154.152 75.0027 153.95L79.2454 149.707C79.6357 149.317 79.6357 148.683 79.2454 148.293C78.8547 147.902 78.2217 147.902 77.8311 148.293L74.269 151.855L70.707 148.293Z" fill="#333333"/>
<path fill-rule="evenodd" clip-rule="evenodd" d="M284.248 83.5972C280.646 79.898 275.748 77.898 270.646 77.898C265.447 77.898 260.646 79.898 256.947 83.5972C253.248 87.2964 251.248 92.0972 251.248 97.2962C251.248 101.097 252.349 104.695 254.349 107.898L249.748 112.5C248.349 111.601 246.549 111.801 245.248 113L231.049 127.297C229.65 128.695 229.65 130.996 231.049 132.398L235.549 136.898C236.248 137.598 237.15 138 238.049 138C238.947 138 239.85 137.602 240.549 136.898L254.947 122.5C255.646 121.801 256.048 120.899 256.048 120C256.048 119.301 255.849 118.7 255.548 118.102L260.15 113.5C263.252 115.5 266.951 116.602 270.752 116.602C275.951 116.602 280.752 114.602 284.451 110.903C287.947 107.297 289.947 102.399 289.947 97.1998C289.947 92.0982 287.947 87.1998 284.248 83.5978L284.248 83.5972ZM253.248 120.796L238.846 135.198C238.346 135.698 237.647 135.698 237.147 135.198L232.647 130.698C232.147 130.198 232.147 129.499 232.647 128.999L247.045 114.601C247.244 114.402 247.545 114.203 247.846 114.203C248.146 114.203 248.447 114.304 248.646 114.601L253.146 119.101C253.346 119.3 253.545 119.601 253.545 119.902C253.646 120.296 253.447 120.597 253.248 120.796L253.248 120.796ZM253.846 116.296L251.545 113.995L255.744 109.796L258.045 112.097L253.846 116.296ZM282.549 109.199C279.349 112.398 275.049 114.199 270.549 114.199C266.049 114.199 261.748 112.398 258.549 109.199C255.349 105.999 253.549 101.699 253.549 97.1985C253.549 92.6985 255.349 88.3977 258.549 85.1985C261.748 81.9993 266.049 80.1985 270.549 80.1985C275.049 80.1985 279.349 81.9993 282.549 85.1985C289.146 91.8977 289.146 102.597 282.549 109.199ZM280.345 106.999C280.146 107.199 279.845 107.398 279.545 107.398C279.244 107.398 278.943 107.296 278.744 106.999C278.244 106.499 278.244 105.8 278.744 105.3C283.142 100.902 283.142 93.6981 278.744 89.1981C278.244 88.6981 278.244 87.9989 278.744 87.4989C279.244 86.9989 279.943 86.9989 280.443 87.4989C285.748 92.8973 285.748 101.597 280.345 106.999L280.345 106.999Z" fill="#333333"/>
<path fill-rule="evenodd" clip-rule="evenodd" d="M101.042 173.391C101.847 171.142 102.645 169.155 103.385 167.527C104.122 165.898 106.167 168.295 106.296 171.307C107.495 170.982 108.643 170.796 109.693 170.796C115.676 170.796 118.174 174.242 118.174 178.817C118.174 186.655 108.017 197.328 99.323 199.033C98.3835 208.303 99.2991 214.99 99.7725 216.959C100.612 220.451 95.7173 219.613 94.5793 213.278C94.0515 208.944 94.2327 203.989 94.8613 198.914C90.6562 197.413 90.6934 191.689 91.9509 192.954C93.2517 194.263 94.5442 194.664 95.4729 194.73C96.469 188.78 97.9761 182.855 99.5786 177.755C96.2998 179.923 93.6323 182.533 91.9509 184.403C90.936 185.532 89.2183 182.42 90.3992 180.8C92.5122 178.675 96.6965 175.576 101.042 173.391ZM105.517 174.762C102.675 181.543 100.985 188.007 100.028 193.762C106.881 191.014 115.578 183.029 115.578 176.981C115.578 174.881 113.617 173.752 111.265 173.752C109.283 173.752 107.354 174.132 105.517 174.762ZM122.049 183.539C118.895 183.539 115.234 188.716 114.358 193.362C113.233 193.393 112.573 193.538 112.845 194.043C112.996 194.322 113.488 194.605 114.177 194.835C114.168 195.001 114.163 195.167 114.163 195.33C114.163 196.462 114.417 197.922 115.073 199.258C116.038 201.227 117.875 202.929 121.053 202.929C124.095 202.929 126.617 200.338 128.224 198.108C128.901 199.668 131.802 200.773 131.802 199.62C131.802 190.584 136.402 184.382 137.345 184.382C137.618 184.382 137.416 184.984 137.132 185.828C136.649 187.263 135.931 189.396 136.922 190.451C138.072 191.843 140.602 189.8 142.388 188.273C142.08 189.599 141.92 190.831 141.92 191.806C141.92 196.145 144.877 197.362 146.937 197.362C150.426 197.362 154.594 191.842 156.315 188.393C156.093 189.426 155.963 190.37 155.963 191.168C155.963 193.278 158.637 194.967 160.491 194.967C161.364 194.967 162.76 192.686 164.086 190.039C162.363 197.762 160.643 205.04 157.993 205.04C156.871 205.04 156.763 199.012 158.579 197.186C160.394 195.36 156.363 194.682 154.353 196.705C152.352 198.717 152.001 207.995 159.428 207.995C163.75 207.995 165.818 199.027 167.832 190.291C169.056 184.983 170.261 179.76 171.939 176.687C172.505 175.656 168.953 173.457 168.279 174.959C168.184 175.158 168.089 175.366 167.996 175.582L167.972 175.638C167.883 175.846 167.795 176.062 167.708 176.284C166.399 179.463 161.035 192.277 159.564 192.277C157.886 192.277 163.371 180.015 164.444 177.639C164.99 176.432 161.135 174.733 160.599 176.059L160.394 176.569C159.729 178.22 158.951 180.154 158.233 182.117C158.292 181.938 158.325 181.841 158.325 181.841C158.325 181.841 151.584 195.026 147.229 194.702C143.521 194.702 148.079 180.545 152.353 180.545C153.427 180.545 153.55 182.659 152.5 183.883C152.098 184.351 153.485 185.719 154.432 184.413C156.442 181.625 154.432 178.002 150.362 178.002C147.539 178.002 145.318 180.718 143.864 183.907C143.812 183.971 143.759 184.037 143.703 184.106C142.669 185.379 141.078 187.339 140.712 187.213C140.41 187.012 140.738 186.258 141.132 185.353C141.558 184.374 142.06 183.219 141.922 182.4C141.734 181.102 140.58 180.181 139.296 180.307C137.396 180.578 134.879 184.196 134.879 184.196C134.933 184.037 134.992 183.881 135.049 183.728C135.226 183.256 135.393 182.81 135.393 182.364C135.393 181.477 132.359 179.212 131.808 180.849C131.414 182.019 130.526 185.903 129.718 189.597C128.369 193.319 124.738 200.622 120.116 200.622C117.961 200.622 117.504 198.188 118.02 195.326C118.752 195.289 119.473 195.171 120.116 194.946C122.821 193.999 127.787 191.384 127.787 187.673C127.787 183.962 123.61 183.539 122.049 183.539ZM124.059 186.288C125.424 186.288 123.305 192.623 118.516 193.324C119.621 189.785 121.885 186.288 124.059 186.288ZM107.131 216.615C113.093 211.542 136.198 204.358 147.413 205.129C148.612 205.334 148.929 204.053 146.016 203.201C138.306 202.098 112.496 207.645 107.449 211.847C105.418 213.64 105.994 217.577 107.131 216.615Z" fill="#333333"/>
<path fill-rule="evenodd" clip-rule="evenodd" d="M156 229C149.934 229 145 233.934 145 240C145 246.066 149.934 251 156 251C162.066 251 167 246.066 167 240C167 233.934 162.066 229 156 229ZM156 249C151.034 249 147 244.966 147 240C147 235.034 151.034 231 156 231C160.966 231 165 235.034 165 240C165 244.966 160.966 249 156 249Z" fill="#333333"/>
<path fill-rule="evenodd" clip-rule="evenodd" d="M154.647 241.56L151.742 238.678C151.332 238.272 150.682 238.272 150.307 238.678C149.898 239.085 149.898 239.73 150.307 240.102L153.93 243.695C154.136 243.899 154.408 244 154.648 244C154.887 244 155.161 243.898 155.366 243.729L161.688 237.762C162.098 237.389 162.098 236.745 161.723 236.339C161.31 235.899 160.66 235.899 160.251 236.271L154.647 241.56Z" fill="#333333"/>
<path fill-rule="evenodd" clip-rule="evenodd" d="M202.308 164.206C201.897 164.617 201.897 165.282 202.308 165.692C202.718 166.103 203.383 166.103 203.793 165.692L206.5 162.986L209.207 165.692C209.617 166.103 210.282 166.103 210.692 165.692C211.103 165.282 211.103 164.617 210.692 164.206L207.986 161.5L210.692 158.794C211.103 158.383 211.103 157.718 210.692 157.308C210.282 156.897 209.617 156.897 209.206 157.308L206.5 160.014L203.794 157.308C203.383 156.897 202.718 156.897 202.308 157.308C201.897 157.718 201.897 158.383 202.308 158.794L205.014 161.5L202.308 164.206Z" fill="#333333"/>
<path fill-rule="evenodd" clip-rule="evenodd" d="M58.0421 276.144C53.15 277.007 48.4581 273.652 47.578 268.661L40.3028 227.401L37.8476 227.834L36.4729 220.037L59.1235 216.043L60.4982 223.84L58.043 224.273L65.3177 265.53C66.1946 270.521 62.931 275.282 58.0416 276.144L58.0421 276.144ZM39.6365 225.221L42.0917 224.788L49.7592 268.273C50.4225 272.035 53.9649 274.565 57.6492 273.916C61.3366 273.265 63.7967 269.676 63.1335 265.915L55.466 222.43L57.9211 221.997L57.3317 218.654L39.0466 221.879L39.6365 225.221Z" fill="#333333"/>
<path fill-rule="evenodd" clip-rule="evenodd" d="M43.5949 243.152L58.367 240.547L58.0197 238.577L43.2476 241.182L43.5949 243.152Z" fill="#333333"/>
<path fill-rule="evenodd" clip-rule="evenodd" d="M57.4369 264.066L59.4065 263.719L59.0592 261.749L57.0896 262.096L57.4369 264.066Z" fill="#333333"/>
<path fill-rule="evenodd" clip-rule="evenodd" d="M56.3951 258.157L58.3647 257.81L56.1073 245.007L54.1377 245.355L56.3951 258.157Z" fill="#333333"/>
<path fill-rule="evenodd" clip-rule="evenodd" d="M39.8317 227.569L46.7253 226.353L46.378 224.383L39.4844 225.599L39.8317 227.569Z" fill="#333333"/>
<path fill-rule="evenodd" clip-rule="evenodd" d="M48.1169 216.969C46.4891 217.256 44.9287 216.164 44.6413 214.534C44.3544 212.907 45.4472 211.347 47.075 211.06C48.7029 210.773 50.2632 211.865 50.5501 213.492C50.8376 215.122 49.7448 216.682 48.1169 216.969ZM47.4596 213.24C47.0336 213.316 46.7474 213.72 46.823 214.149C46.898 214.575 47.303 214.861 47.732 214.785C48.158 214.71 48.4437 214.302 48.3686 213.877C48.2936 213.451 47.8856 213.165 47.4596 213.24Z" fill="#333333"/>
<path fill-rule="evenodd" clip-rule="evenodd" d="M53.7951 208.86C50.5404 209.433 47.4183 207.247 46.8444 203.993C46.2699 200.735 48.4566 197.616 51.7113 197.042C54.9722 196.467 58.0876 198.651 58.6621 201.909C59.2365 205.167 57.056 208.285 53.7951 208.86ZM52.0987 199.239C50.0544 199.599 48.6806 201.558 49.0416 203.605C49.4026 205.652 51.3633 207.022 53.4075 206.662C55.4548 206.301 56.8256 204.343 56.4646 202.296C56.1036 200.249 54.146 198.878 52.0987 199.239Z" fill="#333333"/>
<path fill-rule="evenodd" clip-rule="evenodd" d="M222.124 269.168C221.424 269.168 220.78 268.93 220.22 268.286V271.576H217.7V262.238H220.22V262.952C220.766 262.308 221.424 262.07 222.124 262.07C223.804 262.07 225.092 263.302 225.092 265.612C225.092 267.936 223.804 269.168 222.124 269.168ZM221.256 266.942C221.928 266.942 222.516 266.466 222.516 265.612C222.516 264.772 221.928 264.296 221.256 264.296C220.934 264.296 220.458 264.464 220.22 264.758V266.48C220.444 266.76 220.934 266.942 221.256 266.942ZM232.792 269L230.566 265.528L232.638 262.238H229.88L228.97 263.82L228.06 262.238H225.302L227.374 265.528L225.162 269H227.906L228.984 267.208L230.034 269H232.792Z" fill="#333333"/>
<path fill-rule="evenodd" clip-rule="evenodd" d="M247.885 270.813C247.885 271.394 248.355 271.864 248.935 271.864C249.515 271.864 249.986 271.394 249.986 270.813V261.057C249.986 260.477 249.515 260.006 248.935 260.006C248.355 260.006 247.885 260.477 247.885 261.057V264.885H239.057C238.477 264.885 238.006 265.355 238.006 265.935C238.006 266.515 238.477 266.986 239.057 266.986H247.885V270.813Z" fill="#333333"/>
<path fill-rule="evenodd" clip-rule="evenodd" d="M202.108 261.057C202.108 260.477 201.637 260.006 201.057 260.006C200.477 260.006 200.006 260.477 200.006 261.057V270.813C200.006 271.394 200.477 271.864 201.057 271.864C201.637 271.864 202.108 271.394 202.108 270.813V266.986H210.935C211.515 266.986 211.986 266.515 211.986 265.935C211.986 265.355 211.515 264.885 210.935 264.885H202.108V261.057Z" fill="#333333"/>
<path fill-rule="evenodd" clip-rule="evenodd" d="M213 196.197C213 195.546 212.766 195.016 212.301 194.61C211.837 194.203 211.208 194 210.417 194C209.157 194 208.01 194.219 206.968 194.651C205.93 195.057 205.096 195.642 204.468 196.4C203.946 197.077 203.577 197.861 203.359 198.756C203.112 199.652 202.99 201.223 202.99 203.471V206.072C202.99 208.618 202.019 210.069 200.077 210.422L198.846 210.704C198.218 210.866 197.753 211.139 197.452 211.517C197.151 211.87 197 212.371 197 213.022C197 213.727 197.176 214.267 197.532 214.648C197.862 215.026 198.381 215.283 199.093 215.419C199.173 215.419 199.256 215.432 199.34 215.461C201.772 215.839 202.99 217.356 202.99 220.011V222.532C202.99 224.97 203.141 226.678 203.442 227.653C203.74 228.657 204.234 229.469 204.917 230.092C205.548 230.689 206.353 231.162 207.34 231.514C208.295 231.838 209.295 232 210.333 232C211.154 232 211.811 231.797 212.301 231.39C212.766 230.984 213 230.444 213 229.765C213 228.384 212.167 227.571 210.497 227.326L209.759 227.206C209.102 227.069 208.65 226.812 208.404 226.434C208.16 226.053 208.035 225.145 208.035 223.71V220.417C208.035 218.09 207.817 216.448 207.378 215.502C206.942 214.553 206.163 213.727 205.042 213.022C206.134 212.343 206.913 211.492 207.378 210.46C207.817 209.431 208.035 207.818 208.035 205.624V202.373C208.035 200.909 208.173 199.976 208.445 199.569C208.721 199.134 209.224 198.864 209.965 198.756C210.099 198.728 210.224 198.702 210.333 198.674C212.112 198.404 213 197.578 213 196.197Z" fill="#333333"/>
<path fill-rule="evenodd" clip-rule="evenodd" d="M226 229.803C226 230.454 226.234 230.984 226.699 231.39C227.163 231.797 227.792 232 228.583 232C229.843 232 230.99 231.781 232.032 231.349C233.07 230.943 233.904 230.358 234.532 229.6C235.054 228.923 235.423 228.139 235.641 227.244C235.888 226.348 236.01 224.777 236.01 222.529V219.928C236.01 217.382 236.981 215.931 238.923 215.578L240.154 215.296C240.782 215.134 241.247 214.861 241.548 214.483C241.849 214.13 242 213.629 242 212.978C242 212.273 241.824 211.733 241.468 211.352C241.138 210.974 240.619 210.717 239.907 210.581C239.827 210.581 239.744 210.568 239.66 210.539C237.228 210.161 236.01 208.644 236.01 205.989V203.468C236.01 201.03 235.859 199.322 235.558 198.347C235.26 197.343 234.766 196.531 234.083 195.908C233.452 195.311 232.647 194.838 231.66 194.486C230.705 194.162 229.705 194 228.667 194C227.846 194 227.189 194.203 226.699 194.61C226.234 195.016 226 195.556 226 196.235C226 197.616 226.833 198.429 228.503 198.674L229.241 198.794C229.898 198.931 230.35 199.188 230.596 199.566C230.84 199.947 230.965 200.855 230.965 202.29V205.583C230.965 207.91 231.183 209.552 231.622 210.498C232.058 211.447 232.837 212.273 233.958 212.978C232.866 213.657 232.087 214.508 231.622 215.54C231.183 216.569 230.965 218.182 230.965 220.376V223.627C230.965 225.091 230.827 226.024 230.555 226.431C230.279 226.866 229.776 227.136 229.035 227.244C228.901 227.272 228.776 227.298 228.667 227.326C226.888 227.596 226 228.422 226 229.803Z" fill="#333333"/>
<path fill-rule="evenodd" clip-rule="evenodd" d="M3.37275 216.882H0.736944V213.681C0.736944 212.753 -0.00569153 212 -0.920973 212H-27.3421C-28.2574 212 -29 212.753 -29 213.681V236.715C-29 240.738 -25.7835 244 -21.8157 244H-6.45178C-2.484 244 0.732523 240.738 0.732523 236.715V234.797H3.36833C7.02956 234.797 10 231.787 10 228.072V223.589C9.98921 219.885 7.02741 216.886 3.37275 216.882V216.882ZM-2.57905 236.715C-2.57905 237.755 -2.98705 238.753 -3.7124 239.488C-4.43775 240.224 -5.42216 240.638 -6.44752 240.638H-21.8159C-23.953 240.638 -25.6843 238.882 -25.6843 236.715V215.362H-2.58347L-2.57905 236.715ZM6.68871 228.072C6.68871 229.931 5.20564 231.435 3.37287 231.435H0.737061V220.227H3.37287C5.20564 220.227 6.68871 221.733 6.68871 223.589V228.072Z" fill="#333333"/>
<path fill-rule="evenodd" clip-rule="evenodd" d="M303.373 216.882H300.737V213.681C300.737 212.753 299.994 212 299.079 212H272.658C271.743 212 271 212.753 271 213.681V236.715C271 240.738 274.217 244 278.184 244H293.548C297.516 244 300.733 240.738 300.733 236.715V234.797H303.368C307.03 234.797 310 231.787 310 228.072V223.589C309.989 219.885 307.027 216.886 303.373 216.882V216.882ZM297.421 236.715C297.421 237.755 297.013 238.753 296.288 239.488C295.562 240.224 294.578 240.638 293.552 240.638H278.184C276.047 240.638 274.316 238.882 274.316 236.715V215.362H297.417L297.421 236.715ZM306.689 228.072C306.689 229.931 305.206 231.435 303.373 231.435H300.737V220.227H303.373C305.206 220.227 306.689 221.733 306.689 223.589V228.072Z" fill="#333333"/>
<path fill-rule="evenodd" clip-rule="evenodd" d="M287 204.284V196.716C287 195.769 286.328 195 285.5 195C284.672 195 284 195.769 284 196.716V204.284C284 205.231 284.672 206 285.5 206C286.328 206 287 205.231 287 204.284Z" fill="#333333"/>
<path fill-rule="evenodd" clip-rule="evenodd" d="M281 209.284V201.716C281 200.769 280.328 200 279.5 200C278.672 200 278 200.769 278 201.716V209.284C278 210.231 278.672 211 279.5 211C280.328 211 281 210.231 281 209.284Z" fill="#333333"/>
<path fill-rule="evenodd" clip-rule="evenodd" d="M294 207.284V199.716C294 198.769 293.328 198 292.5 198C291.672 198 291 198.769 291 199.716V207.284C291 208.231 291.672 209 292.5 209C293.328 209 294 208.231 294 207.284Z" fill="#333333"/>
</g>
<defs>
<clipPath id="clip0">
<rect width="300" height="300" fill="white"/>
</clipPath>
</defs>
</svg>
