<svg width="300" height="300" viewBox="0 0 300 300" fill="none" xmlns="http://www.w3.org/2000/svg">
<g clip-path="url(#clip0)">
<g opacity="0.03">
<path fill-rule="evenodd" clip-rule="evenodd" d="M19.2768 0C17.4487 0 15.6237 0.7 14.2392 2.11248L13.2017 3.17496L12.1642 2.12496C9.39542 -0.70004 4.84539 -0.70004 2.07659 2.12496C-0.692215 4.94996 -0.692175 9.51256 2.07659 12.3374C5.50002 15.8296 8.92818 19.3326 12.3518 22.825C12.5768 23.0546 12.8846 23.1843 13.208 23.1843C13.5299 23.1843 13.8377 23.0546 14.0627 22.825L24.3251 12.325C27.0892 9.4984 27.0939 4.93736 24.3251 2.11256C22.9407 0.70008 21.1032 8e-05 19.2751 8e-05L19.2768 0ZM19.2769 2.36251C20.4738 2.36251 21.6691 2.84687 22.6019 3.80003C24.4691 5.70471 24.4675 8.74203 22.6019 10.65L13.2019 20.2624C10.066 17.0624 6.9379 13.8624 3.8019 10.6624C1.9347 8.75775 1.9347 5.70443 3.8019 3.80003C5.6691 1.89535 8.5847 1.89535 10.4519 3.80003L12.3394 5.73755C12.5644 5.96724 12.8722 6.09692 13.1957 6.09692C13.5175 6.09692 13.8253 5.96724 14.0519 5.73755L15.9519 3.80003C16.8847 2.84691 18.08 2.36251 19.2769 2.36251Z" transform="translate(-8.24878 -5.51764) rotate(-20)" fill="#333333"/>
<path fill-rule="evenodd" clip-rule="evenodd" d="M19.2768 0C17.4487 0 15.6237 0.7 14.2392 2.11248L13.2017 3.17496L12.1642 2.12496C9.39542 -0.70004 4.84539 -0.70004 2.07659 2.12496C-0.692215 4.94996 -0.692175 9.51256 2.07659 12.3374C5.50002 15.8296 8.92818 19.3326 12.3518 22.825C12.5768 23.0546 12.8846 23.1843 13.208 23.1843C13.5299 23.1843 13.8377 23.0546 14.0627 22.825L24.3251 12.325C27.0892 9.4984 27.0939 4.93736 24.3251 2.11256C22.9407 0.70008 21.1032 8e-05 19.2751 8e-05L19.2768 0ZM19.2769 2.36251C20.4738 2.36251 21.6691 2.84687 22.6019 3.80003C24.4691 5.70471 24.4675 8.74203 22.6019 10.65L13.2019 20.2624C10.066 17.0624 6.9379 13.8624 3.8019 10.6624C1.9347 8.75775 1.9347 5.70443 3.8019 3.80003C5.6691 1.89535 8.5847 1.89535 10.4519 3.80003L12.3394 5.73755C12.5644 5.96724 12.8722 6.09692 13.1957 6.09692C13.5175 6.09692 13.8253 5.96724 14.0519 5.73755L15.9519 3.80003C16.8847 2.84691 18.08 2.36251 19.2769 2.36251Z" transform="translate(291.751 -5.51764) rotate(-20)" fill="#333333"/>
<path fill-rule="evenodd" clip-rule="evenodd" d="M19.2768 0C17.4487 0 15.6237 0.7 14.2392 2.11248L13.2017 3.17496L12.1642 2.12496C9.39542 -0.70004 4.84539 -0.70004 2.07659 2.12496C-0.692215 4.94996 -0.692175 9.51256 2.07659 12.3374C5.50002 15.8296 8.92818 19.3326 12.3518 22.825C12.5768 23.0546 12.8846 23.1843 13.208 23.1843C13.5299 23.1843 13.8377 23.0546 14.0627 22.825L24.3251 12.325C27.0892 9.4984 27.0939 4.93736 24.3251 2.11256C22.9407 0.70008 21.1032 8e-05 19.2751 8e-05L19.2768 0ZM19.2769 2.36252C20.4738 2.36252 21.6691 2.84688 22.6019 3.80004C24.4691 5.70472 24.4675 8.74204 22.6019 10.65L13.2019 20.2624C10.066 17.0624 6.9379 13.8624 3.8019 10.6624C1.9347 8.75776 1.9347 5.70444 3.8019 3.80004C5.6691 1.89536 8.5847 1.89536 10.4519 3.80004L12.3394 5.73756C12.5644 5.96725 12.8722 6.09694 13.1957 6.09694C13.5175 6.09694 13.8253 5.96725 14.0519 5.73756L15.9519 3.80004C16.8847 2.84692 18.08 2.36252 19.2769 2.36252Z" transform="translate(-8.24878 294.482) rotate(-20)" fill="#333333"/>
<path fill-rule="evenodd" clip-rule="evenodd" d="M19.2768 0C17.4487 0 15.6237 0.7 14.2392 2.11248L13.2017 3.17496L12.1642 2.12496C9.39542 -0.70004 4.84539 -0.70004 2.07659 2.12496C-0.692215 4.94996 -0.692175 9.51256 2.07659 12.3374C5.50002 15.8296 8.92818 19.3326 12.3518 22.825C12.5768 23.0546 12.8846 23.1843 13.208 23.1843C13.5299 23.1843 13.8377 23.0546 14.0627 22.825L24.3251 12.325C27.0892 9.4984 27.0939 4.93736 24.3251 2.11256C22.9407 0.70008 21.1032 8e-05 19.2751 8e-05L19.2768 0ZM19.2769 2.36252C20.4738 2.36252 21.6691 2.84688 22.6019 3.80004C24.4691 5.70472 24.4675 8.74204 22.6019 10.65L13.2019 20.2624C10.066 17.0624 6.9379 13.8624 3.8019 10.6624C1.9347 8.75776 1.9347 5.70444 3.8019 3.80004C5.6691 1.89536 8.5847 1.89536 10.4519 3.80004L12.3394 5.73756C12.5644 5.96725 12.8722 6.09694 13.1957 6.09694C13.5175 6.09694 13.8253 5.96725 14.0519 5.73756L15.9519 3.80004C16.8847 2.84692 18.08 2.36252 19.2769 2.36252Z" transform="translate(291.751 294.482) rotate(-20)" fill="#333333"/>
<path fill-rule="evenodd" clip-rule="evenodd" d="M3 0H24C25.6567 0 27 1.351 27 3.01754V39.9825C27 41.649 25.6567 43 24 43H3C1.34326 43 0 41.649 0 39.9825V3.01754C0 1.351 1.34326 0 3 0ZM3 2.26316C2.58569 2.26316 2.25 2.60091 2.25 3.01754V39.9825C2.25 40.3991 2.58569 40.7368 3 40.7368H24C24.4143 40.7368 24.75 40.3991 24.75 39.9825V3.01754C24.75 2.60091 24.4143 2.26316 24 2.26316H21.7915L21.7771 3.05386C21.762 3.87141 21.095 4.52631 20.2773 4.52631H6.77515C5.93701 4.52631 5.26147 3.83948 5.27539 3.00144L5.2876 2.26316H3ZM11.6272 2.26316C11.4189 2.26316 11.25 2.43203 11.25 2.64035C11.25 2.84867 11.4189 3.01754 11.6272 3.01754H15.3728C15.5811 3.01754 15.75 2.84867 15.75 2.64035C15.75 2.43203 15.5811 2.26316 15.3728 2.26316H11.6272Z" transform="translate(42 14)" fill="#333333"/>
<path fill-rule="evenodd" clip-rule="evenodd" d="M5.19832 17.0098L16.4278 3.8134C17.263 2.8638 17.1696 1.43933 16.2412 0.585219C15.3128 -0.268958 13.9201 -0.173471 13.0851 0.776123L0.556315 15.4901C-0.185439 16.3442 -0.185439 17.6732 0.556315 18.5274L13.0851 33.2413C13.5493 33.7161 14.1068 34 14.7553 34C15.3128 34 15.868 33.8091 16.2413 33.4297C16.7055 33.0504 16.983 32.4801 16.983 31.8169C16.983 31.2466 16.7964 30.5833 16.4255 30.1085L5.19832 17.0098Z" transform="translate(91 -16)" fill="#333333"/>
<path fill-rule="evenodd" clip-rule="evenodd" d="M4.219 0.75689C3.82838 0.28321 3.2412 0 2.55825 0C1.97105 0 1.28807 0.190451 0.799171 0.568908C-0.178623 1.42106 -0.276945 2.84208 0.602599 3.78943L12.5276 16.9527L0.700662 30.1178C0.310041 30.5914 0.11347 31.1604 0.11347 31.8221C0.11347 32.391 0.405802 32.9574 0.894686 33.4311C1.28531 33.8095 1.87248 34 2.4597 34C3.14517 34 3.82813 33.7168 4.21877 33.2431L17.4141 18.5641C18.1953 17.712 18.1953 16.3861 17.4141 15.534L4.219 0.75689Z" transform="translate(127 -16)" fill="#333333"/>
<path fill-rule="evenodd" clip-rule="evenodd" d="M10.1341 0.0543514C8.8987 -0.227796 7.66332 0.621087 7.37655 1.84698L0.0547731 38.2636C-0.229564 39.4896 0.625907 40.7154 1.86131 41H2.33684C3.47665 41 4.4277 40.246 4.6189 39.1125L11.9407 2.69587C12.225 1.46995 11.4651 0.336486 10.1341 0.0543514H10.1341Z" transform="translate(112 -20)" fill="#333333"/>
<path fill-rule="evenodd" clip-rule="evenodd" d="M5.19832 17.0098L16.4278 3.8134C17.263 2.8638 17.1696 1.43933 16.2412 0.585219C15.3128 -0.268958 13.9201 -0.173471 13.0851 0.776123L0.556315 15.4901C-0.185439 16.3442 -0.185439 17.6732 0.556315 18.5274L13.0851 33.2413C13.5493 33.7161 14.1068 34 14.7553 34C15.3128 34 15.868 33.8091 16.2413 33.4297C16.7055 33.0504 16.983 32.4801 16.983 31.8169C16.983 31.2466 16.7964 30.5833 16.4255 30.1085L5.19832 17.0098Z" transform="translate(91 284)" fill="#333333"/>
<path fill-rule="evenodd" clip-rule="evenodd" d="M4.219 0.75689C3.82838 0.28321 3.2412 0 2.55825 0C1.97105 0 1.28807 0.190451 0.799171 0.568908C-0.178623 1.42106 -0.276945 2.84208 0.602599 3.78943L12.5276 16.9527L0.700662 30.1178C0.310041 30.5914 0.11347 31.1604 0.11347 31.8221C0.11347 32.391 0.405802 32.9574 0.894686 33.4311C1.28531 33.8095 1.87248 34 2.4597 34C3.14517 34 3.82813 33.7168 4.21877 33.2431L17.4141 18.5641C18.1953 17.712 18.1953 16.3861 17.4141 15.534L4.219 0.75689Z" transform="translate(127 284)" fill="#333333"/>
<path fill-rule="evenodd" clip-rule="evenodd" d="M10.1341 0.0543514C8.8987 -0.227796 7.66332 0.621087 7.37655 1.84698L0.0547731 38.2636C-0.229564 39.4896 0.625907 40.7154 1.86131 41H2.33684C3.47665 41 4.4277 40.246 4.6189 39.1125L11.9407 2.69587C12.225 1.46995 11.4651 0.336486 10.1341 0.0543514H10.1341Z" transform="translate(112 280)" fill="#333333"/>
<path fill-rule="evenodd" clip-rule="evenodd" d="M28.4006 0H1.5996C0.6992 0 0 0.6992 0 1.5996V20.9006C0 21.801 0.6992 22.5002 1.5996 22.5002H28.4006C29.301 22.5002 30.0002 21.801 30.0002 20.9006V1.5996C30.0002 0.6992 29.301 0 28.4006 0ZM28.1506 1.8496V6.75H1.90063V1.9004H28.1506V1.8496ZM1.90063 20.6506V8.6506H28.1506V20.6506H1.90063ZM3.94946 4.4496C3.94946 3.85 4.44946 3.35 5.04906 3.35C5.64866 3.35 6.14866 3.85 6.14866 4.4496C6.14866 5.0492 5.64866 5.5492 5.04906 5.5492C4.44946 5.55116 3.94946 5.05116 3.94946 4.4496ZM7.30103 4.4496C7.30103 3.85 7.80103 3.35 8.40063 3.35C9.00023 3.35 9.50023 3.85 9.50023 4.4496C9.50023 5.0492 9.00023 5.5492 8.40063 5.5492C7.80103 5.55116 7.30103 5.05116 7.30103 4.4496ZM10.6995 4.4496C10.6995 3.85 11.1995 3.35 11.7991 3.35C12.3987 3.35 12.8987 3.85 12.8987 4.4496C12.8987 5.0492 12.3987 5.5492 11.7991 5.5492C11.1995 5.55116 10.6995 5.05116 10.6995 4.4496Z" transform="translate(183 -9.50018)" fill="#333333"/>
<path fill-rule="evenodd" clip-rule="evenodd" d="M28.4006 0H1.5996C0.6992 0 0 0.6992 0 1.5996V20.9006C0 21.801 0.6992 22.5002 1.5996 22.5002H28.4006C29.301 22.5002 30.0002 21.801 30.0002 20.9006V1.5996C30.0002 0.6992 29.301 0 28.4006 0ZM28.1506 1.84961V6.75001H1.90063V1.90041H28.1506V1.84961ZM1.90063 20.6506V8.6506H28.1506V20.6506H1.90063ZM3.94946 4.44961C3.94946 3.85001 4.44946 3.35001 5.04906 3.35001C5.64866 3.35001 6.14866 3.85001 6.14866 4.44961C6.14866 5.04921 5.64866 5.54921 5.04906 5.54921C4.44946 5.55116 3.94946 5.05116 3.94946 4.44961ZM7.30103 4.44961C7.30103 3.85001 7.80103 3.35001 8.40063 3.35001C9.00023 3.35001 9.50023 3.85001 9.50023 4.44961C9.50023 5.04921 9.00023 5.54921 8.40063 5.54921C7.80103 5.55116 7.30103 5.05116 7.30103 4.44961ZM10.6995 4.44961C10.6995 3.85001 11.1995 3.35001 11.7991 3.35001C12.3987 3.35001 12.8987 3.85001 12.8987 4.44961C12.8987 5.04921 12.3987 5.54921 11.7991 5.54921C11.1995 5.55116 10.6995 5.05116 10.6995 4.44961Z" transform="translate(183 290.5)" fill="#333333"/>
<path fill-rule="evenodd" clip-rule="evenodd" d="M57.7075 10.5086C57.4515 9.67597 56.6909 9.11644 55.815 9.11644C55.5542 9.11645 55.299 9.16736 55.0561 9.26781C54.4347 9.52488 53.4655 9.82575 52.2539 9.8817C49.8054 8.11173 43.8676 3.83601 40.3447 1.43716C40.3447 1.43716 40.8382 2.86293 41.5197 5.52658C41.5197 5.52658 35.9492 2.40127 32.2405 -1.72708e-05C32.2405 -1.72708e-05 33.6262 2.81127 33.741 3.72158C33.741 3.72158 29.3304 2.96521 22.8811 1.57721C22.8811 1.57721 27.6783 4.24204 28.8598 5.84648C28.8598 5.84648 23.089 5.45806 16.2921 5.07195C16.2921 5.07195 19.7372 6.80541 21.4179 8.20542C21.4179 8.20542 15.2569 9.10629 10.5634 9.33432C10.5634 9.33432 14.0445 12.0409 15.4492 13.3517C15.4492 13.3517 9.58903 15.6534 2.59038 19.6956C2.59038 19.6956 6.27819 19.8773 8.93711 20.7205C8.93711 20.7205 5.73014 23.5366 -0.000109694 29.9939C-0.000109694 29.9939 3.67974 29.8591 6.64857 29.4598C6.64857 29.4598 4.32371 33.0395 1.43278 39.47C1.43278 39.47 3.4157 38.2219 5.33609 37.77C5.33609 37.77 5.54214 44.9882 9.53631 46.1446L9.53964 46.1396C9.73532 46.2008 9.92201 46.2224 10.0841 46.2224C10.2792 46.2224 10.4831 46.1926 10.6901 46.1339C11.9577 45.7755 12.917 44.5394 14.0277 43.1084C14.2861 42.7756 14.5495 42.4366 14.8227 42.0999C15.2941 41.3503 15.9787 40.5216 16.8469 39.8142C18.3735 38.5703 20.5331 37.6494 23.1786 38.2295L23.1712 38.2638C25.5349 38.7712 27.0536 41.1925 28.2919 43.1662C29.2981 44.77 30.0927 46.0369 31.202 46.1582C31.28 46.1668 31.3577 46.171 31.4334 46.171C33.1268 46.171 33.7234 44.2195 34.4766 41.7472C34.9883 39.6021 36.1416 37.2424 37.5757 35.1327C39.3777 32.4822 41.7028 30.1085 43.9407 29.0041L43.9698 29.0632C45.1789 28.3709 46.4511 27.7171 47.7055 27.0726C51.5931 25.0748 55.2653 23.188 57.1072 20.3252C58.0284 18.8934 58.4852 17.1366 58.4646 15.1033C58.4459 13.2796 58.0427 11.598 57.7075 10.5086ZM41.6746 32.184C40.5949 33.2075 39.5402 34.4662 38.6094 35.8354C37.0222 38.1704 35.8609 40.7289 35.5336 42.8381C36.6106 44.5717 37.5803 45.424 38.4869 45.4386L38.5157 45.4389C39.3603 45.4389 39.917 44.8779 40.1712 43.7719C40.3612 42.9457 40.4017 41.8105 40.4486 40.4959C40.5328 38.1318 40.6419 35.0942 41.6746 32.184ZM18.1866 45.4474C17.3149 45.4474 16.5384 44.6059 15.8135 42.8749C16.2022 42.2314 16.8142 41.4533 17.6366 40.7832C18.7788 39.8525 20.2778 39.1682 22.0894 39.3246C21.8885 39.8597 21.6585 40.4483 21.4121 41.0374C20.5447 43.1124 19.507 45.2571 18.3875 45.4318C18.321 45.4422 18.2535 45.4474 18.1866 45.4474ZM37.7175 8.8637L32.8209 5.76206L40.8939 8.60588L37.7175 8.8637ZM24.2543 10.2785L32.0097 12.2396L35.3917 11.13L24.2543 10.2785ZM38.0818 14.1213L39.7367 12.882L33.3319 13.9465L38.0818 14.1213ZM27.1084 14.1212L24.4558 15.8776L17.1042 15.1856L27.1084 14.1212ZM35.3916 18.5103L38.0823 17.0225L28.0782 18.0871L35.3916 18.5103ZM27.9808 20.1616L26.1054 23.2078L16.719 25.4769L27.9808 20.1616ZM16.2542 22.0371L8.98741 25.1983L17.9073 18.876L16.2542 22.0371ZM12.2797 25.8274L11.993 28.9898L7.82061 34.161L12.2797 25.8274Z" transform="translate(226.635 15.2223) rotate(0.999737)" fill="#3F3A40"/>
<path fill-rule="evenodd" clip-rule="evenodd" d="M10.938 1.0902C10.9303 0.508753 10.4093 0.0351657 9.77485 0.0328249L2.24152 0C0.487797 0 0.490372 2.3891 2.24411 2.39144L5.51691 2.39378C6.06367 2.39378 6.19517 2.67747 5.80318 3.03384L0.384601 7.95968C-0.128629 8.42624 -0.128629 9.1812 0.387176 9.65008C0.900407 10.1166 1.73347 10.1166 2.24667 9.65008L7.66526 4.72424C8.05212 4.37256 8.36676 4.4851 8.36676 4.98448L8.36934 7.96201C8.37192 9.55392 11.0026 9.55626 11 7.96435L10.938 1.0902Z" transform="translate(26 76)" fill="#333333"/>
<path fill-rule="evenodd" clip-rule="evenodd" d="M0.0563681 8.91202C0.0634027 9.49353 0.53701 9.96718 1.11377 9.96952L7.96225 10C9.55655 10.0023 9.55421 7.61062 7.9599 7.61062L4.98463 7.60828C4.48757 7.60828 4.36802 7.32455 4.72438 6.96815L9.65036 2.04174C10.1169 1.57512 10.1169 0.817731 9.64802 0.351135C9.18145 -0.115478 8.42412 -0.117826 7.95757 0.348794L3.03159 5.27755C2.67989 5.62927 2.39385 5.51437 2.39385 5.01728L2.39151 2.0394C2.38916 0.447304 -0.00233913 0.444963 1.71733e-06 2.03705L0.0563681 8.91202Z" transform="translate(16 87)" fill="#333333"/>
<path fill-rule="evenodd" clip-rule="evenodd" d="M3.45172 7.19691C3.85959 6.98238 4.52198 6.98238 4.92903 7.19691L6.29131 7.91313C6.69918 8.12685 6.96675 7.9319 6.88925 7.47835L6.62903 5.96189C6.55072 5.50751 6.75547 4.87776 7.08503 4.55635L8.18709 3.48203C8.51746 3.16062 8.41468 2.84574 7.95951 2.77967L6.4357 2.5586C5.97969 2.49252 5.44457 2.1026 5.24062 1.68982L4.55948 0.309581C4.35555 -0.103193 4.02435 -0.103193 3.82122 0.309581L3.14008 1.68982C2.93615 2.10341 2.4002 2.49253 1.94501 2.5586L0.421195 2.77967C-0.0348071 2.84574 -0.135965 3.16143 0.193611 3.48203L1.29567 4.55635C1.62523 4.87858 1.82998 5.50833 1.75167 5.96189L1.49145 7.47835C1.41396 7.93272 1.68233 8.12687 2.08939 7.91313L3.45172 7.19691Z" transform="translate(173.689 40.8293) rotate(-20)" fill="#333333"/>
<path fill-rule="evenodd" clip-rule="evenodd" d="M3.45172 7.19691C3.85959 6.98238 4.52198 6.98238 4.92903 7.19691L6.29131 7.91313C6.69918 8.12685 6.96675 7.9319 6.88925 7.47835L6.62903 5.96189C6.55072 5.50751 6.75547 4.87776 7.08503 4.55635L8.18709 3.48203C8.51746 3.16062 8.41468 2.84574 7.95951 2.77967L6.4357 2.5586C5.97969 2.49252 5.44457 2.1026 5.24062 1.68982L4.55948 0.309581C4.35555 -0.103193 4.02435 -0.103193 3.82122 0.309581L3.14008 1.68982C2.93615 2.10341 2.4002 2.49253 1.94501 2.5586L0.421195 2.77967C-0.0348071 2.84574 -0.135965 3.16143 0.193611 3.48203L1.29567 4.55635C1.62523 4.87858 1.82998 5.50833 1.75167 5.96189L1.49145 7.47835C1.41396 7.93272 1.68233 8.12687 2.08939 7.91313L3.45172 7.19691Z" transform="translate(253.689 168.829) rotate(-20)" fill="#333333"/>
<path fill-rule="evenodd" clip-rule="evenodd" d="M3.45172 7.19691C3.85959 6.98238 4.52198 6.98238 4.92903 7.19691L6.29131 7.91313C6.69918 8.12685 6.96675 7.9319 6.88925 7.47835L6.62903 5.96189C6.55072 5.50751 6.75547 4.87776 7.08503 4.55635L8.18709 3.48203C8.51746 3.16062 8.41468 2.84574 7.95951 2.77967L6.4357 2.5586C5.97969 2.49252 5.44457 2.1026 5.24062 1.68982L4.55948 0.309581C4.35555 -0.103193 4.02435 -0.103193 3.82122 0.309581L3.14008 1.68982C2.93615 2.10341 2.4002 2.49253 1.94501 2.5586L0.421195 2.77967C-0.0348071 2.84574 -0.135965 3.16143 0.193611 3.48203L1.29567 4.55635C1.62523 4.87858 1.82998 5.50833 1.75167 5.96189L1.49145 7.47835C1.41396 7.93272 1.68233 8.12687 2.08939 7.91313L3.45172 7.19691Z" transform="translate(97.9263 248.829) rotate(-20)" fill="#333333"/>
<path fill-rule="evenodd" clip-rule="evenodd" d="M0 0.944178C0 0.422723 0.422723 0 0.944178 0H9.71154C10.233 0 10.6557 0.422723 10.6557 0.944178C10.6557 1.46563 10.233 1.88836 9.71154 1.88836H0.944178C0.422723 1.88836 0 1.46563 0 0.944178Z" transform="translate(136.005 58.5889) rotate(80)" fill="#333333"/>
<path fill-rule="evenodd" clip-rule="evenodd" d="M18.4844 5.41358e-05C17.6935 0.00695586 16.9847 0.654216 17.0003 1.35322V6.65545C16.9885 7.35618 17.7072 8 18.5 8C19.2928 8 20.0114 7.35622 19.9997 6.65545V1.35322C20.0173 0.645555 19.285 -0.00683875 18.4844 5.41358e-05ZM3.22346 2.00146C2.74091 2.02516 2.2835 2.37326 2.09585 2.85985C1.90819 3.34465 2.00202 3.94424 2.32539 4.33428L5.75682 8.53336C6.19913 9.09468 7.07543 9.16033 7.58478 8.67187C8.09413 8.18161 8.14273 7.23028 7.68698 6.6817L4.25556 2.48262C4.00256 2.16368 3.61049 1.98144 3.22347 2.0015L3.22346 2.00146ZM33.6013 2.00538C33.273 2.03817 32.9581 2.21485 32.7437 2.48623L29.3129 6.68298C28.8573 7.23127 28.9059 8.18206 29.4151 8.67206C29.9244 9.16023 30.8005 9.09464 31.2427 8.53362L34.6734 4.33687C35.0185 3.92157 35.1006 3.27313 34.8694 2.77218C34.6399 2.27309 34.1139 1.95433 33.6013 2.00534L33.6013 2.00538ZM7.79954 11C7.3413 11.0213 6.90299 11.2807 6.66935 11.6681L0.178006 22.5841C-0.133523 23.11 -0.0266612 23.842 0.424329 24.2613L18.0437 40.6354C18.4983 41.06 19.2626 41.1222 19.7824 40.7775C19.8513 40.7402 19.9002 40.6816 19.9563 40.6354L37.5757 24.2613C38.0267 23.842 38.1335 23.11 37.822 22.5841L31.3307 11.6681C31.0843 11.2612 30.6098 10.9982 30.128 11H19H7.79963H7.79954ZM10 13H17L12.3385 20L10 13ZM21 13H28L25.6616 20L21 13ZM19 15L24 22H14L19 15ZM7.81681 15L10 22H4L7.81681 15ZM30.1832 15L34 22H28L30.1832 15ZM4 24H10.3676L15 34L4 24ZM14 24H24L19 37L14 24ZM27.6325 24H34L23 34L27.6325 24Z" transform="translate(67 79)" fill="#333333"/>
<mask id="path-22-outside-1" maskUnits="userSpaceOnUse" x="-2" y="-2" width="8" height="8" fill="black">
<rect fill="white" x="-2" y="-2" width="8" height="8"/>
<path fill-rule="evenodd" clip-rule="evenodd" d="M0.797228 0.136786C0.614867 -0.0455746 0.319259 -0.0456339 0.136786 0.13684C-0.0455152 0.319141 -0.0454559 0.614749 0.136904 0.797109L1.33975 1.99995L0.13684 3.20286C-0.0456339 3.38534 -0.0455746 3.68095 0.136786 3.86331C0.319146 4.04567 0.614754 4.04573 0.797228 3.86325L2.00014 2.66034L3.20298 3.86318C3.38534 4.04554 3.68095 4.0456 3.86325 3.8633C4.04572 3.68083 4.04566 3.38522 3.8633 3.20286L2.66046 2.00002L3.8632 0.797282C4.04567 0.614808 4.04561 0.3192 3.86325 0.13684C3.68089 -0.0455206 3.38528 -0.04558 3.20281 0.136894L2.00007 1.33963L0.797228 0.136786Z"/>
</mask>
<path fill-rule="evenodd" clip-rule="evenodd" d="M0.797228 0.136786C0.614867 -0.0455746 0.319259 -0.0456339 0.136786 0.13684C-0.0455152 0.319141 -0.0454559 0.614749 0.136904 0.797109L1.33975 1.99995L0.13684 3.20286C-0.0456339 3.38534 -0.0455746 3.68095 0.136786 3.86331C0.319146 4.04567 0.614754 4.04573 0.797228 3.86325L2.00014 2.66034L3.20298 3.86318C3.38534 4.04554 3.68095 4.0456 3.86325 3.8633C4.04572 3.68083 4.04566 3.38522 3.8633 3.20286L2.66046 2.00002L3.8632 0.797282C4.04567 0.614808 4.04561 0.3192 3.86325 0.13684C3.68089 -0.0455206 3.38528 -0.04558 3.20281 0.136894L2.00007 1.33963L0.797228 0.136786Z" transform="translate(203 87.1716) rotate(45)" fill="#333333"/>
<path d="M1.33975 1.99995L2.11757 2.77777L2.89538 1.99995L2.11757 1.22214L1.33975 1.99995ZM0.136786 3.86331L0.914603 3.08549L0.136786 3.86331ZM0.797228 3.86325L0.0194101 3.08543L0.797228 3.86325ZM2.00014 2.66034L2.77796 1.88252L2.00014 1.10471L1.22232 1.88252L2.00014 2.66034ZM3.20298 3.86318L3.9808 3.08536L3.20298 3.86318ZM3.86325 3.8633L3.08543 3.08548L3.86325 3.8633ZM3.8633 3.20286L3.08548 3.98068L3.8633 3.20286ZM2.66046 2.00002L1.88264 1.2222L1.10483 2.00002L1.88264 2.77784L2.66046 2.00002ZM3.8632 0.797282L3.08538 0.019464L3.8632 0.797282ZM3.86325 0.13684L3.08543 0.914657L3.86325 0.13684ZM2.00007 1.33963L1.22226 2.11745L2.00007 2.89527L2.77789 2.11745L2.00007 1.33963ZM0.914603 0.914657C0.667492 1.16177 0.266618 1.16181 0.0194101 0.914603L1.57504 -0.641032C0.963116 -1.25296 -0.0289731 -1.25304 -0.641032 -0.640978L0.914603 0.914657ZM0.914722 0.0192914C1.16167 0.266235 1.16215 0.667108 0.914603 0.914657L-0.641032 -0.640978C-1.25318 -0.0288269 -1.25258 0.963262 -0.640913 1.57493L0.914722 0.0192914ZM2.11757 1.22214L0.914722 0.0192914L-0.640913 1.57493L0.561932 2.77777L2.11757 1.22214ZM0.914657 3.98068L2.11757 2.77777L0.561932 1.22214L-0.640978 2.42505L0.914657 3.98068ZM0.914603 3.08549C1.16181 3.3327 1.16177 3.73357 0.914657 3.98068L-0.640978 2.42505C-1.25304 3.03711 -1.25296 4.02919 -0.641032 4.64112L0.914603 3.08549ZM0.0194101 3.08543C0.266521 2.83832 0.667395 2.83828 0.914603 3.08549L-0.641032 4.64112C-0.029103 5.25305 0.962986 5.25313 1.57504 4.64107L0.0194101 3.08543ZM1.22232 1.88252L0.0194101 3.08543L1.57504 4.64107L2.77796 3.43816L1.22232 1.88252ZM3.9808 3.08536L2.77796 1.88252L1.22232 3.43816L2.42516 4.641L3.9808 3.08536ZM3.08543 3.08548C3.33298 2.83793 3.73385 2.83842 3.9808 3.08536L2.42516 4.641C3.03682 5.25266 4.02891 5.25327 4.64106 4.64112L3.08543 3.08548ZM3.08548 3.98068C2.83828 3.73347 2.83832 3.33259 3.08543 3.08548L4.64106 4.64112C5.25312 4.02906 5.25305 3.03697 4.64112 2.42504L3.08548 3.98068ZM1.88264 2.77784L3.08548 3.98068L4.64112 2.42504L3.43828 1.2222L1.88264 2.77784ZM3.08538 0.019464L1.88264 1.2222L3.43828 2.77784L4.64102 1.5751L3.08538 0.019464ZM3.08543 0.914657C2.83823 0.667449 2.83827 0.266575 3.08538 0.019464L4.64102 1.5751C5.25307 0.96304 5.253 -0.029049 4.64107 -0.640978L3.08543 0.914657ZM3.98063 0.914711C3.73352 1.16182 3.33264 1.16187 3.08543 0.914657L4.64107 -0.640978C4.02914 -1.25291 3.03705 -1.25298 2.42499 -0.640924L3.98063 0.914711ZM2.77789 2.11745L3.98063 0.914711L2.42499 -0.640924L1.22226 0.561814L2.77789 2.11745ZM0.0194101 0.914603L1.22226 2.11745L2.77789 0.561814L1.57504 -0.641032L0.0194101 0.914603Z" transform="translate(203 87.1716) rotate(45)" fill="#333333" mask="url(#path-22-outside-1)"/>
<path fill-rule="evenodd" clip-rule="evenodd" d="M36.1369 2.3249L32.5917 3.81706C32.1416 4.00645 31.6234 3.79522 31.4339 3.34521C31.2446 2.89523 31.4558 2.3769 31.9057 2.1875L35.4508 0.695344C35.9009 0.505947 36.4192 0.717185 36.6087 1.16719C36.798 1.61717 36.5867 2.1355 36.1369 2.3249ZM25.3876 0.502949C28.012 1.58215 29.8972 3.95677 29.9492 6.97822C30.0121 10.6293 30.017 14.2737 29.9637 17.9112L40.1141 17.9112C43.3459 17.9112 45.9862 21.613 45.9862 25.1368C45.9862 26.6326 45.3429 28.2348 44.3657 29.5414C45.1154 30.8068 45.341 32.9295 44.8367 34.7457C44.3895 36.3566 43.4444 37.621 42.0401 38.3834C42.5181 41.3505 40.2033 45.5367 36.7056 45.5367L30.211 45.5367C28.2067 45.5367 26.7078 43.6378 26.7079 41.716C26.7079 40.4807 27.402 39.0646 28.3985 38.2244C27.6871 37.5261 27.2855 36.472 27.3161 35.1363C27.3572 33.3472 28.0769 31.7596 29.1803 30.933C28.5223 30.1677 28.1814 29.1197 28.1815 27.898C28.1815 25.6201 29.7616 23.9575 32.0357 23.9575C33.2659 23.9575 35.3747 24.0567 38.3749 24.2547C38.862 24.2868 39.231 24.7078 39.1987 25.195C39.1666 25.6822 38.7457 26.051 38.2583 26.0188C35.2949 25.8233 33.2164 25.7256 32.0356 25.7256C30.7585 25.7255 29.9493 26.577 29.9494 27.898C29.9494 29.447 30.6458 30.3621 32.1187 30.5011C34.2006 30.6976 37.7191 30.6976 40.0393 30.5004C41.923 30.3403 44.2182 27.4651 44.2183 25.1368C44.2181 22.486 42.2163 19.6792 40.1141 19.6792L28.166 19.6792L28.1815 18.7799C28.2493 14.8641 28.2493 10.9404 28.1815 7.00866C28.1426 4.74806 26.7273 2.96559 24.7152 2.13811C23.1699 1.50267 22.1868 1.72883 22.2396 2.2035C22.946 8.54172 22.0709 15.4003 18.5374 16.9861C14.6958 18.7102 11.8198 21.3671 11.8464 23.1943C11.8558 23.8269 11.9026 24.6102 11.9963 25.7812C12.0094 25.9449 12.0494 26.4229 12.0968 26.988C12.1687 27.8434 12.2571 28.8983 12.2942 29.3645C12.4854 31.7651 12.6127 33.8642 12.6861 36.107C12.8355 40.6857 15.2891 42.4257 22.7141 42.4257C23.2022 42.4257 23.598 42.8215 23.5979 43.3097C23.5981 43.798 23.2022 44.1937 22.714 44.1937C17.1126 44.1937 13.7773 43.2177 12.1475 40.7557C11.9464 41.0542 11.6323 41.2745 11.2559 41.3497L1.97835 43.2025C1.21609 43.3547 0.474867 42.8602 0.322694 42.0981C0.306034 42.014 0.296847 41.9285 0.295771 41.8428L0.00014839 21.3163C-0.0110234 20.5392 0.610023 19.9002 1.3869 19.889C1.4723 19.8878 1.55726 19.8943 1.6413 19.9085L9.95742 21.3114C10.1385 21.3419 10.3071 21.4065 10.457 21.498C11.4481 19.2368 14.2874 16.9556 17.8135 15.3731C20.283 14.2648 21.0954 7.89807 20.4824 2.3993C20.2199 0.0437785 22.8178 -0.553809 25.3876 0.502949ZM38.7251 39.1911C39.2972 39.1787 39.8335 39.1162 40.3327 39.0073C40.4357 40.9844 38.8219 43.7687 36.7057 43.7687L30.211 43.7687C29.2871 43.7687 28.4758 42.7409 28.4758 41.716C28.476 40.6862 29.4865 39.2543 30.2111 39.2543C30.342 39.2543 30.4663 39.2258 30.5781 39.1747C30.7068 39.1857 30.8384 39.1913 30.9727 39.1913C31.256 39.1913 31.484 39.1957 31.7711 39.2054L32.2136 39.2215C33.5338 39.2682 35.1499 39.2683 38.7251 39.1911ZM31.0475 32.0952C31.0174 32.0977 30.9867 32.0987 30.9558 32.0981C30.0427 32.0807 29.1248 33.3934 29.0837 35.177C29.0483 36.7158 29.7457 37.4233 30.9725 37.4232C31.2776 37.4233 31.5252 37.4281 31.8314 37.4385L32.2762 37.4545C33.5582 37.5 35.1423 37.5 38.6871 37.4235C41.1653 37.37 42.5989 36.1973 43.1332 34.2728C43.4531 33.1201 43.3733 31.7887 43.0719 30.9257C42.1854 31.6771 41.1822 32.1777 40.1891 32.262C37.7664 32.468 34.1423 32.4679 31.9525 32.2613C31.6312 32.231 31.3295 32.175 31.0475 32.0952ZM17.7028 3.31783L13.2517 0.744759C12.829 0.500415 12.2885 0.645016 12.0442 1.0677C11.7996 1.49036 11.9442 2.0311 12.3669 2.27544L16.818 4.8485C17.2407 5.09284 17.7815 4.94828 18.0258 4.52559C18.2701 4.10291 18.1255 3.56217 17.7028 3.31783ZM32.9684 10.333L37.3884 11.2171C37.8669 11.3128 38.3328 11.0023 38.4286 10.5236C38.5241 10.0448 38.2137 9.57909 37.7351 9.48337L33.3149 8.59933C32.8363 8.50361 32.3704 8.81407 32.2746 9.2928C32.1791 9.77157 32.4895 10.2373 32.9684 10.333ZM12.4822 9.52901L16.6187 7.88037C17.0722 7.69962 17.5864 7.92075 17.7673 8.37429C17.9479 8.82782 17.727 9.34202 17.2732 9.52276L13.1367 11.1714C12.6832 11.3521 12.169 11.131 11.9881 10.6775C11.8075 10.2239 12.0287 9.70976 12.4822 9.52901ZM1.77435 21.7239L2.05732 41.3838L6.61618 40.4733L5.74262 32.5473C5.68926 32.062 6.0392 31.6252 6.52447 31.5717C7.00974 31.5182 7.44647 31.8683 7.50008 32.3536L8.35646 40.1258L10.5974 39.6783L9.38406 23.0076L1.77435 21.7239ZM6.99331 29.7984C6.99324 30.2866 6.59345 30.6824 6.10012 30.6824C5.60703 30.6824 5.20714 30.2866 5.20721 29.7984C5.20704 29.3102 5.60707 28.9144 6.10016 28.9144C6.59349 28.9144 6.99338 29.3102 6.99331 29.7984Z" transform="translate(124.473 104.331) rotate(-5)" fill="#333333"/>
<path fill-rule="evenodd" clip-rule="evenodd" d="M30.3614 5C30.3614 3.67385 29.8277 2.40235 28.8789 1.46485C27.9302 0.52735 26.6433 0 25.3012 0L5.06024 0C2.26527 0 0 2.2383 0 5L0 35C0 36.3261 0.533704 37.5976 1.4825 38.5351C2.43129 39.4726 3.71811 40 5.06024 40H25.3012C26.6433 40 27.9302 39.4726 28.8789 38.5351C29.8277 37.5976 30.3614 36.3261 30.3614 35V5ZM25.3011 37.5H5.06014C3.66265 37.5 2.53002 36.3808 2.53002 35V4.99999C2.53002 3.61914 3.66265 2.49999 5.06014 2.49999H25.3011C25.9712 2.49999 26.6156 2.76366 27.09 3.23239C27.5644 3.70112 27.8312 4.33784 27.8312 4.99999V35C27.8312 35.6621 27.5644 36.2988 27.09 36.7676C26.6156 37.2363 25.9712 37.5 25.3011 37.5Z" transform="translate(-10.6611 134.899) rotate(-5)" fill="#333333"/>
<path fill-rule="evenodd" clip-rule="evenodd" d="M2.74571 0.562513C3.46131 0.195326 4.25387 0.00197918 5.06047 0L8.31211 3.14125e-06C9.00983 -1.16951e-06 9.57696 0.560568 9.57699 1.25002C9.57702 1.93945 9.0097 2.50002 8.31198 2.50001L5.06035 2.5C4.65926 2.50391 4.26385 2.60352 3.91009 2.78711C3.28728 3.10546 2.52246 2.86525 2.20224 2.25001C1.88006 1.63476 2.12314 0.880863 2.74571 0.562513ZM25.3014 2.50001C26.0347 2.5 26.7305 2.81445 27.2108 3.3633C27.6891 3.77933 28.4047 3.77933 28.883 3.36332C29.3614 2.94924 29.4523 2.24611 29.0964 1.72466C28.1418 0.636765 26.758 0.00787791 25.3013 5.44336e-05L23.4927 6.44868e-05C22.793 5.66149e-05 22.2276 0.560604 22.2277 1.25005C22.2277 1.9395 22.7929 2.50007 23.4926 2.50007L25.3014 2.50001ZM4.94462e-05 10.8865L6.18072e-05 5.88651C3.08021e-05 5.19706 0.567348 4.63651 1.26507 4.63654C1.60107 4.63653 1.9232 4.76938 2.16059 5.00372C2.39774 5.23806 2.53024 5.55643 2.5302 5.88651L2.53019 10.8865C2.53014 11.5779 1.9629 12.1365 1.26517 12.1365C0.567209 12.1365 7.46574e-06 11.5779 4.94462e-05 10.8865ZM2.47243e-05 20.8865L3.70852e-05 15.8865C6.08014e-06 15.1971 0.567323 14.6365 1.26505 14.6365C1.60104 14.6365 1.92317 14.7694 2.16057 15.0037C2.39771 15.2381 2.53021 15.5564 2.53017 15.8865L2.53016 20.8865C2.53012 21.5779 1.96287 22.1365 1.26515 22.1365C0.567184 22.1365 -1.72562e-05 21.5779 2.47243e-05 20.8865ZM2.60522 35.5879C2.54583 35.2481 2.34429 34.9473 2.05169 34.7598C1.75916 34.5704 1.40145 34.5098 1.06339 34.5899C0.7233 34.6719 0.43274 34.8887 0.260864 35.1876C0.0869529 35.4883 0.0493589 35.8458 0.15225 36.1758C0.699682 38.4161 2.72768 39.9962 5.06014 40.0001C5.75786 40.0001 6.32518 39.4395 6.32539 38.75C6.32536 38.0606 5.75799 37.5001 5.06026 37.5C3.89403 37.4981 2.88007 36.7071 2.60522 35.5879ZM10.1205 37.5L15.1808 37.5C15.8785 37.5 16.4459 38.0606 16.4459 38.75C16.4457 39.4395 15.8786 40 15.1807 40L10.1204 40C9.42268 40 8.85555 39.4395 8.85552 38.75C8.85549 38.0606 9.42281 37.5 10.1205 37.5ZM18.4699 2.31782e-05L13.4096 3.00901e-05C12.7119 1.92001e-05 12.1446 0.560569 12.1446 1.25002C12.1447 1.93947 12.7118 2.50004 13.4095 2.50003L18.4698 2.50004C19.1677 2.50002 19.7348 1.93949 19.735 1.25002C19.735 0.560567 19.1676 3.40681e-05 18.4699 2.31782e-05ZM27.8313 22.324L27.8313 17.324C27.8313 16.6346 28.3986 16.074 29.0963 16.074C29.4323 16.074 29.7545 16.2069 29.9919 16.4412C30.229 16.6756 30.3615 16.9939 30.3615 17.324L30.3615 22.324C30.3614 23.0154 29.7942 23.574 29.0964 23.574C28.3985 23.574 27.8313 23.0154 27.8313 22.324ZM27.8314 7.32402L27.8313 12.324C27.8313 13.0154 28.3985 13.574 29.0965 13.574C29.7942 13.574 30.3614 13.0154 30.3615 12.324L30.3615 7.32402C30.3615 6.99394 30.229 6.67557 29.9919 6.44123C29.7545 6.20689 29.4324 6.07404 29.0964 6.07405C28.3986 6.07402 27.8313 6.63457 27.8314 7.32402ZM20.2408 37.4998L25.3011 37.4998C26.1196 37.4998 26.8883 37.1092 27.3629 36.449C27.768 35.8865 28.5587 35.7557 29.128 36.1561C29.6973 36.5565 29.8296 37.3377 29.4244 37.9002C28.4757 39.2186 26.9378 39.9998 25.3012 39.9998L20.2409 39.9998C19.5432 39.9998 18.9758 39.4393 18.9758 38.7498C18.9758 38.0604 19.5431 37.4998 20.2408 37.4998ZM27.8313 27.324L27.8313 32.324C27.8312 33.0154 28.3985 33.574 29.0964 33.574C29.7941 33.574 30.3614 33.0154 30.3614 32.324L30.3614 27.324C30.3615 26.9939 30.229 26.6756 29.9918 26.4412C29.7544 26.2069 29.4323 26.074 29.0963 26.074C28.3986 26.074 27.8313 26.6346 27.8313 27.324ZM2.33018e-09 30.8865L1.23633e-05 25.8865C-1.86418e-05 25.1971 0.567299 24.6365 1.26502 24.6365C1.60102 24.6365 1.92315 24.7694 2.16054 25.0037C2.39769 25.2381 2.53019 25.5564 2.53015 25.8865L2.53014 30.8865C2.53009 31.5779 1.96285 32.1365 1.26513 32.1365C0.567159 32.1365 -4.19781e-05 31.5779 2.33018e-09 30.8865Z" transform="translate(4.41528 123.253) rotate(5)" fill="#333333"/>
<path fill-rule="evenodd" clip-rule="evenodd" d="M30.3614 5C30.3614 3.67385 29.8277 2.40235 28.8789 1.46485C27.9302 0.52735 26.6433 0 25.3012 0H5.06024C2.26527 0 0 2.2383 0 5L0 35C0 36.3261 0.533704 37.5976 1.4825 38.5351C2.43129 39.4726 3.71811 40 5.06024 40H25.3012C26.6433 40 27.9302 39.4726 28.8789 38.5351C29.8277 37.5976 30.3614 36.3261 30.3614 35V5ZM25.3011 37.5H5.06014C3.66265 37.5 2.53002 36.3808 2.53002 35V4.99999C2.53002 3.61914 3.66265 2.49999 5.06014 2.49999H25.3011C25.9712 2.49999 26.6156 2.76366 27.09 3.23239C27.5644 3.70112 27.8312 4.33784 27.8312 4.99999V35C27.8312 35.6621 27.5644 36.2988 27.09 36.7676C26.6156 37.2363 25.9712 37.5 25.3011 37.5Z" transform="translate(289.339 134.899) rotate(-5)" fill="#333333"/>
<path fill-rule="evenodd" clip-rule="evenodd" d="M1.70703 0.292889C1.31665 -0.0976295 0.68335 -0.0976295 0.292969 0.292889C-0.0976562 0.683407 -0.0976562 1.31657 0.292969 1.7071L4.53564 5.94975C4.73755 6.15174 5.00464 6.24926 5.26929 6.24229C5.53394 6.24926 5.80054 6.15174 6.00269 5.94975L10.2454 1.7071C10.6357 1.31659 10.6357 0.683422 10.2454 0.292889C9.85474 -0.0976295 9.22168 -0.0976295 8.83105 0.292889L5.26904 3.85487L1.70703 0.292889Z" transform="translate(69 148)" fill="#333333"/>
<path fill-rule="evenodd" clip-rule="evenodd" d="M54.248 5.6992C50.6464 2 45.748 0 40.646 0C35.4468 0 30.646 2 26.947 5.6992C23.248 9.3984 21.2478 14.1992 21.2478 19.3982C21.2478 23.199 22.3494 26.7966 24.3494 30.0002L19.7478 34.6018C18.3494 33.7034 16.5486 33.9026 15.2478 35.1018L1.0488 49.3988C-0.3496 50.7972 -0.3496 53.098 1.0488 54.5004L5.5488 59.0004C6.24802 59.6996 7.1504 60.102 8.0488 60.102C8.94724 60.102 9.8496 59.7036 10.5488 59.0004L24.9468 44.6024C25.646 43.9032 26.0484 43.0008 26.0484 42.1024C26.0484 41.4032 25.8492 40.8016 25.5484 40.204L30.15 35.6024C33.2516 37.6024 36.9508 38.704 40.752 38.704C45.9512 38.704 50.752 36.704 54.451 33.0048C57.9471 29.3993 59.9471 24.5009 59.9471 19.3018C59.9471 14.2002 57.9471 9.3018 54.2479 5.6998L54.248 5.6992ZM23.2479 42.8982L8.84593 57.3002C8.34593 57.8002 7.64673 57.8002 7.14673 57.3002L2.64673 52.8002C2.14673 52.3002 2.14673 51.601 2.64673 51.101L17.0447 36.703C17.2439 36.5038 17.5447 36.3046 17.8455 36.3046C18.1463 36.3046 18.4471 36.4061 18.6463 36.703L23.1463 41.203C23.3455 41.4022 23.5447 41.703 23.5447 42.0038C23.6463 42.3983 23.4471 42.6991 23.2478 42.8983L23.2479 42.8982ZM23.8457 38.3982L21.5449 36.0974L25.7441 31.8982L28.0449 34.199L23.8457 38.3982ZM52.5486 31.3005C49.3494 34.4997 45.0486 36.3005 40.5486 36.3005C36.0486 36.3005 31.7478 34.4997 28.5486 31.3005C25.3494 28.1013 23.5486 23.8005 23.5486 19.3005C23.5486 14.8005 25.3494 10.4997 28.5486 7.30051C31.7478 4.10131 36.0486 2.30051 40.5486 2.30051C45.0486 2.30051 49.3494 4.10131 52.5486 7.30051C59.1463 13.9997 59.1463 24.6985 52.5486 31.3005ZM50.3455 29.1013C50.1462 29.3005 49.8455 29.4997 49.5447 29.4997C49.2439 29.4997 48.9431 29.3982 48.7439 29.1013C48.2439 28.6013 48.2439 27.9021 48.7439 27.4021C53.1423 23.0037 53.1423 15.8001 48.7439 11.3001C48.2439 10.8001 48.2439 10.1009 48.7439 9.60091C49.2439 9.10091 49.9431 9.10091 50.4431 9.60091C55.7478 14.9993 55.7478 23.6989 50.3454 29.1009L50.3455 29.1013Z" transform="translate(230 77.898)" fill="#333333"/>
<path fill-rule="evenodd" clip-rule="evenodd" d="M11.0415 6.39149C11.8469 4.14195 12.645 2.15472 13.385 0.527417C14.1223 -1.10234 16.1672 1.29458 16.2964 4.30653C17.4953 3.98156 18.6428 3.79646 19.6933 3.79646C25.676 3.79646 28.1743 7.24237 28.1743 11.8173C28.1743 19.655 18.0168 30.3282 9.32298 32.0332C8.38353 41.3032 9.29906 47.9903 9.77244 49.9586C10.6123 53.4506 5.71727 52.613 4.57933 46.2778C4.0515 41.9443 4.23265 36.9886 4.86131 31.9141C0.656233 30.4126 0.693343 24.6893 1.95091 25.9544C3.25169 27.2628 4.54417 27.6637 5.47288 27.7305C6.46898 21.7801 7.97606 15.8555 9.5786 10.7548C6.29979 12.9232 3.63231 15.5332 1.95091 17.4034C0.936018 18.5324 -0.781755 15.4203 0.399153 13.8004C2.51219 11.675 6.69652 8.57588 11.0415 6.39149ZM15.5166 7.7622C12.6745 14.5433 10.9853 21.0071 10.0283 26.7624C16.8813 24.0136 25.5784 16.0294 25.5784 9.98144C25.5784 7.88051 23.6167 6.75151 21.2646 6.75151C19.2834 6.75151 17.3537 7.13153 15.5166 7.7622ZM32.0488 16.5395C28.8948 16.5395 25.2339 21.7158 24.3584 26.3624C23.2334 26.3925 22.573 26.538 22.8454 27.0432C22.9956 27.3219 23.488 27.6046 24.1767 27.8345C24.1677 28.0015 24.1633 28.1668 24.1633 28.3302C24.1633 29.462 24.4172 30.9216 25.073 32.2585C26.0383 34.2265 27.8745 35.9289 31.0534 35.9289C34.0947 35.9289 36.6167 33.3377 38.2239 31.1078C38.9009 32.6681 41.8017 33.7725 41.8017 32.6198C41.8017 23.5843 46.4021 17.382 47.3452 17.382C47.6184 17.382 47.4158 17.9842 47.1318 18.8277C46.6489 20.2628 45.9309 22.3962 46.9219 23.4506C48.0718 24.8427 50.6023 22.7999 52.3879 21.2728C52.0803 22.5987 51.9204 23.8314 51.9204 24.8057C51.9204 29.145 54.8774 30.3624 56.9368 30.3624C60.426 30.3624 64.5935 24.8416 66.3149 21.3926C66.093 22.4264 65.9631 23.3697 65.9631 24.1676C65.9631 26.2783 68.6372 27.9669 70.4914 27.9669C71.3642 27.9669 72.76 25.6858 74.0859 23.0391C72.3633 30.7622 70.6433 38.0396 67.9929 38.0396C66.8706 38.0396 66.7632 32.0117 68.5786 30.1857C70.3938 28.3596 66.3633 27.6822 64.3528 29.7046C62.352 31.7172 62.0007 40.9947 69.4277 40.9947C73.7497 40.9947 75.8176 32.0271 77.832 23.2915C79.0561 17.9827 80.2607 12.7596 81.9392 9.68692C82.5051 8.65608 78.9529 6.45698 78.2793 7.95904C78.1838 8.15831 78.0893 8.36598 77.9963 8.58151L77.9722 8.63781C77.8828 8.84626 77.7947 9.06195 77.7075 9.28438C76.3994 12.4628 71.0347 25.277 69.5644 25.277C67.8857 25.277 73.3706 13.015 74.4441 10.6392C74.9905 9.43165 71.1355 7.73324 70.5989 9.05859L70.3935 9.569C69.729 11.22 68.9507 13.1537 68.2334 15.1169C68.2915 14.9379 68.3247 14.841 68.3247 14.841C68.3247 14.841 61.5837 28.026 57.2295 27.7019C53.521 27.7019 58.0786 13.5451 62.3533 13.5451C63.4267 13.5451 63.55 15.6591 62.4995 16.8831C62.0984 17.3506 63.4853 18.7189 64.4319 17.4132C66.4424 14.6251 64.4319 11.0024 60.3623 11.0024C57.539 11.0024 55.3181 13.7183 53.8642 16.9074C53.8125 16.9712 53.7588 17.0374 53.7034 17.1056C52.6694 18.379 51.0781 20.3392 50.7121 20.2126C50.4101 20.0117 50.7383 19.2576 51.1316 18.3535C51.5576 17.3743 52.0603 16.2191 51.9223 15.3995C51.7341 14.1021 50.5796 13.1813 49.2961 13.3069C47.3962 13.5775 44.8794 17.1964 44.8794 17.1964C44.9333 17.037 44.9917 16.8813 45.0491 16.7282C45.2258 16.2561 45.3928 15.8098 45.3928 15.3636C45.3928 14.4773 42.3589 12.2115 41.8078 13.8486C41.414 15.0194 40.5259 18.9034 39.718 22.5973C38.3689 26.3188 34.7383 33.6218 30.1164 33.6218C27.9609 33.6218 27.5039 31.1878 28.0198 28.3257C28.7519 28.2887 29.4731 28.1707 30.1164 27.9456C32.821 26.9993 37.7873 24.3836 37.7873 20.6726C37.7873 16.9616 33.6103 16.5395 32.0488 16.5395ZM34.0593 19.2883C35.4238 19.2883 33.3054 25.6226 28.5163 26.3236C29.6213 22.7846 31.8855 19.2883 34.0593 19.2883ZM17.1306 49.6145C23.093 44.5421 46.1985 37.3582 57.4126 38.1286C58.6116 38.3335 58.9292 37.0531 56.0156 36.2006C48.3059 35.098 22.4961 40.6446 17.4494 44.8468C15.418 46.6398 15.9944 50.577 17.1306 49.6145Z" transform="translate(90 167)" fill="#333333"/>
<path fill-rule="evenodd" clip-rule="evenodd" d="M11 0C4.93367 0 0 4.93367 0 11C0 17.0663 4.93367 22 11 22C17.0663 22 22 17.0663 22 11C22 4.93367 17.0663 0 11 0ZM11 20C6.034 20 2 15.966 2 11C2 6.034 6.034 2 11 2C15.966 2 20 6.034 20 11C20 15.966 15.966 20 11 20Z" transform="translate(145 229)" fill="#333333"/>
<path fill-rule="evenodd" clip-rule="evenodd" d="M4.64683 5.55956L1.74226 2.67834C1.33248 2.27185 0.682402 2.27185 0.307337 2.67834C-0.102446 3.08483 -0.102446 3.72968 0.307337 4.10173L3.93019 7.69546C4.13575 7.89937 4.40804 8 4.64833 8C4.88726 8 5.1609 7.89805 5.36648 7.72856L11.6882 1.76206C12.098 1.38866 12.098 0.745163 11.7229 0.338673C11.3104 -0.100933 10.6604 -0.100933 10.2506 0.271144L4.64683 5.55956Z" transform="translate(150 236)" fill="#333333"/>
<path fill-rule="evenodd" clip-rule="evenodd" d="M0.3078 7.2064C-0.1026 7.61671 -0.1026 8.28196 0.3078 8.69227C0.718201 9.10258 1.38348 9.10258 1.79364 8.69227L4.50018 5.98573L7.20673 8.69227C7.61713 9.10258 8.28217 9.10258 8.69257 8.69227C9.10297 8.28196 9.10297 7.61671 8.69257 7.2064L5.98602 4.49989L8.69232 1.7936C9.10272 1.38329 9.10272 0.71804 8.69232 0.307732C8.28192 -0.102577 7.61688 -0.102577 7.20648 0.307732L4.50018 3.01403L1.79388 0.307732C1.38348 -0.102577 0.718445 -0.102577 0.308044 0.307732C-0.102356 0.71804 -0.102356 1.38329 0.308044 1.7936L3.01434 4.49989L0.3078 7.2064Z" transform="translate(202 157)" fill="#333333"/>
<path fill-rule="evenodd" clip-rule="evenodd" d="M11.4987 59C6.53106 59 2.49305 54.8809 2.49305 49.8131V7.91661H0V0H23V7.91661H20.5069V49.8099C20.5039 54.8775 16.463 59 11.4982 59H11.4987ZM2.21537 5.65436H4.70843V49.8099C4.70843 53.6295 7.75761 56.7369 11.4987 56.7369C15.243 56.7369 18.289 53.6294 18.289 49.8099V5.65436H20.7821V2.2602H2.2149L2.21537 5.65436Z" transform="translate(36.4729 220.037) rotate(-10)" fill="#333333"/>
<path fill-rule="evenodd" clip-rule="evenodd" d="M0 2H15V0H0V2Z" transform="translate(43.2476 241.182) rotate(-10)" fill="#333333"/>
<path fill-rule="evenodd" clip-rule="evenodd" d="M0 2H2V0H0V2Z" transform="translate(57.0896 262.096) rotate(-10)" fill="#333333"/>
<path fill-rule="evenodd" clip-rule="evenodd" d="M0 13H2V0H0V13Z" transform="translate(54.1377 245.355) rotate(-10)" fill="#333333"/>
<path fill-rule="evenodd" clip-rule="evenodd" d="M0 2H7V0H0V2Z" transform="translate(39.4844 225.599) rotate(-10)" fill="#333333"/>
<path fill-rule="evenodd" clip-rule="evenodd" d="M3 6C1.34711 6 0 4.65366 0 2.99846C0 1.34642 1.34703 0 3 0C4.65297 0 6 1.34634 6 2.99846C6 4.65366 4.65297 6 3 6ZM3.00009 2.21412C2.56755 2.21412 2.21534 2.56306 2.21534 2.99847C2.21534 3.43079 2.56447 3.78282 3.00009 3.78282C3.43264 3.78282 3.78485 3.43079 3.78485 2.99847C3.78485 2.56615 3.43264 2.21412 3.00009 2.21412Z" transform="translate(44.1206 211.581) rotate(-10)" fill="#333333"/>
<path fill-rule="evenodd" clip-rule="evenodd" d="M6 12C2.69503 12 0 9.30497 0 6C0 2.69192 2.69503 0 6 0C9.31119 0 12 2.69192 12 6C12 9.30808 9.31119 12 6 12ZM5.99992 2.23103C3.92416 2.23103 2.2312 3.92088 2.2312 5.99975C2.2312 8.07862 3.92416 9.76847 5.99992 9.76847C8.07879 9.76847 9.76864 8.07862 9.76864 5.99975C9.76864 3.92088 8.07879 2.23103 5.99992 2.23103Z" transform="translate(45.8025 198.084) rotate(-10)" fill="#333333"/>
<path fill-rule="evenodd" clip-rule="evenodd" d="M4.424 7.098C3.724 7.098 3.08 6.86 2.52 6.216V9.506H0V0.168H2.52V0.882C3.066 0.238 3.724 0 4.424 0C6.104 0 7.392 1.232 7.392 3.542C7.392 5.866 6.104 7.098 4.424 7.098ZM3.55602 4.87201C4.22802 4.87201 4.81602 4.39601 4.81602 3.54201C4.81602 2.70201 4.22802 2.22601 3.55602 2.22601C3.23402 2.22601 2.75802 2.39401 2.52002 2.68801V4.41001C2.74402 4.69001 3.23402 4.87201 3.55602 4.87201ZM15.0919 6.93L12.8659 3.458L14.9379 0.167999H12.1799L11.2699 1.75L10.3599 0.167999H7.60191L9.67391 3.458L7.46191 6.93H10.2059L11.2839 5.138L12.3339 6.93H15.0919Z" transform="translate(217.7 262.07)" fill="#333333"/>
<path fill-rule="evenodd" clip-rule="evenodd" d="M9.87817 10.8069C9.87817 11.3871 10.3486 11.8575 10.929 11.8575C11.509 11.8575 11.9795 11.3871 11.9795 10.8069V1.05066C11.9795 0.470398 11.509 0 10.929 0C10.3486 0 9.87817 0.470398 9.87817 1.05066V4.87808H1.05078C0.470459 4.87808 0 5.34848 0 5.92874C0 6.509 0.470459 6.9794 1.05078 6.9794H9.87817V10.8069Z" transform="translate(238.006 260.006)" fill="#333333"/>
<path fill-rule="evenodd" clip-rule="evenodd" d="M9.87817 10.8069C9.87817 11.3871 10.3486 11.8575 10.929 11.8575C11.509 11.8575 11.9795 11.3871 11.9795 10.8069V1.05066C11.9795 0.470398 11.509 0 10.929 0C10.3486 0 9.87817 0.470398 9.87817 1.05066V4.87808H1.05078C0.470459 4.87808 0 5.34848 0 5.92874C0 6.509 0.470459 6.9794 1.05078 6.9794H9.87817V10.8069Z" transform="translate(211.986 271.864) rotate(-180)" fill="#333333"/>
<path fill-rule="evenodd" clip-rule="evenodd" d="M16 2.19717C16 1.54627 15.766 1.01604 15.3013 0.609624C14.8365 0.203208 14.2084 0 13.4167 0C12.157 0 11.0096 0.219083 9.96797 0.6509C8.92953 1.05732 8.09622 1.64158 7.46796 2.40036C6.94552 3.07666 6.57696 3.86094 6.35895 4.75627C6.11216 5.65169 5.99037 7.22338 5.99037 9.47135V12.0718C5.99037 14.6182 5.01921 16.0693 3.0769 16.4217L1.84613 16.7043C1.21793 16.8662 0.753212 17.1393 0.451921 17.5171C0.150637 17.8696 0 18.3713 0 19.0222C0 19.7271 0.176278 20.2668 0.532052 20.6478C0.862176 21.0257 1.38144 21.2829 2.09291 21.4194C2.17304 21.4194 2.25637 21.4321 2.3397 21.4607C4.77235 21.8385 5.99032 23.3562 5.99032 26.0107V28.5318C5.99032 30.9703 6.14095 32.6785 6.44224 33.6532C6.74031 34.6566 7.2339 35.4694 7.91661 36.0917C8.54802 36.6887 9.3525 37.1618 10.3397 37.5142C11.2948 37.8381 12.2948 38 13.3332 38C14.1537 38 14.8108 37.7968 15.3011 37.3904C15.7659 36.984 15.9998 36.4442 15.9998 35.7647C15.9998 34.3835 15.1665 33.5707 13.4966 33.3262L12.7594 33.2056C12.1024 33.069 11.6504 32.8118 11.4037 32.434C11.1601 32.053 11.0351 31.1449 11.0351 29.7097V26.4171C11.0351 24.0897 10.8172 22.4482 10.3781 21.502C9.94218 20.5526 9.16331 19.7271 8.04151 19.0222C9.13443 18.3427 9.91326 17.4918 10.3781 16.4599C10.8172 15.4312 11.0351 13.8182 11.0351 11.6242V8.37286C11.0351 6.90911 11.1729 5.97565 11.4454 5.56924C11.721 5.13424 12.2242 4.86436 12.9646 4.7564C13.0992 4.72782 13.2243 4.70242 13.3332 4.67385C15.1122 4.4039 16 3.57833 16 2.19717Z" transform="translate(197 194)" fill="#333333"/>
<path fill-rule="evenodd" clip-rule="evenodd" d="M16 2.19717C16 1.54627 15.766 1.01604 15.3013 0.609624C14.8365 0.203208 14.2084 0 13.4167 0C12.157 0 11.0096 0.219083 9.96797 0.6509C8.92953 1.05732 8.09622 1.64158 7.46796 2.40036C6.94552 3.07666 6.57696 3.86094 6.35895 4.75627C6.11216 5.65169 5.99037 7.22338 5.99037 9.47135V12.0718C5.99037 14.6182 5.01921 16.0693 3.0769 16.4217L1.84613 16.7043C1.21793 16.8662 0.753212 17.1393 0.451921 17.5171C0.150637 17.8696 0 18.3713 0 19.0222C0 19.7271 0.176278 20.2668 0.532052 20.6478C0.862176 21.0257 1.38144 21.2829 2.09291 21.4194C2.17304 21.4194 2.25637 21.4321 2.3397 21.4607C4.77235 21.8385 5.99032 23.3562 5.99032 26.0107V28.5318C5.99032 30.9703 6.14095 32.6785 6.44224 33.6532C6.74031 34.6566 7.2339 35.4694 7.91661 36.0917C8.54802 36.6887 9.3525 37.1618 10.3397 37.5142C11.2948 37.8381 12.2948 38 13.3332 38C14.1537 38 14.8108 37.7968 15.3011 37.3904C15.7659 36.984 15.9998 36.4442 15.9998 35.7647C15.9998 34.3835 15.1665 33.5707 13.4966 33.3262L12.7594 33.2056C12.1024 33.069 11.6504 32.8118 11.4037 32.434C11.1601 32.053 11.0351 31.1449 11.0351 29.7097V26.4171C11.0351 24.0897 10.8172 22.4482 10.3781 21.502C9.94218 20.5526 9.16331 19.7271 8.04151 19.0222C9.13443 18.3427 9.91326 17.4918 10.3781 16.4599C10.8172 15.4312 11.0351 13.8182 11.0351 11.6242V8.37286C11.0351 6.90911 11.1729 5.97565 11.4454 5.56924C11.721 5.13424 12.2242 4.86436 12.9646 4.7564C13.0992 4.72782 13.2243 4.70242 13.3332 4.67385C15.1122 4.4039 16 3.57833 16 2.19717Z" transform="translate(242 232) rotate(-180)" fill="#333333"/>
<path fill-rule="evenodd" clip-rule="evenodd" d="M32.3728 4.88159H29.7369V1.6812C29.7369 0.753066 28.9943 0 28.079 0H1.65792C0.742636 0 0 0.753066 0 1.6812V24.7148C0 28.7383 3.21652 32 7.18431 32H22.5482C26.516 32 29.7325 28.7383 29.7325 24.7148V22.7972H32.3683C36.0296 22.7972 39 19.7872 39 16.0723V11.5891C38.9892 7.88523 36.0274 4.88619 32.3728 4.88171V4.88159ZM26.421 24.7147C26.421 25.7546 26.0129 26.7527 25.2876 27.4883C24.5623 28.2238 23.5778 28.6375 22.5525 28.6375H7.18415C5.04698 28.6375 3.31567 26.8819 3.31567 24.7147V3.36235H26.4165L26.421 24.7147ZM35.6887 16.0722C35.6887 17.9307 34.2056 19.4346 32.3729 19.4346H29.7371V8.22662H32.3729C34.2056 8.22662 35.6887 9.7327 35.6887 11.589V16.0722Z" transform="translate(-29 212)" fill="#333333"/>
<path fill-rule="evenodd" clip-rule="evenodd" d="M32.3728 4.88159H29.7369V1.6812C29.7369 0.753066 28.9943 0 28.079 0H1.65792C0.742636 0 0 0.753066 0 1.6812V24.7148C0 28.7383 3.21652 32 7.18431 32H22.5482C26.516 32 29.7325 28.7383 29.7325 24.7148V22.7972H32.3683C36.0296 22.7972 39 19.7872 39 16.0723V11.5891C38.9892 7.88523 36.0274 4.88619 32.3728 4.88171V4.88159ZM26.421 24.7147C26.421 25.7546 26.0129 26.7527 25.2876 27.4883C24.5623 28.2238 23.5778 28.6375 22.5525 28.6375H7.18415C5.04698 28.6375 3.31567 26.8819 3.31567 24.7147V3.36235H26.4165L26.421 24.7147ZM35.6887 16.0722C35.6887 17.9307 34.2056 19.4346 32.3729 19.4346H29.7371V8.22662H32.3729C34.2056 8.22662 35.6887 9.7327 35.6887 11.589V16.0722Z" transform="translate(271 212)" fill="#333333"/>
<path fill-rule="evenodd" clip-rule="evenodd" d="M3 9.28393V1.71607C3 0.768684 2.3281 0 1.5 0C0.6719 0 0 0.768684 0 1.71607V9.28393C0 10.2313 0.6719 11 1.5 11C2.3281 11 3 10.2313 3 9.28393Z" transform="translate(284 195)" fill="#333333"/>
<path fill-rule="evenodd" clip-rule="evenodd" d="M3 9.28393V1.71607C3 0.768684 2.3281 0 1.5 0C0.6719 0 0 0.768684 0 1.71607V9.28393C0 10.2313 0.6719 11 1.5 11C2.3281 11 3 10.2313 3 9.28393Z" transform="translate(278 200)" fill="#333333"/>
<path fill-rule="evenodd" clip-rule="evenodd" d="M3 9.28393V1.71607C3 0.768684 2.3281 0 1.5 0C0.6719 0 0 0.768684 0 1.71607V9.28393C0 10.2313 0.6719 11 1.5 11C2.3281 11 3 10.2313 3 9.28393Z" transform="translate(291 198)" fill="#333333"/>
</g>
</g>
<defs>
<clipPath id="clip0">
<rect width="300" height="300" fill="white"/>
</clipPath>
</defs>
</svg>
