<svg width="229" height="180" viewBox="0 0 229 180" fill="none" xmlns="http://www.w3.org/2000/svg">
<path d="M91.4507 11.9848C40.9435 11.9848 5.01495e-07 9.30145 5.01495e-07 5.99212C5.01495e-07 2.68279 40.9435 1.78425e-06 91.4507 1.78425e-06C141.958 1.78425e-06 182.902 2.68279 182.902 5.99212C182.902 9.30145 141.958 11.9848 91.4507 11.9848Z" transform="translate(9.01855 168.015)" fill="#390156" fill-opacity="0.11"/>
<path d="M225.079 39.6747C224.08 36.5312 221.114 34.4188 217.697 34.4188C216.68 34.4188 215.684 34.611 214.737 34.9902C212.314 35.9608 208.533 37.0967 203.808 37.3079C194.257 30.6255 171.098 14.4828 157.357 5.42607C157.357 5.42607 159.282 10.8089 161.941 20.8655C161.941 20.8655 140.214 9.06595 125.749 -2.69967e-08C125.749 -2.69967e-08 131.154 10.6139 131.601 14.0507C131.601 14.0507 114.398 11.1951 89.2438 5.95485C89.2438 5.95485 107.955 16.0157 112.563 22.0732C112.563 22.0732 90.0547 20.6067 63.5452 19.149C63.5452 19.149 76.9819 25.6936 83.5368 30.9792C83.5368 30.9792 59.5065 34.3804 41.2007 35.2414C41.2007 35.2414 54.7778 45.4599 60.2573 50.4085C60.2573 50.4085 37.4001 59.0986 10.1033 74.3597C10.1033 74.3597 24.4874 75.0457 34.858 78.2291C34.858 78.2291 22.3496 88.8614 -6.0814e-09 113.24C-6.0814e-09 113.24 14.352 112.732 25.9317 111.224C25.9317 111.224 16.8638 124.739 5.58851 149.017C5.58851 149.017 13.3227 144.305 20.8126 142.599C20.8126 142.599 21.6162 169.851 37.1946 174.216L37.2075 174.198C37.9707 174.429 38.699 174.51 39.3313 174.51C40.0922 174.51 40.8873 174.398 41.6954 174.176C46.6393 172.823 50.3809 168.156 54.7132 162.753C56.3108 160.761 57.9578 158.71 59.73 156.727C60.2225 158.208 60.8616 159.974 61.6281 161.758C64.4695 168.37 67.5136 171.584 70.934 171.584C71.1946 171.584 71.4585 171.564 71.7174 171.526C76.0834 170.866 80.131 162.769 83.5144 154.935C85.2394 150.942 86.7567 146.955 87.7888 144.13C87.9107 144.138 88.0309 144.141 88.1527 144.151C98.6615 144.94 105.141 154.938 110.348 162.972C114.272 169.027 117.372 173.81 121.698 174.268C122.002 174.3 122.305 174.316 122.6 174.316C129.214 174.316 131.538 166.93 134.481 157.58C134.676 156.957 134.877 156.321 135.082 155.672C135.68 156.801 136.33 157.98 137.023 159.166C141.859 167.438 146.14 171.489 150.112 171.551L150.224 171.552C153.518 171.552 155.69 169.434 156.681 165.258C157.422 162.139 157.58 157.853 157.763 152.89C158.184 141.442 158.765 125.811 166.901 112.377C172.917 108.753 179.553 105.451 186.067 102.211C201.23 94.6688 215.553 87.5452 222.737 76.7368C226.33 71.3312 228.112 64.6985 228.031 57.0218C227.959 50.1363 226.386 43.7877 225.079 39.6747Z" transform="translate(0.966797 0.783203)" fill="#2B023F"/>
<path d="M23.8057 29.1963C12.91 29.1963 5.73733 34.0704 1.75787e-06 40.0025C1.51562 44.8388 5.32402 55.2367 9.89333 54.5464C14.3464 53.8734 20.9429 37.3986 23.9646 29.199C23.9123 29.1985 23.8579 29.1963 23.8057 29.1963ZM92.694 6.85901C82.5446 16.4084 77.7855 28.1431 74.5745 37.8393C77.9101 44.4753 83.7463 54.4697 88.6722 54.5464C98.5874 54.6998 88.926 24.9952 101.516 3.94032e-06C98.2774 2.14753 95.2894 4.41766 92.694 6.85901Z" transform="translate(62.4443 115.628)" fill="#9E66BF"/>
<path d="M159.765 11.0189C154.54 9.69124 149.52 11.472 148.551 14.9969C147.583 18.5222 151.034 22.4559 156.258 23.7836C161.484 25.1117 166.504 23.3304 167.473 19.8056C168.441 16.2807 164.99 12.3465 159.765 11.0189ZM191.864 32.2554C191.095 34.6146 190.028 36.9102 188.589 39.0744C176.142 57.8005 139.1 66.0136 120.343 83.661C97.3303 105.312 101.403 136.863 89.6888 135.622C81.4447 134.749 75.2604 106.939 56.0718 105.498C27.105 103.323 20.746 132.336 8.82496 135.6C-3.09612 138.864 -1.36768 109.443 4.78968 96.417C10.2266 84.9135 19.9801 68.7871 34.888 72.4875C44.7527 74.9358 33.2966 90.8516 33.2966 90.8516C33.2966 90.8516 54.1592 92.1522 67.0265 73.7119C75.5721 61.4646 103.884 19.5695 132.261 55.809C132.261 55.809 121.144 25.3937 128.356 10.5986C134.274 -1.54169 147.894 -1.29971 160.289 1.78817C170.451 4.31972 178.504 2.42497 183.345 0.486473C184.29 0.107847 185.278 0.00630753 186.216 0.136477C184.428 0.218576 181.68 1.13192 180.091 5.54634C177.717 12.1369 190.626 7.0711 193.388 17.4015C193.388 17.4015 194.238 33.0818 180.743 31.1557L181.269 27.7551C181.269 27.7551 176.925 30.4433 180.03 35.7559L180.527 32.5449C183.246 33.4836 187.089 33.9406 191.864 32.2554ZM193.389 17.4015H193.388V17.4009L193.389 17.4015Z" transform="translate(33.2217 37.2817)" fill="#D6B5E5"/>
<path d="M92.9506 5.76635C82.7142 15.3973 77.9612 27.2502 74.7497 36.9941C76.5467 40.5221 80.29 46.1707 80.29 46.1707C80.094 26.6172 97.1094 3.92129 100.169 2.81992e-06C97.5469 1.82292 95.1109 3.73387 92.9506 5.76635ZM1.60188e-07 39.1761C0.998992 41.9945 3.00989 46.1707 3.00989 46.1707C3.00989 46.1707 9.09874 30.8442 23.8944 28.1063C12.9319 28.1582 5.75024 33.1554 1.60188e-07 39.1761Z" transform="translate(62.1855 116.72)" fill="#5C007B"/>
<path d="M1.87524e-06 41.7639C11.9211 38.4999 18.28 9.48671 47.2469 11.6612C66.4355 13.1023 72.6198 40.9126 80.8639 41.786C80.8639 41.786 76.4203 33.056 72.8405 22.037C69.2606 11.0185 57.0616 1.95745e-06 45.9778 1.95745e-06C34.8934 1.95745e-06 22.3338 5.73933 15.3235 20.1222C4.7636 41.786 1.87524e-06 41.7639 1.87524e-06 41.7639Z" transform="translate(42.0498 131.118)" fill="#C393DB"/>
<path d="M84.5043 31.7624C76.3288 32.813 53.913 34.9308 41.0182 35.5373C41.0182 35.5373 43.9523 37.3678 46.4837 39.3117C63.6743 38.1261 85.9891 32.7368 84.5043 31.7624ZM61.2243 51.1917C53.5732 54.3244 32.0677 62.5051 9.91523 75.4745C9.91523 75.4745 12.8414 75.2277 15.5824 75.4745C40.136 62.2691 62.1205 51.9446 61.2243 51.1917ZM113.53 22.8563C105.206 22.3314 81.846 20.5797 63.3711 19.5632C63.3711 19.5632 68.0954 21.6778 72.4614 24.0921C94.6521 25.3555 115.312 24.2725 113.53 22.8563ZM35.8256 79.0123C27.1103 85.4565 14.5255 98.1645 -2.4023e-10 114.61C-2.4023e-10 114.61 1.66836 113.999 2.88242 113.944C23.0773 92.1989 36.4809 79.1878 35.8256 79.0123ZM204.38 37.8086C204.38 37.8086 175.24 17.3385 157.611 5.71827C157.611 5.71827 159.047 8.232 160.214 12.096C176.649 23.0692 204.38 37.8086 204.38 37.8086ZM26.8992 112.007C21.2719 118.567 13.7343 133.253 6.55606 149.8C6.55606 149.8 6.65545 149.74 6.83346 149.635C17.2636 127.752 27.185 111.971 26.8992 112.007ZM162.908 21.6486C156.488 18.1146 137.334 7.03725 126.106 -1.52151e-09C126.106 -1.52151e-09 128.284 3.86241 129.8 7.2398C143.854 15.7505 163.355 23.2236 162.908 21.6486ZM100.553 12.7836C95.1356 9.38732 89.0753 6.27676 89.0753 6.27676C108.259 10.2726 126.738 13.8201 132.569 14.8339C133.229 16.4997 119.1 16.4786 100.553 12.7836Z" fill="#9E66BF"/>
<path d="M-4.65819e-07 2.63849e-07L19.0974 11.7108L31.4874 10.7381L-4.65819e-07 2.63849e-07Z" transform="translate(128.979 22.537)" fill="#5C007B"/>
<path d="M31.4859 10.736L1.3735e-06 1.0051e-06L14.6232 6.80932C19.8619 9.24905 25.5813 10.5869 31.4 10.7338L31.4859 10.736Z" transform="translate(128.979 22.5378)" fill="#9E66BF"/>
<path d="M2.59528e-06 -1.0554e-06L30.2444 7.40081L43.4369 3.21192L2.59528e-06 -1.0554e-06Z" transform="translate(95.5654 39.5909)" fill="#5C007B"/>
<path d="M43.4362 3.21427L2.44196e-06 7.55358e-07L26.6993 4.25454C30.4145 4.78278 34.1881 4.81735 37.9128 4.35663L43.4362 3.21427Z" transform="translate(95.5654 39.5894)" fill="#9E66BF"/>
<path d="M24.9805 2.04483e-06L18.5261 4.68171L2.72837e-06 4.0203L24.9805 2.04483e-06Z" transform="translate(130.97 49.417)" fill="#5C007B"/>
<path d="M24.9793 1.34495e-06L3.24423e-06 4.01851L10.1651 3.71928C13.6664 3.61612 17.1244 2.93881 20.3892 1.71705L24.9793 1.34495e-06Z" transform="translate(130.973 49.4185)" fill="#9E66BF"/>
<path d="M39.019 -1.28627e-06L28.6744 6.63134L5.9891e-07 4.01598L39.019 -1.28627e-06Z" transform="translate(67.6768 54.0983)" fill="#5C007B"/>
<path d="M39.0168 9.45319e-07L-1.20245e-06 4.01851L21.7801 3.68255C26.8818 3.6037 31.9273 2.65254 36.6819 0.873379L39.0168 9.45319e-07Z" transform="translate(67.6797 54.0972)" fill="#9E66BF"/>
<path d="M39.0147 4.28755e-07L28.5218 5.61546L2.928e-06 4.01598L39.0147 4.28755e-07Z" transform="translate(110.481 65.0528)" fill="#5C007B"/>
<path d="M39.0168 9.00676e-07L2.6434e-06 4.01905L22.1463 3.67715C27.0059 3.60208 31.8122 2.69575 36.3416 1.00139L39.0168 9.00676e-07Z" transform="translate(110.481 65.0507)" fill="#9E66BF"/>
<path d="M43.9209 1.18732e-06L36.6073 11.4989L1.19782e-06 20.0669L43.9209 1.18732e-06Z" transform="translate(66.1758 76.902)" fill="#5C007B"/>
<path d="M-9.63526e-07 20.0661L43.9219 3.21358e-06L38.2733 4.29721C34.9254 6.84389 31.1844 8.87151 27.185 10.3072L-9.63526e-07 20.0661Z" transform="translate(66.1758 76.9027)" fill="#9E66BF"/>
<path d="M1.36418e-06 23.8711L28.343 11.9355L34.7887 -3.56197e-06L1.36418e-06 23.8711Z" transform="translate(36.0205 72.0472)" fill="#5C007B"/>
<path d="M1.92111e-06 23.868L34.7878 -3.32967e-06L34.6912 0.139895C31.0945 5.37206 26.2512 9.70275 20.5633 12.7717L1.92111e-06 23.868Z" transform="translate(36.0205 72.0485)" fill="#9E66BF"/>
<path d="M17.3878 9.89435e-07L16.2714 11.9399L3.99273e-07 31.4621L17.3878 9.89435e-07Z" transform="translate(31.4717 98.2915)" fill="#5C007B"/>
<path d="M4.75487e-07 31.461L17.3905 2.75343e-06C16.446 5.47198 14.311 10.6906 11.1248 15.3146L4.75487e-07 31.461Z" transform="translate(31.4717 98.2931)" fill="#9E66BF"/>
<path d="M5.65007 2.4116C5.62593 3.716 4.34166 4.75249 2.78168 4.72548C1.2217 4.69956 -0.0238059 3.61986 0.000340329 2.31546C0.024487 1.01053 1.30874 -0.0259699 2.86872 0.00049627C4.4287 0.0275023 5.67422 1.10667 5.65007 2.4116Z" transform="translate(186.063 49.8647)" fill="white"/>
</svg>
