<svg width="28" height="24" viewBox="0 0 28 24" fill="none" xmlns="http://www.w3.org/2000/svg">
<rect width="28" height="24" fill="black" fill-opacity="0"/>
<rect width="28" height="24" fill="black" fill-opacity="0"/>
<rect width="26" height="23" fill="black" fill-opacity="0" transform="translate(2 1)"/>
<path d="M28 3.12308C28 1.95097 27.0258 1 25.825 1H4.175C2.97423 1 2 1.95097 2 3.12308V21.8769C2 23.049 2.97423 24 4.175 24H25.825C27.0258 24 28 23.049 28 21.8769V3.12308ZM4.175 2.41538H25.825C26.0176 2.41538 26.2022 2.48947 26.3382 2.62216C26.4741 2.75486 26.55 2.93511 26.55 3.12307V5.8923H3.44999V3.12307C3.44999 2.73273 3.77512 2.41538 4.175 2.41538Z" fill="#1FB6FF" fill-opacity="0.2"/>
<path d="M5.98751 4.10743C5.98751 5.05065 4.53751 5.05065 4.53751 4.10743C4.53751 3.16422 5.98751 3.16422 5.98751 4.10743Z" fill="#1FB6FF" fill-opacity="0.2"/>
<path d="M8.52501 4.10743C8.52501 5.05065 7.07501 5.05065 7.07501 4.10743C7.07501 3.16422 8.52501 3.16422 8.52501 4.10743Z" fill="#1FB6FF" fill-opacity="0.2"/>
<path d="M11.0625 4.10743C11.0625 5.05065 9.61249 5.05065 9.61249 4.10743C9.61249 3.16422 11.0625 3.16422 11.0625 4.10743Z" fill="#1FB6FF" fill-opacity="0.2"/>
<rect width="26" height="23" fill="black" fill-opacity="0"/>
<path d="M26 2.12308C26 0.950969 25.0258 0 23.825 0H2.175C0.974226 0 0 0.950969 0 2.12308V20.8769C0 22.049 0.974226 23 2.175 23H23.825C25.0258 23 26 22.049 26 20.8769V2.12308ZM2.175 1.41538H23.825C24.0176 1.41538 24.2022 1.48947 24.3382 1.62216C24.4741 1.75486 24.55 1.93511 24.55 2.12307V4.8923H1.44999V2.12307C1.44999 1.73273 1.77512 1.41538 2.175 1.41538ZM23.825 21.5846H2.175C1.77512 21.5846 1.45 21.2673 1.45 20.8769V6.30769H24.55V20.8769C24.55 21.0649 24.4741 21.2451 24.3382 21.3778C24.2022 21.5105 24.0176 21.5846 23.825 21.5846Z" fill="#1FB6FF"/>
<path d="M3.98751 3.10743C3.98751 4.05065 2.53751 4.05065 2.53751 3.10743C2.53751 2.16422 3.98751 2.16422 3.98751 3.10743Z" fill="#1FB6FF"/>
<path d="M6.52501 3.10743C6.52501 4.05065 5.07501 4.05065 5.07501 3.10743C5.07501 2.16422 6.52501 2.16422 6.52501 3.10743Z" fill="#1FB6FF"/>
<path d="M9.06249 3.10743C9.06249 4.05065 7.61249 4.05065 7.61249 3.10743C7.61249 2.16422 9.06249 2.16422 9.06249 3.10743Z" fill="#1FB6FF"/>
</svg>
