<svg width="25" height="26" viewBox="0 0 25 26" fill="none" xmlns="http://www.w3.org/2000/svg">
<rect width="23.9999" height="25" fill="black" fill-opacity="0" transform="translate(1 1)"/>
<path d="M13.7118 8.32909L4.99288 9.09394C3.89224 9.1905 3.07804 10.1632 3.17431 11.2665L4.28555 24.0023C4.38182 25.1056 5.3521 25.9217 6.45274 25.8252L15.1716 25.0603C16.2722 24.9638 17.0864 23.9911 16.9902 22.8878L15.8789 10.152C15.7826 9.04869 14.8123 8.23254 13.7118 8.32909Z" fill="#1FB6FF" fill-opacity="0.1"/>
<path d="M11.7118 7.32909L2.99288 8.09394C1.89224 8.1905 1.07804 9.1632 1.17431 10.2665L2.28555 23.0023C2.38182 24.1056 3.3521 24.9217 4.45274 24.8252L13.1716 24.0603C14.2722 23.9638 15.0864 22.9911 14.9902 21.8878L13.8789 9.15202C13.7826 8.04869 12.8123 7.23254 11.7118 7.32909Z" stroke="#1FB6FF" stroke-width="1.25"/>
<path d="M23.007 3.04623L13.0444 2.1744C11.9438 2.07808 10.9732 2.89441 10.8767 3.99772L9.65295 17.9817C9.55641 19.085 10.3704 20.0576 11.471 20.1539L21.4336 21.0257C22.5343 21.122 23.5048 20.3056 23.6013 19.2023L24.8251 5.21834C24.9216 4.11503 24.1077 3.14255 23.007 3.04623Z" fill="#F94F45" fill-opacity="0.1"/>
<path d="M20.9555 2.04623L10.9929 1.1744C9.89226 1.07808 8.92173 1.89441 8.82518 2.99772L7.60144 16.9817C7.50489 18.085 8.31888 19.0576 9.41953 19.1539L19.3821 20.0257C20.4828 20.122 21.4533 19.3056 21.5498 18.2023L22.7736 4.21834C22.8701 3.11503 22.0562 2.14255 20.9555 2.04623Z" stroke="#F94F45" stroke-width="1.25" stroke-linecap="round" stroke-dasharray="0.11 0.11 2.15 2.72"/>
</svg>
