<svg width="29" height="26" viewBox="0 0 29 26" fill="none" xmlns="http://www.w3.org/2000/svg">
<rect width="28" height="24.9136" fill="black" fill-opacity="0" transform="translate(1 1)"/>
<rect width="26.1636" height="23.9136" fill="black" fill-opacity="0" transform="translate(2.8364 2)"/>
<path fill-rule="evenodd" clip-rule="evenodd" d="M24.7575 25.9136C25.8579 25.9136 26.75 25.0215 26.75 23.9211C26.75 22.8207 25.8579 21.9277 24.7575 21.9277H4.82887C3.72847 21.9277 2.8364 22.8208 2.8364 23.9211C2.8364 25.0216 3.72849 25.9136 4.82887 25.9136H24.7575Z" fill="#9E66BF" fill-opacity="0.2"/>
<path fill-rule="evenodd" clip-rule="evenodd" d="M20.7439 14.4069C20.0037 13.6816 19.7614 13.0753 19.7614 11.9332C19.7614 9.70038 21.5721 7.89109 23.8036 7.89109C26.035 7.89109 27.8457 9.70038 27.8457 11.9332C27.8457 13.0226 27.5791 13.6775 26.8551 14.4151C26.6318 14.6438 26.6359 15.0091 26.8632 15.2324C27.0919 15.4557 27.4573 15.4516 27.6806 15.2243C28.617 14.2689 29 13.323 29 11.9332C29 9.06301 26.6738 6.73682 23.8036 6.73682C20.9334 6.73682 18.6072 9.06301 18.6072 11.9332C18.6072 13.3785 18.9685 14.2838 19.9347 15.2324C20.162 15.4557 20.5287 15.4516 20.752 15.2243C20.9753 14.9969 20.9713 14.6302 20.7439 14.4069L20.7439 14.4069Z" fill="#9E66BF" fill-opacity="0.2"/>
<path fill-rule="evenodd" clip-rule="evenodd" d="M24.2478 7.19417V2.3058C24.2478 2.13679 24.0693 2 23.8489 2C23.6284 2 23.45 2.13678 23.45 2.3058V7.19417C23.45 7.36318 23.6284 7.49997 23.8489 7.49997C24.0693 7.49997 24.2478 7.36319 24.2478 7.19417Z" fill="#9E66BF" fill-opacity="0.2"/>
<path fill-rule="evenodd" clip-rule="evenodd" d="M5.10819 10.4838C4.59816 9.98306 4.43096 9.56457 4.43096 8.77525C4.43096 7.23488 5.67989 5.98597 7.22024 5.98597C8.76154 5.98597 10.0105 7.23491 10.0105 8.77525C10.0105 9.52722 9.82738 9.97935 9.32762 10.4894C9.17349 10.6463 9.17536 10.8985 9.33322 11.0527C9.49016 11.2068 9.74236 11.2049 9.89651 11.0471C10.5429 10.3885 10.8073 9.73554 10.8073 8.77527C10.8073 6.79494 9.20153 5.18823 7.22025 5.18823C5.23991 5.18823 3.63321 6.79494 3.63321 8.77527C3.63321 9.77385 3.88263 10.3988 4.55051 11.0527C4.70744 11.2068 4.95965 11.2049 5.11379 11.047C5.26792 10.8901 5.26512 10.6379 5.10819 10.4838V10.4838Z" fill="#9E66BF" fill-opacity="0.2"/>
<path fill-rule="evenodd" clip-rule="evenodd" d="M7.61912 5.58704V2.39888C7.61912 2.17842 7.4407 2 7.22024 2C7.00072 2 6.8223 2.17842 6.8223 2.39888V5.58704C6.8223 5.80749 7.00071 5.98591 7.22024 5.98591C7.4407 5.98591 7.61912 5.8075 7.61912 5.58704Z" fill="#9E66BF" fill-opacity="0.2"/>
<path fill-rule="evenodd" clip-rule="evenodd" d="M3.63323 18.5271C3.63323 19.0794 4.08095 19.5272 4.63323 19.5272H9.0105C9.56278 19.5272 10.0105 19.0794 10.0105 18.5272V14.297C10.0105 13.6637 9.49674 13.1499 8.86339 13.1499H4.78038C4.14706 13.1499 3.63327 13.6637 3.63327 14.297L3.63323 18.5271Z" fill="#9E66BF" fill-opacity="0.2"/>
<path fill-rule="evenodd" clip-rule="evenodd" d="M11.605 18.5271C11.605 19.0794 12.0527 19.5272 12.605 19.5272H16.9813C17.5336 19.5272 17.9813 19.0794 17.9813 18.5272V14.297C17.9813 13.6637 17.4676 13.1499 16.8342 13.1499H12.7522C12.1189 13.1499 11.6051 13.6637 11.6051 14.297L11.605 18.5271Z" fill="#9E66BF" fill-opacity="0.2"/>
<path fill-rule="evenodd" clip-rule="evenodd" d="M20.9275 17.4128C20.9275 17.9651 21.3752 18.4128 21.9275 18.4128H25.6797C26.232 18.4128 26.6797 17.9651 26.6797 17.4128V13.6953C26.6797 13.1241 26.2163 12.6606 25.645 12.6606H21.9622C21.391 12.6606 20.9275 13.124 20.9275 13.6953L20.9275 17.4128Z" fill="#9E66BF" fill-opacity="0.2"/>
<rect width="26" height="23.75" fill="black" fill-opacity="0" transform="translate(1 1)"/>
<path fill-rule="evenodd" clip-rule="evenodd" d="M4 22.2506C4 21.9739 3.77635 21.75 3.5 21.75C3.22365 21.75 3 21.9739 3 22.2506C3 22.5261 3.22365 22.75 3.5 22.75C3.77635 22.75 4 22.5261 4 22.2506Z" fill="#9E66BF" stroke="#9E66BF" stroke-width="0.4"/>
<path fill-rule="evenodd" clip-rule="evenodd" d="M7.01797 22.2506C7.01797 21.9739 6.79407 21.75 6.51739 21.75C6.2419 21.75 6.01797 21.9739 6.01797 22.2506C6.01797 22.5261 6.24188 22.75 6.51739 22.75C6.79406 22.75 7.01797 22.5261 7.01797 22.2506Z" fill="#9E66BF" stroke="#9E66BF" stroke-width="0.4"/>
<path fill-rule="evenodd" clip-rule="evenodd" d="M10.2061 22.2506C10.2061 21.9739 9.98221 21.75 9.70671 21.75C9.43004 21.75 9.20612 21.9739 9.20612 22.2506C9.20612 22.5261 9.43003 22.75 9.70671 22.75C9.9822 22.75 10.2061 22.5261 10.2061 22.2506Z" fill="#9E66BF" stroke="#9E66BF" stroke-width="0.4"/>
<path fill-rule="evenodd" clip-rule="evenodd" d="M13.3943 22.2506C13.3943 21.9739 13.1707 21.75 12.8943 21.75C12.618 21.75 12.3943 21.9739 12.3943 22.2506C12.3943 22.5261 12.618 22.75 12.8943 22.75C13.1707 22.75 13.3943 22.5261 13.3943 22.2506Z" fill="#9E66BF" stroke="#9E66BF" stroke-width="0.4"/>
<path fill-rule="evenodd" clip-rule="evenodd" d="M16.5834 22.2506C16.5834 21.9739 16.3595 21.75 16.0828 21.75C15.8073 21.75 15.5834 21.9739 15.5834 22.2506C15.5834 22.5261 15.8073 22.75 16.0828 22.75C16.3595 22.75 16.5834 22.5261 16.5834 22.2506Z" fill="#9E66BF" stroke="#9E66BF" stroke-width="0.4"/>
<path fill-rule="evenodd" clip-rule="evenodd" d="M19.7716 22.2506C19.7716 21.9739 19.5476 21.75 19.2721 21.75C18.9955 21.75 18.7716 21.9739 18.7716 22.2506C18.7716 22.5261 18.9955 22.75 19.2721 22.75C19.5476 22.75 19.7716 22.5261 19.7716 22.2506Z" fill="#9E66BF" stroke="#9E66BF" stroke-width="0.4"/>
<path fill-rule="evenodd" clip-rule="evenodd" d="M22.9597 22.2506C22.9597 21.9739 22.7361 21.75 22.4597 21.75C22.1834 21.75 21.9597 21.9739 21.9597 22.2506C21.9597 22.5261 22.1834 22.75 22.4597 22.75C22.7361 22.75 22.9597 22.5261 22.9597 22.2506Z" fill="#9E66BF" stroke="#9E66BF" stroke-width="0.4"/>
<path fill-rule="evenodd" clip-rule="evenodd" d="M23.0003 23.7505H2.99968C2.33687 23.7505 1.79968 23.079 1.79968 22.2506C1.79968 21.4221 2.33687 20.7507 2.99968 20.7507H23.0003C23.6631 20.7507 24.2003 21.4221 24.2003 22.2506C24.2003 23.079 23.6631 23.7505 23.0003 23.7505ZM23.0003 24.75C24.1047 24.75 25 23.6309 25 22.2506C25 20.8702 24.1047 19.75 23.0003 19.75H2.99968C1.8953 19.75 1 20.8702 1 22.2506C1 23.631 1.89532 24.75 2.99968 24.75H23.0003Z" fill="#9E66BF" stroke="#9E66BF" stroke-width="0.4"/>
<path fill-rule="evenodd" clip-rule="evenodd" d="M18.7439 13.4069C18.0037 12.6816 17.7614 12.0753 17.7614 10.9332C17.7614 8.70038 19.5721 6.89109 21.8036 6.89109C24.035 6.89109 25.8457 8.70038 25.8457 10.9332C25.8457 12.0226 25.5791 12.6775 24.8551 13.4151C24.6318 13.6438 24.6359 14.0091 24.8632 14.2324C25.0919 14.4557 25.4573 14.4516 25.6806 14.2243C26.617 13.2689 27 12.323 27 10.9332C27 8.06301 24.6738 5.73682 21.8036 5.73682C18.9334 5.73682 16.6072 8.06301 16.6072 10.9332C16.6072 12.3785 16.9685 13.2838 17.9347 14.2324C18.162 14.4557 18.5287 14.4516 18.752 14.2243C18.9753 13.9969 18.9713 13.6302 18.7439 13.4069L18.7439 13.4069Z" fill="#9E66BF"/>
<path fill-rule="evenodd" clip-rule="evenodd" d="M22.2478 6.19417V1.3058C22.2478 1.13679 22.0693 1 21.8489 1C21.6284 1 21.45 1.13678 21.45 1.3058V6.19417C21.45 6.36318 21.6284 6.49997 21.8489 6.49997C22.0693 6.49997 22.2478 6.36319 22.2478 6.19417Z" fill="#9E66BF" stroke="#9E66BF" stroke-width="0.4"/>
<path fill-rule="evenodd" clip-rule="evenodd" d="M3.10819 9.48376C2.59816 8.98306 2.43096 8.56457 2.43096 7.77525C2.43096 6.23488 3.67989 4.98597 5.22024 4.98597C6.76154 4.98597 8.01047 6.23491 8.01047 7.77525C8.01047 8.52722 7.82738 8.97935 7.32762 9.48938C7.17349 9.64631 7.17536 9.89852 7.33322 10.0527C7.49016 10.2068 7.74236 10.2049 7.89651 10.0471C8.54292 9.3885 8.80728 8.73554 8.80728 7.77527C8.80728 5.79494 7.20153 4.18823 5.22025 4.18823C3.23991 4.18823 1.63321 5.79494 1.63321 7.77527C1.63321 8.77385 1.88263 9.39878 2.55051 10.0527C2.70744 10.2068 2.95965 10.2049 3.11379 10.047C3.26792 9.89012 3.26512 9.63791 3.10819 9.48376V9.48376Z" fill="#9E66BF" stroke="#9E66BF" stroke-width="0.4"/>
<path fill-rule="evenodd" clip-rule="evenodd" d="M5.6191 4.58704V1.39888C5.6191 1.17842 5.44069 1 5.22023 1C5.00071 1 4.82228 1.17842 4.82228 1.39888V4.58704C4.82228 4.80749 5.0007 4.98591 5.22023 4.98591C5.44068 4.98591 5.6191 4.8075 5.6191 4.58704Z" fill="#9E66BF" stroke="#9E66BF" stroke-width="0.4"/>
<path fill-rule="evenodd" clip-rule="evenodd" d="M2.83096 17.7294C2.61004 17.7294 2.43096 17.5503 2.43096 17.3294V13.297C2.43096 13.1037 2.58696 12.9468 2.78031 12.9468H6.86331C7.05668 12.9468 7.2136 13.1037 7.2136 13.297V17.3294C7.2136 17.5503 7.03451 17.7294 6.8136 17.7294H2.83096ZM1.63323 17.5271C1.63323 18.0794 2.08095 18.5272 2.63323 18.5272H7.0105C7.56278 18.5272 8.0105 18.0794 8.0105 17.5272V13.297C8.0105 12.6637 7.49674 12.1499 6.86339 12.1499H2.78038C2.14706 12.1499 1.63327 12.6637 1.63327 13.297L1.63323 17.5271Z" fill="#9E66BF" stroke="#9E66BF" stroke-width="0.4"/>
<path fill-rule="evenodd" clip-rule="evenodd" d="M10.8018 17.7294C10.5809 17.7294 10.4018 17.5503 10.4018 17.3294V13.297C10.4018 13.1037 10.5588 12.9468 10.7521 12.9468H14.8342C15.0275 12.9468 15.1844 13.1037 15.1844 13.297V17.3294C15.1844 17.5503 15.0054 17.7294 14.7844 17.7294H10.8018ZM9.60504 17.5271C9.60503 18.0794 10.0527 18.5272 10.605 18.5272H14.9813C15.5336 18.5272 15.9813 18.0794 15.9813 17.5272V13.297C15.9813 12.6637 15.4676 12.1499 14.8342 12.1499H10.7522C10.1189 12.1499 9.60507 12.6637 9.60507 13.297L9.60504 17.5271Z" fill="#9E66BF" stroke="#9E66BF" stroke-width="0.4"/>
<path fill-rule="evenodd" clip-rule="evenodd" d="M23.8019 16.1351C23.8019 16.356 23.6229 16.5351 23.4019 16.5351H20.2044C19.9835 16.5351 19.8044 16.356 19.8044 16.1351V12.8304C19.8044 12.6688 19.9356 12.5376 20.0972 12.5376H23.5099C23.6715 12.5376 23.8019 12.6688 23.8019 12.8304L23.8019 16.1351ZM19.1384 16.2019C19.1384 16.7541 19.5861 17.2019 20.1384 17.2019H23.4687C24.021 17.2019 24.4687 16.7542 24.4687 16.2019V12.8304C24.4687 12.301 24.0393 11.8716 23.5099 11.8716H20.0973C19.5679 11.8716 19.1385 12.301 19.1385 12.8304L19.1384 16.2019Z" fill="#9E66BF" stroke="#9E66BF" stroke-width="0.4"/>
</svg>
