<svg width="30" height="17" viewBox="0 0 30 17" fill="none" xmlns="http://www.w3.org/2000/svg">
<rect width="30" height="17" fill="black" fill-opacity="0"/>
<rect width="28" height="16" fill="black" fill-opacity="0" transform="translate(2 1)"/>
<rect width="28" height="16" fill="black" fill-opacity="0" transform="translate(2 1)"/>
<path d="M16 1C8.26733 1 2 9 2 9C2 9 8.26733 17 16 17C23.7327 17 30 9 30 9C30 9 23.7327 1 16 1Z" fill="#FF7B2F" fill-opacity="0.2"/>
<rect width="28" height="16" fill="black" fill-opacity="0"/>
<rect width="28" height="16" fill="black" fill-opacity="0"/>
<path d="M14 0C6.26733 0 0 8 0 8C0 8 6.26733 16 14 16C21.7327 16 28 8 28 8C28 8 21.7327 0 14 0ZM13.3996 1.173C13.6001 1.16184 13.7983 1.14287 14 1.14287C14.2017 1.14287 14.3999 1.16184 14.6004 1.173C17.5352 1.46877 19.8332 3.90514 19.8332 6.85729C19.8332 10.0079 17.2162 12.5716 13.9999 12.5716C10.7836 12.5716 8.16655 10.0079 8.16655 6.85729C8.16655 3.90529 10.4646 1.469 13.3993 1.173H13.3996ZM14 14.8573C8.12671 14.8573 2.98958 9.99786 1.44229 8.00014C2.49731 6.63743 5.22492 3.94557 8.71471 2.37071C7.64945 3.57383 7.00003 5.13969 7.00003 6.85729C7.00003 10.6441 10.1343 13.7144 14 13.7144C17.8658 13.7144 21 10.6441 21 6.85729C21 5.13966 20.3506 3.57386 19.2854 2.37071C22.7751 3.94549 25.5025 6.63757 26.5578 8.00014C25.0106 9.99791 19.8734 14.8573 14.0001 14.8573H14Z" fill="#FF7B2F"/>
<path d="M14 11.4286C16.5726 11.4286 18.6667 9.37722 18.6667 6.85713C18.6667 4.33705 16.5726 2.28571 14 2.28571C12.8117 2.28571 11.7282 2.72656 10.9034 3.44642C10.9637 3.43972 11.0219 3.42856 11.0834 3.42856C12.0495 3.42856 12.8334 4.19642 12.8334 5.14285C12.8334 6.08928 12.0495 6.85713 11.0834 6.85713C10.3519 6.85713 9.7276 6.41739 9.46553 5.79462C9.38236 6.13613 9.33337 6.49105 9.33337 6.85713C9.33337 9.37722 11.4275 11.4286 14 11.4286H14Z" fill="#FF7B2F"/>
</svg>
