<svg width="21" height="26" viewBox="0 0 21 26" fill="none" xmlns="http://www.w3.org/2000/svg">
<rect width="21" height="25" fill="black" fill-opacity="0" transform="translate(0 1)"/>
<rect width="19" height="24" fill="black" fill-opacity="0" transform="translate(2 2)"/>
<rect width="19" height="15.5877" fill="black" fill-opacity="0" transform="translate(2 10.4124)"/>
<path d="M19.8038 10.5362C19.5276 10.3545 19.1574 10.4106 18.948 10.6676C18.8434 10.8058 18.8017 10.9827 18.8337 11.1538C18.8657 11.3248 18.9684 11.4737 19.1167 11.5655C19.5237 11.8129 19.767 12.0826 19.767 12.2807C19.7592 12.3783 19.7214 12.4711 19.6575 12.5455C19.4355 12.7726 19.1787 12.964 18.8986 13.1148C17.6581 13.7652 15.1517 14.4234 11.5047 14.4234C6.88945 14.4234 4.08683 13.369 3.40627 12.6122L3.35684 12.5552C3.289 12.4788 3.24829 12.3822 3.24054 12.2807C3.24054 12.0855 3.48865 11.8226 3.88309 11.5703C4.13993 11.4196 4.25815 11.1112 4.16801 10.8281C4.10599 10.6512 3.9674 10.5111 3.79101 10.4482C3.61366 10.3854 3.41789 10.4057 3.25798 10.5043C2.21806 11.1402 2 11.8206 2 12.2836C2.00097 12.5088 2.05137 12.7301 2.14828 12.934C2.2326 13.1109 2.33824 13.2771 2.46326 13.4289L9.29887 21.5734V25.3815C9.29887 25.5458 9.36477 25.7033 9.48107 25.8193C9.59738 25.9352 9.75439 26 9.91913 26H13.0428C13.2076 26 13.3655 25.9353 13.4818 25.8193C13.5981 25.7033 13.6631 25.5458 13.6631 25.3815V21.5734L20.362 13.5941C20.7506 13.2684 20.9832 12.7939 20.9997 12.2875C21.0094 11.8381 20.7991 11.1692 19.8038 10.5362Z" fill="#1FB6FF" fill-opacity="0.2"/>
<path d="M7.68689 9.0203C7.88215 8.82504 7.88215 8.50846 7.68689 8.31319C7.49162 8.11793 7.17504 8.11793 6.97978 8.31319L7.68689 9.0203ZM6 10.0001L5.64645 9.64653C5.45118 9.84179 5.45118 10.1584 5.64645 10.3536L6 10.0001ZM6.97978 11.687C7.17504 11.8822 7.49162 11.8822 7.68689 11.687C7.88215 11.4917 7.88215 11.1751 7.68689 10.9799L6.97978 11.687ZM6.97978 8.31319L5.64645 9.64653L6.35355 10.3536L7.68689 9.0203L6.97978 8.31319ZM5.64645 10.3536L6.97978 11.687L7.68689 10.9799L6.35355 9.64653L5.64645 10.3536Z" fill="#1FB6FF" fill-opacity="0.2"/>
<path d="M10.3131 9.0203C10.1179 8.82504 10.1179 8.50846 10.3131 8.31319C10.5084 8.11793 10.825 8.11793 11.0202 8.31319L10.3131 9.0203ZM12 10.0001L12.3536 9.64653C12.5488 9.84179 12.5488 10.1584 12.3536 10.3536L12 10.0001ZM11.0202 11.687C10.825 11.8822 10.5084 11.8822 10.3131 11.687C10.1179 11.4917 10.1179 11.1751 10.3131 10.9799L11.0202 11.687ZM11.0202 8.31319L12.3536 9.64653L11.6464 10.3536L10.3131 9.0203L11.0202 8.31319ZM12.3536 10.3536L11.0202 11.687L10.3131 10.9799L11.6464 9.64653L12.3536 10.3536Z" fill="#1FB6FF" fill-opacity="0.2"/>
<path d="M9.33332 8L8.66666 12" stroke="#1FB6FF" stroke-opacity="0.2" stroke-linecap="round"/>
<path d="M14.6869 6.0203C14.8821 5.82504 14.8821 5.50846 14.6869 5.31319C14.4916 5.11793 14.175 5.11793 13.9798 5.31319L14.6869 6.0203ZM13 7.00008L12.6464 6.64653C12.4512 6.84179 12.4512 7.15837 12.6464 7.35363L13 7.00008ZM13.9798 8.68697C14.175 8.88223 14.4916 8.88223 14.6869 8.68697C14.8821 8.49171 14.8821 8.17512 14.6869 7.97986L13.9798 8.68697ZM13.9798 5.31319L12.6464 6.64653L13.3536 7.35363L14.6869 6.0203L13.9798 5.31319ZM12.6464 7.35363L13.9798 8.68697L14.6869 7.97986L13.3536 6.64653L12.6464 7.35363Z" fill="#1FB6FF" fill-opacity="0.2"/>
<path d="M17.3131 6.0203C17.1179 5.82504 17.1179 5.50846 17.3131 5.31319C17.5084 5.11793 17.825 5.11793 18.0202 5.31319L17.3131 6.0203ZM19 7.00008L19.3536 6.64653C19.5488 6.84179 19.5488 7.15837 19.3536 7.35363L19 7.00008ZM18.0202 8.68697C17.825 8.88223 17.5084 8.88223 17.3131 8.68697C17.1179 8.49171 17.1179 8.17512 17.3131 7.97986L18.0202 8.68697ZM18.0202 5.31319L19.3536 6.64653L18.6464 7.35363L17.3131 6.0203L18.0202 5.31319ZM19.3536 7.35363L18.0202 8.68697L17.3131 7.97986L18.6464 6.64653L19.3536 7.35363Z" fill="#1FB6FF" fill-opacity="0.2"/>
<path d="M16.3333 5L15.6667 9" stroke="#1FB6FF" stroke-opacity="0.2" stroke-linecap="round"/>
<path d="M6.68689 3.0203C6.88215 2.82504 6.88215 2.50846 6.68689 2.31319C6.49162 2.11793 6.17504 2.11793 5.97978 2.31319L6.68689 3.0203ZM5 4.00008L4.64645 3.64653C4.45118 3.84179 4.45118 4.15837 4.64645 4.35363L5 4.00008ZM5.97978 5.68697C6.17504 5.88223 6.49162 5.88223 6.68689 5.68697C6.88215 5.49171 6.88215 5.17512 6.68689 4.97986L5.97978 5.68697ZM5.97978 2.31319L4.64645 3.64653L5.35355 4.35363L6.68689 3.0203L5.97978 2.31319ZM4.64645 4.35363L5.97978 5.68697L6.68689 4.97986L5.35355 3.64653L4.64645 4.35363Z" fill="#1FB6FF" fill-opacity="0.2"/>
<path d="M9.31311 3.0203C9.11785 2.82504 9.11785 2.50846 9.31311 2.31319C9.50838 2.11793 9.82496 2.11793 10.0202 2.31319L9.31311 3.0203ZM11 4.00008L11.3536 3.64653C11.5488 3.84179 11.5488 4.15837 11.3536 4.35363L11 4.00008ZM10.0202 5.68697C9.82496 5.88223 9.50838 5.88223 9.31311 5.68697C9.11785 5.49171 9.11785 5.17512 9.31311 4.97986L10.0202 5.68697ZM10.0202 2.31319L11.3536 3.64653L10.6464 4.35363L9.31311 3.0203L10.0202 2.31319ZM11.3536 4.35363L10.0202 5.68697L9.31311 4.97986L10.6464 3.64653L11.3536 4.35363Z" fill="#1FB6FF" fill-opacity="0.2"/>
<path d="M8.33332 2L7.66666 6" stroke="#1FB6FF" stroke-opacity="0.2" stroke-linecap="round"/>
<rect width="19" height="24" fill="black" fill-opacity="0" transform="translate(0 1)"/>
<rect width="19" height="15.5877" fill="black" fill-opacity="0" transform="translate(0 9.41235)"/>
<path d="M17.8038 9.53619C17.5276 9.35449 17.1574 9.41055 16.948 9.66763C16.8434 9.80584 16.8017 9.9827 16.8337 10.1538C16.8657 10.3248 16.9684 10.4737 17.1167 10.5655C17.5237 10.8129 17.767 11.0826 17.767 11.2807C17.7592 11.3783 17.7214 11.4711 17.6575 11.5455C17.4355 11.7726 17.1787 11.964 16.8986 12.1148C15.6581 12.7652 13.1517 13.4234 9.50475 13.4234C4.88945 13.4234 2.08683 12.369 1.40627 11.6122L1.35684 11.5552C1.289 11.4788 1.24829 11.3822 1.24054 11.2807C1.24054 11.0855 1.48865 10.8226 1.88309 10.5703C2.13993 10.4196 2.25815 10.1112 2.16801 9.82807C2.10599 9.6512 1.9674 9.51108 1.79101 9.44823C1.61366 9.38541 1.41789 9.4057 1.25798 9.50429C0.218062 10.1402 0 10.8206 0 11.2836C0.000969108 11.5088 0.0513657 11.7301 0.148284 11.934C0.232601 12.1109 0.338243 12.2771 0.463257 12.4289L7.29887 20.5734V24.3815C7.29887 24.5458 7.36477 24.7033 7.48107 24.8193C7.59738 24.9352 7.75439 25 7.91913 25H11.0428C11.2076 25 11.3655 24.9353 11.4818 24.8193C11.5981 24.7033 11.6631 24.5458 11.6631 24.3815V20.5734L18.362 12.5941C18.7506 12.2684 18.9832 11.7939 18.9997 11.2875C19.0094 10.8381 18.7991 10.1692 17.8038 9.53619ZM10.567 19.9531C10.473 20.0642 10.4226 20.2053 10.4226 20.3513V23.7629H8.53951V20.3483C8.53951 20.2043 8.48912 20.0642 8.39608 19.953L3.3322 13.9155C5.34711 14.4364 7.423 14.6857 9.50487 14.6577C11.5702 14.6799 13.6287 14.4306 15.6282 13.9155L10.567 19.9531Z" fill="#1FB6FF"/>
<path d="M5.68689 8.0203C5.88215 7.82504 5.88215 7.50846 5.68689 7.31319C5.49162 7.11793 5.17504 7.11793 4.97978 7.31319L5.68689 8.0203ZM4 9.00008L3.64645 8.64653C3.45118 8.84179 3.45118 9.15837 3.64645 9.35363L4 9.00008ZM4.97978 10.687C5.17504 10.8822 5.49162 10.8822 5.68689 10.687C5.88215 10.4917 5.88215 10.1751 5.68689 9.97986L4.97978 10.687ZM4.97978 7.31319L3.64645 8.64653L4.35355 9.35363L5.68689 8.0203L4.97978 7.31319ZM3.64645 9.35363L4.97978 10.687L5.68689 9.97986L4.35355 8.64653L3.64645 9.35363Z" fill="#1FB6FF"/>
<path d="M8.31311 8.0203C8.11785 7.82504 8.11785 7.50846 8.31311 7.31319C8.50838 7.11793 8.82496 7.11793 9.02022 7.31319L8.31311 8.0203ZM10 9.00008L10.3536 8.64653C10.5488 8.84179 10.5488 9.15837 10.3536 9.35363L10 9.00008ZM9.02022 10.687C8.82496 10.8822 8.50838 10.8822 8.31311 10.687C8.11785 10.4917 8.11785 10.1751 8.31311 9.97986L9.02022 10.687ZM9.02022 7.31319L10.3536 8.64653L9.64645 9.35363L8.31311 8.0203L9.02022 7.31319ZM10.3536 9.35363L9.02022 10.687L8.31311 9.97986L9.64645 8.64653L10.3536 9.35363Z" fill="#1FB6FF"/>
<path d="M7.33332 7L6.66666 11" stroke="#1FB6FF" stroke-linecap="round"/>
<path d="M12.6869 5.0203C12.8821 4.82504 12.8821 4.50846 12.6869 4.31319C12.4916 4.11793 12.175 4.11793 11.9798 4.31319L12.6869 5.0203ZM11 6.00008L10.6464 5.64653C10.4512 5.84179 10.4512 6.15837 10.6464 6.35363L11 6.00008ZM11.9798 7.68697C12.175 7.88223 12.4916 7.88223 12.6869 7.68697C12.8821 7.49171 12.8821 7.17512 12.6869 6.97986L11.9798 7.68697ZM11.9798 4.31319L10.6464 5.64653L11.3536 6.35363L12.6869 5.0203L11.9798 4.31319ZM10.6464 6.35363L11.9798 7.68697L12.6869 6.97986L11.3536 5.64653L10.6464 6.35363Z" fill="#1FB6FF"/>
<path d="M15.3131 5.0203C15.1179 4.82504 15.1179 4.50846 15.3131 4.31319C15.5084 4.11793 15.825 4.11793 16.0202 4.31319L15.3131 5.0203ZM17 6.00008L17.3536 5.64653C17.5488 5.84179 17.5488 6.15837 17.3536 6.35363L17 6.00008ZM16.0202 7.68697C15.825 7.88223 15.5084 7.88223 15.3131 7.68697C15.1179 7.49171 15.1179 7.17512 15.3131 6.97986L16.0202 7.68697ZM16.0202 4.31319L17.3536 5.64653L16.6464 6.35363L15.3131 5.0203L16.0202 4.31319ZM17.3536 6.35363L16.0202 7.68697L15.3131 6.97986L16.6464 5.64653L17.3536 6.35363Z" fill="#1FB6FF"/>
<path d="M14.3333 4L13.6667 8" stroke="#1FB6FF" stroke-linecap="round"/>
<path d="M4.68689 2.0203C4.88215 1.82504 4.88215 1.50846 4.68689 1.31319C4.49162 1.11793 4.17504 1.11793 3.97978 1.31319L4.68689 2.0203ZM3 3.00008L2.64645 2.64653C2.45118 2.84179 2.45118 3.15837 2.64645 3.35363L3 3.00008ZM3.97978 4.68697C4.17504 4.88223 4.49162 4.88223 4.68689 4.68697C4.88215 4.49171 4.88215 4.17512 4.68689 3.97986L3.97978 4.68697ZM3.97978 1.31319L2.64645 2.64653L3.35355 3.35363L4.68689 2.0203L3.97978 1.31319ZM2.64645 3.35363L3.97978 4.68697L4.68689 3.97986L3.35355 2.64653L2.64645 3.35363Z" fill="#1FB6FF"/>
<path d="M7.31311 2.0203C7.11785 1.82504 7.11785 1.50846 7.31311 1.31319C7.50838 1.11793 7.82496 1.11793 8.02022 1.31319L7.31311 2.0203ZM9 3.00008L9.35355 2.64653C9.54882 2.84179 9.54882 3.15837 9.35355 3.35363L9 3.00008ZM8.02022 4.68697C7.82496 4.88223 7.50838 4.88223 7.31311 4.68697C7.11785 4.49171 7.11785 4.17512 7.31311 3.97986L8.02022 4.68697ZM8.02022 1.31319L9.35355 2.64653L8.64645 3.35363L7.31311 2.0203L8.02022 1.31319ZM9.35355 3.35363L8.02022 4.68697L7.31311 3.97986L8.64645 2.64653L9.35355 3.35363Z" fill="#1FB6FF"/>
<path d="M6.33332 1L5.66666 5" stroke="#1FB6FF" stroke-linecap="round"/>
</svg>
