<svg width="28" height="27" viewBox="0 0 28 27" fill="none" xmlns="http://www.w3.org/2000/svg">
<rect width="26" height="25" fill="black" fill-opacity="0" transform="translate(1 1)"/>
<mask id="path-1-outside-1" maskUnits="userSpaceOnUse" x="2" y="1" width="26" height="26" fill="black">
<rect fill="white" x="2" y="1" width="26" height="26"/>
<path d="M20.5441 13.8899C19.8388 14.6019 18.8893 15.0203 17.8923 15.0203C17.7706 15.0203 17.649 14.9225 17.649 14.7747C17.649 14.6269 17.7459 14.529 17.8923 14.529C18.7687 14.529 19.5956 14.1606 20.2039 13.5464C20.8122 12.9073 21.1525 12.0725 21.1525 11.1877C21.1278 9.37026 19.6678 7.89642 17.8676 7.89642H17.8429C16.0426 7.92137 14.558 9.41929 14.5828 11.2378C14.5828 11.3856 14.4858 11.4835 14.3395 11.4835C14.2178 11.4835 14.0961 11.3856 14.0961 11.2378C14.0714 9.14976 15.7509 7.40511 17.8429 7.40511H17.8676C19.9359 7.40511 21.6143 9.09974 21.6391 11.1877C21.6391 12.1943 21.2493 13.153 20.5441 13.8899ZM26.8944 8.95176C26.9914 8.7061 26.9914 8.41151 26.8944 8.16585L26.383 6.93757C26.1891 6.37237 25.5808 6.12671 25.0457 6.34743L24.0971 6.74088C23.5857 6.02887 22.9774 5.41473 22.2722 4.89846L22.6619 3.94079C22.7588 3.69513 22.7588 3.40054 22.6619 3.15489C22.5649 2.90923 22.3701 2.68853 22.102 2.58968L20.8854 2.07341C20.6421 1.97553 20.3503 1.97553 20.1069 2.07341C19.8636 2.17129 19.645 2.368 19.5471 2.63862L19.1574 3.59628C18.3057 3.4485 17.4294 3.4485 16.5776 3.59628L16.1879 2.63862C16.091 2.39296 15.8961 2.17226 15.6281 2.07341C15.3848 1.97553 15.093 1.97553 14.8496 2.07341L13.633 2.58968C13.3897 2.68756 13.1711 2.88427 13.0732 3.15489C12.9762 3.40054 12.9762 3.69513 13.0732 3.94079L13.4629 4.89846C12.7576 5.41473 12.1493 6.02887 11.6379 6.74088L10.6893 6.34743C10.1542 6.12673 9.56964 6.37238 9.35104 6.91264L8.83966 8.14092C8.62105 8.68117 8.86437 9.27133 9.39951 9.49203L10.5192 9.95838C10.6409 10.0073 10.7872 9.95838 10.8357 9.83555C10.8842 9.71273 10.8357 9.56494 10.7141 9.51601L9.59436 9.04965C9.32631 8.92682 9.1809 8.60727 9.30257 8.33764L9.81394 7.10936C9.86242 6.96158 9.98408 6.8637 10.1057 6.81477C10.2521 6.76583 10.3975 6.76583 10.5192 6.81477L11.6389 7.28112C11.7358 7.33006 11.8575 7.28112 11.9307 7.18324C12.4658 6.39734 13.1226 5.70931 13.902 5.19304C13.999 5.11915 14.0484 4.99632 13.999 4.89845L13.537 3.76803C13.4886 3.62026 13.4886 3.47344 13.537 3.35062C13.5855 3.20284 13.7072 3.10496 13.8288 3.05602L15.0455 2.53975C15.1918 2.49081 15.3373 2.49081 15.4589 2.53975C15.6053 2.58869 15.7023 2.71152 15.7507 2.83434L16.2127 3.96476C16.2611 4.06263 16.359 4.13652 16.4807 4.11253C17.4055 3.91582 18.3541 3.91582 19.279 4.11253C19.4006 4.13748 19.4976 4.06359 19.547 3.96476L20.0089 2.83434C20.0574 2.68657 20.1791 2.58869 20.3007 2.53975C20.4471 2.49081 20.5925 2.49081 20.7142 2.53975L21.9308 3.05602C22.0772 3.10496 22.1742 3.22779 22.2226 3.35062C22.2711 3.47344 22.2711 3.64521 22.2226 3.76803L21.7607 4.89845C21.7122 4.99632 21.7607 5.11915 21.8576 5.19304C22.6361 5.73328 23.3176 6.39636 23.829 7.18324C23.9022 7.28112 24.0238 7.33102 24.1208 7.28112L25.2405 6.81477C25.5085 6.69194 25.8488 6.83972 25.9457 7.10936L26.4571 8.33764C26.5056 8.48542 26.5056 8.63223 26.4571 8.75506C26.4086 8.90284 26.287 9.00072 26.1653 9.04965L25.0456 9.51601C24.9487 9.56494 24.8755 9.68777 24.8992 9.78662C25.0941 10.7203 25.0941 11.678 24.8992 12.6117C24.8745 12.7345 24.9477 12.8324 25.0456 12.8823L26.1653 13.3486C26.4333 13.4715 26.5788 13.791 26.4571 14.0606L25.9457 15.2889C25.8241 15.5595 25.5075 15.7063 25.2405 15.5835L24.1208 15.1172C24.0238 15.0682 23.9022 15.1172 23.829 15.215C23.2939 16.0009 22.6371 16.689 21.8576 17.2052C21.7607 17.2791 21.7113 17.402 21.7607 17.4998L22.2226 18.6302C22.2711 18.778 22.2711 18.9248 22.2226 19.0477C22.1741 19.1954 22.0525 19.2933 21.9308 19.3423L20.7142 19.8585C20.5678 19.9075 20.4224 19.9075 20.3007 19.8585C20.1544 19.8096 20.0574 19.6868 20.0089 19.5639L19.547 18.4335C19.4985 18.3107 19.3522 18.2368 19.2305 18.3107C19.1088 18.3596 19.0356 18.5074 19.1088 18.6302L19.5708 19.7607C19.6677 20.0063 19.8626 20.227 20.1306 20.3259C20.2523 20.3748 20.3986 20.3998 20.5203 20.3998C20.642 20.3998 20.7884 20.3748 20.91 20.3259L22.1267 19.8096C22.37 19.7117 22.5886 19.515 22.6865 19.2444C22.7835 18.9987 22.7835 18.7041 22.6865 18.4585L22.2968 17.5008C23.002 16.9846 23.6104 16.3704 24.1217 15.6584L25.0703 16.0518C25.6054 16.2726 26.19 16.0269 26.4086 15.4866L26.92 14.2584C27.1386 13.7181 26.8953 13.1279 26.3601 12.9072L25.4106 12.5138C25.557 11.654 25.557 10.7693 25.4106 9.90936L26.3592 9.51592C26.6025 9.39405 26.7975 9.19741 26.8944 8.95176ZM7.30663 18.9259C7.30663 17.427 8.52326 16.2237 9.98322 16.2237C11.4432 16.2237 12.6598 17.427 12.6598 18.9259C12.6598 20.4248 11.4432 21.6281 9.98322 21.6281C8.52326 21.6281 7.30663 20.4238 7.30663 18.9259ZM3 19.4172V18.4346C3 17.9922 3.36499 17.5997 3.82692 17.5997H4.50843C4.6548 17.0106 4.87342 16.4454 5.18994 15.9291L4.70328 15.4378C4.38677 15.1182 4.38677 14.6029 4.70328 14.2834L5.38479 13.5953C5.70131 13.2758 6.23644 13.2758 6.52823 13.5953L7.01488 14.0867C7.52626 13.7671 8.08513 13.5215 8.6697 13.3986V12.7106C8.6697 12.2682 9.03469 11.8758 9.49662 11.8758H10.4699C10.9081 11.8758 11.2968 12.2442 11.2968 12.7106V13.3986C11.8804 13.5464 12.4403 13.7671 12.9517 14.0867L13.4383 13.5953C13.7548 13.2758 14.29 13.2758 14.5817 13.5953L15.2633 14.2834C15.5798 14.6029 15.5798 15.1182 15.2633 15.4378L14.7766 15.9291C15.0931 16.4454 15.3365 17.0096 15.4581 17.5997H16.1396C16.5778 17.5997 16.9665 17.9682 16.9665 18.4346V19.4172C16.9665 19.8596 16.6016 20.252 16.1396 20.252H15.4828C15.3365 20.8412 15.1178 21.4064 14.8013 21.9227L15.288 22.414C15.4344 22.5618 15.5313 22.7825 15.5313 23.0032C15.5313 23.2239 15.4581 23.4206 15.288 23.5924L14.6065 24.2804C14.29 24.6 13.7548 24.6 13.463 24.2804L12.9764 23.7891C12.465 24.1086 11.9061 24.3543 11.3216 24.4771V25.1652C11.3216 25.6075 10.9566 26 10.4946 26H9.52134C9.08316 26 8.69442 25.6315 8.69442 25.1652V24.4771C8.11083 24.3293 7.55098 24.1086 7.03961 23.7891L6.55295 24.2804C6.23644 24.6 5.70131 24.6 5.40951 24.2804L4.70331 23.5684C4.55693 23.4206 4.45998 23.1999 4.45998 22.9792C4.45998 22.7585 4.53317 22.5618 4.70331 22.39L5.18996 21.8987C4.87344 21.3824 4.63012 20.8182 4.50845 20.2281L3.82789 20.2271C3.36501 20.2271 3 19.8586 3 19.4172ZM3.48665 19.4172C3.48665 19.589 3.63303 19.7607 3.82692 19.7607H4.70328C4.82495 19.7607 4.9219 19.8346 4.94661 19.9574C5.06827 20.6205 5.33632 21.2596 5.70131 21.8248C5.7745 21.9227 5.74979 22.0455 5.6766 22.1444L5.04356 22.7835C4.9219 22.9063 4.9219 23.127 5.04356 23.2498L5.72507 23.9379C5.84673 24.0607 6.06534 24.0607 6.187 23.9379L6.82004 23.2988C6.86851 23.2498 6.91699 23.2249 6.99018 23.2249C7.03865 23.2249 7.08713 23.2498 7.13655 23.2738C7.6964 23.6423 8.32846 23.9129 8.98622 24.0357C9.10789 24.0607 9.18107 24.1586 9.18107 24.2814V25.1661C9.18107 25.3379 9.32745 25.5097 9.52134 25.5097H10.4946C10.6648 25.5097 10.8349 25.3619 10.8349 25.1661V24.2814C10.8349 24.1586 10.9081 24.0607 11.0298 24.0357C11.6866 23.9129 12.3196 23.6423 12.8794 23.2738C12.9764 23.1999 13.098 23.2249 13.196 23.2988L13.829 23.9379C13.9507 24.0607 14.1693 24.0607 14.2909 23.9379L14.9724 23.2498C15.0941 23.127 15.0941 22.9063 14.9724 22.7835L14.3394 22.1444C14.2662 22.0705 14.2424 21.9237 14.3147 21.8248C14.6797 21.2596 14.9477 20.6215 15.0694 19.9574C15.0941 19.8346 15.191 19.7607 15.3127 19.7607H16.1891C16.3592 19.7607 16.5293 19.6129 16.5293 19.4172V18.4346C16.5293 18.2628 16.383 18.091 16.1891 18.091H15.3127C15.191 18.091 15.0941 18.0172 15.0694 17.8943C14.9477 17.2313 14.6797 16.5922 14.3147 16.027C14.2415 15.9291 14.2662 15.8062 14.3394 15.7074L14.9724 15.0683C15.0941 14.9455 15.0941 14.7248 14.9724 14.602L14.2909 13.9139C14.1693 13.7911 13.9507 13.7911 13.829 13.9139L13.196 14.553C13.1228 14.6269 12.9773 14.6509 12.8794 14.578C12.3196 14.2095 11.6875 13.9389 11.0298 13.816C10.9081 13.7911 10.8349 13.6932 10.8349 13.5704V12.6856C10.8349 12.5139 10.6885 12.3421 10.4946 12.3421H9.52134C9.3512 12.3421 9.18107 12.4899 9.18107 12.6856V13.5704C9.18107 13.6932 9.10789 13.7911 8.98622 13.816C8.32944 13.9389 7.6964 14.2095 7.13655 14.578C7.0396 14.6519 6.91794 14.6269 6.82003 14.553L6.187 13.9139C6.06533 13.7911 5.84673 13.7911 5.72507 13.9139L5.04356 14.602C4.92189 14.7248 4.92189 14.9455 5.04356 15.0683L5.67659 15.7074C5.74978 15.7813 5.77355 15.9281 5.70131 16.027C5.33632 16.5922 5.06827 17.2303 4.94661 17.8943C4.92189 18.0172 4.82494 18.091 4.70328 18.091L3.82786 18.0901C3.65773 18.0901 3.4876 18.2379 3.4876 18.4336L3.48665 19.4172Z"/>
</mask>
<path d="M20.5441 13.8899C19.8388 14.6019 18.8893 15.0203 17.8923 15.0203C17.7706 15.0203 17.649 14.9225 17.649 14.7747C17.649 14.6269 17.7459 14.529 17.8923 14.529C18.7687 14.529 19.5956 14.1606 20.2039 13.5464C20.8122 12.9073 21.1525 12.0725 21.1525 11.1877C21.1278 9.37026 19.6678 7.89642 17.8676 7.89642H17.8429C16.0426 7.92137 14.558 9.41929 14.5828 11.2378C14.5828 11.3856 14.4858 11.4835 14.3395 11.4835C14.2178 11.4835 14.0961 11.3856 14.0961 11.2378C14.0714 9.14976 15.7509 7.40511 17.8429 7.40511H17.8676C19.9359 7.40511 21.6143 9.09974 21.6391 11.1877C21.6391 12.1943 21.2493 13.153 20.5441 13.8899ZM26.8944 8.95176C26.9914 8.7061 26.9914 8.41151 26.8944 8.16585L26.383 6.93757C26.1891 6.37237 25.5808 6.12671 25.0457 6.34743L24.0971 6.74088C23.5857 6.02887 22.9774 5.41473 22.2722 4.89846L22.6619 3.94079C22.7588 3.69513 22.7588 3.40054 22.6619 3.15489C22.5649 2.90923 22.3701 2.68853 22.102 2.58968L20.8854 2.07341C20.6421 1.97553 20.3503 1.97553 20.1069 2.07341C19.8636 2.17129 19.645 2.368 19.5471 2.63862L19.1574 3.59628C18.3057 3.4485 17.4294 3.4485 16.5776 3.59628L16.1879 2.63862C16.091 2.39296 15.8961 2.17226 15.6281 2.07341C15.3848 1.97553 15.093 1.97553 14.8496 2.07341L13.633 2.58968C13.3897 2.68756 13.1711 2.88427 13.0732 3.15489C12.9762 3.40054 12.9762 3.69513 13.0732 3.94079L13.4629 4.89846C12.7576 5.41473 12.1493 6.02887 11.6379 6.74088L10.6893 6.34743C10.1542 6.12673 9.56964 6.37238 9.35104 6.91264L8.83966 8.14092C8.62105 8.68117 8.86437 9.27133 9.39951 9.49203L10.5192 9.95838C10.6409 10.0073 10.7872 9.95838 10.8357 9.83555C10.8842 9.71273 10.8357 9.56494 10.7141 9.51601L9.59436 9.04965C9.32631 8.92682 9.1809 8.60727 9.30257 8.33764L9.81394 7.10936C9.86242 6.96158 9.98408 6.8637 10.1057 6.81477C10.2521 6.76583 10.3975 6.76583 10.5192 6.81477L11.6389 7.28112C11.7358 7.33006 11.8575 7.28112 11.9307 7.18324C12.4658 6.39734 13.1226 5.70931 13.902 5.19304C13.999 5.11915 14.0484 4.99632 13.999 4.89845L13.537 3.76803C13.4886 3.62026 13.4886 3.47344 13.537 3.35062C13.5855 3.20284 13.7072 3.10496 13.8288 3.05602L15.0455 2.53975C15.1918 2.49081 15.3373 2.49081 15.4589 2.53975C15.6053 2.58869 15.7023 2.71152 15.7507 2.83434L16.2127 3.96476C16.2611 4.06263 16.359 4.13652 16.4807 4.11253C17.4055 3.91582 18.3541 3.91582 19.279 4.11253C19.4006 4.13748 19.4976 4.06359 19.547 3.96476L20.0089 2.83434C20.0574 2.68657 20.1791 2.58869 20.3007 2.53975C20.4471 2.49081 20.5925 2.49081 20.7142 2.53975L21.9308 3.05602C22.0772 3.10496 22.1742 3.22779 22.2226 3.35062C22.2711 3.47344 22.2711 3.64521 22.2226 3.76803L21.7607 4.89845C21.7122 4.99632 21.7607 5.11915 21.8576 5.19304C22.6361 5.73328 23.3176 6.39636 23.829 7.18324C23.9022 7.28112 24.0238 7.33102 24.1208 7.28112L25.2405 6.81477C25.5085 6.69194 25.8488 6.83972 25.9457 7.10936L26.4571 8.33764C26.5056 8.48542 26.5056 8.63223 26.4571 8.75506C26.4086 8.90284 26.287 9.00072 26.1653 9.04965L25.0456 9.51601C24.9487 9.56494 24.8755 9.68777 24.8992 9.78662C25.0941 10.7203 25.0941 11.678 24.8992 12.6117C24.8745 12.7345 24.9477 12.8324 25.0456 12.8823L26.1653 13.3486C26.4333 13.4715 26.5788 13.791 26.4571 14.0606L25.9457 15.2889C25.8241 15.5595 25.5075 15.7063 25.2405 15.5835L24.1208 15.1172C24.0238 15.0682 23.9022 15.1172 23.829 15.215C23.2939 16.0009 22.6371 16.689 21.8576 17.2052C21.7607 17.2791 21.7113 17.402 21.7607 17.4998L22.2226 18.6302C22.2711 18.778 22.2711 18.9248 22.2226 19.0477C22.1741 19.1954 22.0525 19.2933 21.9308 19.3423L20.7142 19.8585C20.5678 19.9075 20.4224 19.9075 20.3007 19.8585C20.1544 19.8096 20.0574 19.6868 20.0089 19.5639L19.547 18.4335C19.4985 18.3107 19.3522 18.2368 19.2305 18.3107C19.1088 18.3596 19.0356 18.5074 19.1088 18.6302L19.5708 19.7607C19.6677 20.0063 19.8626 20.227 20.1306 20.3259C20.2523 20.3748 20.3986 20.3998 20.5203 20.3998C20.642 20.3998 20.7884 20.3748 20.91 20.3259L22.1267 19.8096C22.37 19.7117 22.5886 19.515 22.6865 19.2444C22.7835 18.9987 22.7835 18.7041 22.6865 18.4585L22.2968 17.5008C23.002 16.9846 23.6104 16.3704 24.1217 15.6584L25.0703 16.0518C25.6054 16.2726 26.19 16.0269 26.4086 15.4866L26.92 14.2584C27.1386 13.7181 26.8953 13.1279 26.3601 12.9072L25.4106 12.5138C25.557 11.654 25.557 10.7693 25.4106 9.90936L26.3592 9.51592C26.6025 9.39405 26.7975 9.19741 26.8944 8.95176ZM7.30663 18.9259C7.30663 17.427 8.52326 16.2237 9.98322 16.2237C11.4432 16.2237 12.6598 17.427 12.6598 18.9259C12.6598 20.4248 11.4432 21.6281 9.98322 21.6281C8.52326 21.6281 7.30663 20.4238 7.30663 18.9259ZM3 19.4172V18.4346C3 17.9922 3.36499 17.5997 3.82692 17.5997H4.50843C4.6548 17.0106 4.87342 16.4454 5.18994 15.9291L4.70328 15.4378C4.38677 15.1182 4.38677 14.6029 4.70328 14.2834L5.38479 13.5953C5.70131 13.2758 6.23644 13.2758 6.52823 13.5953L7.01488 14.0867C7.52626 13.7671 8.08513 13.5215 8.6697 13.3986V12.7106C8.6697 12.2682 9.03469 11.8758 9.49662 11.8758H10.4699C10.9081 11.8758 11.2968 12.2442 11.2968 12.7106V13.3986C11.8804 13.5464 12.4403 13.7671 12.9517 14.0867L13.4383 13.5953C13.7548 13.2758 14.29 13.2758 14.5817 13.5953L15.2633 14.2834C15.5798 14.6029 15.5798 15.1182 15.2633 15.4378L14.7766 15.9291C15.0931 16.4454 15.3365 17.0096 15.4581 17.5997H16.1396C16.5778 17.5997 16.9665 17.9682 16.9665 18.4346V19.4172C16.9665 19.8596 16.6016 20.252 16.1396 20.252H15.4828C15.3365 20.8412 15.1178 21.4064 14.8013 21.9227L15.288 22.414C15.4344 22.5618 15.5313 22.7825 15.5313 23.0032C15.5313 23.2239 15.4581 23.4206 15.288 23.5924L14.6065 24.2804C14.29 24.6 13.7548 24.6 13.463 24.2804L12.9764 23.7891C12.465 24.1086 11.9061 24.3543 11.3216 24.4771V25.1652C11.3216 25.6075 10.9566 26 10.4946 26H9.52134C9.08316 26 8.69442 25.6315 8.69442 25.1652V24.4771C8.11083 24.3293 7.55098 24.1086 7.03961 23.7891L6.55295 24.2804C6.23644 24.6 5.70131 24.6 5.40951 24.2804L4.70331 23.5684C4.55693 23.4206 4.45998 23.1999 4.45998 22.9792C4.45998 22.7585 4.53317 22.5618 4.70331 22.39L5.18996 21.8987C4.87344 21.3824 4.63012 20.8182 4.50845 20.2281L3.82789 20.2271C3.36501 20.2271 3 19.8586 3 19.4172ZM3.48665 19.4172C3.48665 19.589 3.63303 19.7607 3.82692 19.7607H4.70328C4.82495 19.7607 4.9219 19.8346 4.94661 19.9574C5.06827 20.6205 5.33632 21.2596 5.70131 21.8248C5.7745 21.9227 5.74979 22.0455 5.6766 22.1444L5.04356 22.7835C4.9219 22.9063 4.9219 23.127 5.04356 23.2498L5.72507 23.9379C5.84673 24.0607 6.06534 24.0607 6.187 23.9379L6.82004 23.2988C6.86851 23.2498 6.91699 23.2249 6.99018 23.2249C7.03865 23.2249 7.08713 23.2498 7.13655 23.2738C7.6964 23.6423 8.32846 23.9129 8.98622 24.0357C9.10789 24.0607 9.18107 24.1586 9.18107 24.2814V25.1661C9.18107 25.3379 9.32745 25.5097 9.52134 25.5097H10.4946C10.6648 25.5097 10.8349 25.3619 10.8349 25.1661V24.2814C10.8349 24.1586 10.9081 24.0607 11.0298 24.0357C11.6866 23.9129 12.3196 23.6423 12.8794 23.2738C12.9764 23.1999 13.098 23.2249 13.196 23.2988L13.829 23.9379C13.9507 24.0607 14.1693 24.0607 14.2909 23.9379L14.9724 23.2498C15.0941 23.127 15.0941 22.9063 14.9724 22.7835L14.3394 22.1444C14.2662 22.0705 14.2424 21.9237 14.3147 21.8248C14.6797 21.2596 14.9477 20.6215 15.0694 19.9574C15.0941 19.8346 15.191 19.7607 15.3127 19.7607H16.1891C16.3592 19.7607 16.5293 19.6129 16.5293 19.4172V18.4346C16.5293 18.2628 16.383 18.091 16.1891 18.091H15.3127C15.191 18.091 15.0941 18.0172 15.0694 17.8943C14.9477 17.2313 14.6797 16.5922 14.3147 16.027C14.2415 15.9291 14.2662 15.8062 14.3394 15.7074L14.9724 15.0683C15.0941 14.9455 15.0941 14.7248 14.9724 14.602L14.2909 13.9139C14.1693 13.7911 13.9507 13.7911 13.829 13.9139L13.196 14.553C13.1228 14.6269 12.9773 14.6509 12.8794 14.578C12.3196 14.2095 11.6875 13.9389 11.0298 13.816C10.9081 13.7911 10.8349 13.6932 10.8349 13.5704V12.6856C10.8349 12.5139 10.6885 12.3421 10.4946 12.3421H9.52134C9.3512 12.3421 9.18107 12.4899 9.18107 12.6856V13.5704C9.18107 13.6932 9.10789 13.7911 8.98622 13.816C8.32944 13.9389 7.6964 14.2095 7.13655 14.578C7.0396 14.6519 6.91794 14.6269 6.82003 14.553L6.187 13.9139C6.06533 13.7911 5.84673 13.7911 5.72507 13.9139L5.04356 14.602C4.92189 14.7248 4.92189 14.9455 5.04356 15.0683L5.67659 15.7074C5.74978 15.7813 5.77355 15.9281 5.70131 16.027C5.33632 16.5922 5.06827 17.2303 4.94661 17.8943C4.92189 18.0172 4.82494 18.091 4.70328 18.091L3.82786 18.0901C3.65773 18.0901 3.4876 18.2379 3.4876 18.4336L3.48665 19.4172Z" fill="#FFE03E" fill-opacity="0.2"/>
<path d="M20.5441 13.8899C19.8388 14.6019 18.8893 15.0203 17.8923 15.0203C17.7706 15.0203 17.649 14.9225 17.649 14.7747C17.649 14.6269 17.7459 14.529 17.8923 14.529C18.7687 14.529 19.5956 14.1606 20.2039 13.5464C20.8122 12.9073 21.1525 12.0725 21.1525 11.1877C21.1278 9.37026 19.6678 7.89642 17.8676 7.89642H17.8429C16.0426 7.92137 14.558 9.41929 14.5828 11.2378C14.5828 11.3856 14.4858 11.4835 14.3395 11.4835C14.2178 11.4835 14.0961 11.3856 14.0961 11.2378C14.0714 9.14976 15.7509 7.40511 17.8429 7.40511H17.8676C19.9359 7.40511 21.6143 9.09974 21.6391 11.1877C21.6391 12.1943 21.2493 13.153 20.5441 13.8899ZM26.8944 8.95176C26.9914 8.7061 26.9914 8.41151 26.8944 8.16585L26.383 6.93757C26.1891 6.37237 25.5808 6.12671 25.0457 6.34743L24.0971 6.74088C23.5857 6.02887 22.9774 5.41473 22.2722 4.89846L22.6619 3.94079C22.7588 3.69513 22.7588 3.40054 22.6619 3.15489C22.5649 2.90923 22.3701 2.68853 22.102 2.58968L20.8854 2.07341C20.6421 1.97553 20.3503 1.97553 20.1069 2.07341C19.8636 2.17129 19.645 2.368 19.5471 2.63862L19.1574 3.59628C18.3057 3.4485 17.4294 3.4485 16.5776 3.59628L16.1879 2.63862C16.091 2.39296 15.8961 2.17226 15.6281 2.07341C15.3848 1.97553 15.093 1.97553 14.8496 2.07341L13.633 2.58968C13.3897 2.68756 13.1711 2.88427 13.0732 3.15489C12.9762 3.40054 12.9762 3.69513 13.0732 3.94079L13.4629 4.89846C12.7576 5.41473 12.1493 6.02887 11.6379 6.74088L10.6893 6.34743C10.1542 6.12673 9.56964 6.37238 9.35104 6.91264L8.83966 8.14092C8.62105 8.68117 8.86437 9.27133 9.39951 9.49203L10.5192 9.95838C10.6409 10.0073 10.7872 9.95838 10.8357 9.83555C10.8842 9.71273 10.8357 9.56494 10.7141 9.51601L9.59436 9.04965C9.32631 8.92682 9.1809 8.60727 9.30257 8.33764L9.81394 7.10936C9.86242 6.96158 9.98408 6.8637 10.1057 6.81477C10.2521 6.76583 10.3975 6.76583 10.5192 6.81477L11.6389 7.28112C11.7358 7.33006 11.8575 7.28112 11.9307 7.18324C12.4658 6.39734 13.1226 5.70931 13.902 5.19304C13.999 5.11915 14.0484 4.99632 13.999 4.89845L13.537 3.76803C13.4886 3.62026 13.4886 3.47344 13.537 3.35062C13.5855 3.20284 13.7072 3.10496 13.8288 3.05602L15.0455 2.53975C15.1918 2.49081 15.3373 2.49081 15.4589 2.53975C15.6053 2.58869 15.7023 2.71152 15.7507 2.83434L16.2127 3.96476C16.2611 4.06263 16.359 4.13652 16.4807 4.11253C17.4055 3.91582 18.3541 3.91582 19.279 4.11253C19.4006 4.13748 19.4976 4.06359 19.547 3.96476L20.0089 2.83434C20.0574 2.68657 20.1791 2.58869 20.3007 2.53975C20.4471 2.49081 20.5925 2.49081 20.7142 2.53975L21.9308 3.05602C22.0772 3.10496 22.1742 3.22779 22.2226 3.35062C22.2711 3.47344 22.2711 3.64521 22.2226 3.76803L21.7607 4.89845C21.7122 4.99632 21.7607 5.11915 21.8576 5.19304C22.6361 5.73328 23.3176 6.39636 23.829 7.18324C23.9022 7.28112 24.0238 7.33102 24.1208 7.28112L25.2405 6.81477C25.5085 6.69194 25.8488 6.83972 25.9457 7.10936L26.4571 8.33764C26.5056 8.48542 26.5056 8.63223 26.4571 8.75506C26.4086 8.90284 26.287 9.00072 26.1653 9.04965L25.0456 9.51601C24.9487 9.56494 24.8755 9.68777 24.8992 9.78662C25.0941 10.7203 25.0941 11.678 24.8992 12.6117C24.8745 12.7345 24.9477 12.8324 25.0456 12.8823L26.1653 13.3486C26.4333 13.4715 26.5788 13.791 26.4571 14.0606L25.9457 15.2889C25.8241 15.5595 25.5075 15.7063 25.2405 15.5835L24.1208 15.1172C24.0238 15.0682 23.9022 15.1172 23.829 15.215C23.2939 16.0009 22.6371 16.689 21.8576 17.2052C21.7607 17.2791 21.7113 17.402 21.7607 17.4998L22.2226 18.6302C22.2711 18.778 22.2711 18.9248 22.2226 19.0477C22.1741 19.1954 22.0525 19.2933 21.9308 19.3423L20.7142 19.8585C20.5678 19.9075 20.4224 19.9075 20.3007 19.8585C20.1544 19.8096 20.0574 19.6868 20.0089 19.5639L19.547 18.4335C19.4985 18.3107 19.3522 18.2368 19.2305 18.3107C19.1088 18.3596 19.0356 18.5074 19.1088 18.6302L19.5708 19.7607C19.6677 20.0063 19.8626 20.227 20.1306 20.3259C20.2523 20.3748 20.3986 20.3998 20.5203 20.3998C20.642 20.3998 20.7884 20.3748 20.91 20.3259L22.1267 19.8096C22.37 19.7117 22.5886 19.515 22.6865 19.2444C22.7835 18.9987 22.7835 18.7041 22.6865 18.4585L22.2968 17.5008C23.002 16.9846 23.6104 16.3704 24.1217 15.6584L25.0703 16.0518C25.6054 16.2726 26.19 16.0269 26.4086 15.4866L26.92 14.2584C27.1386 13.7181 26.8953 13.1279 26.3601 12.9072L25.4106 12.5138C25.557 11.654 25.557 10.7693 25.4106 9.90936L26.3592 9.51592C26.6025 9.39405 26.7975 9.19741 26.8944 8.95176ZM7.30663 18.9259C7.30663 17.427 8.52326 16.2237 9.98322 16.2237C11.4432 16.2237 12.6598 17.427 12.6598 18.9259C12.6598 20.4248 11.4432 21.6281 9.98322 21.6281C8.52326 21.6281 7.30663 20.4238 7.30663 18.9259ZM3 19.4172V18.4346C3 17.9922 3.36499 17.5997 3.82692 17.5997H4.50843C4.6548 17.0106 4.87342 16.4454 5.18994 15.9291L4.70328 15.4378C4.38677 15.1182 4.38677 14.6029 4.70328 14.2834L5.38479 13.5953C5.70131 13.2758 6.23644 13.2758 6.52823 13.5953L7.01488 14.0867C7.52626 13.7671 8.08513 13.5215 8.6697 13.3986V12.7106C8.6697 12.2682 9.03469 11.8758 9.49662 11.8758H10.4699C10.9081 11.8758 11.2968 12.2442 11.2968 12.7106V13.3986C11.8804 13.5464 12.4403 13.7671 12.9517 14.0867L13.4383 13.5953C13.7548 13.2758 14.29 13.2758 14.5817 13.5953L15.2633 14.2834C15.5798 14.6029 15.5798 15.1182 15.2633 15.4378L14.7766 15.9291C15.0931 16.4454 15.3365 17.0096 15.4581 17.5997H16.1396C16.5778 17.5997 16.9665 17.9682 16.9665 18.4346V19.4172C16.9665 19.8596 16.6016 20.252 16.1396 20.252H15.4828C15.3365 20.8412 15.1178 21.4064 14.8013 21.9227L15.288 22.414C15.4344 22.5618 15.5313 22.7825 15.5313 23.0032C15.5313 23.2239 15.4581 23.4206 15.288 23.5924L14.6065 24.2804C14.29 24.6 13.7548 24.6 13.463 24.2804L12.9764 23.7891C12.465 24.1086 11.9061 24.3543 11.3216 24.4771V25.1652C11.3216 25.6075 10.9566 26 10.4946 26H9.52134C9.08316 26 8.69442 25.6315 8.69442 25.1652V24.4771C8.11083 24.3293 7.55098 24.1086 7.03961 23.7891L6.55295 24.2804C6.23644 24.6 5.70131 24.6 5.40951 24.2804L4.70331 23.5684C4.55693 23.4206 4.45998 23.1999 4.45998 22.9792C4.45998 22.7585 4.53317 22.5618 4.70331 22.39L5.18996 21.8987C4.87344 21.3824 4.63012 20.8182 4.50845 20.2281L3.82789 20.2271C3.36501 20.2271 3 19.8586 3 19.4172ZM3.48665 19.4172C3.48665 19.589 3.63303 19.7607 3.82692 19.7607H4.70328C4.82495 19.7607 4.9219 19.8346 4.94661 19.9574C5.06827 20.6205 5.33632 21.2596 5.70131 21.8248C5.7745 21.9227 5.74979 22.0455 5.6766 22.1444L5.04356 22.7835C4.9219 22.9063 4.9219 23.127 5.04356 23.2498L5.72507 23.9379C5.84673 24.0607 6.06534 24.0607 6.187 23.9379L6.82004 23.2988C6.86851 23.2498 6.91699 23.2249 6.99018 23.2249C7.03865 23.2249 7.08713 23.2498 7.13655 23.2738C7.6964 23.6423 8.32846 23.9129 8.98622 24.0357C9.10789 24.0607 9.18107 24.1586 9.18107 24.2814V25.1661C9.18107 25.3379 9.32745 25.5097 9.52134 25.5097H10.4946C10.6648 25.5097 10.8349 25.3619 10.8349 25.1661V24.2814C10.8349 24.1586 10.9081 24.0607 11.0298 24.0357C11.6866 23.9129 12.3196 23.6423 12.8794 23.2738C12.9764 23.1999 13.098 23.2249 13.196 23.2988L13.829 23.9379C13.9507 24.0607 14.1693 24.0607 14.2909 23.9379L14.9724 23.2498C15.0941 23.127 15.0941 22.9063 14.9724 22.7835L14.3394 22.1444C14.2662 22.0705 14.2424 21.9237 14.3147 21.8248C14.6797 21.2596 14.9477 20.6215 15.0694 19.9574C15.0941 19.8346 15.191 19.7607 15.3127 19.7607H16.1891C16.3592 19.7607 16.5293 19.6129 16.5293 19.4172V18.4346C16.5293 18.2628 16.383 18.091 16.1891 18.091H15.3127C15.191 18.091 15.0941 18.0172 15.0694 17.8943C14.9477 17.2313 14.6797 16.5922 14.3147 16.027C14.2415 15.9291 14.2662 15.8062 14.3394 15.7074L14.9724 15.0683C15.0941 14.9455 15.0941 14.7248 14.9724 14.602L14.2909 13.9139C14.1693 13.7911 13.9507 13.7911 13.829 13.9139L13.196 14.553C13.1228 14.6269 12.9773 14.6509 12.8794 14.578C12.3196 14.2095 11.6875 13.9389 11.0298 13.816C10.9081 13.7911 10.8349 13.6932 10.8349 13.5704V12.6856C10.8349 12.5139 10.6885 12.3421 10.4946 12.3421H9.52134C9.3512 12.3421 9.18107 12.4899 9.18107 12.6856V13.5704C9.18107 13.6932 9.10789 13.7911 8.98622 13.816C8.32944 13.9389 7.6964 14.2095 7.13655 14.578C7.0396 14.6519 6.91794 14.6269 6.82003 14.553L6.187 13.9139C6.06533 13.7911 5.84673 13.7911 5.72507 13.9139L5.04356 14.602C4.92189 14.7248 4.92189 14.9455 5.04356 15.0683L5.67659 15.7074C5.74978 15.7813 5.77355 15.9281 5.70131 16.027C5.33632 16.5922 5.06827 17.2303 4.94661 17.8943C4.92189 18.0172 4.82494 18.091 4.70328 18.091L3.82786 18.0901C3.65773 18.0901 3.4876 18.2379 3.4876 18.4336L3.48665 19.4172Z" stroke="#FFE03E" stroke-opacity="0.2" stroke-width="0.8" mask="url(#path-1-outside-1)"/>
<mask id="path-2-outside-2" maskUnits="userSpaceOnUse" x="0" y="0" width="26" height="26" fill="black">
<rect fill="white" width="26" height="26"/>
<path d="M18.5441 12.8899C17.8388 13.6019 16.8893 14.0203 15.8923 14.0203C15.7706 14.0203 15.649 13.9225 15.649 13.7747C15.649 13.6269 15.7459 13.529 15.8923 13.529C16.7687 13.529 17.5956 13.1606 18.2039 12.5464C18.8122 11.9073 19.1525 11.0725 19.1525 10.1877C19.1278 8.37026 17.6678 6.89642 15.8676 6.89642H15.8429C14.0426 6.92137 12.558 8.41929 12.5828 10.2378C12.5828 10.3856 12.4858 10.4835 12.3395 10.4835C12.2178 10.4835 12.0961 10.3856 12.0961 10.2378C12.0714 8.14976 13.7509 6.40511 15.8429 6.40511H15.8676C17.9359 6.40511 19.6143 8.09974 19.6391 10.1877C19.6391 11.1943 19.2493 12.153 18.5441 12.8899ZM24.8944 7.95176C24.9914 7.7061 24.9914 7.41151 24.8944 7.16585L24.383 5.93757C24.1891 5.37237 23.5808 5.12671 23.0457 5.34743L22.0971 5.74088C21.5857 5.02887 20.9774 4.41473 20.2722 3.89846L20.6619 2.94079C20.7588 2.69513 20.7588 2.40054 20.6619 2.15489C20.5649 1.90923 20.3701 1.68853 20.102 1.58968L18.8854 1.07341C18.6421 0.97553 18.3503 0.97553 18.1069 1.07341C17.8636 1.17129 17.645 1.368 17.5471 1.63862L17.1574 2.59628C16.3057 2.4485 15.4294 2.4485 14.5776 2.59628L14.1879 1.63862C14.091 1.39296 13.8961 1.17226 13.6281 1.07341C13.3848 0.97553 13.093 0.97553 12.8496 1.07341L11.633 1.58968C11.3897 1.68756 11.1711 1.88427 11.0732 2.15489C10.9762 2.40054 10.9762 2.69513 11.0732 2.94079L11.4629 3.89846C10.7576 4.41473 10.1493 5.02887 9.63791 5.74088L8.68933 5.34743C8.15421 5.12673 7.56964 5.37238 7.35104 5.91264L6.83966 7.14092C6.62105 7.68117 6.86437 8.27133 7.39951 8.49203L8.5192 8.95838C8.64086 9.00732 8.78725 8.95838 8.83572 8.83555C8.88419 8.71273 8.83572 8.56494 8.71405 8.51601L7.59436 8.04965C7.32631 7.92682 7.1809 7.60727 7.30257 7.33764L7.81394 6.10936C7.86242 5.96158 7.98408 5.8637 8.10574 5.81477C8.25211 5.76583 8.39753 5.76583 8.5192 5.81477L9.63889 6.28112C9.73584 6.33006 9.8575 6.28112 9.93069 6.18324C10.4658 5.39734 11.1226 4.70931 11.902 4.19304C11.999 4.11915 12.0484 3.99632 11.999 3.89845L11.537 2.76803C11.4886 2.62026 11.4886 2.47344 11.537 2.35062C11.5855 2.20284 11.7072 2.10496 11.8288 2.05602L13.0455 1.53975C13.1918 1.49081 13.3373 1.49081 13.4589 1.53975C13.6053 1.58869 13.7023 1.71152 13.7507 1.83434L14.2127 2.96476C14.2611 3.06263 14.359 3.13652 14.4807 3.11253C15.4055 2.91582 16.3541 2.91582 17.279 3.11253C17.4006 3.13748 17.4976 3.06359 17.547 2.96476L18.0089 1.83434C18.0574 1.68657 18.1791 1.58869 18.3007 1.53975C18.4471 1.49081 18.5925 1.49081 18.7142 1.53975L19.9308 2.05602C20.0772 2.10496 20.1742 2.22779 20.2226 2.35062C20.2711 2.47344 20.2711 2.64521 20.2226 2.76803L19.7607 3.89845C19.7122 3.99632 19.7607 4.11915 19.8576 4.19304C20.6361 4.73328 21.3176 5.39636 21.829 6.18324C21.9022 6.28112 22.0238 6.33102 22.1208 6.28112L23.2405 5.81477C23.5085 5.69194 23.8488 5.83972 23.9457 6.10936L24.4571 7.33764C24.5056 7.48542 24.5056 7.63223 24.4571 7.75506C24.4086 7.90284 24.287 8.00072 24.1653 8.04965L23.0456 8.51601C22.9487 8.56494 22.8755 8.68777 22.8992 8.78662C23.0941 9.72031 23.0941 10.678 22.8992 11.6117C22.8745 11.7345 22.9477 11.8324 23.0456 11.8823L24.1653 12.3486C24.4333 12.4715 24.5788 12.791 24.4571 13.0606L23.9457 14.2889C23.8241 14.5595 23.5075 14.7063 23.2405 14.5835L22.1208 14.1172C22.0238 14.0682 21.9022 14.1172 21.829 14.215C21.2939 15.0009 20.6371 15.689 19.8576 16.2052C19.7607 16.2791 19.7113 16.402 19.7607 16.4998L20.2226 17.6302C20.2711 17.778 20.2711 17.9248 20.2226 18.0477C20.1741 18.1954 20.0525 18.2933 19.9308 18.3423L18.7142 18.8585C18.5678 18.9075 18.4224 18.9075 18.3007 18.8585C18.1544 18.8096 18.0574 18.6868 18.0089 18.5639L17.547 17.4335C17.4985 17.3107 17.3522 17.2368 17.2305 17.3107C17.1088 17.3596 17.0356 17.5074 17.1088 17.6302L17.5708 18.7607C17.6677 19.0063 17.8626 19.227 18.1306 19.3259C18.2523 19.3748 18.3986 19.3998 18.5203 19.3998C18.642 19.3998 18.7884 19.3748 18.91 19.3259L20.1267 18.8096C20.37 18.7117 20.5886 18.515 20.6865 18.2444C20.7835 17.9987 20.7835 17.7041 20.6865 17.4585L20.2968 16.5008C21.002 15.9846 21.6104 15.3704 22.1217 14.6584L23.0703 15.0518C23.6054 15.2726 24.19 15.0269 24.4086 14.4866L24.92 13.2584C25.1386 12.7181 24.8953 12.1279 24.3601 11.9072L23.4106 11.5138C23.557 10.654 23.557 9.76925 23.4106 8.90936L24.3592 8.51592C24.6025 8.39405 24.7975 8.19741 24.8944 7.95176ZM5.30663 17.9259C5.30663 16.427 6.52326 15.2237 7.98322 15.2237C9.44318 15.2237 10.6598 16.427 10.6598 17.9259C10.6598 19.4248 9.44318 20.6281 7.98322 20.6281C6.52326 20.6281 5.30663 19.4238 5.30663 17.9259ZM5.79329 17.9259C5.79329 19.1542 6.79131 20.1368 7.98322 20.1368C9.17513 20.1368 10.1732 19.1292 10.1732 17.9259C10.1732 16.7226 9.17513 15.715 7.98322 15.715C6.79131 15.715 5.79329 16.6976 5.79329 17.9259ZM1 18.4172V17.4346C1 16.9922 1.36499 16.5997 1.82692 16.5997H2.50843C2.6548 16.0106 2.87342 15.4454 3.18994 14.9291L2.70328 14.4378C2.38677 14.1182 2.38677 13.6029 2.70328 13.2834L3.38479 12.5953C3.70131 12.2758 4.23644 12.2758 4.52823 12.5953L5.01488 13.0867C5.52626 12.7671 6.08513 12.5215 6.6697 12.3986V11.7106C6.6697 11.2682 7.03469 10.8758 7.49662 10.8758H8.46992C8.90811 10.8758 9.29684 11.2442 9.29684 11.7106V12.3986C9.88044 12.5464 10.4403 12.7671 10.9517 13.0867L11.4383 12.5953C11.7548 12.2758 12.29 12.2758 12.5817 12.5953L13.2633 13.2834C13.5798 13.6029 13.5798 14.1182 13.2633 14.4378L12.7766 14.9291C13.0931 15.4454 13.3365 16.0096 13.4581 16.5997H14.1396C14.5778 16.5997 14.9665 16.9682 14.9665 17.4346V18.4172C14.9665 18.8596 14.6016 19.252 14.1396 19.252H13.4828C13.3365 19.8412 13.1178 20.4064 12.8013 20.9227L13.288 21.414C13.4344 21.5618 13.5313 21.7825 13.5313 22.0032C13.5313 22.2239 13.4581 22.4206 13.288 22.5924L12.6065 23.2804C12.29 23.6 11.7548 23.6 11.463 23.2804L10.9764 22.7891C10.465 23.1086 9.90613 23.3543 9.32157 23.4771V24.1652C9.32157 24.6075 8.95658 25 8.49465 25H7.52134C7.08316 25 6.69442 24.6315 6.69442 24.1652V23.4771C6.11083 23.3293 5.55098 23.1086 5.03961 22.7891L4.55295 23.2804C4.23644 23.6 3.70131 23.6 3.40951 23.2804L2.70331 22.5684C2.55693 22.4206 2.45998 22.1999 2.45998 21.9792C2.45998 21.7585 2.53317 21.5618 2.70331 21.39L3.18996 20.8987C2.87344 20.3824 2.63012 19.8182 2.50845 19.2281L1.82789 19.2271C1.36501 19.2271 1 18.8586 1 18.4172ZM1.48665 18.4172C1.48665 18.589 1.63303 18.7607 1.82692 18.7607H2.70328C2.82495 18.7607 2.9219 18.8346 2.94661 18.9574C3.06827 19.6205 3.33632 20.2596 3.70131 20.8248C3.7745 20.9227 3.74979 21.0455 3.6766 21.1444L3.04356 21.7835C2.9219 21.9063 2.9219 22.127 3.04356 22.2498L3.72507 22.9379C3.84673 23.0607 4.06534 23.0607 4.187 22.9379L4.82004 22.2988C4.86851 22.2498 4.91699 22.2249 4.99018 22.2249C5.03865 22.2249 5.08713 22.2498 5.13655 22.2738C5.6964 22.6423 6.32846 22.9129 6.98622 23.0357C7.10789 23.0607 7.18107 23.1586 7.18107 23.2814V24.1661C7.18107 24.3379 7.32745 24.5097 7.52134 24.5097H8.49465C8.66478 24.5097 8.83491 24.3619 8.83491 24.1661V23.2814C8.83491 23.1586 8.9081 23.0607 9.02977 23.0357C9.68655 22.9129 10.3196 22.6423 10.8794 22.2738C10.9764 22.1999 11.098 22.2249 11.196 22.2988L11.829 22.9379C11.9507 23.0607 12.1693 23.0607 12.2909 22.9379L12.9724 22.2498C13.0941 22.127 13.0941 21.9063 12.9724 21.7835L12.3394 21.1444C12.2662 21.0705 12.2424 20.9237 12.3147 20.8248C12.6797 20.2596 12.9477 19.6215 13.0694 18.9574C13.0941 18.8346 13.191 18.7607 13.3127 18.7607H14.1891C14.3592 18.7607 14.5293 18.6129 14.5293 18.4172V17.4346C14.5293 17.2628 14.383 17.091 14.1891 17.091H13.3127C13.191 17.091 13.0941 17.0172 13.0694 16.8943C12.9477 16.2313 12.6797 15.5922 12.3147 15.027C12.2415 14.9291 12.2662 14.8062 12.3394 14.7074L12.9724 14.0683C13.0941 13.9455 13.0941 13.7248 12.9724 13.602L12.2909 12.9139C12.1693 12.7911 11.9507 12.7911 11.829 12.9139L11.196 13.553C11.1228 13.6269 10.9773 13.6509 10.8794 13.578C10.3196 13.2095 9.68752 12.9389 9.02977 12.816C8.9081 12.7911 8.83491 12.6932 8.83491 12.5704V11.6856C8.83491 11.5139 8.68854 11.3421 8.49465 11.3421H7.52134C7.3512 11.3421 7.18107 11.4899 7.18107 11.6856V12.5704C7.18107 12.6932 7.10789 12.7911 6.98622 12.816C6.32944 12.9389 5.6964 13.2095 5.13655 13.578C5.0396 13.6519 4.91794 13.6269 4.82003 13.553L4.187 12.9139C4.06533 12.7911 3.84673 12.7911 3.72507 12.9139L3.04356 13.602C2.92189 13.7248 2.92189 13.9455 3.04356 14.0683L3.67659 14.7074C3.74978 14.7813 3.77355 14.9281 3.70131 15.027C3.33632 15.5922 3.06827 16.2303 2.94661 16.8943C2.92189 17.0172 2.82494 17.091 2.70328 17.091L1.82786 17.0901C1.65773 17.0901 1.4876 17.2379 1.4876 17.4336L1.48665 18.4172Z"/>
</mask>
<path d="M18.5441 12.8899C17.8388 13.6019 16.8893 14.0203 15.8923 14.0203C15.7706 14.0203 15.649 13.9225 15.649 13.7747C15.649 13.6269 15.7459 13.529 15.8923 13.529C16.7687 13.529 17.5956 13.1606 18.2039 12.5464C18.8122 11.9073 19.1525 11.0725 19.1525 10.1877C19.1278 8.37026 17.6678 6.89642 15.8676 6.89642H15.8429C14.0426 6.92137 12.558 8.41929 12.5828 10.2378C12.5828 10.3856 12.4858 10.4835 12.3395 10.4835C12.2178 10.4835 12.0961 10.3856 12.0961 10.2378C12.0714 8.14976 13.7509 6.40511 15.8429 6.40511H15.8676C17.9359 6.40511 19.6143 8.09974 19.6391 10.1877C19.6391 11.1943 19.2493 12.153 18.5441 12.8899ZM24.8944 7.95176C24.9914 7.7061 24.9914 7.41151 24.8944 7.16585L24.383 5.93757C24.1891 5.37237 23.5808 5.12671 23.0457 5.34743L22.0971 5.74088C21.5857 5.02887 20.9774 4.41473 20.2722 3.89846L20.6619 2.94079C20.7588 2.69513 20.7588 2.40054 20.6619 2.15489C20.5649 1.90923 20.3701 1.68853 20.102 1.58968L18.8854 1.07341C18.6421 0.97553 18.3503 0.97553 18.1069 1.07341C17.8636 1.17129 17.645 1.368 17.5471 1.63862L17.1574 2.59628C16.3057 2.4485 15.4294 2.4485 14.5776 2.59628L14.1879 1.63862C14.091 1.39296 13.8961 1.17226 13.6281 1.07341C13.3848 0.97553 13.093 0.97553 12.8496 1.07341L11.633 1.58968C11.3897 1.68756 11.1711 1.88427 11.0732 2.15489C10.9762 2.40054 10.9762 2.69513 11.0732 2.94079L11.4629 3.89846C10.7576 4.41473 10.1493 5.02887 9.63791 5.74088L8.68933 5.34743C8.15421 5.12673 7.56964 5.37238 7.35104 5.91264L6.83966 7.14092C6.62105 7.68117 6.86437 8.27133 7.39951 8.49203L8.5192 8.95838C8.64086 9.00732 8.78725 8.95838 8.83572 8.83555C8.88419 8.71273 8.83572 8.56494 8.71405 8.51601L7.59436 8.04965C7.32631 7.92682 7.1809 7.60727 7.30257 7.33764L7.81394 6.10936C7.86242 5.96158 7.98408 5.8637 8.10574 5.81477C8.25211 5.76583 8.39753 5.76583 8.5192 5.81477L9.63889 6.28112C9.73584 6.33006 9.8575 6.28112 9.93069 6.18324C10.4658 5.39734 11.1226 4.70931 11.902 4.19304C11.999 4.11915 12.0484 3.99632 11.999 3.89845L11.537 2.76803C11.4886 2.62026 11.4886 2.47344 11.537 2.35062C11.5855 2.20284 11.7072 2.10496 11.8288 2.05602L13.0455 1.53975C13.1918 1.49081 13.3373 1.49081 13.4589 1.53975C13.6053 1.58869 13.7023 1.71152 13.7507 1.83434L14.2127 2.96476C14.2611 3.06263 14.359 3.13652 14.4807 3.11253C15.4055 2.91582 16.3541 2.91582 17.279 3.11253C17.4006 3.13748 17.4976 3.06359 17.547 2.96476L18.0089 1.83434C18.0574 1.68657 18.1791 1.58869 18.3007 1.53975C18.4471 1.49081 18.5925 1.49081 18.7142 1.53975L19.9308 2.05602C20.0772 2.10496 20.1742 2.22779 20.2226 2.35062C20.2711 2.47344 20.2711 2.64521 20.2226 2.76803L19.7607 3.89845C19.7122 3.99632 19.7607 4.11915 19.8576 4.19304C20.6361 4.73328 21.3176 5.39636 21.829 6.18324C21.9022 6.28112 22.0238 6.33102 22.1208 6.28112L23.2405 5.81477C23.5085 5.69194 23.8488 5.83972 23.9457 6.10936L24.4571 7.33764C24.5056 7.48542 24.5056 7.63223 24.4571 7.75506C24.4086 7.90284 24.287 8.00072 24.1653 8.04965L23.0456 8.51601C22.9487 8.56494 22.8755 8.68777 22.8992 8.78662C23.0941 9.72031 23.0941 10.678 22.8992 11.6117C22.8745 11.7345 22.9477 11.8324 23.0456 11.8823L24.1653 12.3486C24.4333 12.4715 24.5788 12.791 24.4571 13.0606L23.9457 14.2889C23.8241 14.5595 23.5075 14.7063 23.2405 14.5835L22.1208 14.1172C22.0238 14.0682 21.9022 14.1172 21.829 14.215C21.2939 15.0009 20.6371 15.689 19.8576 16.2052C19.7607 16.2791 19.7113 16.402 19.7607 16.4998L20.2226 17.6302C20.2711 17.778 20.2711 17.9248 20.2226 18.0477C20.1741 18.1954 20.0525 18.2933 19.9308 18.3423L18.7142 18.8585C18.5678 18.9075 18.4224 18.9075 18.3007 18.8585C18.1544 18.8096 18.0574 18.6868 18.0089 18.5639L17.547 17.4335C17.4985 17.3107 17.3522 17.2368 17.2305 17.3107C17.1088 17.3596 17.0356 17.5074 17.1088 17.6302L17.5708 18.7607C17.6677 19.0063 17.8626 19.227 18.1306 19.3259C18.2523 19.3748 18.3986 19.3998 18.5203 19.3998C18.642 19.3998 18.7884 19.3748 18.91 19.3259L20.1267 18.8096C20.37 18.7117 20.5886 18.515 20.6865 18.2444C20.7835 17.9987 20.7835 17.7041 20.6865 17.4585L20.2968 16.5008C21.002 15.9846 21.6104 15.3704 22.1217 14.6584L23.0703 15.0518C23.6054 15.2726 24.19 15.0269 24.4086 14.4866L24.92 13.2584C25.1386 12.7181 24.8953 12.1279 24.3601 11.9072L23.4106 11.5138C23.557 10.654 23.557 9.76925 23.4106 8.90936L24.3592 8.51592C24.6025 8.39405 24.7975 8.19741 24.8944 7.95176ZM5.30663 17.9259C5.30663 16.427 6.52326 15.2237 7.98322 15.2237C9.44318 15.2237 10.6598 16.427 10.6598 17.9259C10.6598 19.4248 9.44318 20.6281 7.98322 20.6281C6.52326 20.6281 5.30663 19.4238 5.30663 17.9259ZM5.79329 17.9259C5.79329 19.1542 6.79131 20.1368 7.98322 20.1368C9.17513 20.1368 10.1732 19.1292 10.1732 17.9259C10.1732 16.7226 9.17513 15.715 7.98322 15.715C6.79131 15.715 5.79329 16.6976 5.79329 17.9259ZM1 18.4172V17.4346C1 16.9922 1.36499 16.5997 1.82692 16.5997H2.50843C2.6548 16.0106 2.87342 15.4454 3.18994 14.9291L2.70328 14.4378C2.38677 14.1182 2.38677 13.6029 2.70328 13.2834L3.38479 12.5953C3.70131 12.2758 4.23644 12.2758 4.52823 12.5953L5.01488 13.0867C5.52626 12.7671 6.08513 12.5215 6.6697 12.3986V11.7106C6.6697 11.2682 7.03469 10.8758 7.49662 10.8758H8.46992C8.90811 10.8758 9.29684 11.2442 9.29684 11.7106V12.3986C9.88044 12.5464 10.4403 12.7671 10.9517 13.0867L11.4383 12.5953C11.7548 12.2758 12.29 12.2758 12.5817 12.5953L13.2633 13.2834C13.5798 13.6029 13.5798 14.1182 13.2633 14.4378L12.7766 14.9291C13.0931 15.4454 13.3365 16.0096 13.4581 16.5997H14.1396C14.5778 16.5997 14.9665 16.9682 14.9665 17.4346V18.4172C14.9665 18.8596 14.6016 19.252 14.1396 19.252H13.4828C13.3365 19.8412 13.1178 20.4064 12.8013 20.9227L13.288 21.414C13.4344 21.5618 13.5313 21.7825 13.5313 22.0032C13.5313 22.2239 13.4581 22.4206 13.288 22.5924L12.6065 23.2804C12.29 23.6 11.7548 23.6 11.463 23.2804L10.9764 22.7891C10.465 23.1086 9.90613 23.3543 9.32157 23.4771V24.1652C9.32157 24.6075 8.95658 25 8.49465 25H7.52134C7.08316 25 6.69442 24.6315 6.69442 24.1652V23.4771C6.11083 23.3293 5.55098 23.1086 5.03961 22.7891L4.55295 23.2804C4.23644 23.6 3.70131 23.6 3.40951 23.2804L2.70331 22.5684C2.55693 22.4206 2.45998 22.1999 2.45998 21.9792C2.45998 21.7585 2.53317 21.5618 2.70331 21.39L3.18996 20.8987C2.87344 20.3824 2.63012 19.8182 2.50845 19.2281L1.82789 19.2271C1.36501 19.2271 1 18.8586 1 18.4172ZM1.48665 18.4172C1.48665 18.589 1.63303 18.7607 1.82692 18.7607H2.70328C2.82495 18.7607 2.9219 18.8346 2.94661 18.9574C3.06827 19.6205 3.33632 20.2596 3.70131 20.8248C3.7745 20.9227 3.74979 21.0455 3.6766 21.1444L3.04356 21.7835C2.9219 21.9063 2.9219 22.127 3.04356 22.2498L3.72507 22.9379C3.84673 23.0607 4.06534 23.0607 4.187 22.9379L4.82004 22.2988C4.86851 22.2498 4.91699 22.2249 4.99018 22.2249C5.03865 22.2249 5.08713 22.2498 5.13655 22.2738C5.6964 22.6423 6.32846 22.9129 6.98622 23.0357C7.10789 23.0607 7.18107 23.1586 7.18107 23.2814V24.1661C7.18107 24.3379 7.32745 24.5097 7.52134 24.5097H8.49465C8.66478 24.5097 8.83491 24.3619 8.83491 24.1661V23.2814C8.83491 23.1586 8.9081 23.0607 9.02977 23.0357C9.68655 22.9129 10.3196 22.6423 10.8794 22.2738C10.9764 22.1999 11.098 22.2249 11.196 22.2988L11.829 22.9379C11.9507 23.0607 12.1693 23.0607 12.2909 22.9379L12.9724 22.2498C13.0941 22.127 13.0941 21.9063 12.9724 21.7835L12.3394 21.1444C12.2662 21.0705 12.2424 20.9237 12.3147 20.8248C12.6797 20.2596 12.9477 19.6215 13.0694 18.9574C13.0941 18.8346 13.191 18.7607 13.3127 18.7607H14.1891C14.3592 18.7607 14.5293 18.6129 14.5293 18.4172V17.4346C14.5293 17.2628 14.383 17.091 14.1891 17.091H13.3127C13.191 17.091 13.0941 17.0172 13.0694 16.8943C12.9477 16.2313 12.6797 15.5922 12.3147 15.027C12.2415 14.9291 12.2662 14.8062 12.3394 14.7074L12.9724 14.0683C13.0941 13.9455 13.0941 13.7248 12.9724 13.602L12.2909 12.9139C12.1693 12.7911 11.9507 12.7911 11.829 12.9139L11.196 13.553C11.1228 13.6269 10.9773 13.6509 10.8794 13.578C10.3196 13.2095 9.68752 12.9389 9.02977 12.816C8.9081 12.7911 8.83491 12.6932 8.83491 12.5704V11.6856C8.83491 11.5139 8.68854 11.3421 8.49465 11.3421H7.52134C7.3512 11.3421 7.18107 11.4899 7.18107 11.6856V12.5704C7.18107 12.6932 7.10789 12.7911 6.98622 12.816C6.32944 12.9389 5.6964 13.2095 5.13655 13.578C5.0396 13.6519 4.91794 13.6269 4.82003 13.553L4.187 12.9139C4.06533 12.7911 3.84673 12.7911 3.72507 12.9139L3.04356 13.602C2.92189 13.7248 2.92189 13.9455 3.04356 14.0683L3.67659 14.7074C3.74978 14.7813 3.77355 14.9281 3.70131 15.027C3.33632 15.5922 3.06827 16.2303 2.94661 16.8943C2.92189 17.0172 2.82494 17.091 2.70328 17.091L1.82786 17.0901C1.65773 17.0901 1.4876 17.2379 1.4876 17.4336L1.48665 18.4172Z" fill="#FFE03E"/>
<path d="M18.5441 12.8899C17.8388 13.6019 16.8893 14.0203 15.8923 14.0203C15.7706 14.0203 15.649 13.9225 15.649 13.7747C15.649 13.6269 15.7459 13.529 15.8923 13.529C16.7687 13.529 17.5956 13.1606 18.2039 12.5464C18.8122 11.9073 19.1525 11.0725 19.1525 10.1877C19.1278 8.37026 17.6678 6.89642 15.8676 6.89642H15.8429C14.0426 6.92137 12.558 8.41929 12.5828 10.2378C12.5828 10.3856 12.4858 10.4835 12.3395 10.4835C12.2178 10.4835 12.0961 10.3856 12.0961 10.2378C12.0714 8.14976 13.7509 6.40511 15.8429 6.40511H15.8676C17.9359 6.40511 19.6143 8.09974 19.6391 10.1877C19.6391 11.1943 19.2493 12.153 18.5441 12.8899ZM24.8944 7.95176C24.9914 7.7061 24.9914 7.41151 24.8944 7.16585L24.383 5.93757C24.1891 5.37237 23.5808 5.12671 23.0457 5.34743L22.0971 5.74088C21.5857 5.02887 20.9774 4.41473 20.2722 3.89846L20.6619 2.94079C20.7588 2.69513 20.7588 2.40054 20.6619 2.15489C20.5649 1.90923 20.3701 1.68853 20.102 1.58968L18.8854 1.07341C18.6421 0.97553 18.3503 0.97553 18.1069 1.07341C17.8636 1.17129 17.645 1.368 17.5471 1.63862L17.1574 2.59628C16.3057 2.4485 15.4294 2.4485 14.5776 2.59628L14.1879 1.63862C14.091 1.39296 13.8961 1.17226 13.6281 1.07341C13.3848 0.97553 13.093 0.97553 12.8496 1.07341L11.633 1.58968C11.3897 1.68756 11.1711 1.88427 11.0732 2.15489C10.9762 2.40054 10.9762 2.69513 11.0732 2.94079L11.4629 3.89846C10.7576 4.41473 10.1493 5.02887 9.63791 5.74088L8.68933 5.34743C8.15421 5.12673 7.56964 5.37238 7.35104 5.91264L6.83966 7.14092C6.62105 7.68117 6.86437 8.27133 7.39951 8.49203L8.5192 8.95838C8.64086 9.00732 8.78725 8.95838 8.83572 8.83555C8.88419 8.71273 8.83572 8.56494 8.71405 8.51601L7.59436 8.04965C7.32631 7.92682 7.1809 7.60727 7.30257 7.33764L7.81394 6.10936C7.86242 5.96158 7.98408 5.8637 8.10574 5.81477C8.25211 5.76583 8.39753 5.76583 8.5192 5.81477L9.63889 6.28112C9.73584 6.33006 9.8575 6.28112 9.93069 6.18324C10.4658 5.39734 11.1226 4.70931 11.902 4.19304C11.999 4.11915 12.0484 3.99632 11.999 3.89845L11.537 2.76803C11.4886 2.62026 11.4886 2.47344 11.537 2.35062C11.5855 2.20284 11.7072 2.10496 11.8288 2.05602L13.0455 1.53975C13.1918 1.49081 13.3373 1.49081 13.4589 1.53975C13.6053 1.58869 13.7023 1.71152 13.7507 1.83434L14.2127 2.96476C14.2611 3.06263 14.359 3.13652 14.4807 3.11253C15.4055 2.91582 16.3541 2.91582 17.279 3.11253C17.4006 3.13748 17.4976 3.06359 17.547 2.96476L18.0089 1.83434C18.0574 1.68657 18.1791 1.58869 18.3007 1.53975C18.4471 1.49081 18.5925 1.49081 18.7142 1.53975L19.9308 2.05602C20.0772 2.10496 20.1742 2.22779 20.2226 2.35062C20.2711 2.47344 20.2711 2.64521 20.2226 2.76803L19.7607 3.89845C19.7122 3.99632 19.7607 4.11915 19.8576 4.19304C20.6361 4.73328 21.3176 5.39636 21.829 6.18324C21.9022 6.28112 22.0238 6.33102 22.1208 6.28112L23.2405 5.81477C23.5085 5.69194 23.8488 5.83972 23.9457 6.10936L24.4571 7.33764C24.5056 7.48542 24.5056 7.63223 24.4571 7.75506C24.4086 7.90284 24.287 8.00072 24.1653 8.04965L23.0456 8.51601C22.9487 8.56494 22.8755 8.68777 22.8992 8.78662C23.0941 9.72031 23.0941 10.678 22.8992 11.6117C22.8745 11.7345 22.9477 11.8324 23.0456 11.8823L24.1653 12.3486C24.4333 12.4715 24.5788 12.791 24.4571 13.0606L23.9457 14.2889C23.8241 14.5595 23.5075 14.7063 23.2405 14.5835L22.1208 14.1172C22.0238 14.0682 21.9022 14.1172 21.829 14.215C21.2939 15.0009 20.6371 15.689 19.8576 16.2052C19.7607 16.2791 19.7113 16.402 19.7607 16.4998L20.2226 17.6302C20.2711 17.778 20.2711 17.9248 20.2226 18.0477C20.1741 18.1954 20.0525 18.2933 19.9308 18.3423L18.7142 18.8585C18.5678 18.9075 18.4224 18.9075 18.3007 18.8585C18.1544 18.8096 18.0574 18.6868 18.0089 18.5639L17.547 17.4335C17.4985 17.3107 17.3522 17.2368 17.2305 17.3107C17.1088 17.3596 17.0356 17.5074 17.1088 17.6302L17.5708 18.7607C17.6677 19.0063 17.8626 19.227 18.1306 19.3259C18.2523 19.3748 18.3986 19.3998 18.5203 19.3998C18.642 19.3998 18.7884 19.3748 18.91 19.3259L20.1267 18.8096C20.37 18.7117 20.5886 18.515 20.6865 18.2444C20.7835 17.9987 20.7835 17.7041 20.6865 17.4585L20.2968 16.5008C21.002 15.9846 21.6104 15.3704 22.1217 14.6584L23.0703 15.0518C23.6054 15.2726 24.19 15.0269 24.4086 14.4866L24.92 13.2584C25.1386 12.7181 24.8953 12.1279 24.3601 11.9072L23.4106 11.5138C23.557 10.654 23.557 9.76925 23.4106 8.90936L24.3592 8.51592C24.6025 8.39405 24.7975 8.19741 24.8944 7.95176ZM5.30663 17.9259C5.30663 16.427 6.52326 15.2237 7.98322 15.2237C9.44318 15.2237 10.6598 16.427 10.6598 17.9259C10.6598 19.4248 9.44318 20.6281 7.98322 20.6281C6.52326 20.6281 5.30663 19.4238 5.30663 17.9259ZM5.79329 17.9259C5.79329 19.1542 6.79131 20.1368 7.98322 20.1368C9.17513 20.1368 10.1732 19.1292 10.1732 17.9259C10.1732 16.7226 9.17513 15.715 7.98322 15.715C6.79131 15.715 5.79329 16.6976 5.79329 17.9259ZM1 18.4172V17.4346C1 16.9922 1.36499 16.5997 1.82692 16.5997H2.50843C2.6548 16.0106 2.87342 15.4454 3.18994 14.9291L2.70328 14.4378C2.38677 14.1182 2.38677 13.6029 2.70328 13.2834L3.38479 12.5953C3.70131 12.2758 4.23644 12.2758 4.52823 12.5953L5.01488 13.0867C5.52626 12.7671 6.08513 12.5215 6.6697 12.3986V11.7106C6.6697 11.2682 7.03469 10.8758 7.49662 10.8758H8.46992C8.90811 10.8758 9.29684 11.2442 9.29684 11.7106V12.3986C9.88044 12.5464 10.4403 12.7671 10.9517 13.0867L11.4383 12.5953C11.7548 12.2758 12.29 12.2758 12.5817 12.5953L13.2633 13.2834C13.5798 13.6029 13.5798 14.1182 13.2633 14.4378L12.7766 14.9291C13.0931 15.4454 13.3365 16.0096 13.4581 16.5997H14.1396C14.5778 16.5997 14.9665 16.9682 14.9665 17.4346V18.4172C14.9665 18.8596 14.6016 19.252 14.1396 19.252H13.4828C13.3365 19.8412 13.1178 20.4064 12.8013 20.9227L13.288 21.414C13.4344 21.5618 13.5313 21.7825 13.5313 22.0032C13.5313 22.2239 13.4581 22.4206 13.288 22.5924L12.6065 23.2804C12.29 23.6 11.7548 23.6 11.463 23.2804L10.9764 22.7891C10.465 23.1086 9.90613 23.3543 9.32157 23.4771V24.1652C9.32157 24.6075 8.95658 25 8.49465 25H7.52134C7.08316 25 6.69442 24.6315 6.69442 24.1652V23.4771C6.11083 23.3293 5.55098 23.1086 5.03961 22.7891L4.55295 23.2804C4.23644 23.6 3.70131 23.6 3.40951 23.2804L2.70331 22.5684C2.55693 22.4206 2.45998 22.1999 2.45998 21.9792C2.45998 21.7585 2.53317 21.5618 2.70331 21.39L3.18996 20.8987C2.87344 20.3824 2.63012 19.8182 2.50845 19.2281L1.82789 19.2271C1.36501 19.2271 1 18.8586 1 18.4172ZM1.48665 18.4172C1.48665 18.589 1.63303 18.7607 1.82692 18.7607H2.70328C2.82495 18.7607 2.9219 18.8346 2.94661 18.9574C3.06827 19.6205 3.33632 20.2596 3.70131 20.8248C3.7745 20.9227 3.74979 21.0455 3.6766 21.1444L3.04356 21.7835C2.9219 21.9063 2.9219 22.127 3.04356 22.2498L3.72507 22.9379C3.84673 23.0607 4.06534 23.0607 4.187 22.9379L4.82004 22.2988C4.86851 22.2498 4.91699 22.2249 4.99018 22.2249C5.03865 22.2249 5.08713 22.2498 5.13655 22.2738C5.6964 22.6423 6.32846 22.9129 6.98622 23.0357C7.10789 23.0607 7.18107 23.1586 7.18107 23.2814V24.1661C7.18107 24.3379 7.32745 24.5097 7.52134 24.5097H8.49465C8.66478 24.5097 8.83491 24.3619 8.83491 24.1661V23.2814C8.83491 23.1586 8.9081 23.0607 9.02977 23.0357C9.68655 22.9129 10.3196 22.6423 10.8794 22.2738C10.9764 22.1999 11.098 22.2249 11.196 22.2988L11.829 22.9379C11.9507 23.0607 12.1693 23.0607 12.2909 22.9379L12.9724 22.2498C13.0941 22.127 13.0941 21.9063 12.9724 21.7835L12.3394 21.1444C12.2662 21.0705 12.2424 20.9237 12.3147 20.8248C12.6797 20.2596 12.9477 19.6215 13.0694 18.9574C13.0941 18.8346 13.191 18.7607 13.3127 18.7607H14.1891C14.3592 18.7607 14.5293 18.6129 14.5293 18.4172V17.4346C14.5293 17.2628 14.383 17.091 14.1891 17.091H13.3127C13.191 17.091 13.0941 17.0172 13.0694 16.8943C12.9477 16.2313 12.6797 15.5922 12.3147 15.027C12.2415 14.9291 12.2662 14.8062 12.3394 14.7074L12.9724 14.0683C13.0941 13.9455 13.0941 13.7248 12.9724 13.602L12.2909 12.9139C12.1693 12.7911 11.9507 12.7911 11.829 12.9139L11.196 13.553C11.1228 13.6269 10.9773 13.6509 10.8794 13.578C10.3196 13.2095 9.68752 12.9389 9.02977 12.816C8.9081 12.7911 8.83491 12.6932 8.83491 12.5704V11.6856C8.83491 11.5139 8.68854 11.3421 8.49465 11.3421H7.52134C7.3512 11.3421 7.18107 11.4899 7.18107 11.6856V12.5704C7.18107 12.6932 7.10789 12.7911 6.98622 12.816C6.32944 12.9389 5.6964 13.2095 5.13655 13.578C5.0396 13.6519 4.91794 13.6269 4.82003 13.553L4.187 12.9139C4.06533 12.7911 3.84673 12.7911 3.72507 12.9139L3.04356 13.602C2.92189 13.7248 2.92189 13.9455 3.04356 14.0683L3.67659 14.7074C3.74978 14.7813 3.77355 14.9281 3.70131 15.027C3.33632 15.5922 3.06827 16.2303 2.94661 16.8943C2.92189 17.0172 2.82494 17.091 2.70328 17.091L1.82786 17.0901C1.65773 17.0901 1.4876 17.2379 1.4876 17.4336L1.48665 18.4172Z" stroke="#FFE03E" stroke-width="0.8" mask="url(#path-2-outside-2)"/>
</svg>
