<svg width="28" height="19" viewBox="0 0 28 19" fill="none" xmlns="http://www.w3.org/2000/svg">
<rect width="28" height="19" fill="black" fill-opacity="0"/>
<rect width="28" height="19" fill="black" fill-opacity="0"/>
<path d="M4.85546 18.9993C6.18543 18.9967 7.33832 18.0293 7.63552 16.6661H22.3643C22.6875 18.1543 24.0225 19.1516 25.4651 18.981C26.909 18.8092 28 17.5267 28 15.9995C28 14.4723 26.909 13.1898 25.4651 13.018C24.0225 12.8474 22.6875 13.8447 22.3643 15.3329H12.8105C12.9281 15.1519 13.0272 14.9579 13.104 14.7535L16.4424 5.72953C16.6765 5.08764 17.2647 4.66451 17.9198 4.66711H22.3643C22.6875 6.15526 24.0225 7.15259 25.4651 6.98203C26.909 6.81017 28 5.52771 28 4.00049C28 2.47328 26.909 1.19081 25.4651 1.01895C24.0224 0.848394 22.6875 1.84572 22.3643 3.33388H17.9198C16.7409 3.32867 15.6821 4.09032 15.2598 5.2465L11.9226 14.2705C11.6886 14.9137 11.1004 15.3355 10.4453 15.3329H7.63548C7.39153 14.2093 6.5569 13.3317 5.48822 13.0753C4.41953 12.8188 3.30503 13.2289 2.62269 14.1299C1.93914 15.0309 1.80663 16.2638 2.28339 17.3028C2.75891 18.3405 3.75951 19.0006 4.85546 18.9993Z" fill="#60D957" fill-opacity="0.2"/>
<path d="M2.85546 17.9993C4.18543 17.9967 5.33832 17.0293 5.63552 15.6661H20.3643C20.6875 17.1543 22.0225 18.1516 23.4651 17.981C24.909 17.8092 26 16.5267 26 14.9995C26 13.4723 24.909 12.1898 23.4651 12.018C22.0225 11.8474 20.6875 12.8447 20.3643 14.3329H10.8105C10.9281 14.1519 11.0272 13.9579 11.104 13.7535L14.4424 4.72953C14.6765 4.08764 15.2647 3.66451 15.9198 3.66711H20.3643C20.6875 5.15526 22.0225 6.15259 23.4651 5.98203C24.909 5.81017 26 4.52771 26 3.00049C26 1.47328 24.909 0.190808 23.4651 0.018954C22.0224 -0.151606 20.6875 0.845724 20.3643 2.33388H15.9198C14.7409 2.32867 13.6821 3.09032 13.2598 4.2465L9.92263 13.2705C9.68859 13.9137 9.10036 14.3355 8.44528 14.3329H5.63548C5.39153 13.2093 4.5569 12.3317 3.48822 12.0753C2.41953 11.8188 1.30503 12.2289 0.62269 13.1299C-0.0608568 14.0309 -0.193369 15.2638 0.28339 16.3028C0.758911 17.3405 1.75947 18.0006 2.85542 17.9993H2.85546ZM23.1444 13.333C23.7858 13.333 24.3629 13.7392 24.6094 14.3615C24.8545 14.9839 24.7183 15.7013 24.2651 16.1778C23.8119 16.6543 23.1296 16.7975 22.5376 16.5397C21.9457 16.2806 21.5594 15.6739 21.5594 14.9995C21.5606 14.079 22.2689 13.3342 23.1444 13.3329L23.1444 13.333ZM23.1444 1.33389C23.7858 1.33389 24.3629 1.74012 24.6094 2.36244C24.8545 2.98479 24.7183 3.70217 24.2651 4.1787C23.8119 4.65523 23.1296 4.79846 22.5376 4.54064C21.9457 4.28155 21.5594 3.67481 21.5594 3.00039C21.5606 2.0799 22.2689 1.33515 23.1444 1.33385L23.1444 1.33389ZM2.85546 13.333C3.49691 13.333 4.074 13.7392 4.32042 14.3615C4.56561 14.9839 4.42939 15.7013 3.97617 16.1778C3.52294 16.6543 2.84063 16.7975 2.2487 16.5397C1.65677 16.2806 1.27042 15.6739 1.27042 14.9995C1.27166 14.079 1.97999 13.3342 2.85549 13.3329L2.85546 13.333Z" fill="#60D957"/>
</svg>
