<svg width="28" height="26" viewBox="0 0 28 26" fill="none" xmlns="http://www.w3.org/2000/svg">
<rect width="27.625" height="26" fill="black" fill-opacity="0"/>
<path fill-rule="evenodd" clip-rule="evenodd" d="M13.8112 0C6.18487 0 0 5.96755 0 13.3294C0 19.2184 3.95733 24.2139 9.44604 25.9764C10.1371 26.0991 10.3889 25.6875 10.3889 25.334C10.3889 25.0182 10.3771 24.1795 10.3703 23.0675C6.52828 23.8726 5.71765 21.2804 5.71765 21.2804C5.08933 19.7404 4.18373 19.3305 4.18373 19.3305C2.92963 18.5041 4.2787 18.5204 4.2787 18.5204C5.66508 18.6145 6.39431 19.8943 6.39431 19.8943C7.62636 21.9309 9.6275 21.3426 10.4144 21.0014C10.5399 20.1406 10.8969 19.5531 11.2912 19.22C8.22416 18.8837 4.99945 17.7398 4.99945 12.6322C4.99945 11.1774 5.53789 9.98682 6.42144 9.05565C6.27899 8.71853 5.80499 7.36267 6.55711 5.52814C6.55711 5.52814 7.71624 5.16975 10.355 6.89463C11.4565 6.59842 12.6385 6.45114 13.8129 6.44541C14.9865 6.45114 16.1677 6.59842 17.2708 6.89463C19.9079 5.16975 21.0653 5.52814 21.0653 5.52814C21.8192 7.36267 21.3452 8.71853 21.2036 9.05565C22.0888 9.98682 22.623 11.1774 22.623 12.6322C22.623 17.7529 19.3932 18.8796 16.3169 19.2094C16.8121 19.621 17.2539 20.4343 17.2539 21.6781C17.2539 23.4594 17.2369 24.8971 17.2369 25.334C17.2369 25.6908 17.4862 26.1057 18.1866 25.9756C23.6711 24.2089 27.625 19.2168 27.625 13.3294C27.625 5.96755 21.4401 0 13.8112 0Z" fill="white"/>
</svg>
