<svg width="22" height="25" viewBox="0 0 22 25" fill="none" xmlns="http://www.w3.org/2000/svg">
<path d="M4.89803 25H18.9282C20.5255 25 21.8261 23.7177 21.8261 22.1429V7.86285C21.8261 7.70628 21.7612 7.55542 21.6453 7.44799L14.9083 1.15657C14.8005 1.056 14.658 1 14.5096 1H4.89785C3.30056 1 2 2.28227 2 3.85712V22.1427C2 23.7176 3.30073 25 4.89803 25Z" fill="#60D957" fill-opacity="0.2"/>
<path d="M2.89803 24H16.9282C18.5255 24 19.8261 22.7177 19.8261 21.1429V6.86285C19.8261 6.70628 19.7612 6.55542 19.6453 6.44799L12.9083 0.156572C12.8005 0.0560008 12.658 0 12.5096 0H2.89785C1.30056 0 0 1.28227 0 2.85712V21.1427C0 22.7176 1.30056 23.9998 2.89785 23.9998L2.89803 24ZM13.1795 1.98414L17.7535 6.25624H13.759C13.4391 6.25624 13.1795 6.00024 13.1795 5.68482L13.1795 1.98414ZM1.15912 2.85728C1.15912 1.91214 1.93923 1.143 2.89785 1.143H12.0203V5.68456C12.0203 6.6297 12.8004 7.39884 13.759 7.39884H18.6668V21.1429C18.6668 22.088 17.8867 22.8572 16.9281 22.8572H2.89785C1.93923 22.8572 1.15912 22.088 1.15912 21.1429V2.85728Z" fill="#60D957"/>
<path fill-rule="evenodd" clip-rule="evenodd" d="M9.36962 19.424C9.34063 19.424 9.3105 19.4218 9.28152 19.4172C8.96507 19.3703 8.74715 19.0789 8.79584 18.7668L9.88544 11.6858C9.93298 11.3738 10.2286 11.1589 10.545 11.207C10.8614 11.2538 11.0782 11.5453 11.0307 11.8572L9.94224 18.9383C9.89817 19.2206 9.65129 19.424 9.36962 19.424ZM12.0914 17.8742C12.2003 17.9645 12.3325 18.0079 12.4634 18.0079C12.6292 18.0079 12.7926 17.9382 12.9074 17.8033L14.7157 15.6788C14.8965 15.4662 14.8965 15.1565 14.7157 14.9439L12.9074 12.8194C12.7011 12.5771 12.3359 12.5462 12.0914 12.7485C11.8456 12.952 11.8143 13.312 12.0195 13.5531L13.5148 15.3096L12.0195 17.0662C11.8143 17.3108 11.8468 17.6708 12.0914 17.8742ZM6.91798 17.8033C7.03273 17.9382 7.19733 18.0079 7.36193 18.0079C7.49291 18.0079 7.62621 17.9645 7.73401 17.8742C7.97975 17.6708 8.01105 17.3108 7.80588 17.0696L6.31057 15.3131L7.80588 13.5565C8.01221 13.3143 7.97975 12.9543 7.73401 12.752C7.48828 12.5485 7.12314 12.5806 6.91798 12.8228L5.10969 14.9474C4.92887 15.16 4.92887 15.4697 5.10969 15.6823L6.91798 17.8033Z" fill="#60D957"/>
</svg>
