<svg width="22" height="25" viewBox="0 0 22 25" fill="none" xmlns="http://www.w3.org/2000/svg">
<rect width="22" height="25" fill="black" fill-opacity="0"/>
<rect width="20" height="24" fill="black" fill-opacity="0" transform="translate(2 1)"/>
<path d="M21.0555 19.7339H19.6223V15.2006C19.6223 10.9002 16.2023 7.40021 12.0003 7.40021C7.79827 7.40021 4.3783 10.9002 4.3783 15.2006V19.7339H2.94513C2.58661 19.7339 2.29402 20.0343 2.29402 20.4002V24.3337C2.29402 24.7006 2.58754 25 2.94513 25H21.0879C21.4464 25 21.739 24.6996 21.739 24.3337V20.4002C21.7065 20.0333 21.414 19.7339 21.0555 19.7339ZM20.4042 23.6673H3.59607V21.0674H20.4356L20.4365 23.6673H20.4042Z" fill="#1FB6FF" fill-opacity="0.2"/>
<path d="M12.0004 4.73288C12.3589 4.73288 12.6515 4.4325 12.6515 4.06653V1.66635C12.6515 1.29944 12.3579 1 12.0004 1C11.6418 1 11.3492 1.30038 11.3492 1.66635V4.06653C11.3492 4.4325 11.6418 4.73288 12.0004 4.73288Z" fill="#1FB6FF" fill-opacity="0.2"/>
<path d="M7.24479 5.16652C7.40733 5.50017 7.79836 5.63325 8.09187 5.53343C8.41789 5.40035 8.58044 5.00016 8.4504 4.66652L7.5383 2.43268C7.40827 2.09903 7.01723 1.93268 6.69121 2.06577C6.3652 2.19885 6.20265 2.59903 6.33269 2.93268L7.24479 5.16652Z" fill="#1FB6FF" fill-opacity="0.2"/>
<path d="M4.76951 7.79953C5.03052 7.53241 5.03052 7.13318 4.76951 6.86608L3.10784 5.16647C2.84683 4.89935 2.45673 4.89935 2.19575 5.16647C1.93476 5.43358 1.93474 5.83282 2.19575 6.09991L3.85649 7.79953C4.08498 8.03337 4.54103 8.03337 4.76951 7.79953Z" fill="#1FB6FF" fill-opacity="0.2"/>
<path d="M15.909 5.53325C16.235 5.66633 16.5926 5.49998 16.7561 5.16633L17.6682 2.9325C17.7982 2.59885 17.6356 2.19867 17.3096 2.06558C16.9836 1.9325 16.5926 2.09885 16.4625 2.4325L15.5505 4.66633C15.4204 4.99998 15.5839 5.39921 15.909 5.53325Z" fill="#1FB6FF" fill-opacity="0.2"/>
<path d="M21.8049 5.16653C21.5439 4.89941 21.1538 4.89941 20.8928 5.16653L19.2321 6.86614C18.9711 7.13326 18.9711 7.56576 19.2321 7.79959C19.4596 8.03248 19.9157 7.99921 20.1442 7.79959L21.8049 6.09997C22.065 5.83285 22.065 5.43267 21.8049 5.16653Z" fill="#1FB6FF" fill-opacity="0.2"/>
<rect width="20" height="24" fill="black" fill-opacity="0"/>
<path d="M19.0555 18.7339H17.6223V14.2006C17.6223 9.90023 14.2023 6.40021 10.0003 6.40021C5.79827 6.40021 2.3783 9.90023 2.3783 14.2006V18.7339H0.945131C0.586608 18.7339 0.294022 19.0343 0.294022 19.4002V23.3337C0.294022 23.7006 0.587536 24 0.945131 24H19.0879C19.4464 24 19.739 23.6996 19.739 23.3337V19.4002C19.7065 19.0333 19.4139 18.7339 19.0554 18.7339H19.0555ZM3.71397 13.6996H6.38518C6.7437 13.6996 7.03629 13.3992 7.03629 13.0332C7.03629 12.6663 6.74277 12.3669 6.38518 12.3669H3.94248C4.72455 9.66623 7.13489 7.69952 10.0011 7.69952C13.486 7.69952 16.3198 10.5997 16.3198 14.1662V18.6994L3.68139 18.7004V16.3335H5.08205C5.44058 16.3335 5.73316 16.0331 5.73316 15.6671C5.73316 15.3002 5.43965 15.0008 5.08205 15.0008H3.68139C3.68139 15.0331 3.64889 13.9998 3.7139 13.6994L3.71397 13.6996ZM18.4042 22.6673H1.59607V20.0674H18.4356L18.4365 22.6673H18.4042Z" fill="#1FB6FF"/>
<path d="M10.0004 3.73288C10.3589 3.73288 10.6515 3.4325 10.6515 3.06653V0.666351C10.6515 0.299436 10.3579 0 10.0004 0C9.64183 0 9.34924 0.300385 9.34924 0.666351V3.06653C9.34924 3.4325 9.64183 3.73288 10.0004 3.73288Z" fill="#1FB6FF"/>
<path d="M5.24479 4.16652C5.40733 4.50017 5.79836 4.63325 6.09187 4.53343C6.41789 4.40035 6.58044 4.00016 6.4504 3.66652L5.5383 1.43268C5.40827 1.09903 5.01723 0.932682 4.69121 1.06577C4.3652 1.19885 4.20265 1.59903 4.33269 1.93268L5.24479 4.16652Z" fill="#1FB6FF"/>
<path d="M2.76951 6.79953C3.03052 6.53241 3.03052 6.13318 2.76951 5.86608L1.10784 4.16647C0.846834 3.89935 0.456734 3.89935 0.195748 4.16647C-0.0652376 4.43358 -0.0652614 4.83282 0.195748 5.09991L1.85649 6.79953C2.08498 7.03337 2.54103 7.03337 2.76951 6.79953Z" fill="#1FB6FF"/>
<path d="M13.909 4.53325C14.235 4.66633 14.5926 4.49998 14.7561 4.16633L15.6682 1.9325C15.7982 1.59885 15.6356 1.19867 15.3096 1.06558C14.9836 0.932499 14.5926 1.09885 14.4625 1.4325L13.5505 3.66633C13.4204 3.99998 13.5839 4.39921 13.909 4.53325Z" fill="#1FB6FF"/>
<path d="M19.8049 4.16653C19.5439 3.89941 19.1538 3.89941 18.8928 4.16653L17.2321 5.86614C16.9711 6.13326 16.9711 6.56576 17.2321 6.79959C17.4596 7.03248 17.9157 6.99921 18.1442 6.79959L19.8049 5.09997C20.065 4.83285 20.065 4.43267 19.8049 4.16653Z" fill="#1FB6FF"/>
</svg>
