<svg width="139" height="40" viewBox="0 0 139 40" fill="none" xmlns="http://www.w3.org/2000/svg">
<rect width="139" height="40.0002" fill="black" fill-opacity="0"/>
<path fill-rule="evenodd" clip-rule="evenodd" d="M131.818 36.0823C131.741 36.3236 131.617 36.493 131.447 36.5881L131.397 36.6126C131.212 36.688 131.014 36.6772 130.781 36.6202C130.028 36.4347 126.536 36.043 127.933 31.9727L128.761 29.558L128.573 29.0888L127.665 26.935L121.978 13.7486C121.854 13.4748 121.899 13.2256 122.011 13.0558C122.126 12.8788 122.33 12.7893 122.619 12.7841L125.854 12.7841C126.076 12.7841 126.265 12.8439 126.409 12.9555C126.554 13.0675 126.66 13.2384 126.75 13.4492L130.925 23.1954L133.919 13.4765C133.983 13.2437 134.097 13.067 134.25 12.9498C134.4 12.8351 134.591 12.7781 134.815 12.7781L138.27 12.7781C138.563 12.7781 138.772 12.8611 138.894 13.0161C139.017 13.177 139.033 13.4098 138.942 13.7093L134.296 28.2639L132.503 33.9113L131.818 36.0823ZM118.193 22.9806L121.726 22.9806C122.272 22.9806 122.593 23.3278 122.4 23.8645C121.404 27.1473 118.257 29.4203 114.499 29.4203C109.617 29.4203 105.989 25.7899 105.989 21.0865C105.989 16.3832 109.617 12.7532 114.499 12.7532C118.257 12.7532 121.404 15.0258 122.4 18.3086C122.593 18.8453 122.272 19.1928 121.726 19.1928L118.193 19.1928C117.775 19.1928 117.486 19.0034 117.229 18.6562C116.651 17.8671 115.656 17.4248 114.499 17.4248C112.412 17.4248 110.806 18.9087 110.806 21.0865C110.806 23.2648 112.412 24.7483 114.499 24.7483C115.656 24.7483 116.651 24.3064 117.229 23.549C117.486 23.1701 117.743 22.9806 118.193 22.9806ZM100.892 13.6065L100.892 14.4289C101.291 13.7329 102.203 12.7447 104.581 12.7765C104.754 12.7785 104.892 12.8431 104.995 12.9474C105.144 13.1004 105.216 13.3071 105.216 13.5744L105.216 17.4324C105.216 17.6941 105.161 17.8904 105.044 18.0212C104.933 18.1517 104.767 18.2175 104.551 18.2175C104.08 18.201 103.631 18.25 103.192 18.3644C102.76 18.4784 102.366 18.6751 102.022 18.942C101.679 19.2145 101.403 19.5806 101.202 20.0265C100.998 20.4793 100.895 21.0291 100.892 21.6834L100.869 25.7979C100.846 30.095 97.5115 29.444 96.7332 29.3998C96.4677 29.385 96.2615 29.3292 96.1178 29.1875C95.9736 29.0458 95.9013 28.8439 95.9013 28.5826L95.9013 13.6065C95.9013 13.3452 95.9736 13.1433 96.1178 13.0016C96.2619 12.8599 96.4673 12.7893 96.7332 12.7893L100.06 12.7893C100.326 12.7893 100.531 12.8599 100.675 13.0016C100.82 13.1433 100.892 13.3448 100.892 13.6065ZM86.4785 12.7608C87.6526 12.766 88.7303 12.9755 89.7124 13.3902C90.6937 13.8044 91.5423 14.3864 92.2684 15.1313C92.9884 15.8815 93.5487 16.7569 93.9436 17.7639C94.3385 18.771 94.5414 19.8724 94.5468 21.0681C94.5468 21.2728 94.5414 21.4719 94.5251 21.6609C94.5145 21.8548 94.4986 22.0438 94.4826 22.2325C94.4508 22.4841 94.3544 22.6676 94.2053 22.7832C94.0559 22.8988 93.8582 22.9561 93.6181 22.9561L82.9248 22.9561C83.1274 23.5751 83.4104 24.0784 83.7836 24.4665C84.1573 24.8494 84.5951 25.1276 85.0855 25.3058C85.5821 25.484 86.1101 25.5679 86.6708 25.5679C87.1241 25.5627 87.5615 25.4944 87.9781 25.3532C88.3889 25.2115 88.7462 25.0224 89.0398 24.7812C89.1946 24.6556 89.3494 24.5556 89.4988 24.4822C89.6536 24.4091 89.8296 24.3722 90.0322 24.3722L93.106 24.3409C93.3996 24.3461 93.6128 24.43 93.741 24.5926C93.8635 24.7551 93.8688 24.965 93.7463 25.2219C93.3249 26.1346 92.7642 26.9001 92.0655 27.5138C91.3663 28.1327 90.5553 28.5939 89.632 28.909C88.709 29.218 87.7008 29.3758 86.6067 29.3758C85.2726 29.3701 84.072 29.1554 83.0049 28.7356C81.9325 28.3161 81.0198 27.7341 80.2622 26.9787C79.499 26.229 78.9175 25.3475 78.5119 24.3461C78.1064 23.3391 77.9035 22.2481 77.8982 21.0681C77.9035 19.888 78.1117 18.7971 78.5279 17.7904C78.944 16.7886 79.5308 15.9076 80.2941 15.1574C81.052 14.4024 81.959 13.82 83.0049 13.4006C84.0507 12.9812 85.2085 12.766 86.4785 12.7608ZM64.0151 14.4755C64.6705 13.9356 65.3982 13.5162 66.1676 13.2288C66.9688 12.9302 67.8162 12.7744 68.675 12.7744C70.8006 12.7744 72.8788 13.7084 74.2722 15.218C75.6635 16.7256 76.5244 18.8079 76.5244 21.1062C76.5244 23.4045 75.6635 25.4864 74.2722 26.994C72.8788 28.5032 70.8006 29.4376 68.675 29.4376C67.1183 29.4376 65.4848 28.9563 64.3467 27.8838L64.3499 32.9946C64.3528 37.2917 60.9923 36.6403 60.2139 36.5965C59.9493 36.5817 59.7423 36.5251 59.5985 36.3838C59.4548 36.2425 59.3825 36.0398 59.3825 35.7789L59.3719 13.629C59.3719 13.3625 59.4458 13.1525 59.594 13.0072C59.7418 12.8615 59.9542 12.7889 60.2266 12.7889L63.1493 12.7889C63.4217 12.7889 63.6341 12.8615 63.7819 13.0072C63.9301 13.1525 64.0008 13.3605 64.004 13.629L64.0151 14.4755ZM72.3234 21.0621C72.3234 19.0351 70.6626 17.3919 68.6138 17.3919C66.5645 17.3919 64.9037 19.0351 64.9037 21.0621C64.9037 23.0894 66.5645 24.7326 68.6138 24.7326C70.6626 24.7326 72.3234 23.0894 72.3234 21.0621ZM84.1896 17.5701C83.5864 17.9791 83.1596 18.5824 82.9089 19.3691L89.7655 19.3691C89.5948 18.7762 89.3388 18.299 88.9969 17.9426C88.6613 17.591 88.2664 17.3341 87.8233 17.1767C87.3802 17.0194 86.9216 16.9407 86.4466 16.9459C85.5445 16.9512 84.787 17.1559 84.1896 17.5701Z" fill="white"/>
<path fill-rule="evenodd" clip-rule="evenodd" d="M50.4418 9.75053C50.2329 9.04179 49.5837 8.55693 48.8262 8.54399C48.6007 8.54008 48.3791 8.57939 48.1677 8.66093C47.6265 8.86943 46.7838 9.10966 45.7353 9.1392C43.6444 7.60429 38.5742 3.89653 35.564 1.81328C35.564 1.81328 35.9693 3.02788 36.5185 5.29301C36.5185 5.29301 31.7485 2.5645 28.5777 0.476605C28.5777 0.476605 29.7336 2.87748 29.8191 3.64995C29.8191 3.64995 26.0164 2.94413 20.4602 1.67363C20.4602 1.67363 24.5684 4.00078 25.5659 5.37675C25.5659 5.37675 20.5815 4.96269 14.7098 4.5352C14.7098 4.5352 17.6627 6.05375 19.0949 7.26396C19.0949 7.26396 13.7535 7.93583 9.69139 8.05937C9.69139 8.05937 12.6608 10.4026 13.8559 11.533C13.8559 11.533 8.7534 13.3953 2.64034 16.7142C2.64034 16.7142 5.82673 16.9226 8.11331 17.6758C8.11331 17.6758 5.29753 20.0127 0.244891 25.3953C0.244891 25.3953 3.42896 25.3357 6.00234 25.0415C6.00234 25.0415 3.93786 28.0379 1.34094 33.4397C1.34094 33.4397 3.07454 32.4124 4.74198 32.0581C4.74198 32.0581 4.81121 38.1727 8.24771 39.2107L8.25064 39.2066C8.41892 39.2613 8.58007 39.2825 8.72026 39.285C8.88896 39.2876 9.06571 39.2654 9.24575 39.2188C10.3473 38.9341 11.1955 37.9017 12.1776 36.7066C12.5026 36.3111 12.8366 35.9053 13.1913 35.5096C13.5834 34.993 14.0915 34.4563 14.7005 33.9876C15.956 33.021 17.6861 32.3084 19.7733 32.6729C22.0359 32.9483 23.4068 35.1731 24.5117 36.9664C25.3575 38.3392 26.0256 39.4236 26.9831 39.5425C27.0503 39.5511 27.1175 39.556 27.1829 39.5569C28.6491 39.5821 29.194 37.9344 29.8839 35.8487L30.0248 35.4231C30.0316 35.4366 30.0384 35.45 30.0452 35.4637C30.5581 33.771 31.5293 31.9541 32.7062 30.3211C34.3028 28.1058 36.3435 26.138 38.2836 25.2417L38.289 25.2535C39.343 24.6866 40.4504 24.1531 41.5424 23.6272L41.5443 23.6263C44.9355 21.9927 48.1387 20.4495 49.7745 18.0533C50.5928 16.8545 51.0142 15.3738 51.027 13.6521C51.0386 12.1077 50.7152 10.678 50.4418 9.75053ZM36.2857 27.7735C35.3074 28.6387 34.3475 29.7164 33.4997 30.8929C32.1058 32.8269 31.0677 34.9544 30.739 36.7298C31.6598 38.2576 32.4982 39.0149 33.2935 39.0411L33.3184 39.0418C34.0488 39.0542 34.5388 38.5874 34.7752 37.6548C34.9519 36.9581 35.004 35.9976 35.0645 34.8853C35.1744 32.8597 35.3167 30.2498 36.2857 27.7735ZM13.7147 36.5096L13.7028 36.48C14.0521 35.9444 14.5884 35.3081 15.2971 34.7625C16.3086 33.9839 17.6338 33.4183 19.2216 33.5831C19.036 34.0435 18.8228 34.5528 18.5945 35.0623C17.813 36.8062 16.8833 38.607 15.9126 38.7383C15.8551 38.7459 15.7965 38.7496 15.7387 38.7486C14.9804 38.7354 14.3183 38.0032 13.7147 36.5096ZM33.1795 8.06205L28.9922 5.36381L35.9302 7.89091L33.1795 8.06205ZM21.5163 9.06132L28.1928 10.8362L31.1338 9.94682L21.5163 9.06132ZM33.4154 12.5191L34.8651 11.4944L29.3108 12.3008L33.4154 12.5191ZM23.9257 12.357L21.6055 13.8047L15.2591 13.1102L23.9257 12.357ZM31.0225 16.1954L33.3716 14.9756L24.705 15.729L31.0225 16.1954ZM24.5889 17.4842L22.9212 20.0354L14.7706 21.8177L24.5889 17.4842ZM14.4203 18.8985L8.08908 21.4673L15.8974 16.2466L14.4203 18.8985ZM10.9263 22.0491L10.6306 24.7222L6.94486 29.0386L10.9263 22.0491Z" fill="white"/>
</svg>
