<svg width="106" height="84" viewBox="0 0 106 84" fill="none" xmlns="http://www.w3.org/2000/svg">
<rect width="105.028" height="84.0001" fill="black" fill-opacity="0"/>
<path d="M46.0791 84.0001C22.9146 84.0001 4.13635 82.7479 4.13635 81.2035C4.13635 79.6592 22.9146 78.4072 46.0791 78.4072C69.2436 78.4072 88.022 79.6592 88.022 81.2035C88.022 82.7479 69.2436 84.0001 46.0791 84.0001Z" fill="#390156" fill-opacity="0.2"/>
<rect width="105.028" height="81.8038" fill="black" fill-opacity="0"/>
<path d="M103.673 18.8806C103.215 17.4136 101.855 16.4278 100.288 16.4278C99.8212 16.4278 99.3646 16.5175 98.9304 16.6945C97.8188 17.1474 96.085 17.6775 93.9177 17.7761C89.5374 14.6576 78.9157 7.12438 72.6138 2.89789C72.6138 2.89789 73.4966 5.40989 74.7159 10.1029C74.7159 10.1029 64.7511 4.5965 58.117 0.365723C58.117 0.365723 60.5959 5.31889 60.8011 6.92273C60.8011 6.92273 52.9112 5.59011 41.3744 3.14465C41.3744 3.14465 49.9559 7.83972 52.0693 10.6665C52.0693 10.6665 41.7463 9.9822 29.5881 9.3019C29.5881 9.3019 35.7506 12.3561 38.757 14.8227C38.757 14.8227 27.7358 16.4099 19.34 16.8117C19.34 16.8117 25.567 21.5803 28.0801 23.8897C28.0801 23.8897 17.597 27.945 5.07762 35.0669C5.07762 35.0669 11.6747 35.387 16.431 36.8726C16.431 36.8726 10.6942 41.8344 0.443848 53.2112C0.443848 53.2112 7.02622 52.9738 12.3371 52.2703C12.3371 52.2703 8.17822 58.5773 3.00695 69.907C3.00695 69.907 6.55414 67.708 9.98929 66.9118C9.98929 66.9118 10.3578 79.6293 17.5027 81.6667L17.5086 81.6579C17.8586 81.7658 18.1927 81.8038 18.4827 81.8038C18.8316 81.8038 19.1963 81.7514 19.5669 81.6478C21.8344 81.0164 23.5504 78.8386 25.5374 76.3173C26.2701 75.3877 27.0255 74.4301 27.8383 73.5051C28.0642 74.196 28.3572 75.0205 28.7088 75.8527C30.012 78.9384 31.4081 80.4384 32.9769 80.4384C33.0964 80.4384 33.2174 80.4291 33.3361 80.4109C35.3386 80.1032 37.1949 76.3243 38.7467 72.6685C39.5378 70.8053 40.2337 68.9446 40.7071 67.6264C40.763 67.6299 40.8181 67.6317 40.874 67.6359C45.6937 68.0042 48.6655 72.67 51.0535 76.4191C52.8532 79.2449 54.2749 81.4769 56.2593 81.6906C56.3986 81.7058 56.5377 81.7133 56.6729 81.7133C59.706 81.7133 60.772 78.2664 62.1218 73.9028C62.2115 73.6125 62.3034 73.3153 62.3977 73.0128C62.6717 73.5394 62.9699 74.0899 63.2877 74.6431C65.5057 78.5036 67.4693 80.3941 69.2906 80.4228L69.3421 80.4233C70.8529 80.4233 71.8491 79.435 72.3037 77.4863C72.6434 76.0307 72.7158 74.0306 72.7997 71.7145C72.9931 66.3721 73.2594 59.0776 76.991 52.8084C79.7501 51.1169 82.7938 49.5761 85.7811 48.0642C92.7354 44.5445 99.3043 41.2201 102.599 36.1762C104.247 33.6536 105.064 30.5584 105.027 26.9759C104.994 23.7627 104.273 20.8 103.673 18.8806Z" fill="#2B023F"/>
<path d="M39.5568 67.5844C34.5597 67.5844 31.27 69.859 28.6387 72.6273C29.3338 74.8842 31.0805 79.7366 33.1761 79.4145C35.2185 79.1004 38.2439 71.4121 39.6297 67.5857C39.6058 67.5854 39.5808 67.5844 39.5568 67.5844ZM71.1516 57.1603C66.4967 61.6167 64.314 67.0929 62.8413 71.6178C64.3712 74.7146 67.0479 79.3787 69.307 79.4145C73.8545 79.486 69.4235 65.6239 75.1979 53.9595C73.7124 54.9617 72.342 56.021 71.1516 57.1603Z" fill="#9E66BF"/>
<path d="M88.5117 22.5401C86.1152 21.9205 83.8128 22.7516 83.3685 24.3965C82.9245 26.0417 84.5071 27.8774 86.9033 28.4969C89.2998 29.1168 91.6022 28.2855 92.0465 26.6405C92.4905 24.9956 90.9079 23.1596 88.5117 22.5401ZM103.233 32.4505C102.88 33.5514 102.391 34.6227 101.731 35.6327C96.0225 44.3715 79.034 48.2043 70.4312 56.4397C59.8766 66.5437 61.7444 81.2673 56.372 80.6884C52.5909 80.2808 49.7546 67.3026 40.9539 66.6301C27.6687 65.6154 24.7522 79.1549 19.2848 80.678C13.8173 82.2012 14.61 68.4714 17.434 62.3926C19.9276 57.0243 24.4009 49.4986 31.2383 51.2254C35.7626 52.368 30.5084 59.7954 30.5084 59.7954C30.5084 59.7954 40.0767 60.4023 45.9782 51.7968C49.8975 46.0814 62.8822 26.5304 75.8973 43.4422C75.8973 43.4422 70.7984 29.2483 74.1061 22.344C76.8204 16.6785 83.0669 16.7914 88.7517 18.2324C93.4125 19.4138 97.1058 18.5296 99.3261 17.625C99.7598 17.4483 100.213 17.4009 100.643 17.4616C99.8231 17.5 98.5627 17.9262 97.8336 19.9862C96.7449 23.0618 102.666 20.6978 103.932 25.5186C103.932 25.5186 104.322 32.8361 98.1326 31.9373L98.3742 30.3503C98.3742 30.3503 96.3815 31.6048 97.8058 34.084L98.034 32.5856C99.2807 33.0236 101.043 33.2369 103.233 32.4505ZM103.933 25.5186H103.932V25.5184L103.933 25.5186Z" fill="#D6B5E5"/>
<path d="M71.1516 57.1607C66.4568 61.6551 64.2769 67.1865 62.804 71.7336C63.6282 73.3801 65.345 76.0161 65.345 76.0161C65.2551 66.8911 73.059 56.2997 74.4621 54.4697C73.2596 55.3204 72.1424 56.2122 71.1516 57.1607ZM28.521 72.7519C28.9792 74.0672 29.9014 76.0161 29.9014 76.0161C29.9014 76.0161 32.694 68.8637 39.4799 67.586C34.452 67.6102 31.1583 69.9422 28.521 72.7519Z" fill="#5C007B"/>
<path d="M19.2848 80.6783C24.7522 79.1551 27.6687 65.6156 40.954 66.6304C49.7546 67.3029 52.5909 80.281 56.372 80.6886C56.372 80.6886 54.334 76.6146 52.6922 71.4724C51.0503 66.3304 45.4554 61.1885 40.3719 61.1885C35.2882 61.1885 29.5279 63.8668 26.3127 70.5789C21.4696 80.6886 19.2848 80.6783 19.2848 80.6783Z" fill="#C393DB"/>
<path d="M38.7569 14.8225C35.0072 15.3127 24.7265 16.301 18.8125 16.5841C18.8125 16.5841 20.1582 17.4383 21.3192 18.3455C29.2034 17.7922 39.4378 15.2772 38.7569 14.8225ZM28.0798 23.8895C24.5707 25.3514 14.7074 29.169 4.5475 35.2214C4.5475 35.2214 5.88957 35.1062 7.14666 35.2214C18.4079 29.0589 28.4908 24.2408 28.0798 23.8895ZM52.0692 10.6663C48.2516 10.4213 37.5376 9.60388 29.0644 9.1295C29.0644 9.1295 31.2311 10.1163 33.2335 11.243C43.411 11.8326 52.8866 11.3272 52.0692 10.6663ZM16.4309 36.8724C12.4338 39.8797 6.66195 45.8101 -1.10178e-10 53.4847C-1.10178e-10 53.4847 0.76517 53.1994 1.32199 53.1739C10.5841 43.0261 16.7315 36.9543 16.4309 36.8724ZM93.7363 17.644C93.7363 17.644 80.3717 8.09128 72.2863 2.66853C72.2863 2.66853 72.9451 3.8416 73.4803 5.64482C81.0177 10.7656 93.7363 17.644 93.7363 17.644ZM12.337 52.2701C9.75611 55.331 6.29907 62.1847 3.00685 69.9067C3.00685 69.9067 3.05244 69.8788 3.13408 69.8299C7.91775 59.6178 12.4681 52.2532 12.337 52.2701ZM74.7158 10.1027C71.7712 8.45349 62.9866 3.28405 57.8369 -7.10038e-10C57.8369 -7.10038e-10 58.8357 1.80246 59.5313 3.37857C65.9769 7.35023 74.9205 10.8377 74.7158 10.1027ZM46.1175 5.96568C43.6327 4.38075 40.8533 2.92915 40.8533 2.92915C49.6516 4.79387 58.1267 6.44938 60.801 6.92249C61.1039 7.69984 54.6238 7.69001 46.1175 5.96568Z" fill="#9E66BF"/>
<path d="M59.1541 10.5171L67.9128 15.9821L73.5953 15.5282L59.1541 10.5171Z" fill="#5C007B"/>
<path d="M73.5949 15.5277L59.1543 10.5176L65.8611 13.6953C68.2637 14.8338 70.8868 15.4581 73.5555 15.5267L73.5949 15.5277Z" fill="#9E66BF"/>
<path d="M43.8307 18.4756L57.7019 21.9293L63.7525 19.9745L43.8307 18.4756Z" fill="#5C007B"/>
<path d="M63.752 19.9751L43.8306 18.4751L56.0759 20.4606C57.7798 20.7071 59.5105 20.7232 61.2188 20.5082L63.752 19.9751Z" fill="#9E66BF"/>
<path d="M71.525 23.061L68.5647 25.2458L60.068 24.9372L71.525 23.061Z" fill="#5C007B"/>
<path d="M71.5252 23.062L60.0687 24.9373L64.7308 24.7977C66.3366 24.7495 67.9226 24.4335 69.42 23.8633L71.5252 23.062Z" fill="#9E66BF"/>
<path d="M48.935 25.2461L44.1906 28.3407L31.0394 27.1202L48.935 25.2461Z" fill="#5C007B"/>
<path d="M48.9345 25.2451L31.0399 27.1204L41.0291 26.9636C43.3689 26.9268 45.683 26.483 47.8636 25.6527L48.9345 25.2451Z" fill="#9E66BF"/>
<path d="M68.5649 30.3579L63.7524 32.9785L50.6713 32.232L68.5649 30.3579Z" fill="#5C007B"/>
<path d="M68.565 30.3569L50.6704 32.2325L60.8275 32.0729C63.0563 32.0379 65.2607 31.615 67.338 30.8242L68.565 30.3569Z" fill="#9E66BF"/>
<path d="M50.4953 35.8877L47.1411 41.2539L30.3516 45.2523L50.4953 35.8877Z" fill="#5C007B"/>
<path d="M30.351 45.2519L50.4952 35.8877L47.9045 37.8931C46.3691 39.0815 44.6533 40.0277 42.819 40.6977L30.351 45.2519Z" fill="#9E66BF"/>
<path d="M16.5203 44.7619L29.5194 39.192L32.4757 33.6221L16.5203 44.7619Z" fill="#5C007B"/>
<path d="M16.5205 44.761L32.4755 33.6226L32.4312 33.6878C30.7816 36.1295 28.5603 38.1505 25.9516 39.5827L16.5205 44.761Z" fill="#9E66BF"/>
<path d="M22.4088 45.8696L21.8967 51.4416L14.4341 60.5519L22.4088 45.8696Z" fill="#5C007B"/>
<path d="M14.4335 60.5519L22.4094 45.8701C21.9762 48.4237 20.997 50.8591 19.5357 53.0169L14.4335 60.5519Z" fill="#9E66BF"/>
<path d="M87.9263 24.3954C87.9152 25.0042 87.3262 25.4878 86.6107 25.4752C85.8953 25.4631 85.324 24.9593 85.3351 24.3506C85.3462 23.7416 85.9352 23.2579 86.6507 23.2703C87.3661 23.2829 87.9374 23.7865 87.9263 24.3954Z" fill="white"/>
</svg>
