<svg width="26" height="25" viewBox="0 0 26 25" fill="none" xmlns="http://www.w3.org/2000/svg">
<rect width="26" height="25" fill="black" fill-opacity="0"/>
<rect width="24" height="24" fill="black" fill-opacity="0" transform="translate(2 1)"/>
<rect width="24" height="24" fill="black" fill-opacity="0" transform="translate(2 1)"/>
<path d="M16.8712 19.2521C14.5336 19.2521 12.196 18.3614 10.4168 16.5819C10.1474 16.3135 10.1474 15.877 10.4168 15.6086C10.6852 15.3392 11.1215 15.3392 11.3899 15.6086C14.4126 18.6317 19.331 18.6317 22.3536 15.6086C23.8392 14.1219 24.6462 12.1453 24.6237 10.0428C24.6162 9.3483 24.5158 8.6575 24.3253 7.99016C24.2211 7.62412 24.4332 7.24398 24.7982 7.13886C25.1642 7.03468 25.5452 7.2468 25.6494 7.61192C25.8737 8.39844 25.991 9.21031 25.9994 10.0279C26.0266 12.5039 25.077 14.8315 23.3268 16.5819C21.5475 18.3614 19.2089 19.2521 16.8714 19.2521H16.8712ZM8.75576 13.1392C8.45547 13.1392 8.18051 12.9421 8.09417 12.639C7.18389 9.44979 8.07353 6.01264 10.4168 3.66995C13.9761 0.110017 19.7673 0.110017 23.3267 3.66995C23.5951 3.93838 23.5951 4.37482 23.3267 4.64326C23.0573 4.91169 22.6219 4.91169 22.3535 4.64326C19.3308 1.6201 14.4125 1.6201 11.3898 4.64326C9.40034 6.63303 8.64485 9.5521 9.41723 12.2617C9.52234 12.6268 9.31025 13.0079 8.94425 13.1121C8.88325 13.1299 8.81944 13.1393 8.75563 13.1393L8.75576 13.1392Z" fill="#FFE03E" fill-opacity="0.2"/>
<path d="M16.8712 16.3998C15.1933 16.3998 13.6177 15.7484 12.4333 14.5639C11.25 13.3804 10.5978 11.8046 10.5978 10.1253C10.5978 8.44712 11.25 6.87124 12.4333 5.68668C13.6176 4.50313 15.1932 3.85083 16.8712 3.85083C18.5493 3.85083 20.1257 4.50313 21.3091 5.68668C22.4934 6.87117 23.1447 8.44697 23.1447 10.1253C23.1447 11.8044 22.4934 13.3803 21.3091 14.5639C20.1258 15.7484 18.5493 16.3998 16.8712 16.3998ZM9.18172 18.5051C8.99966 18.5051 8.82417 18.4328 8.69562 18.3033C8.42629 18.0339 8.42629 17.5984 8.69562 17.33L10.3632 15.6612C10.6316 15.3927 11.068 15.3927 11.3364 15.6612C11.6057 15.9306 11.6057 16.3661 11.3364 16.6354L9.66877 18.3033C9.54021 18.4328 9.3647 18.5051 9.18172 18.5051Z" fill="#FFE03E" fill-opacity="0.2"/>
<path d="M4.71954 25.0001C4.53655 25.0001 4.362 24.9278 4.23251 24.7983L2.20176 22.7672C2.07226 22.6377 2 22.4631 2 22.2801C2 22.0971 2.07226 21.9225 2.20176 21.793L7.59965 16.3942C7.86898 16.1258 8.30441 16.1258 8.57374 16.3942L10.6045 18.4253C10.8729 18.6947 10.8729 19.1301 10.6045 19.3995L5.20564 24.7983C5.07708 24.9278 4.9016 25.0001 4.71954 25.0001V25.0001ZM3.66195 22.2801L4.71954 23.3379L9.14424 18.9125L8.08664 17.8547L3.66195 22.2801Z" fill="#FFE03E" fill-opacity="0.2"/>
<rect width="24" height="24" fill="black" fill-opacity="0"/>
<rect width="24" height="24" fill="black" fill-opacity="0"/>
<path d="M14.8712 18.2521C12.5336 18.2521 10.196 17.3614 8.41676 15.5819C8.14743 15.3135 8.14743 14.877 8.41676 14.6086C8.68516 14.3392 9.12152 14.3392 9.38992 14.6086C12.4126 17.6317 17.331 17.6317 20.3536 14.6086C21.8392 13.1219 22.6462 11.1453 22.6237 9.04284C22.6162 8.3483 22.5158 7.6575 22.3253 6.99016C22.2211 6.62412 22.4332 6.24398 22.7982 6.13886C23.1642 6.03468 23.5452 6.2468 23.6494 6.61192C23.8737 7.39844 23.991 8.21031 23.9994 9.02789C24.0266 11.5039 23.077 13.8315 21.3268 15.5819C19.5475 17.3614 17.2089 18.2521 14.8714 18.2521H14.8712ZM6.75576 12.1392C6.45547 12.1392 6.18051 11.9421 6.09417 11.639C5.18389 8.44979 6.07353 5.01264 8.41679 2.66995C11.9761 -0.889983 17.7673 -0.889983 21.3267 2.66995C21.5951 2.93838 21.5951 3.37482 21.3267 3.64326C21.0573 3.91169 20.6219 3.91169 20.3535 3.64326C17.3308 0.620104 12.4125 0.620104 9.3898 3.64326C7.40034 5.63303 6.64485 8.5521 7.41723 11.2617C7.52234 11.6268 7.31025 12.0079 6.94425 12.1121C6.88325 12.1299 6.81944 12.1393 6.75563 12.1393L6.75576 12.1392Z" fill="#FFE03E"/>
<path d="M14.8712 15.3998C13.1933 15.3998 11.6177 14.7484 10.4333 13.5639C9.24997 12.3804 8.59777 10.8046 8.59777 9.1253C8.59777 7.44712 9.24997 5.87124 10.4333 4.68668C11.6176 3.50313 13.1932 2.85083 14.8712 2.85083C16.5493 2.85083 18.1257 3.50313 19.3091 4.68668C20.4934 5.87117 21.1447 7.44697 21.1447 9.1253C21.1447 10.8044 20.4934 12.3803 19.3091 13.5639C18.1258 14.7484 16.5493 15.3998 14.8712 15.3998ZM14.8712 4.2279C13.5612 4.2279 12.331 4.73661 11.4075 5.6611C10.4831 6.58467 9.97452 7.81513 9.97452 9.1254C9.97452 10.4366 10.4832 11.667 11.4075 12.5907C12.3309 13.5142 13.5612 14.0229 14.8712 14.0229C16.1822 14.0229 17.4125 13.5142 18.3359 12.5907C19.2594 11.6671 19.768 10.4366 19.768 9.1254C19.768 7.81515 19.2593 6.58472 18.3359 5.6611C17.4125 4.73659 16.1823 4.2279 14.8712 4.2279ZM7.18172 17.5051C6.99966 17.5051 6.82417 17.4328 6.69562 17.3033C6.42629 17.0339 6.42629 16.5984 6.69562 16.33L8.3632 14.6612C8.6316 14.3927 9.06796 14.3927 9.33636 14.6612C9.60569 14.9306 9.60569 15.3661 9.33636 15.6354L7.66877 17.3033C7.54021 17.4328 7.36473 17.5051 7.18174 17.5051H7.18172Z" fill="#FFE03E"/>
<path d="M2.71954 24.0001C2.53655 24.0001 2.362 23.9278 2.23251 23.7983L0.201761 21.7672C0.0722586 21.6377 0 21.4631 0 21.2801C0 21.0971 0.0722586 20.9225 0.201761 20.793L5.59965 15.3942C5.86898 15.1258 6.30441 15.1258 6.57374 15.3942L8.60449 17.4253C8.87289 17.6947 8.87289 18.1301 8.60449 18.3995L3.20564 23.7983C3.07708 23.9278 2.9016 24.0001 2.71954 24.0001V24.0001ZM1.66195 21.2801L2.71954 22.3379L7.14424 17.9125L6.08664 16.8547L1.66195 21.2801Z" fill="#FFE03E"/>
</svg>
