<svg width="26" height="23" viewBox="0 0 26 23" fill="none" xmlns="http://www.w3.org/2000/svg">
<path fill-rule="evenodd" clip-rule="evenodd" d="M13.6977 17.5223L2.88645 12.6432C2.50008 12.4578 2.30157 11.9598 2.48144 11.5137C2.65691 11.0769 3.11291 10.8962 3.49251 11.0592L14.0005 15.799L24.5084 11.0591C24.888 10.8963 25.3442 11.0773 25.5197 11.5141C25.7002 11.962 25.4994 12.4615 25.1102 12.6453L14.3012 17.5221C14.1064 17.6096 13.89 17.6091 13.6977 17.5223ZM13.6977 22.5223L2.88645 17.6432C2.50008 17.4578 2.30157 16.9598 2.48144 16.5137C2.65691 16.0769 3.11291 15.8962 3.49251 16.0592L14.0005 20.799L24.5084 16.0591C24.888 15.8963 25.3442 16.0773 25.5197 16.5141C25.7002 16.962 25.4994 17.4615 25.1102 17.6453L14.3012 22.5221C14.1064 22.6096 13.89 22.6091 13.6977 22.5223Z" fill="#9E66BF" fill-opacity="0.2"/>
<path fill-rule="evenodd" clip-rule="evenodd" d="M23.1146 4.9443L12.3034 0.0652733C12.1111 -0.0215797 11.8947 -0.022007 11.6999 0.0654869L0.890945 4.94223C0.58184 5.08819 0.391523 5.43335 0.41673 5.79358C0.391591 6.15222 0.579892 6.49606 0.886455 6.64322L11.6977 11.5222C11.89 11.6091 12.1064 11.6095 12.3012 11.522L23.1102 6.64529C23.4193 6.49932 23.6096 6.1542 23.5844 5.79397C23.6095 5.43533 23.4212 5.09146 23.1146 4.9443ZM12.0005 9.79892L3.12125 5.79382L12.0006 1.7886L20.8799 5.7937L12.0005 9.79892ZM11.6977 16.5222L0.886455 11.6432C0.500083 11.4578 0.301566 10.9598 0.481441 10.5136C0.656913 10.0768 1.11291 9.89621 1.49251 10.0591L12.0005 14.7989L22.5084 10.0591C22.888 9.89624 23.3442 10.0773 23.5197 10.5141C23.7002 10.9619 23.4994 11.4615 23.1102 11.6453L12.3012 16.522C12.1064 16.6095 11.89 16.6091 11.6977 16.5222ZM11.6977 21.5222L0.886455 16.6432C0.500083 16.4578 0.301566 15.9598 0.481441 15.5136C0.656913 15.0768 1.11291 14.8962 1.49251 15.0591L12.0005 19.7989L22.5084 15.0591C22.888 14.8962 23.3442 15.0773 23.5197 15.5141C23.7002 15.9619 23.4994 16.4615 23.1102 16.6453L12.3012 21.522C12.1064 21.6095 11.89 21.6091 11.6977 21.5222Z" fill="#FC6D26"/>
<path fill-rule="evenodd" clip-rule="evenodd" d="M25.1146 5.94436L14.3034 1.06533C14.1111 0.978481 13.8947 0.978054 13.6999 1.06555L2.89094 5.94229C2.58184 6.08825 2.39152 6.43341 2.41673 6.79364C2.39159 7.15228 2.57989 7.49612 2.88645 7.64328L13.6977 12.5223C13.89 12.6092 14.1064 12.6096 14.3012 12.5221L25.1102 7.64535C25.4193 7.49939 25.6096 7.15426 25.5844 6.79403C25.6095 6.43539 25.4212 6.09152 25.1146 5.94436Z" fill="#FC6D26" fill-opacity="0.2"/>
</svg>
