<svg width="27" height="22" viewBox="0 0 27 22" fill="none" xmlns="http://www.w3.org/2000/svg">
<rect width="25.37" height="20.4912" fill="black" fill-opacity="0" transform="translate(1 1)"/>
<rect width="23.6218" height="19.6009" fill="black" fill-opacity="0" transform="translate(2.74826 1.89024)"/>
<path d="M23.0992 1.89024H3.54616C3.09703 1.89024 2.74826 2.25061 2.74826 2.71467V16.27C2.74826 16.7341 3.09703 17.0945 3.54616 17.0945H11.4025V19.9291H8.4096C8.25957 19.9291 8.13485 20.058 8.13485 20.213C8.13485 20.368 8.25956 20.4969 8.4096 20.4969L17.2964 20.5959C17.4747 20.5979 17.6203 20.4638 17.6203 20.2855C17.6203 20.1086 17.4769 19.9553 17.3 19.9553H15.243V17.1206H17.591C17.7406 17.1206 17.8618 16.9994 17.8618 16.8499C17.8618 16.7003 17.7406 16.5791 17.591 16.5791H3.54636C3.39632 16.5791 3.27161 16.4502 3.27161 16.2952C3.27161 16.1402 3.27161 14.8517 3.27161 14.8517L17.5911 14.8527C17.7407 14.8527 17.8619 14.7314 17.8619 14.5819C17.8619 14.4323 17.7407 14.3111 17.5911 14.3111H3.29705V2.71475C3.29705 2.55973 3.42175 2.43087 3.5718 2.43087L23.0996 2.43187C23.2497 2.43187 23.3744 2.56072 23.3744 2.71575V7.83905C23.3744 7.98378 23.4917 8.1011 23.6364 8.1011C23.7812 8.1011 23.8985 7.98375 23.8985 7.839L23.8975 2.71472C23.8975 2.27684 23.5483 1.89024 23.0992 1.89024ZM11.9255 17.0944H14.7186V19.929H11.9255V17.0944Z" fill="#D2F0FF" stroke="#D2F0FF" stroke-width="0.6"/>
<path d="M25.5712 21.4911H20.0598C19.6106 21.4911 19.2619 21.1308 19.2619 20.6667V10.3588C19.2619 9.89477 19.6106 9.53441 20.0598 9.53441H25.5722C26.0213 9.53441 26.3701 9.89477 26.3701 10.3588V20.6667C26.3701 21.1046 25.996 21.4911 25.5712 21.4911H25.5712ZM20.0598 10.1012C19.9097 10.1012 19.785 10.23 19.785 10.3851V20.6929C19.785 20.848 19.9097 20.9768 20.0598 20.9768H25.5722C25.7222 20.9768 25.8469 20.848 25.8469 20.6929V10.3851C25.8469 10.23 25.7222 10.1012 25.5722 10.1012H20.0598Z" fill="#D2F0FF" stroke="#D2F0FF" stroke-width="0.6"/>
<path d="M23.5745 11.7122H22.0539C21.904 11.7122 21.7793 11.5834 21.7793 11.4285C21.7793 11.2736 21.9039 11.1449 22.0539 11.1449H23.5745C23.7244 11.1449 23.849 11.2736 23.849 11.4285C23.8237 11.6096 23.7244 11.7122 23.5745 11.7122Z" fill="#D2F0FF" stroke="#D2F0FF" stroke-width="0.6"/>
<path d="M22.8032 19.9803C22.7039 19.9803 22.6036 19.929 22.5286 19.8516C22.4537 19.7741 22.404 19.6715 22.404 19.5679C22.404 19.4653 22.4537 19.3617 22.5033 19.2843C22.6532 19.1294 22.9025 19.1294 23.0514 19.2843C23.1264 19.3617 23.176 19.4643 23.176 19.5679C23.176 19.6705 23.1264 19.7741 23.0514 19.8516C23.0027 19.929 22.9025 19.9803 22.8032 19.9803Z" fill="#D2F0FF" stroke="#D2F0FF" stroke-width="0.6"/>
<rect width="23.6203" height="19.6002" fill="black" fill-opacity="0" transform="translate(1 1)"/>
<path d="M21.3509 1H1.7979C1.34877 1 1 1.36036 1 1.82442V15.3798C1 15.8439 1.34877 16.2042 1.7979 16.2042H9.65423V19.0389H6.66134C6.51131 19.0389 6.38659 19.1677 6.38659 19.3228C6.38659 19.4778 6.5113 19.6066 6.66134 19.6066L15.5482 19.7057C15.7265 19.7077 15.8721 19.5735 15.8721 19.3952C15.8721 19.2183 15.7287 19.0651 15.5517 19.0651H13.4948V16.2304H15.8428C15.9923 16.2304 16.1136 16.1092 16.1136 15.9596C16.1136 15.8101 15.9923 15.6888 15.8428 15.6888H1.7981C1.64806 15.6888 1.52335 15.56 1.52335 15.405V13.9614L15.8429 13.9624C15.9924 13.9624 16.1137 13.8412 16.1137 13.6916C16.1137 13.5421 15.9924 13.4209 15.8429 13.4209H1.54879V1.8245C1.54879 1.66948 1.67349 1.54062 1.82354 1.54062L21.3514 1.54163C21.5014 1.54163 21.6261 1.67048 21.6261 1.82551V6.94881C21.6261 7.09353 21.7434 7.21086 21.8882 7.21086C22.0329 7.21086 22.1502 7.09351 22.1502 6.94876L22.1493 1.82448C22.1493 1.3866 21.8001 1 21.3509 1ZM10.1772 16.2041H12.9703V19.0388H10.1772V16.2041Z" fill="#1FB6FF" stroke="#1FB6FF" stroke-width="0.6"/>
<path d="M23.8215 20.6003H18.3101C17.861 20.6003 17.5122 20.2399 17.5122 19.7758V9.46796C17.5122 9.0039 17.861 8.64354 18.3101 8.64354H23.8225C24.2716 8.64354 24.6204 9.0039 24.6204 9.46796V19.7758C24.6204 20.2137 24.2463 20.6003 23.8215 20.6003H23.8215ZM18.3101 9.21032C18.1601 9.21032 18.0353 9.33917 18.0353 9.4942V19.8021C18.0353 19.9571 18.16 20.086 18.3101 20.086H23.8225C23.9725 20.086 24.0972 19.9571 24.0972 19.8021V9.4942C24.0972 9.33918 23.9725 9.21032 23.8225 9.21032H18.3101Z" fill="#1FB6FF" stroke="#1FB6FF" stroke-width="0.6"/>
<path d="M21.8248 10.8213H20.3042C20.1543 10.8213 20.0297 10.6926 20.0297 10.5377C20.0297 10.3828 20.1543 10.254 20.3042 10.254H21.8248C21.9747 10.254 22.0993 10.3828 22.0993 10.5377C22.074 10.7187 21.9747 10.8213 21.8248 10.8213Z" fill="#1FB6FF" stroke="#1FB6FF" stroke-width="0.6"/>
<path d="M21.0535 19.0894C20.9543 19.0894 20.854 19.0381 20.779 18.9606C20.7041 18.8832 20.6544 18.7806 20.6544 18.677C20.6544 18.5744 20.7041 18.4708 20.7537 18.3933C20.9036 18.2384 21.1528 18.2384 21.3018 18.3933C21.3767 18.4708 21.4264 18.5734 21.4264 18.677C21.4264 18.7796 21.3767 18.8832 21.3018 18.9606C21.2531 19.0381 21.1528 19.0894 21.0535 19.0894Z" fill="#1FB6FF" stroke="#1FB6FF" stroke-width="0.6"/>
</svg>
