<svg width="26" height="14" viewBox="0 0 26 14" fill="none" xmlns="http://www.w3.org/2000/svg">
<rect width="26" height="14" fill="black" fill-opacity="0"/>
<path fill-rule="evenodd" clip-rule="evenodd" d="M13.9803 0.965576C10.6641 0.965576 7.65161 2.26771 5.47514 4.38364C3.3455 6.45388 2.01903 9.26946 1.9624 12.406V12.6481C1.9624 12.9707 2.14451 13.2367 2.60536 13.2367C3.06621 13.2367 23.363 13.2367 25.357 13.2367C25.7154 13.2367 26 12.9647 26 12.6481C26 9.42851 24.6294 6.50073 22.4518 4.38364L22.4504 4.38231C20.3093 2.26791 17.2968 0.965576 13.9803 0.965576Z" fill="#F94F45" fill-opacity="0.1"/>
<path fill-rule="evenodd" clip-rule="evenodd" d="M12.0179 0C8.70169 0 5.6892 1.30214 3.51274 3.41806C1.3831 5.4883 0.0566275 8.30389 0 11.4404V11.6825C0 12.0051 0.256515 12.2711 0.642958 12.2711H2.38499C2.74332 12.2711 3.02794 11.9991 3.02794 11.6825C3.02794 11.3537 2.73046 11.0603 2.38499 11.0603H1.26231L1.28695 10.7968C1.49676 8.55299 2.40633 6.54704 3.80335 4.91743L3.97949 4.71196L4.74636 5.50177C4.99207 5.73887 5.41706 5.73849 5.66299 5.49941C5.90663 5.2632 5.90799 4.85488 5.66527 4.61636L4.84824 3.86659L5.06431 3.69154C6.74037 2.33367 8.80266 1.45015 11.1085 1.24627L11.3758 1.22264V2.3167C11.3758 2.64548 11.6733 2.93887 12.0188 2.93887C12.3517 2.93887 12.6272 2.658 12.6272 2.3167V1.22265L12.8945 1.24626C15.1991 1.44994 17.2961 2.33283 18.9406 3.69312L19.1466 3.8635L18.3745 4.61412C18.1301 4.85107 18.1295 5.26122 18.3745 5.49941C18.6211 5.73907 19.0135 5.73907 19.2601 5.49941L20.064 4.71782L20.2351 4.91743C21.6321 6.54704 22.5426 8.5542 22.7174 10.8005L22.7376 11.0603H21.6526C21.2788 11.0603 21.0096 11.3476 21.0096 11.6825C21.0096 12.0051 21.2662 12.2711 21.6526 12.2711H23.3946C23.753 12.2711 24.0376 11.9991 24.0376 11.6825C24.0376 8.46293 22.667 5.53516 20.4894 3.41806L20.488 3.41673C18.3469 1.30234 15.3344 0 12.0179 0ZM16.4916 7.33773C16.2462 7.09851 15.8195 7.09817 15.5728 7.33796L13.1792 9.6514L13.0555 9.58449C12.7311 9.45819 12.3872 9.36854 12.0179 9.36854C11.3688 9.36854 10.745 9.63881 10.3081 10.0323C9.88136 10.449 9.63296 11.0487 9.63296 11.6843C9.63296 12.3172 9.88025 12.8867 10.3113 13.3058C10.7459 13.7283 11.368 14 12.0179 14C12.6636 14 13.253 13.7308 13.6901 13.3058C14.1273 12.8808 14.4029 12.31 14.4029 11.6843C14.4029 11.3278 14.3116 10.9997 14.1561 10.6966L14.0756 10.5397L16.4919 8.19065C16.7367 7.95259 16.7365 7.57579 16.4916 7.33773ZM11.2296 10.9129C11.422 10.6946 11.7261 10.5784 12.0179 10.5784C12.3292 10.5784 12.5904 10.7082 12.7962 10.9047C13.0436 11.1044 13.1179 11.4206 13.1179 11.6834C13.1179 11.9691 13.0305 12.2342 12.8057 12.4528C12.5806 12.6729 12.3088 12.7557 12.0179 12.7557C11.7489 12.7557 11.4261 12.683 11.2214 12.4443C11.0192 12.2443 10.8843 11.989 10.8843 11.6834C10.8843 11.3969 11.0051 11.0999 11.2296 10.9129Z" fill="#F94F45"/>
</svg>
