<svg width="25" height="27" viewBox="0 0 25 27" fill="none" xmlns="http://www.w3.org/2000/svg">
<rect width="23" height="25" fill="black" fill-opacity="0" transform="translate(1 1)"/>
<rect width="21" height="24" fill="black" fill-opacity="0" transform="translate(3 2)"/>
<path d="M8.68718 13.5408C10.4805 13.5389 12.1667 12.6761 13.235 11.2148H20.603C21.8164 11.2148 22.9365 10.5573 23.5424 9.49095C24.149 8.42455 24.149 7.11054 23.5424 6.0433C22.9366 4.97691 21.8165 4.32037 20.603 4.32037H13.235C12.0567 2.71561 10.1434 1.8461 8.18011 2.0225C6.2169 2.19883 4.48452 3.39654 3.60181 5.18611C2.71911 6.97567 2.8123 9.10268 3.8493 10.805C4.88538 12.5073 6.71655 13.5427 8.68716 13.541L8.68718 13.5408ZM13.839 5.34825H20.5864C21.9023 5.34825 22.9689 6.43153 22.9689 7.76705C22.9689 9.10357 21.9023 10.1859 20.5864 10.1859H13.839C14.5454 8.65332 14.5454 6.88059 13.839 5.34825ZM8.68718 3.02131C9.92642 3.02131 11.115 3.52121 11.9913 4.41129C12.8676 5.30136 13.3598 6.50846 13.3598 7.76722C13.3598 9.02599 12.8676 10.2331 11.9913 11.1231C11.115 12.0132 9.92651 12.5131 8.68718 12.5131C7.44785 12.5131 6.25938 12.0132 5.38306 11.1231C4.50674 10.2331 4.01454 9.02599 4.01454 7.76722C4.01546 6.50855 4.50856 5.30232 5.38398 4.41225C6.26031 3.52219 7.44877 3.02227 8.68716 3.02134L8.68718 3.02131Z" fill="#3F3A40" fill-opacity="0.2"/>
<path d="M8.68724 13.641L8.77397 13.6409L8.77409 13.6401C10.5503 13.6112 12.2146 12.7532 13.2855 11.3148H20.603C21.8529 11.3148 23.0059 10.6376 23.6293 9.5404C24.2534 8.44333 24.2534 7.09175 23.6293 5.99388C23.006 4.89663 21.8529 4.22037 20.603 4.22037H13.2853C12.0842 2.61381 10.153 1.74483 8.17116 1.92291C6.17268 2.1024 4.41001 3.32155 3.51213 5.14187C2.61432 6.96206 2.70904 9.12537 3.76388 10.857C4.81787 12.5887 6.68124 13.6427 8.68724 13.641ZM11.92 4.48145L11.9913 4.41129L11.92 4.48145C12.7778 5.35264 13.2598 6.53447 13.2598 7.76722C13.2598 8.99997 12.7778 10.1818 11.92 11.053C11.0623 11.9241 9.89949 12.4131 8.68718 12.4131C7.47487 12.4131 6.31201 11.9242 5.45432 11.053L5.38306 11.1231L5.45432 11.053C4.5966 10.1818 4.11456 9.00002 4.11454 7.7673C4.11544 6.53465 4.59836 5.35363 5.45528 4.48238C6.31297 3.61126 7.47584 3.12225 8.68723 3.12134L8.6989 3.12133C9.90689 3.12447 11.0651 3.6131 11.92 4.48145ZM13.9929 10.0859C14.6274 8.60747 14.6274 6.92648 13.9929 5.44825H20.5864C21.8457 5.44825 22.8689 6.48531 22.8689 7.76705C22.8689 9.04976 21.8457 10.0859 20.5864 10.0859H13.9929Z" stroke="#3F3A40" stroke-opacity="0.2" stroke-width="0.2"/>
<path d="M18.3128 14.459C16.5195 14.4618 14.8333 15.3247 13.765 16.7859H6.39697C5.18359 16.7859 4.06347 17.4434 3.45761 18.5098C2.85092 19.5762 2.85092 20.8902 3.45761 21.9565C4.06338 23.0229 5.1835 23.6804 6.39697 23.6804H13.765C14.9433 25.2851 16.8566 26.1546 18.8199 25.9773C20.7831 25.801 22.5154 24.6042 23.3981 22.8137C24.2809 21.0242 24.1877 18.8978 23.1507 17.1957C22.1146 15.4925 20.2834 14.4571 18.3128 14.459L18.3128 14.459ZM18.3128 24.9784V24.9793C17.0735 24.9793 15.885 24.4785 15.0087 23.5894C14.1323 22.6993 13.6401 21.4922 13.6401 20.2334C13.6401 18.9747 14.1323 17.7668 15.0087 16.8775C15.885 15.9874 17.0734 15.4866 18.3128 15.4866C19.5521 15.4866 20.7406 15.9874 21.6169 16.8775C22.4932 17.7666 22.9854 18.9747 22.9854 20.2334C22.9836 21.4912 22.4905 22.6964 21.6141 23.5855C20.7387 24.4746 19.5512 24.9746 18.3129 24.9755L18.3128 24.9784Z" fill="#60D957" fill-opacity="0.2"/>
<path d="M18.3752 14.3593L18.375 14.3589L18.3126 14.359C16.504 14.3618 14.8028 15.2241 13.7145 16.6859H6.39697C5.1471 16.6859 3.99407 17.3632 3.37069 18.4603C2.74657 19.5574 2.74656 20.909 3.37068 22.0059C3.37067 22.0059 3.37067 22.0059 3.37066 22.0059L18.3752 14.3593ZM18.3752 14.3593C20.3574 14.3791 22.193 15.4291 23.2361 17.1437C24.2909 18.8751 24.3857 21.0377 23.4878 22.8579C22.59 24.6792 20.8273 25.8974 18.8288 26.0769C16.8469 26.2559 14.9157 25.3869 13.7146 23.7804H6.39697C5.14702 23.7804 3.99398 23.1031 3.37069 22.0059L18.3752 14.3593ZM18.2152 24.8783C17.0383 24.8527 15.9146 24.3661 15.0799 23.5192C14.2222 22.648 13.7401 21.4662 13.7401 20.2334C13.7401 19.0007 14.2222 17.8181 15.0799 16.9477L15.0799 16.9477C15.9376 16.0765 17.1005 15.5866 18.3128 15.5866C19.525 15.5866 20.6879 16.0765 21.5456 16.9477L21.5457 16.9477C22.4033 17.8179 22.8854 19.0006 22.8854 20.2333C22.8836 21.465 22.4007 22.645 21.5429 23.5153L21.5429 23.5154C20.6861 24.3856 19.5241 24.8746 18.3128 24.8755L18.2152 24.8756L18.2152 24.8783Z" stroke="#60D957" stroke-opacity="0.2" stroke-width="0.2"/>
<rect width="21" height="24" fill="black" fill-opacity="0" transform="translate(1 1)"/>
<path d="M6.68724 12.641L6.77397 12.6409L6.77409 12.6401C8.5503 12.6112 10.2146 11.7532 11.2855 10.3148H18.603C19.8529 10.3148 21.0059 9.63758 21.6293 8.5404C22.2534 7.44333 22.2534 6.09175 21.6293 4.99388C21.006 3.89663 19.8529 3.22037 18.603 3.22037H11.2853C10.0842 1.61381 8.153 0.744833 6.17116 0.922905C4.17268 1.1024 2.41001 2.32155 1.51213 4.14187C0.614318 5.96206 0.709042 8.12537 1.76388 9.857C2.81787 11.5887 4.68124 12.6427 6.68724 12.641ZM9.92004 3.48145L9.9913 3.41129L9.92004 3.48145C10.7778 4.35264 11.2598 5.53447 11.2598 6.76722C11.2598 7.99997 10.7778 9.1818 9.92004 10.053C9.06235 10.9241 7.89949 11.4131 6.68718 11.4131C5.47487 11.4131 4.31201 10.9242 3.45432 10.053L3.38306 10.1231L3.45432 10.053C2.5966 9.18182 2.11456 8.00002 2.11454 6.7673C2.11544 5.53465 2.59836 4.35363 3.45528 3.48238C4.31297 2.61126 5.47584 2.12225 6.68723 2.12134L6.6989 2.12133C7.90689 2.12447 9.06511 2.6131 9.92004 3.48145ZM11.9929 9.08586C12.6274 7.60747 12.6274 5.92648 11.9929 4.44825H18.5864C19.8457 4.44825 20.8689 5.48531 20.8689 6.76705C20.8689 8.04976 19.8457 9.08586 18.5864 9.08586H11.9929Z" fill="#3F3A40" stroke="#3F3A40" stroke-width="0.2"/>
<path d="M16.3752 13.3593L16.375 13.3589L16.3126 13.359C14.504 13.3618 12.8028 14.2241 11.7145 15.6859H4.39697C3.1471 15.6859 1.99407 16.3632 1.37069 17.4603C0.746568 18.5574 0.74656 19.909 1.37068 21.0059C1.37067 21.0059 1.37067 21.0059 1.37066 21.0059L16.3752 13.3593ZM16.3752 13.3593C18.3574 13.3791 20.193 14.4291 21.2361 16.1437C22.2909 17.8751 22.3857 20.0377 21.4878 21.8579C20.59 23.6792 18.8273 24.8974 16.8288 25.0769C14.8469 25.2559 12.9157 24.3869 11.7146 22.7804H4.39697C3.14702 22.7804 1.99398 22.1031 1.37069 21.0059L16.3752 13.3593ZM16.2152 23.8783C15.0383 23.8527 13.9146 23.3661 13.0799 22.5192C12.2222 21.648 11.7401 20.4662 11.7401 19.2334C11.7401 18.0007 12.2222 16.8181 13.0799 15.9477L13.0799 15.9477C13.9376 15.0765 15.1005 14.5866 16.3128 14.5866C17.525 14.5866 18.6879 15.0765 19.5456 15.9477L19.5457 15.9477C20.4033 16.8179 20.8854 18.0006 20.8854 19.2333C20.8836 20.465 20.4007 21.645 19.5429 22.5153L19.5429 22.5154C18.6861 23.3856 17.5241 23.8746 16.3128 23.8755L16.2152 23.8756L16.2152 23.8783Z" fill="#60D957" stroke="#60D957" stroke-width="0.2"/>
</svg>
