<svg width="26" height="21" viewBox="0 0 26 21" fill="none" xmlns="http://www.w3.org/2000/svg">
<rect width="26" height="20.2222" fill="black" fill-opacity="0"/>
<path fill-rule="evenodd" clip-rule="evenodd" d="M23.3415 5.03766C23.3534 5.25675 23.3587 5.47712 23.3587 5.69749C23.3587 12.4439 17.9918 20.2222 8.17936 20.2222C5.16708 20.2222 2.36257 19.3775 0 17.9287C0.415592 17.9731 0.841755 18.0009 1.2732 18.0009C3.77329 18.0009 6.0722 17.1841 7.90011 15.8138C5.56282 15.7745 3.59477 14.2966 2.91443 12.2689C3.24001 12.3284 3.57485 12.3614 3.91631 12.3614C4.40468 12.3614 4.87584 12.2981 5.32185 12.1815C2.88133 11.7104 1.04159 9.64995 1.04159 7.17419V7.11087C1.76157 7.49207 2.5848 7.72128 3.4583 7.74787C2.02758 6.83224 1.08658 5.26821 1.08658 3.49785C1.08658 2.56323 1.34996 1.68687 1.80921 0.933323C4.439 4.02213 8.37107 6.0535 12.8048 6.26618C12.7122 5.89386 12.6685 5.50252 12.6685 5.10235C12.6685 2.28581 15.0561 0 18.0008 0C19.536 0 20.9231 0.619298 21.8958 1.60962C23.1095 1.38166 24.253 0.957412 25.2827 0.372318C24.883 1.56403 24.0372 2.5645 22.9374 3.19518C24.0161 3.0736 25.0418 2.79877 26 2.39098C25.2866 3.41933 24.384 4.31848 23.3411 5.03783L23.3415 5.03766Z" fill="white"/>
</svg>
