<svg width="24" height="24" viewBox="0 0 24 24">
<g id="Canvas" transform="translate(324 -980)">
<g id="Group 8.3">
<g id="Oval">
<use xlink:href="#path0_fill" transform="translate(-324 980)" fill="#9E66BF"/>
</g>
<g id="Path 2">
<use xlink:href="#path1_stroke" transform="translate(-317 989)" fill="#FFFFFF"/>
</g>
</g>
</g>
<defs>
<path id="path0_fill" fill-rule="evenodd" d="M 12 24C 18.6274 24 24 18.6274 24 12C 24 5.37258 18.6274 0 12 0C 5.37258 0 0 5.37258 0 12C 0 18.6274 5.37258 24 12 24Z"/>
<path id="path1_stroke" d="M 0.438001 3.49683C 0.191766 3.25492 -0.203946 3.25844 -0.445848 3.50467C -0.687749 3.75091 -0.684236 4.14662 -0.438001 4.38852L 0.438001 3.49683ZM 3.18335 7.07L 2.74535 7.51585C 2.98714 7.75338 3.37419 7.7549 3.61784 7.51927L 3.18335 7.07ZM 10.9284 0.449273C 11.1766 0.209313 11.1832 -0.18636 10.9432 -0.434487C 10.7033 -0.682613 10.3076 -0.689233 10.0595 -0.449273L 10.9284 0.449273ZM -0.438001 4.38852L 2.74535 7.51585L 3.62135 6.62415L 0.438001 3.49683L -0.438001 4.38852ZM 3.61784 7.51927L 10.9284 0.449273L 10.0595 -0.449273L 2.74886 6.62073L 3.61784 7.51927Z"/>
</defs>
</svg>
