<svg width="24" height="24" viewBox="0 0 24 24" version="1.1" xmlns="http://www.w3.org/2000/svg" xmlns:xlink="http://www.w3.org/1999/xlink">
<g id="Canvas" fill="none">
<g id="Group 10 Copy">
<g id="Group">
<g id="Vector">
<path d="M 12 12.141C 10.7812 12.141 9.672 11.8125 8.6715 11.157C 7.671 10.5007 6.921 9.657 6.4215 8.62575L 1.5 1.07372e-07C 0.46875 1.84425 0 3.90675 0 6C 0 9 0.9765 11.6175 2.9295 13.8517C 4.8825 16.086 7.3125 17.4217 10.2188 17.8597L 13.6995 11.8365C 13.3492 11.9392 12.765 12.141 12 12.141Z" transform="translate(0 6)" fill="#4AAE48"/>
</g>
<g id="Vector_2">
<path d="M 5.7075 7.14825C 6.816 6.2895 8.0745 6 9.48075 6C 9.66825 6 19.7932 6 19.7932 6C 18.7305 4.188 17.2852 2.6565 15.4575 1.59375C 13.629 0.53175 11.637 0 9.48075 0C 7.60575 0 5.85525 0.39825 4.23075 1.1955C 2.6055 1.992 1.10175 3.15225 -2.43187e-08 4.641L 3.48075 10.5C 3.82425 9.15675 4.5975 8.0085 5.7075 7.14825Z" transform="translate(2.51904 0)" fill="#EA3939"/>
</g>
<g id="Vector_3">
<path d="M 10.9567 -2.50256e-07L 3.984 -2.50256e-07C 5.20275 1.21875 6 2.78175 6 4.5C 6 5.78175 5.64075 6.95325 4.9215 8.016L 2.94518e-07 16.5C 3.28125 16.4685 6.078 15.2812 8.391 12.9375C 10.7025 10.5937 11.859 7.78125 11.859 4.5C 11.859 2.96925 11.601 1.359 10.9567 -2.50256e-07Z" transform="translate(12.1411 7.5)" fill="#FED14B"/>
</g>
<g id="Vector_4">
<path d="M 4.5 9C 6.98528 9 9 6.98528 9 4.5C 9 2.01472 6.98528 0 4.5 0C 2.01472 0 0 2.01472 0 4.5C 0 6.98528 2.01472 9 4.5 9Z" transform="translate(7.5 7.5)" fill="#188FD1"/>
</g>
</g>
</g>
</g>
</svg>

