<svg width="76" height="76" viewBox="0 0 76 76" fill="none" xmlns="http://www.w3.org/2000/svg">
<path d="M38 38.4465C34.1406 38.4465 30.628 37.4062 27.4597 35.3305C24.2915 33.2524 21.9165 30.5805 20.3347 27.3149L4.75 3.40012e-07C1.48437 5.84012 0 12.3714 0 19C0 28.5 3.09225 36.7887 9.27675 43.8639C15.4612 50.939 23.1563 55.1689 32.3594 56.5559L43.3817 37.4822C42.2726 37.8076 40.4225 38.4465 38 38.4465Z" transform="translate(0 19)" fill="#4AAE48"/>
<path d="M18.0737 22.6361C21.584 19.9167 25.5692 19 30.0224 19C30.6161 19 62.6786 19 62.6786 19C59.3132 13.262 54.7366 8.41225 48.9487 5.04687C43.1585 1.68387 36.8505 0 30.0224 0C24.0849 0 18.5416 1.26112 13.3974 3.78575C8.25075 6.308 3.48887 9.98212 -7.70092e-08 14.6965L11.0224 33.25C12.1101 28.9964 14.5587 25.3602 18.0737 22.6361Z" transform="translate(7.97705)" fill="#EA3939"/>
<path d="M34.6964 -7.92476e-07H12.616C16.4754 3.85937 19 8.80887 19 14.25C19 18.3089 17.8624 22.0186 15.5848 25.384L9.3264e-07 52.25C10.3906 52.1502 19.247 48.3906 26.5715 40.9687C33.8912 33.5469 37.5535 24.6406 37.5535 14.25C37.5535 9.40262 36.7365 4.3035 34.6964 -7.92476e-07Z" transform="translate(38.4468 23.75)" fill="#FED14B"/>
<path d="M14.25 28.5C22.1201 28.5 28.5 22.1201 28.5 14.25C28.5 6.37994 22.1201 0 14.25 0C6.37994 0 0 6.37994 0 14.25C0 22.1201 6.37994 28.5 14.25 28.5Z" transform="translate(23.75 23.75)" fill="#188FD1"/>
</svg>
