<svg width="24" height="26" viewBox="0 0 24 26" fill="none" xmlns="http://www.w3.org/2000/svg">
<path d="M10.7529 0H2.00053C0.895669 0 0 0.897827 0 2.00535V14.7895C0 15.897 0.895669 16.7948 2.00053 16.7948H10.7529C11.8577 16.7948 12.7534 15.897 12.7534 14.7895V2.00535C12.7534 0.897827 11.8577 0 10.7529 0Z" transform="matrix(0.996174 -0.0873888 0.0869233 0.996215 0.677094 8.2688)" fill="#E1DFE2" fill-opacity="0.2" stroke="#E1DFE2" stroke-width="1.25"/>
<path d="M12.0012 0H2.00053C0.895669 0 0 0.897827 0 2.00535V16.0428C0 17.1503 0.895669 18.0482 2.00053 18.0482H12.0012C13.1061 18.0482 14.0017 17.1503 14.0017 16.0428V2.00535C14.0017 0.897827 13.1061 0 12.0012 0Z" transform="translate(8.72862 1) rotate(5.00121)" fill="#E1DFE2" fill-opacity="0.2" stroke="#E1DFE2" stroke-width="1.25" stroke-linecap="round" stroke-dasharray="0.11 0.11 2.15 2.72"/>
</svg>
