<svg width="39" height="39" viewBox="0 0 39 39" fill="none" xmlns="http://www.w3.org/2000/svg">
<rect width="26" height="26" fill="white" transform="scale(1.5)"/>
<path d="M20.3509 0H0.797903C0.348771 0 0 0.360363 0 0.824424V14.3798C0 14.8439 0.348771 15.2042 0.797903 15.2042H8.65423V18.0389H5.66134C5.51131 18.0389 5.38659 18.1677 5.38659 18.3228C5.38659 18.4778 5.5113 18.6066 5.66134 18.6066L14.5482 18.7057C14.7265 18.7077 14.8721 18.5735 14.8721 18.3952V18.3952C14.8721 18.2183 14.7287 18.0651 14.5517 18.0651H12.4948V15.2304H14.8428C14.9923 15.2304 15.1136 15.1092 15.1136 14.9596V14.9596C15.1136 14.8101 14.9923 14.6888 14.8428 14.6888H0.798098C0.648064 14.6888 0.523351 14.56 0.523351 14.405C0.523351 14.2499 0.523351 12.9614 0.523351 12.9614L14.8429 12.9624C14.9924 12.9624 15.1137 12.8412 15.1137 12.6916V12.6916C15.1137 12.5421 14.9924 12.4209 14.8429 12.4209H0.54879V0.824503C0.54879 0.669483 0.673494 0.540624 0.823537 0.540624L20.3514 0.54163C20.5014 0.54163 20.6261 0.670479 20.6261 0.825509V5.94881C20.6261 6.09353 20.7434 6.21086 20.8882 6.21086V6.21086C21.0329 6.21086 21.1502 6.09351 21.1502 5.94876L21.1493 0.824479C21.1493 0.3866 20.8001 0 20.3509 0ZM9.17723 15.2041H11.9703V18.0388H9.17723V15.2041Z" transform="translate(3.10236 5.83539) scale(1.5)" fill="#D2F0FF" stroke="#D2F0FF" stroke-width="0.6"/>
<path d="M6.3093 11.9567H0.797904C0.348772 11.9567 0 11.5964 0 11.1323V0.824424C0 0.360363 0.348772 0 0.797904 0H6.3103C6.75943 0 7.1082 0.360363 7.1082 0.824424V11.1323C7.1082 11.5702 6.73409 11.9567 6.30933 11.9567H6.3093ZM0.797904 0.566779C0.647871 0.566779 0.523157 0.695628 0.523157 0.850658V11.1585C0.523157 11.3136 0.647861 11.4424 0.797904 11.4424H6.3103C6.46033 11.4424 6.58505 11.3136 6.58505 11.1585V0.850658C6.58505 0.695638 6.46034 0.566779 6.3103 0.566779H0.797904Z" transform="translate(27.8728 17.3016) scale(1.5)" fill="#D2F0FF" stroke="#D2F0FF" stroke-width="0.6"/>
<path d="M1.79511 0.56731H0.27453C0.124615 0.56731 0 0.438563 0 0.283654C0 0.128746 0.124605 0 0.27453 0H1.79511C1.94503 0 2.06964 0.128746 2.06964 0.283654C2.04433 0.464703 1.94504 0.56731 1.79511 0.56731Z" transform="translate(31.649 19.7173) scale(1.5)" fill="#D2F0FF" stroke="#D2F0FF" stroke-width="0.6"/>
<path d="M0.399136 0.812231C0.29984 0.812231 0.199573 0.760933 0.124605 0.683484C0.0496477 0.606035 0 0.503439 0 0.399829C0 0.297233 0.0496471 0.193633 0.0992948 0.116173C0.24921 -0.0387245 0.498431 -0.0387245 0.647359 0.116173C0.722317 0.193622 0.771964 0.296218 0.771964 0.399829C0.771964 0.502425 0.722317 0.606025 0.647359 0.683484C0.598686 0.760933 0.498429 0.812231 0.399136 0.812231Z" transform="translate(32.586 31.7522) scale(1.5)" fill="#D2F0FF" stroke="#D2F0FF" stroke-width="0.6"/>
<path d="M20.3509 0H0.797903C0.348771 0 0 0.360363 0 0.824424V14.3798C0 14.8439 0.348771 15.2042 0.797903 15.2042H8.65423V18.0389H5.66134C5.51131 18.0389 5.38659 18.1677 5.38659 18.3228C5.38659 18.4778 5.5113 18.6066 5.66134 18.6066L14.5482 18.7057C14.7265 18.7077 14.8721 18.5735 14.8721 18.3952V18.3952C14.8721 18.2183 14.7287 18.0651 14.5517 18.0651H12.4948V15.2304H14.8428C14.9923 15.2304 15.1136 15.1092 15.1136 14.9596V14.9596C15.1136 14.8101 14.9923 14.6888 14.8428 14.6888H0.798098C0.648064 14.6888 0.523351 14.56 0.523351 14.405V12.9614L14.8429 12.9624C14.9924 12.9624 15.1137 12.8412 15.1137 12.6916V12.6916C15.1137 12.5421 14.9924 12.4209 14.8429 12.4209H0.54879V0.824503C0.54879 0.669483 0.673494 0.540624 0.823537 0.540624L20.3514 0.54163C20.5014 0.54163 20.6261 0.670479 20.6261 0.825509V5.94881C20.6261 6.09353 20.7434 6.21086 20.8882 6.21086V6.21086C21.0329 6.21086 21.1502 6.09351 21.1502 5.94876L21.1493 0.824479C21.1493 0.3866 20.8001 0 20.3509 0ZM9.17723 15.2041H11.9703V18.0388H9.17723V15.2041Z" transform="translate(0.480011 4.5) scale(1.5)" fill="#1FB6FF" stroke="#1FB6FF" stroke-width="0.6"/>
<path d="M6.3093 11.9567H0.797904C0.348772 11.9567 0 11.5964 0 11.1323V0.824424C0 0.360363 0.348772 0 0.797904 0H6.3103C6.75943 0 7.1082 0.360363 7.1082 0.824424V11.1323C7.1082 11.5702 6.73409 11.9567 6.30933 11.9567H6.3093ZM0.797904 0.566779C0.647871 0.566779 0.523157 0.695628 0.523157 0.850658V11.1585C0.523157 11.3136 0.647861 11.4424 0.797904 11.4424H6.3103C6.46033 11.4424 6.58505 11.3136 6.58505 11.1585V0.850658C6.58505 0.695638 6.46034 0.566779 6.3103 0.566779H0.797904Z" transform="translate(25.2483 15.9653) scale(1.5)" fill="#1FB6FF" stroke="#1FB6FF" stroke-width="0.6"/>
<path d="M1.79511 0.56731H0.27453C0.124615 0.56731 0 0.438563 0 0.283654C0 0.128746 0.124605 0 0.27453 0H1.79511C1.94503 0 2.06964 0.128746 2.06964 0.283654C2.04433 0.464703 1.94504 0.56731 1.79511 0.56731Z" transform="translate(29.0245 18.381) scale(1.5)" fill="#1FB6FF" stroke="#1FB6FF" stroke-width="0.6"/>
<path d="M0.399136 0.812231C0.29984 0.812231 0.199573 0.760933 0.124605 0.683484C0.0496477 0.606035 0 0.503439 0 0.399829C0 0.297233 0.0496471 0.193633 0.0992948 0.116173C0.24921 -0.0387245 0.498431 -0.0387245 0.647359 0.116173C0.722317 0.193622 0.771964 0.296218 0.771964 0.399829C0.771964 0.502425 0.722317 0.606025 0.647359 0.683484C0.598686 0.760933 0.498429 0.812231 0.399136 0.812231Z" transform="translate(29.9616 30.4157) scale(1.5)" fill="#1FB6FF" stroke="#1FB6FF" stroke-width="0.6"/>
</svg>
