<svg width="24" height="23" viewBox="0 0 24 23" fill="none" xmlns="http://www.w3.org/2000/svg">
<g id="firefox-browser-icon">
<g id="Group">
<path id="Vector" d="M11.2496 9.55305e-09C17.4625 9.55305e-09 22.4993 4.98258 22.4993 11.1301C22.4993 17.2762 17.4625 22.2602 11.2496 22.2602C5.03684 22.2602 2.72711e-08 17.2762 2.72711e-08 11.1301C2.72711e-08 4.98184 5.03684 9.55305e-09 11.2496 9.55305e-09Z" transform="translate(0.75)" fill="url(#paint0_linear)"/>
<path id="Vector_2" d="M13.9226 21.3532C19.6329 20.4412 24 15.5551 24 9.64799L23.8905 9.78229C24.0615 8.65964 24.0315 7.65941 23.7968 6.78681C23.7128 7.4331 23.6213 7.82339 23.529 7.97996C23.5283 7.9295 23.5155 7.25576 23.2988 6.31564C23.196 5.63002 23.0453 4.98522 22.8368 4.38938C22.8878 4.66244 22.9178 4.89024 22.9328 5.09652C22.0613 2.78294 19.9156 -0.0656282 14.629 0.00115246C14.629 0.00115246 16.4882 0.195558 17.3635 1.50669C17.3635 1.50669 16.4687 1.29521 15.7923 1.61947C16.6165 1.94447 17.3312 2.28431 17.9394 2.63899L17.9919 2.67089C18.1479 2.76365 18.2807 2.85862 18.4217 2.95286C19.5451 3.73345 20.5876 4.8472 20.5081 6.28373C20.2659 5.9053 19.9434 5.65747 19.5301 5.53282C20.0394 7.50656 20.0896 9.13675 19.6779 10.4226C19.3951 9.56637 19.1349 9.0529 18.9032 8.87185C19.2264 11.5178 18.7907 13.4745 17.5989 14.75C17.8254 13.9717 17.9154 13.3343 17.8644 12.8312C16.4642 14.9251 14.8713 16.0077 13.0856 16.0745C12.3799 16.0686 11.7131 15.9632 11.0862 15.7584C10.1652 15.4505 9.33196 14.9244 8.59023 14.1779C9.7482 14.2737 10.8057 14.0748 11.7364 13.6051L13.2611 12.6168L13.2551 12.6123C13.4531 12.5381 13.6391 12.544 13.8206 12.6279C14.1926 12.5774 14.3231 12.3801 14.1986 12.0469C14.0186 11.7991 13.7463 11.5742 13.3968 11.3761C12.6341 10.9821 11.8376 11.0444 11.0067 11.569C10.2154 12.0143 9.4542 11.9964 8.71323 11.523C8.22799 11.1914 7.75926 10.7447 7.30627 10.1867L7.12628 9.92327C7.04153 10.5555 7.13753 11.3665 7.42477 12.3652L7.43077 12.3786L7.42477 12.3667C7.13678 11.368 7.04153 10.5547 7.12628 9.92327V9.91734C7.14803 9.36529 7.37902 9.06106 7.81926 8.9928L7.63251 8.97722L7.82076 8.9928C8.31799 9.03806 8.88872 9.15085 9.5322 9.33635C9.6402 8.72196 9.49845 8.07864 9.10922 7.419V7.40713C9.7137 6.84914 10.2499 6.44326 10.7082 6.1843C10.9114 6.07671 11.0299 5.91347 11.0689 5.69309L11.0854 5.68122L11.0914 5.67528L11.1139 5.65376C11.2324 5.47865 11.1927 5.33767 10.9902 5.21301C10.5664 5.23601 10.1419 5.20708 9.71895 5.12323L9.71295 5.1403C9.5382 5.08984 9.31771 4.93624 9.04622 4.67654L8.35099 3.99983L8.1425 3.83733V3.85885H8.1365L8.1425 3.83139L8.10275 3.79058L8.159 3.75126C8.25499 3.23853 8.41324 2.79778 8.63898 2.41935L8.68998 2.37409C8.91647 2.0016 9.35071 1.60166 9.98894 1.17427C8.80247 1.32044 7.72926 1.84949 6.77529 2.76439C5.98406 2.47723 5.04659 2.53808 3.96738 2.94989L3.83763 3.04783L3.82788 3.05303L3.96888 2.95063L3.97488 2.9447C3.29615 2.63602 2.83866 1.74932 2.61817 0.300181C1.7542 1.14681 1.33571 2.65828 1.36346 4.84052L1.11597 5.21079L1.05222 5.25382L1.03947 5.2657L1.03422 5.27089L1.02222 5.29538C0.890972 5.49869 0.710228 5.80588 0.482235 6.21843C0.154495 6.80165 0.0442486 7.29137 0.0119996 7.71803L0.00899973 7.72322L0.0104997 7.73732L5.15441e-09 7.84936L0.0187494 7.81968C0.0209993 7.91837 0.0232492 8.0178 0.0487484 8.10684L0.749227 7.53698C0.494985 8.17436 0.32624 8.85033 0.240742 9.56711L0.220493 9.89508L0.00074999 9.64651C0.00074999 12.1901 0.816725 14.5415 2.19368 16.4737L2.23493 16.5375L2.30093 16.6154C3.2909 17.9607 4.55536 19.0923 6.01931 19.9278C7.07153 20.5444 8.20249 20.9762 9.40846 21.233L9.6567 21.2879C9.90644 21.3353 10.1622 21.371 10.4187 21.4029C10.6084 21.4274 10.7982 21.4511 10.9902 21.4674L11.2451 21.4964L11.6074 21.4986L12.0011 21.5179L12.3146 21.5023L12.8313 21.4771C13.1381 21.4563 13.4403 21.4229 13.7403 21.3799L13.9226 21.3532ZM21.5108 6.89069L21.5056 6.98789L21.5093 6.88995L21.5108 6.89069Z" transform="translate(0 1.48212)" fill="url(#paint1_linear)"/>
</g>
</g>
<defs>
<linearGradient id="paint0_linear" x2="1" gradientUnits="userSpaceOnUse" gradientTransform="translate(22.4993) scale(22.4993 22.2602) rotate(90)">
<stop stop-color="#0093F7"/>
<stop offset="1" stop-color="#372893"/>
</linearGradient>
<linearGradient id="paint1_linear" x2="1" gradientUnits="userSpaceOnUse" gradientTransform="translate(2.88759e-07 -2.86633) scale(24 26.7684)">
<stop stop-color="#FE3229"/>
<stop offset="1" stop-color="#FFD71F"/>
</linearGradient>
</defs>
</svg>
