<svg width="79" height="76" viewBox="0 0 79 76" fill="none" xmlns="http://www.w3.org/2000/svg">
<g id="firefox-browser-icon">
<g id="Group">
<path id="Vector" d="M36.9767 3.15666e-08C57.3977 3.15666e-08 73.9534 16.4642 73.9534 36.7778C73.9534 57.0864 57.3977 73.5555 36.9767 73.5555C16.5557 73.5555 8.96379e-08 57.0864 8.96379e-08 36.7778C8.96379e-08 16.4617 16.5557 3.15666e-08 36.9767 3.15666e-08Z" transform="translate(2.46509)" fill="url(#paint0_linear)"/>
<path id="Vector_2" d="M45.7624 70.5583C64.5317 67.5449 78.8861 51.3995 78.8861 31.8803L78.5262 32.3241C79.0882 28.6144 78.9896 25.3094 78.218 22.426C77.9419 24.5615 77.6412 25.8512 77.338 26.3686C77.3355 26.2018 77.2936 23.9755 76.5812 20.8691C76.2435 18.6035 75.748 16.4729 75.0627 14.5041C75.2303 15.4063 75.3289 16.159 75.3782 16.8407C72.5138 9.19579 65.4611 -0.216858 48.0845 0.00380812C48.0845 0.00380812 54.1955 0.646193 57.0723 4.97861C57.0723 4.97861 54.1314 4.27983 51.9079 5.35129C54.617 6.4252 56.9663 7.54815 58.9655 8.72014L59.1381 8.82557C59.6508 9.13205 60.0871 9.44588 60.5506 9.75727C64.2433 12.3366 67.6698 16.0168 67.4085 20.7636C66.6123 19.5132 65.5523 18.6943 64.194 18.2824C65.8678 24.8043 66.033 30.191 64.6796 34.44C63.7503 31.6106 62.8949 29.9139 62.1332 29.3157C63.1956 38.059 61.7634 44.5245 57.8463 48.7392C58.5908 46.1672 58.8866 44.0611 58.719 42.3987C54.1166 49.3179 48.8807 52.8951 43.0113 53.1158C40.6916 53.0962 38.5001 52.748 36.4393 52.0713C33.4121 51.0538 30.6734 49.3154 28.2354 46.8489C32.0415 47.1651 35.5173 46.5081 38.5766 44.956L43.5881 41.6902L43.5684 41.6755C44.2192 41.4303 44.8305 41.4499 45.4271 41.7269C46.6498 41.5602 47.0787 40.908 46.6695 39.8071C46.0779 38.9882 45.1831 38.2453 44.0343 37.5907C41.5273 36.2887 38.9093 36.4947 36.178 38.2282C33.5773 39.6993 31.0752 39.6404 28.6397 38.0761C27.0448 36.9802 25.5041 35.5041 24.0151 33.6604L23.4235 32.7899C23.1449 34.8789 23.4605 37.5588 24.4046 40.859L24.4243 40.9031L24.4046 40.8639C23.458 37.5637 23.1449 34.8765 23.4235 32.7899V32.7703C23.495 30.9462 24.2542 29.9409 25.7013 29.7153L25.0875 29.6638L25.7062 29.7153C27.3406 29.8649 29.2165 30.2376 31.3316 30.8505C31.6866 28.8204 31.2207 26.6946 29.9413 24.515V24.4757C31.9281 22.6319 33.6907 21.2908 35.1969 20.4351C35.8649 20.0796 36.2544 19.5402 36.3826 18.812L36.4368 18.7727L36.4566 18.7531L36.5305 18.682C36.92 18.1034 36.7893 17.6375 36.1238 17.2256C34.731 17.3016 33.3357 17.206 31.9454 16.9289L31.9257 16.9853C31.3513 16.8186 30.6266 16.3111 29.7342 15.4529L27.449 13.2168L26.7637 12.6799V12.751H26.744L26.7637 12.6603L26.6331 12.5254L26.818 12.3955C27.1335 10.7012 27.6536 9.24483 28.3956 7.99439L28.5633 7.84483C29.3077 6.614 30.735 5.29245 32.8328 3.88018C28.933 4.3632 25.4055 6.11137 22.2698 9.1345C19.6691 8.18563 16.5877 8.38668 13.0404 9.74746L12.614 10.0711L12.5819 10.0883L13.0454 9.74991L13.0651 9.7303C10.8342 8.71033 9.33045 5.78037 8.60571 0.991904C5.7659 3.78947 4.39037 8.78389 4.48158 15.9948L3.66809 17.2182L3.45855 17.3605L3.41665 17.3997L3.39939 17.4168L3.35995 17.4978C2.92855 18.1696 2.33446 19.1846 1.58507 20.5479C0.507813 22.475 0.145442 24.0932 0.0394418 25.5031L0.0295814 25.5202L0.0345115 25.5668L1.69421e-08 25.937L0.0616278 25.839C0.0690231 26.1651 0.0764184 26.4936 0.160232 26.7878L2.46265 24.9048C1.62697 27.0109 1.07232 29.2446 0.791301 31.6131L0.724743 32.6968L0.00246516 31.8754C0.00246516 40.2804 2.68451 48.0503 7.21046 54.4349L7.34604 54.6457L7.56297 54.9032C10.8169 59.3484 14.9731 63.0875 19.785 65.8482C23.2435 67.8857 26.9609 69.3127 30.9248 70.161L31.7408 70.3425C32.5617 70.4994 33.4023 70.6171 34.2453 70.7225C34.869 70.8034 35.4927 70.8819 36.1238 70.9358L36.9619 71.0315L38.1526 71.0388L39.4467 71.1026L40.4772 71.0511L42.1756 70.9677C43.1838 70.8991 44.1773 70.7887 45.1633 70.6465L45.7624 70.5583ZM70.7044 22.7692L70.6871 23.0904L70.6994 22.7668L70.7044 22.7692Z" transform="translate(0 4.89746)" fill="url(#paint1_linear)"/>
</g>
</g>
<defs>
<linearGradient id="paint0_linear" x2="1" gradientUnits="userSpaceOnUse" gradientTransform="translate(73.9534) scale(73.9534 73.5555) rotate(90)">
<stop stop-color="#0093F7"/>
<stop offset="1" stop-color="#372893"/>
</linearGradient>
<linearGradient id="paint1_linear" x2="1" gradientUnits="userSpaceOnUse" gradientTransform="translate(9.49127e-07 -9.47136) scale(78.8861 88.4522)">
<stop stop-color="#FE3229"/>
<stop offset="1" stop-color="#FFD71F"/>
</linearGradient>
</defs>
</svg>
