<svg data-test-gitlab-icon width="17" height="16" viewBox="0 0 17 16" fill="none" xmlns="http://www.w3.org/2000/svg">
<path d="M3.1302 9.71118L6.2604 9.46994e-08H1.60199e-07L3.1302 9.71118Z" transform="translate(5.37012 6.07471)" fill="#E24329"/>
<path d="M7.5171 9.71118L4.3869 2.28275e-07H1.55749e-08L7.5171 9.71118Z" transform="translate(0.98291 6.07471)" fill="#FC6D26"/>
<path d="M0.982978 2.79114e-08L0.0317667 2.95114C-0.0549943 3.22029 0.0400296 3.51517 0.26718 3.68151L8.50008 9.71118L0.982978 2.79114e-08Z" transform="translate(0 6.07471)" fill="#FCA326"/>
<path d="M2.65762e-08 6.07467H4.3869L2.50157 0.225721C2.4046 -0.075281 1.98222 -0.0751994 1.88525 0.225721L2.65762e-08 6.07467Z" transform="translate(0.98291)" fill="#E24329"/>
<path d="M1.10755e-07 9.71118L3.1302 2.28275e-07H7.5171L1.10755e-07 9.71118Z" transform="translate(8.5 6.07471)" fill="#FC6D26"/>
<path d="M7.5171 2.79114e-08L8.46831 2.95114C8.55507 3.22029 8.46005 3.51517 8.2329 3.68151L1.10755e-07 9.71118L7.5171 2.79114e-08Z" transform="translate(8.5 6.07471)" fill="#FCA326"/>
<path d="M4.3869 6.07467H6.13108e-08L1.88533 0.225721C1.9823 -0.075281 2.40468 -0.0751994 2.50165 0.225721L4.3869 6.07467Z" transform="translate(11.6304)" fill="#E24329"/>
</svg>
