<svg width="24" height="23" viewBox="0 0 24 23" fill="none" xmlns="http://www.w3.org/2000/svg">
<path d="M4.41907 13.7098L8.83814 1.33692e-07H2.26162e-07L4.41907 13.7098Z" transform="translate(7.58105 8.57593)" fill="#E24329"/>
<path d="M10.6123 13.7098L6.19322 3.22268e-07H2.19879e-08L10.6123 13.7098Z" transform="translate(1.3877 8.57593)" fill="#FC6D26"/>
<path d="M1.38772 3.9404e-08L0.0448467 4.16628C-0.0776384 4.54626 0.0565119 4.96255 0.377192 5.19739L12 13.7098L1.38772 3.9404e-08Z" transform="translate(0 8.57593)" fill="#FCA326"/>
<path d="M3.75191e-08 8.57594H6.19322L3.5316 0.318662C3.3947 -0.106278 2.7984 -0.106163 2.66151 0.318662L3.75191e-08 8.57594Z" transform="translate(1.3877)" fill="#E24329"/>
<path d="M1.56359e-07 13.7098L4.41907 3.22268e-07H10.6123L1.56359e-07 13.7098Z" transform="translate(12 8.57593)" fill="#FC6D26"/>
<path d="M10.6123 3.9404e-08L11.9552 4.16628C12.0776 4.54626 11.9435 4.96255 11.6228 5.19739L1.56359e-07 13.7098L10.6123 3.9404e-08Z" transform="translate(12 8.57593)" fill="#FCA326"/>
<path d="M6.19322 8.57594H8.65556e-08L2.66162 0.318662C2.79851 -0.106278 3.39481 -0.106163 3.53171 0.318662L6.19322 8.57594Z" transform="translate(16.4189)" fill="#E24329"/>
</svg>
