<svg width="39" height="39" viewBox="0 0 39 39" fill="none" xmlns="http://www.w3.org/2000/svg">
<rect width="26" height="26" fill="white" transform="scale(1.5)"/>
<path d="M16.0665 6.40551C17.4672 6.40892 18.699 5.45575 19.0813 4.07603C19.4634 2.69517 18.9013 1.22332 17.7072 0.472619C16.5132 -0.276949 14.9769 -0.123407 13.9483 0.851393C12.9197 1.82506 12.6486 3.38106 13.2851 4.65834L10.8425 7.15956L4.38208 0.555491C4.04884 0.215387 3.509 0.215387 3.17687 0.555491C0.436554 3.36155 -0.633018 7.44958 0.369899 11.2816C1.37293 15.1136 4.29552 18.1064 8.03773 19.1334C11.7799 20.1605 15.7721 19.0651 18.5125 16.2591C18.8446 15.919 18.8446 15.3662 18.5125 15.0249L12.0509 8.4095L14.4536 5.94922C14.9412 6.24836 15.4989 6.40665 16.0665 6.40551Z" transform="translate(8.69994 1.82927) scale(1.5)" fill="#9E66BF" fill-opacity="0.2"/>
<path d="M6 0V4.26829H11.4M3 4.26829H0" transform="translate(5.09999 31.0976) scale(1.5)" stroke="#9E66BF" stroke-opacity="0.2" stroke-width="1.25" stroke-linecap="round" stroke-linejoin="round"/>
<path fill-rule="evenodd" clip-rule="evenodd" d="M4.03923 0.495427L10.6426 7.24565L13.3275 4.49634L13.2641 4.3691C12.6665 3.16976 12.9218 1.70912 13.8858 0.796602C14.8485 -0.115696 16.2845 -0.258852 17.4009 0.441974C18.5187 1.14474 19.0476 2.52526 18.6885 3.82265C18.3338 5.10289 17.2022 5.9872 15.9141 6.0052L15.8661 6.0053C15.3359 6.00636 14.8146 5.85871 14.3582 5.57871L14.2221 5.49521L11.5714 8.20948L18.1692 14.9644C18.1691 14.9643 18.1693 14.9645 18.1692 14.9644C18.4257 15.2281 18.4255 15.6571 18.1694 15.9193C15.4792 18.674 11.5618 19.7481 7.89067 18.7405C4.2191 17.7328 1.34879 14.7956 0.363387 11.0309C-0.621979 7.26597 0.429295 3.25041 3.11996 0.495189C3.37347 0.235596 3.78427 0.235298 4.03923 0.495427C4.03921 0.495403 4.03926 0.495451 4.03923 0.495427ZM4.03896 14.9647C5.68446 16.6462 7.88347 17.6396 10.2072 17.7512C12.532 17.8617 14.8121 17.0824 16.6042 15.5657L16.7681 15.427L3.59939 1.93634L3.45789 2.11103C1.97382 3.94319 1.21197 6.27649 1.31855 8.6531C1.42627 11.0301 2.39588 13.2798 4.03896 14.9647ZM14.6712 1.90412L14.7296 1.84557C15.2832 1.2903 16.1445 1.21298 16.7844 1.6615C17.4225 2.10878 17.6606 2.95338 17.3573 3.67667C17.0546 4.4027 16.2884 4.81148 15.5284 4.64592C14.7683 4.48058 14.2334 3.79014 14.2447 3.00308C14.2506 2.59612 14.4025 2.20615 14.6712 1.90725V1.90412Z" transform="translate(5.40001 0.300064) scale(1.5)" fill="#9E66BF"/>
<path d="M6 0V4.26829H11.4M3 4.26829H0" transform="translate(1.5 29.2683) scale(1.5)" stroke="#9E66BF" stroke-width="1.25" stroke-linecap="round" stroke-linejoin="round"/>
</svg>
