<svg width="39" height="39" viewBox="0 0 39 39" fill="none" xmlns="http://www.w3.org/2000/svg">
<rect width="26" height="26" fill="white" transform="scale(1.5)"/>
<path d="M16.0665 6.40551C17.4672 6.40892 18.699 5.45575 19.0813 4.07603C19.4634 2.69517 18.9013 1.22332 17.7072 0.472619C16.5132 -0.276949 14.9769 -0.123407 13.9483 0.851393C12.9197 1.82506 12.6486 3.38106 13.2851 4.65834L10.8425 7.15956L4.38208 0.555491C4.04884 0.215387 3.509 0.215387 3.17687 0.555491C0.436554 3.36155 -0.633018 7.44958 0.369899 11.2816C1.37293 15.1136 4.29552 18.1064 8.03773 19.1334C11.7799 20.1605 15.7721 19.0651 18.5125 16.2591C18.8446 15.919 18.8446 15.3662 18.5125 15.0249L12.0509 8.4095L14.4536 5.94922C14.9412 6.24836 15.4989 6.40665 16.0665 6.40551Z" transform="translate(8.69998 1.82927) scale(1.5)" fill="#9E66BF" fill-opacity="0.2"/>
<path d="M6 0V4.26829H11.4M3 4.26829H0" transform="translate(5.10004 31.0976) scale(1.5)" stroke="#9E66BF" stroke-opacity="0.2" stroke-width="1.25" stroke-linecap="round" stroke-linejoin="round"/>
<path d="M16.0665 6.40551C17.4672 6.40892 18.699 5.45575 19.0813 4.07603C19.4634 2.69517 18.9013 1.22332 17.7072 0.472619C16.5132 -0.276949 14.9769 -0.123407 13.9483 0.851393C12.9197 1.82506 12.6486 3.38106 13.2851 4.65834L10.8425 7.15956L4.38208 0.555491C4.04884 0.215387 3.509 0.215387 3.17687 0.555491C0.436554 3.36155 -0.633018 7.44958 0.369899 11.2816C1.37293 15.1136 4.29552 18.1064 8.03773 19.1334C11.7799 20.1605 15.7721 19.0651 18.5125 16.2591C18.8446 15.919 18.8446 15.3662 18.5125 15.0249L12.0509 8.4095L14.4536 5.94922C14.9412 6.24836 15.4988 6.40647 16.0665 6.40533L16.0665 6.40551ZM4.38203 15.0252C2.77362 13.3759 1.82387 11.1728 1.71835 8.84418C1.61393 6.51584 2.36038 4.23065 3.8133 2.43695L16.675 15.6131C14.9211 17.0974 12.6905 17.8595 10.4168 17.7515C8.14408 17.6423 5.99237 16.6709 4.38174 15.025L4.38203 15.0252ZM15.0712 2.18682C15.5566 1.69999 16.3098 1.6329 16.8696 2.02531C17.4294 2.41774 17.6405 3.1616 17.3728 3.79973C17.1062 4.43897 16.4341 4.795 15.771 4.65054C15.1068 4.50609 14.6347 3.90097 14.6447 3.206C14.6502 2.82155 14.8035 2.4553 15.0712 2.18686V2.18682Z" transform="translate(5.10004) scale(1.5)" fill="#9E66BF"/>
<path d="M6 0V4.26829H11.4M3 4.26829H0" transform="translate(1.5 29.2683) scale(1.5)" stroke="#9E66BF" stroke-width="1.25" stroke-linecap="round" stroke-linejoin="round"/>
</svg>
