<svg width="35" height="40" viewBox="0 0 35 40" version="1.1" xmlns="http://www.w3.org/2000/svg" xmlns:xlink="http://www.w3.org/1999/xlink">
<g id="Canvas" fill="none">
<g id="Group">
<g id="Group_2">
<g id="Vector">
<path d="M 5.38463 0.666654C 5.38463 0.298608 5.08315 -2.03447e-07 4.71155 -2.03447e-07L 0.673078 -2.03447e-07C 0.301485 -2.03447e-07 -5.20365e-07 0.298608 -5.20365e-07 0.666654C -5.20365e-07 1.0347 0.301485 1.33331 0.673078 1.33331L 4.71155 1.33331C 5.08315 1.33331 5.38463 1.0347 5.38463 0.666654Z" transform="translate(22.8845 23.9913)" fill="#4DE035"/>
</g>
<g id="Vector_2">
<path d="M 6.05771 0L 0.673078 0C 0.301485 0 -5.20365e-07 0.298608 -5.20365e-07 0.666654C -5.20365e-07 1.0347 0.301485 1.33331 0.673078 1.33331L 6.05771 1.33331C 6.4293 1.33331 6.73079 1.0347 6.73079 0.666654C 6.73079 0.298608 6.4293 0 6.05771 0Z" transform="translate(21.5383 16.0004)" fill="#4DE035"/>
</g>
<g id="Vector_3">
<path d="M 5.38463 0.666654C 5.38463 0.298608 5.08315 -2.03447e-07 4.71155 -2.03447e-07L 0.673078 -2.03447e-07C 0.301485 -2.03447e-07 -5.20365e-07 0.298608 -5.20365e-07 0.666654C -5.20365e-07 1.0347 0.301485 1.33331 0.673078 1.33331L 4.71155 1.33331C 5.08315 1.33331 5.38463 1.0347 5.38463 0.666654Z" transform="translate(14.8075 15.9915)" fill="#4DE035"/>
</g>
<g id="Vector_4">
<path d="M 0.673078 0C 0.301485 0 -5.20365e-07 0.298608 -5.20365e-07 0.666654C -5.20365e-07 1.0347 0.301485 1.33331 0.673078 1.33331L 2.01924 1.33331C 2.39083 1.33331 2.69232 1.0347 2.69232 0.666654C 2.69232 0.298608 2.39083 0 2.01924 0L 0.673078 0Z" transform="translate(14.8075 20.0002)" fill="#4DE035"/>
</g>
<g id="Vector_5">
<path d="M 0.673078 1.33331L 7.40387 1.33331C 7.77546 1.33331 8.07695 1.0347 8.07695 0.666654C 8.07695 0.298608 7.77546 0 7.40387 0L 0.673078 0C 0.301485 0 -5.20365e-07 0.298608 -5.20365e-07 0.666654C -5.20365e-07 1.0347 0.301485 1.33331 0.673078 1.33331Z" transform="translate(14.8075 12.0004)" fill="#4DE035"/>
</g>
<g id="Vector_6">
<path d="M 0.673078 1.33331L 7.40387 1.33331C 7.77546 1.33331 8.07695 1.0347 8.07695 0.666654C 8.07695 0.298608 7.77546 0 7.40387 0L 0.673078 0C 0.301485 0 -5.20365e-07 0.298608 -5.20365e-07 0.666654C -5.20365e-07 1.0347 0.301485 1.33331 0.673078 1.33331L 0.673078 1.33331Z" transform="translate(18.846 20.0002)" fill="#4DE035"/>
</g>
<g id="Vector_7">
<path d="M 0.673078 0C 0.301485 0 -5.20365e-07 0.298608 -5.20365e-07 0.666654C -5.20365e-07 1.0347 0.301485 1.33331 0.673078 1.33331L 2.01924 1.33331C 2.39083 1.33331 2.69232 1.0347 2.69232 0.666654C 2.69232 0.298608 2.39083 0 2.01924 0L 0.673078 0Z" transform="translate(22.8845 28.0001)" fill="#4DE035"/>
</g>
<g id="Vector_8">
<path d="M 6.05771 0L 0.673078 0C 0.301485 0 -5.20365e-07 0.298608 -5.20365e-07 0.666654C -5.20365e-07 1.0347 0.301485 1.33331 0.673078 1.33331L 6.05771 1.33331C 6.4293 1.33331 6.73079 1.0347 6.73079 0.666654C 6.73079 0.298608 6.4293 0 6.05771 0Z" transform="translate(14.8075 24.0001)" fill="#4DE035"/>
</g>
<g id="Vector_9">
<path d="M 6.05771 0L 0.673078 0C 0.301485 0 -5.20365e-07 0.298608 -5.20365e-07 0.666654C -5.20365e-07 1.0347 0.301485 1.33331 0.673078 1.33331L 6.05771 1.33331C 6.4293 1.33331 6.73079 1.0347 6.73079 0.666654C 6.73079 0.298608 6.4293 0 6.05771 0Z" transform="translate(14.8075 28.0001)" fill="#4DE035"/>
</g>
<g id="Vector_10">
<path d="M 29.8396 38.6666L 3.3652 38.6666C 2.2504 38.6666 1.34596 37.7708 1.34596 36.6666L 1.34596 3.3339C 1.34772 2.22975 2.2504 1.33567 3.3652 1.33394L 24.6251 1.33394L 31.158 7.80093C 31.4227 8.06655 31.8539 8.07002 32.1238 7.80961C 32.3919 7.54746 32.3972 7.12038 32.1325 6.85478L 25.4017 0.188241C 25.2685 0.0597726 25.088 -0.00793734 24.9039 0.0007425L 3.36539 0.0007425C 1.50743 0.00247847 0.00174994 1.49378 -6.51552e-08 3.33401L -6.51552e-08 36.6667C -6.51552e-08 38.507 1.50568 40 3.36539 40L 29.8398 40C 30.2114 40 30.5129 39.7014 30.5129 39.3333C 30.5129 38.9653 30.2114 38.6667 29.8398 38.6667L 29.8396 38.6666Z" transform="translate(0.00012207 -0.000854492)" fill="#4DE035"/>
</g>
<g id="Vector_11">
<path d="M 6.05771 0L 0.673078 0C 0.301485 0 -5.20365e-07 0.298608 -5.20365e-07 0.666654C -5.20365e-07 1.0347 0.301485 1.33331 0.673078 1.33331L 6.05771 1.33331C 6.4293 1.33331 6.73079 1.0347 6.73079 0.666654C 6.73079 0.298608 6.4293 0 6.05771 0Z" transform="translate(14.8075 32)" fill="#4DE035"/>
</g>
<g id="Vector_12">
<path d="M 5.38463 0.666654C 5.38463 0.298608 5.08315 -2.03447e-07 4.71155 -2.03447e-07L 0.673079 -2.03447e-07C 0.301486 -2.03447e-07 3.35499e-07 0.298608 3.35499e-07 0.666654L 3.35499e-07 4.66658C 3.35499e-07 5.03463 0.301486 5.33323 0.673079 5.33323L 4.71155 5.33323C 5.08315 5.33323 5.38463 5.03463 5.38463 4.66658L 5.38463 0.666654ZM 4.03847 3.99993L 1.34616 3.99993L 1.34616 1.34198L 4.03847 1.34198L 4.03847 3.99993Z" transform="translate(6.73059 11.9915)" fill="#4DE035"/>
</g>
<g id="Vector_13">
<path d="M 0.673079 5.33323L 4.71155 5.33323C 5.08315 5.33323 5.38463 5.03463 5.38463 4.66658L 5.38463 0.666654C 5.38463 0.298608 5.08315 0 4.71155 0L 0.673079 0C 0.301486 0 3.35499e-07 0.298608 3.35499e-07 0.666654L 3.35499e-07 4.66658C 3.35499e-07 5.03463 0.301486 5.33323 0.673079 5.33323ZM 1.34616 1.33331L 4.03847 1.33331L 4.03847 3.99993L 1.34616 3.99993L 1.34616 1.33331Z" transform="translate(6.73059 28.0001)" fill="#4DE035"/>
</g>
<g id="Vector_14">
<path d="M 0.673079 5.33323L 4.71155 5.33323C 5.08315 5.33323 5.38463 5.03463 5.38463 4.66658L 5.38463 0.666654C 5.38463 0.298608 5.08315 0 4.71155 0L 0.673079 0C 0.301486 0 3.35499e-07 0.298608 3.35499e-07 0.666654L 3.35499e-07 4.66658C 3.35499e-07 5.03463 0.301486 5.33323 0.673079 5.33323ZM 1.34616 1.33331L 4.03847 1.33331L 4.03847 3.99993L 1.34616 3.99993L 1.34616 1.33331Z" transform="translate(6.73059 20.0002)" fill="#4DE035"/>
</g>
<g id="Vector_15">
<path d="M 10.7692 7.63183L 10.7692 33.35C 10.7709 34.074 10.6184 34.7892 10.3205 35.449C 10.1995 35.6521 9.98041 35.7771 9.74201 35.7771C 9.50013 35.7771 9.2775 35.6486 9.15832 35.4403C 9.03913 35.2337 9.04088 34.9785 9.16183 34.7719C 9.34236 34.3205 9.43527 33.8379 9.43702 33.35L 9.43702 7.3332L 3.36539 7.3332C 1.50568 7.3332 1.74952e-07 5.84016 1.74952e-07 3.99993L 1.74952e-07 0.666654C 1.74952e-07 0.298608 0.301486 -1.69675e-07 0.673079 -1.69675e-07C 1.04467 -1.69675e-07 1.34616 0.298608 1.34616 0.666654L 1.34616 3.99993C 1.34616 5.10408 2.2506 5.99989 3.36539 5.99989L 10.0962 5.99989C 10.4678 5.99989 10.7693 6.2985 10.7693 6.66654L 10.7692 7.63183Z" transform="translate(24.2307 3.33386)" fill="#4DE035"/>
</g>
</g>
</g>
</g>
</svg>

