<svg width="32" height="25" viewBox="0 0 32 25" fill="none" xmlns="http://www.w3.org/2000/svg">
<path fill-rule="evenodd" clip-rule="evenodd" d="M9.99041 12.3384C9.92278 12.3262 9.85448 12.3146 9.78545 12.3035C9.85424 12.3146 9.92236 12.3262 9.9898 12.3384C9.98998 12.3384 9.99023 12.3384 9.99041 12.3384ZM15.5264 18.4486C15.4879 21.7791 12.7408 24.5155 9.38525 24.5506H9.31976C6.0819 24.5506 2.40575 22.1774 2.0252 16.8789C1.64446 11.6903 5.57751 4.56525 13.8608 1.16998L14.2839 1L16.6854 4.98724L16.1789 5.24042C12.2775 7.21478 10.3491 10.6082 9.60394 12.2195L9.49322 12.459L9.75365 12.5009C11.8874 12.8447 13.3265 13.7187 14.233 14.8045C15.1406 15.8917 15.5262 17.2056 15.5264 18.4486Z" fill="#9E66BF" fill-opacity="0.2"/>
<path fill-rule="evenodd" clip-rule="evenodd" d="M24.822 12.3384C24.7543 12.3262 24.686 12.3146 24.617 12.3035C24.6858 12.3146 24.7539 12.3262 24.8213 12.3384C24.8215 12.3384 24.8218 12.3384 24.822 12.3384ZM30.358 18.4498C30.358 21.7778 27.6135 24.5154 24.2176 24.5506H24.1513C20.9134 24.5506 17.2373 22.1774 16.8567 16.8789C16.476 11.6903 20.409 4.56525 28.6923 1.16998L29.1154 1L31.517 4.98724L31.0104 5.24042C27.109 7.21478 25.1806 10.6082 24.4355 12.2195L24.3248 12.459L24.5852 12.5009C26.7189 12.8447 28.1581 13.7187 29.0646 14.8045C29.9725 15.892 30.358 17.2064 30.358 18.4498Z" fill="#9E66BF" fill-opacity="0.2"/>
<path fill-rule="evenodd" clip-rule="evenodd" d="M7.99041 11.3384C7.92278 11.3262 7.85448 11.3146 7.78545 11.3035C7.85424 11.3146 7.92236 11.3262 7.9898 11.3384C7.98998 11.3384 7.99023 11.3384 7.99041 11.3384ZM12.8624 3.47485C12.5624 3.65088 12.2742 3.83405 11.9974 4.02295C12.2362 3.85999 12.4835 3.70129 12.7396 3.54779C12.7803 3.52338 12.8212 3.49902 12.8624 3.47485ZM1.30047 15.7618C1.25823 15.1827 1.27447 14.5788 1.34936 13.9587C1.27465 14.5775 1.25829 15.1804 1.30022 15.7583L1.30047 15.7618ZM13.5264 17.4486C13.4879 20.7791 10.7408 23.5155 7.38525 23.5506H7.31976C4.0819 23.5506 0.405754 21.1774 0.0252 15.8789C-0.355537 10.6903 3.57751 3.56525 11.8608 0.169983L12.2839 0L14.6854 3.98724L14.1789 4.24042C10.2775 6.21478 8.34905 9.60815 7.60394 11.2195L7.49322 11.459L7.75365 11.5009C9.88738 11.8447 11.3265 12.7187 12.233 13.8045C13.1406 14.8917 13.5262 16.2056 13.5264 17.4486ZM11.506 14.561C10.6972 13.5197 9.242 12.6254 6.67614 12.4275L6.00243 12.3714L6.22875 11.72L6.22967 11.7172C6.30248 11.4968 7.99169 6.53839 13.0123 3.61896L13.188 3.51685L11.8671 1.32501L11.7062 1.39545C4.26696 4.65082 0.745842 11.0216 1.1021 15.7914C1.42071 20.3297 4.53551 22.4343 7.31976 22.4343C10.1443 22.4343 12.4504 20.1696 12.4504 17.4117C12.4504 16.7455 12.3101 15.5963 11.506 14.561Z" fill="#9E66BF"/>
<path fill-rule="evenodd" clip-rule="evenodd" d="M22.822 11.3384C22.7543 11.3262 22.686 11.3146 22.617 11.3035C22.6858 11.3146 22.7539 11.3262 22.8213 11.3384C22.8215 11.3384 22.8218 11.3384 22.822 11.3384ZM16.1332 15.7783C16.1332 15.7777 16.1331 15.777 16.1331 15.7764C16.0942 15.193 16.1142 14.584 16.1933 13.9587M27.694 3.47485C27.3939 3.65088 27.1057 3.83405 26.829 4.02295C27.0677 3.85999 27.3151 3.70129 27.5711 3.54779C27.6119 3.52338 27.6528 3.49902 27.694 3.47485ZM28.358 17.4498C28.358 20.7778 25.6135 23.5154 22.2176 23.5506H22.1513C18.9134 23.5506 15.2373 21.1774 14.8567 15.8789C14.476 10.6903 18.409 3.56525 26.6923 0.169983L27.1154 0L29.517 3.98724L29.0104 4.24042C25.109 6.21478 23.1806 9.60815 22.4355 11.2195L22.3248 11.459L22.5852 11.5009C24.7189 11.8447 26.1581 12.7187 27.0646 13.8045C27.9725 14.892 28.358 16.2064 28.358 17.4498ZM26.3375 14.561C25.5287 13.5197 24.0735 12.6254 21.5077 12.4275L20.834 12.3714L21.0603 11.72L21.0612 11.7172C21.134 11.4968 22.8232 6.53839 27.8439 3.61896L28.0195 3.51685L26.6985 1.32471L26.5375 1.39557C19.1375 4.65125 15.6159 11.0223 15.9336 15.7904C16.2518 20.3294 19.3669 22.4343 22.1513 22.4343C24.9759 22.4343 27.282 20.1696 27.282 17.4117C27.282 16.7455 27.1417 15.5963 26.3375 14.561Z" fill="#9E66BF"/>
</svg>
