<svg width="39" height="39" viewBox="0 0 39 39" fill="none" xmlns="http://www.w3.org/2000/svg">
<rect width="26" height="26" fill="white" transform="scale(1.5)"/>
<mask id="path-1-outside-1" maskUnits="userSpaceOnUse" x="-1" y="-1" width="24" height="24" fill="black">
<rect fill="white" x="-1" y="-1" width="24" height="24"/>
<path d="M16.1945 10.9387C15.5435 11.5938 14.667 11.9787 13.7467 11.9787C13.6344 11.9787 13.5221 11.8887 13.5221 11.7527C13.5221 11.6168 13.6116 11.5267 13.7467 11.5267C14.5557 11.5267 15.319 11.1877 15.8805 10.6227C16.442 10.0347 16.7561 9.26668 16.7561 8.4527C16.7333 6.78064 15.3857 5.42471 13.7239 5.42471H13.7011C12.0394 5.44766 10.6689 6.82575 10.6918 8.49881C10.6918 8.63476 10.6023 8.72481 10.4672 8.72481C10.3549 8.72481 10.2426 8.63476 10.2426 8.49881C10.2198 6.57778 11.7701 4.9727 13.7011 4.9727H13.7239C15.6331 4.9727 17.1824 6.53176 17.2054 8.4527C17.2054 9.3788 16.8455 10.2607 16.1945 10.9387ZM22.0564 6.39562C22.1459 6.16961 22.1459 5.89859 22.0564 5.67259L21.5843 4.54257C21.4054 4.02258 20.8438 3.79657 20.3499 3.99964L19.4742 4.36161C19.0022 3.70656 18.4407 3.14155 17.7897 2.66658L18.1494 1.78553C18.2389 1.55952 18.2389 1.2885 18.1494 1.0625C18.0599 0.836492 17.8801 0.63345 17.6326 0.542506L16.5096 0.0675367C16.285 -0.0225122 16.0156 -0.0225122 15.791 0.0675367C15.5664 0.157586 15.3646 0.33856 15.2742 0.587526L14.9145 1.46858C14.1284 1.33262 13.3194 1.33262 12.5332 1.46858L12.1735 0.587526C12.084 0.361522 11.9041 0.158481 11.6567 0.0675367C11.4321 -0.0225122 11.1627 -0.0225122 10.9381 0.0675367L9.81507 0.542506C9.59047 0.632555 9.38868 0.81353 9.29829 1.0625C9.2088 1.2885 9.2088 1.55952 9.29829 1.78553L9.65803 2.66658C9.00702 3.14155 8.4455 3.70656 7.97346 4.36161L7.09784 3.99964C6.60388 3.79659 6.06428 4.02259 5.8625 4.51963L5.39046 5.64965C5.18866 6.14667 5.41327 6.68963 5.90724 6.89267L6.9408 7.32171C7.0531 7.36674 7.18823 7.32171 7.23297 7.20871C7.27772 7.09571 7.23297 6.95974 7.12067 6.91472L6.0871 6.48568C5.83968 6.37268 5.70545 6.07869 5.81775 5.83063L6.28979 4.70061C6.33454 4.56466 6.44684 4.47461 6.55914 4.42959C6.69426 4.38456 6.82849 4.38456 6.9408 4.42959L7.97436 4.85863C8.06385 4.90366 8.17616 4.85863 8.24371 4.76858C8.73767 4.04555 9.34393 3.41256 10.0634 2.93759C10.1529 2.86962 10.1985 2.75661 10.1529 2.66657L9.7265 1.62659C9.68175 1.49064 9.68175 1.35557 9.7265 1.24257C9.77124 1.10661 9.88355 1.01656 9.99585 0.971542L11.1189 0.496573C11.254 0.451548 11.3882 0.451548 11.5005 0.496573C11.6357 0.541597 11.7252 0.654599 11.7699 0.767597L12.1963 1.80757C12.241 1.89762 12.3314 1.9656 12.4437 1.94353C13.2974 1.76255 14.173 1.76255 15.0267 1.94353C15.139 1.96648 15.2285 1.89851 15.2742 1.80757L15.7006 0.767597C15.7453 0.631642 15.8576 0.541593 15.9699 0.496573C16.105 0.451548 16.2393 0.451548 16.3516 0.496573L17.4746 0.971542C17.6097 1.01657 17.6992 1.12957 17.744 1.24257C17.7887 1.35556 17.7887 1.51359 17.744 1.62659L17.3176 2.66657C17.2728 2.75662 17.3176 2.86962 17.4071 2.93759C18.1256 3.43462 18.7547 4.04465 19.2267 4.76858C19.2943 4.85863 19.4066 4.90454 19.4961 4.85863L20.5297 4.42959C20.7771 4.31659 21.0912 4.45254 21.1807 4.70061L21.6527 5.83063C21.6975 5.96658 21.6975 6.10165 21.6527 6.21466C21.608 6.35061 21.4957 6.44066 21.3834 6.48568L20.3498 6.91472C20.2603 6.95975 20.1927 7.07275 20.2147 7.16369C20.3945 8.02268 20.3945 8.90374 20.2147 9.76273C20.1919 9.87573 20.2594 9.96578 20.3498 10.0117L21.3834 10.4407C21.6308 10.5537 21.765 10.8477 21.6527 11.0958L21.1807 12.2258C21.0684 12.4748 20.7762 12.6098 20.5297 12.4968L19.4961 12.0678C19.4066 12.0228 19.2943 12.0678 19.2267 12.1578C18.7328 12.8809 18.1265 13.5139 17.4071 13.9888C17.3176 14.0568 17.2719 14.1698 17.3176 14.2599L17.744 15.2998C17.7887 15.4358 17.7887 15.5709 17.744 15.6839C17.6992 15.8198 17.5869 15.9099 17.4746 15.9549L16.3516 16.4298C16.2164 16.4749 16.0822 16.4749 15.9699 16.4298C15.8348 16.3848 15.7453 16.2718 15.7006 16.1588L15.2742 15.1188C15.2294 15.0058 15.0943 14.9379 14.982 15.0058C14.8697 15.0509 14.8021 15.1868 14.8697 15.2998L15.2961 16.3398C15.3856 16.5658 15.5654 16.7689 15.8129 16.8598C15.9252 16.9048 16.0603 16.9278 16.1726 16.9278C16.2849 16.9278 16.42 16.9048 16.5323 16.8598L17.6554 16.3848C17.88 16.2948 18.0818 16.1138 18.1722 15.8648C18.2616 15.6388 18.2616 15.3678 18.1722 15.1418L17.8124 14.2608C18.4634 13.7858 19.0249 13.2208 19.497 12.5657L20.3726 12.9277C20.8666 13.1307 21.4062 12.9047 21.608 12.4077L22.08 11.2777C22.2818 10.7807 22.0572 10.2377 21.5632 10.0347L20.6867 9.6727C20.8218 8.88169 20.8218 8.06771 20.6867 7.27661L21.5623 6.91464C21.7869 6.80252 21.9669 6.62162 22.0564 6.39562ZM3.97535 15.5718C3.97535 14.1928 5.0984 13.0858 6.44605 13.0858C7.79371 13.0858 8.91675 14.1928 8.91675 15.5718C8.91675 16.9508 7.79371 18.0579 6.44605 18.0579C5.0984 18.0579 3.97535 16.9499 3.97535 15.5718ZM0 16.0238V15.1198C0 14.7128 0.336913 14.3518 0.763311 14.3518H1.3924C1.52751 13.8097 1.72931 13.2897 2.02148 12.8148L1.57226 12.3627C1.28009 12.0688 1.28009 11.5947 1.57226 11.3007L2.20135 10.6677C2.49352 10.3737 2.98748 10.3737 3.25683 10.6677L3.70605 11.1197C4.17809 10.8257 4.69397 10.5997 5.23357 10.4867V9.85374C5.23357 9.44676 5.57048 9.08569 5.99688 9.08569H6.89532C7.29979 9.08569 7.65863 9.4247 7.65863 9.85374V10.4867C8.19733 10.6227 8.71411 10.8257 9.18615 11.1197L9.63536 10.6677C9.92754 10.3737 10.4215 10.3737 10.6908 10.6677L11.3199 11.3007C11.6121 11.5947 11.6121 12.0688 11.3199 12.3627L10.8707 12.8148C11.1629 13.2897 11.3875 13.8088 11.4998 14.3518H12.1289C12.5334 14.3518 12.8922 14.6908 12.8922 15.1198V16.0238C12.8922 16.4308 12.5553 16.7919 12.1289 16.7919H11.5226C11.3875 17.3339 11.1857 17.8539 10.8935 18.3289L11.3428 18.7809C11.4779 18.9168 11.5674 19.1199 11.5674 19.3229C11.5674 19.526 11.4998 19.707 11.3428 19.865L10.7137 20.498C10.4215 20.792 9.92754 20.792 9.65819 20.498L9.20897 20.046C8.73693 20.34 8.22105 20.566 7.68145 20.679V21.3119C7.68145 21.7189 7.34453 22.08 6.91814 22.08H6.0197C5.61522 22.08 5.25639 21.741 5.25639 21.3119V20.679C4.71769 20.543 4.20091 20.34 3.72887 20.046L3.27965 20.498C2.98748 20.792 2.49352 20.792 2.22417 20.498L1.57229 19.8429C1.43717 19.707 1.34768 19.5039 1.34768 19.3009C1.34768 19.0978 1.41523 18.9169 1.57229 18.7588L2.0215 18.3068C1.72933 17.8319 1.50472 17.3128 1.39242 16.7698L0.764209 16.7689C0.336936 16.7689 0 16.4299 0 16.0238ZM0.449218 16.0238C0.449218 16.1819 0.584334 16.3399 0.763311 16.3399H1.57226C1.68457 16.3399 1.77406 16.4078 1.79687 16.5208C1.90918 17.1309 2.15661 17.7188 2.49352 18.2388C2.56108 18.3289 2.53827 18.4419 2.47071 18.5328L1.88636 19.1208C1.77406 19.2338 1.77406 19.4368 1.88636 19.5498L2.51545 20.1828C2.62775 20.2958 2.82954 20.2958 2.94185 20.1828L3.52619 19.5949C3.57094 19.5498 3.61568 19.5269 3.68324 19.5269C3.72799 19.5269 3.77273 19.5498 3.81836 19.5719C4.33514 19.9109 4.91858 20.1599 5.52574 20.2729C5.63805 20.2958 5.70561 20.3859 5.70561 20.4989V21.3129C5.70561 21.4709 5.84072 21.6289 6.0197 21.6289H6.91814C7.07519 21.6289 7.23223 21.4929 7.23223 21.3129V20.4989C7.23223 20.3859 7.29979 20.2958 7.41209 20.2729C8.01836 20.1599 8.6027 19.9109 9.11948 19.5719C9.20897 19.5039 9.32128 19.5269 9.41165 19.5949L9.99599 20.1828C10.1083 20.2958 10.3101 20.2958 10.4224 20.1828L11.0515 19.5498C11.1638 19.4368 11.1638 19.2338 11.0515 19.1208L10.4671 18.5328C10.3996 18.4648 10.3776 18.3298 10.4443 18.2388C10.7812 17.7188 11.0287 17.1318 11.141 16.5208C11.1638 16.4078 11.2533 16.3399 11.3656 16.3399H12.1745C12.3316 16.3399 12.4886 16.2039 12.4886 16.0238V15.1198C12.4886 14.9618 12.3535 14.8038 12.1745 14.8038H11.3656C11.2533 14.8038 11.1638 14.7358 11.141 14.6228C11.0287 14.0128 10.7812 13.4248 10.4443 12.9048C10.3768 12.8147 10.3996 12.7017 10.4671 12.6108L11.0515 12.0228C11.1638 11.9098 11.1638 11.7068 11.0515 11.5938L10.4224 10.9608C10.3101 10.8478 10.1083 10.8478 9.99599 10.9608L9.41165 11.5488C9.34409 11.6168 9.20985 11.6388 9.11948 11.5717C8.6027 11.2327 8.01925 10.9838 7.41209 10.8708C7.29979 10.8478 7.23223 10.7578 7.23223 10.6448V9.83078C7.23223 9.67275 7.09711 9.51473 6.91814 9.51473H6.0197C5.86265 9.51473 5.70561 9.65069 5.70561 9.83078V10.6448C5.70561 10.7578 5.63805 10.8478 5.52574 10.8708C4.91948 10.9838 4.33514 11.2327 3.81836 11.5717C3.72886 11.6397 3.61656 11.6168 3.52619 11.5488L2.94184 10.9608C2.82954 10.8478 2.62775 10.8478 2.51545 10.9608L1.88636 11.5938C1.77406 11.7068 1.77406 11.9098 1.88636 12.0228L2.4707 12.6108C2.53826 12.6788 2.5602 12.8139 2.49351 12.9048C2.1566 13.4248 1.90917 14.0119 1.79687 14.6228C1.77406 14.7358 1.68456 14.8038 1.57226 14.8038L0.764183 14.8029C0.607131 14.8029 0.450089 14.9388 0.450089 15.1189L0.449218 16.0238Z"/>
</mask>
<path d="M16.1945 10.9387C15.5435 11.5938 14.667 11.9787 13.7467 11.9787C13.6344 11.9787 13.5221 11.8887 13.5221 11.7527C13.5221 11.6168 13.6116 11.5267 13.7467 11.5267C14.5557 11.5267 15.319 11.1877 15.8805 10.6227C16.442 10.0347 16.7561 9.26668 16.7561 8.4527C16.7333 6.78064 15.3857 5.42471 13.7239 5.42471H13.7011C12.0394 5.44766 10.6689 6.82575 10.6918 8.49881C10.6918 8.63476 10.6023 8.72481 10.4672 8.72481C10.3549 8.72481 10.2426 8.63476 10.2426 8.49881C10.2198 6.57778 11.7701 4.9727 13.7011 4.9727H13.7239C15.6331 4.9727 17.1824 6.53176 17.2054 8.4527C17.2054 9.3788 16.8455 10.2607 16.1945 10.9387ZM22.0564 6.39562C22.1459 6.16961 22.1459 5.89859 22.0564 5.67259L21.5843 4.54257C21.4054 4.02258 20.8438 3.79657 20.3499 3.99964L19.4742 4.36161C19.0022 3.70656 18.4407 3.14155 17.7897 2.66658L18.1494 1.78553C18.2389 1.55952 18.2389 1.2885 18.1494 1.0625C18.0599 0.836492 17.8801 0.63345 17.6326 0.542506L16.5096 0.0675367C16.285 -0.0225122 16.0156 -0.0225122 15.791 0.0675367C15.5664 0.157586 15.3646 0.33856 15.2742 0.587526L14.9145 1.46858C14.1284 1.33262 13.3194 1.33262 12.5332 1.46858L12.1735 0.587526C12.084 0.361522 11.9041 0.158481 11.6567 0.0675367C11.4321 -0.0225122 11.1627 -0.0225122 10.9381 0.0675367L9.81507 0.542506C9.59047 0.632555 9.38868 0.81353 9.29829 1.0625C9.2088 1.2885 9.2088 1.55952 9.29829 1.78553L9.65803 2.66658C9.00702 3.14155 8.4455 3.70656 7.97346 4.36161L7.09784 3.99964C6.60388 3.79659 6.06428 4.02259 5.8625 4.51963L5.39046 5.64965C5.18866 6.14667 5.41327 6.68963 5.90724 6.89267L6.9408 7.32171C7.0531 7.36674 7.18823 7.32171 7.23297 7.20871C7.27772 7.09571 7.23297 6.95974 7.12067 6.91472L6.0871 6.48568C5.83968 6.37268 5.70545 6.07869 5.81775 5.83063L6.28979 4.70061C6.33454 4.56466 6.44684 4.47461 6.55914 4.42959C6.69426 4.38456 6.82849 4.38456 6.9408 4.42959L7.97436 4.85863C8.06385 4.90366 8.17616 4.85863 8.24371 4.76858C8.73767 4.04555 9.34393 3.41256 10.0634 2.93759C10.1529 2.86962 10.1985 2.75661 10.1529 2.66657L9.7265 1.62659C9.68175 1.49064 9.68175 1.35557 9.7265 1.24257C9.77124 1.10661 9.88355 1.01656 9.99585 0.971542L11.1189 0.496573C11.254 0.451548 11.3882 0.451548 11.5005 0.496573C11.6357 0.541597 11.7252 0.654599 11.7699 0.767597L12.1963 1.80757C12.241 1.89762 12.3314 1.9656 12.4437 1.94353C13.2974 1.76255 14.173 1.76255 15.0267 1.94353C15.139 1.96648 15.2285 1.89851 15.2742 1.80757L15.7006 0.767597C15.7453 0.631642 15.8576 0.541593 15.9699 0.496573C16.105 0.451548 16.2393 0.451548 16.3516 0.496573L17.4746 0.971542C17.6097 1.01657 17.6992 1.12957 17.744 1.24257C17.7887 1.35556 17.7887 1.51359 17.744 1.62659L17.3176 2.66657C17.2728 2.75662 17.3176 2.86962 17.4071 2.93759C18.1256 3.43462 18.7547 4.04465 19.2267 4.76858C19.2943 4.85863 19.4066 4.90454 19.4961 4.85863L20.5297 4.42959C20.7771 4.31659 21.0912 4.45254 21.1807 4.70061L21.6527 5.83063C21.6975 5.96658 21.6975 6.10165 21.6527 6.21466C21.608 6.35061 21.4957 6.44066 21.3834 6.48568L20.3498 6.91472C20.2603 6.95975 20.1927 7.07275 20.2147 7.16369C20.3945 8.02268 20.3945 8.90374 20.2147 9.76273C20.1919 9.87573 20.2594 9.96578 20.3498 10.0117L21.3834 10.4407C21.6308 10.5537 21.765 10.8477 21.6527 11.0958L21.1807 12.2258C21.0684 12.4748 20.7762 12.6098 20.5297 12.4968L19.4961 12.0678C19.4066 12.0228 19.2943 12.0678 19.2267 12.1578C18.7328 12.8809 18.1265 13.5139 17.4071 13.9888C17.3176 14.0568 17.2719 14.1698 17.3176 14.2599L17.744 15.2998C17.7887 15.4358 17.7887 15.5709 17.744 15.6839C17.6992 15.8198 17.5869 15.9099 17.4746 15.9549L16.3516 16.4298C16.2164 16.4749 16.0822 16.4749 15.9699 16.4298C15.8348 16.3848 15.7453 16.2718 15.7006 16.1588L15.2742 15.1188C15.2294 15.0058 15.0943 14.9379 14.982 15.0058C14.8697 15.0509 14.8021 15.1868 14.8697 15.2998L15.2961 16.3398C15.3856 16.5658 15.5654 16.7689 15.8129 16.8598C15.9252 16.9048 16.0603 16.9278 16.1726 16.9278C16.2849 16.9278 16.42 16.9048 16.5323 16.8598L17.6554 16.3848C17.88 16.2948 18.0818 16.1138 18.1722 15.8648C18.2616 15.6388 18.2616 15.3678 18.1722 15.1418L17.8124 14.2608C18.4634 13.7858 19.0249 13.2208 19.497 12.5657L20.3726 12.9277C20.8666 13.1307 21.4062 12.9047 21.608 12.4077L22.08 11.2777C22.2818 10.7807 22.0572 10.2377 21.5632 10.0347L20.6867 9.6727C20.8218 8.88169 20.8218 8.06771 20.6867 7.27661L21.5623 6.91464C21.7869 6.80252 21.9669 6.62162 22.0564 6.39562ZM3.97535 15.5718C3.97535 14.1928 5.0984 13.0858 6.44605 13.0858C7.79371 13.0858 8.91675 14.1928 8.91675 15.5718C8.91675 16.9508 7.79371 18.0579 6.44605 18.0579C5.0984 18.0579 3.97535 16.9499 3.97535 15.5718ZM0 16.0238V15.1198C0 14.7128 0.336913 14.3518 0.763311 14.3518H1.3924C1.52751 13.8097 1.72931 13.2897 2.02148 12.8148L1.57226 12.3627C1.28009 12.0688 1.28009 11.5947 1.57226 11.3007L2.20135 10.6677C2.49352 10.3737 2.98748 10.3737 3.25683 10.6677L3.70605 11.1197C4.17809 10.8257 4.69397 10.5997 5.23357 10.4867V9.85374C5.23357 9.44676 5.57048 9.08569 5.99688 9.08569H6.89532C7.29979 9.08569 7.65863 9.4247 7.65863 9.85374V10.4867C8.19733 10.6227 8.71411 10.8257 9.18615 11.1197L9.63536 10.6677C9.92754 10.3737 10.4215 10.3737 10.6908 10.6677L11.3199 11.3007C11.6121 11.5947 11.6121 12.0688 11.3199 12.3627L10.8707 12.8148C11.1629 13.2897 11.3875 13.8088 11.4998 14.3518H12.1289C12.5334 14.3518 12.8922 14.6908 12.8922 15.1198V16.0238C12.8922 16.4308 12.5553 16.7919 12.1289 16.7919H11.5226C11.3875 17.3339 11.1857 17.8539 10.8935 18.3289L11.3428 18.7809C11.4779 18.9168 11.5674 19.1199 11.5674 19.3229C11.5674 19.526 11.4998 19.707 11.3428 19.865L10.7137 20.498C10.4215 20.792 9.92754 20.792 9.65819 20.498L9.20897 20.046C8.73693 20.34 8.22105 20.566 7.68145 20.679V21.3119C7.68145 21.7189 7.34453 22.08 6.91814 22.08H6.0197C5.61522 22.08 5.25639 21.741 5.25639 21.3119V20.679C4.71769 20.543 4.20091 20.34 3.72887 20.046L3.27965 20.498C2.98748 20.792 2.49352 20.792 2.22417 20.498L1.57229 19.8429C1.43717 19.707 1.34768 19.5039 1.34768 19.3009C1.34768 19.0978 1.41523 18.9169 1.57229 18.7588L2.0215 18.3068C1.72933 17.8319 1.50472 17.3128 1.39242 16.7698L0.764209 16.7689C0.336936 16.7689 0 16.4299 0 16.0238ZM0.449218 16.0238C0.449218 16.1819 0.584334 16.3399 0.763311 16.3399H1.57226C1.68457 16.3399 1.77406 16.4078 1.79687 16.5208C1.90918 17.1309 2.15661 17.7188 2.49352 18.2388C2.56108 18.3289 2.53827 18.4419 2.47071 18.5328L1.88636 19.1208C1.77406 19.2338 1.77406 19.4368 1.88636 19.5498L2.51545 20.1828C2.62775 20.2958 2.82954 20.2958 2.94185 20.1828L3.52619 19.5949C3.57094 19.5498 3.61568 19.5269 3.68324 19.5269C3.72799 19.5269 3.77273 19.5498 3.81836 19.5719C4.33514 19.9109 4.91858 20.1599 5.52574 20.2729C5.63805 20.2958 5.70561 20.3859 5.70561 20.4989V21.3129C5.70561 21.4709 5.84072 21.6289 6.0197 21.6289H6.91814C7.07519 21.6289 7.23223 21.4929 7.23223 21.3129V20.4989C7.23223 20.3859 7.29979 20.2958 7.41209 20.2729C8.01836 20.1599 8.6027 19.9109 9.11948 19.5719C9.20897 19.5039 9.32128 19.5269 9.41165 19.5949L9.99599 20.1828C10.1083 20.2958 10.3101 20.2958 10.4224 20.1828L11.0515 19.5498C11.1638 19.4368 11.1638 19.2338 11.0515 19.1208L10.4671 18.5328C10.3996 18.4648 10.3776 18.3298 10.4443 18.2388C10.7812 17.7188 11.0287 17.1318 11.141 16.5208C11.1638 16.4078 11.2533 16.3399 11.3656 16.3399H12.1745C12.3316 16.3399 12.4886 16.2039 12.4886 16.0238V15.1198C12.4886 14.9618 12.3535 14.8038 12.1745 14.8038H11.3656C11.2533 14.8038 11.1638 14.7358 11.141 14.6228C11.0287 14.0128 10.7812 13.4248 10.4443 12.9048C10.3768 12.8147 10.3996 12.7017 10.4671 12.6108L11.0515 12.0228C11.1638 11.9098 11.1638 11.7068 11.0515 11.5938L10.4224 10.9608C10.3101 10.8478 10.1083 10.8478 9.99599 10.9608L9.41165 11.5488C9.34409 11.6168 9.20985 11.6388 9.11948 11.5717C8.6027 11.2327 8.01925 10.9838 7.41209 10.8708C7.29979 10.8478 7.23223 10.7578 7.23223 10.6448V9.83078C7.23223 9.67275 7.09711 9.51473 6.91814 9.51473H6.0197C5.86265 9.51473 5.70561 9.65069 5.70561 9.83078V10.6448C5.70561 10.7578 5.63805 10.8478 5.52574 10.8708C4.91948 10.9838 4.33514 11.2327 3.81836 11.5717C3.72886 11.6397 3.61656 11.6168 3.52619 11.5488L2.94184 10.9608C2.82954 10.8478 2.62775 10.8478 2.51545 10.9608L1.88636 11.5938C1.77406 11.7068 1.77406 11.9098 1.88636 12.0228L2.4707 12.6108C2.53826 12.6788 2.5602 12.8139 2.49351 12.9048C2.1566 13.4248 1.90917 14.0119 1.79687 14.6228C1.77406 14.7358 1.68456 14.8038 1.57226 14.8038L0.764183 14.8029C0.607131 14.8029 0.450089 14.9388 0.450089 15.1189L0.449218 16.0238Z" transform="translate(4.26924 4.38002) scale(1.5)" fill="#3F3A40" fill-opacity="0.2"/>
<path d="M16.1945 10.9387C15.5435 11.5938 14.667 11.9787 13.7467 11.9787C13.6344 11.9787 13.5221 11.8887 13.5221 11.7527C13.5221 11.6168 13.6116 11.5267 13.7467 11.5267C14.5557 11.5267 15.319 11.1877 15.8805 10.6227C16.442 10.0347 16.7561 9.26668 16.7561 8.4527C16.7333 6.78064 15.3857 5.42471 13.7239 5.42471H13.7011C12.0394 5.44766 10.6689 6.82575 10.6918 8.49881C10.6918 8.63476 10.6023 8.72481 10.4672 8.72481C10.3549 8.72481 10.2426 8.63476 10.2426 8.49881C10.2198 6.57778 11.7701 4.9727 13.7011 4.9727H13.7239C15.6331 4.9727 17.1824 6.53176 17.2054 8.4527C17.2054 9.3788 16.8455 10.2607 16.1945 10.9387ZM22.0564 6.39562C22.1459 6.16961 22.1459 5.89859 22.0564 5.67259L21.5843 4.54257C21.4054 4.02258 20.8438 3.79657 20.3499 3.99964L19.4742 4.36161C19.0022 3.70656 18.4407 3.14155 17.7897 2.66658L18.1494 1.78553C18.2389 1.55952 18.2389 1.2885 18.1494 1.0625C18.0599 0.836492 17.8801 0.63345 17.6326 0.542506L16.5096 0.0675367C16.285 -0.0225122 16.0156 -0.0225122 15.791 0.0675367C15.5664 0.157586 15.3646 0.33856 15.2742 0.587526L14.9145 1.46858C14.1284 1.33262 13.3194 1.33262 12.5332 1.46858L12.1735 0.587526C12.084 0.361522 11.9041 0.158481 11.6567 0.0675367C11.4321 -0.0225122 11.1627 -0.0225122 10.9381 0.0675367L9.81507 0.542506C9.59047 0.632555 9.38868 0.81353 9.29829 1.0625C9.2088 1.2885 9.2088 1.55952 9.29829 1.78553L9.65803 2.66658C9.00702 3.14155 8.4455 3.70656 7.97346 4.36161L7.09784 3.99964C6.60388 3.79659 6.06428 4.02259 5.8625 4.51963L5.39046 5.64965C5.18866 6.14667 5.41327 6.68963 5.90724 6.89267L6.9408 7.32171C7.0531 7.36674 7.18823 7.32171 7.23297 7.20871C7.27772 7.09571 7.23297 6.95974 7.12067 6.91472L6.0871 6.48568C5.83968 6.37268 5.70545 6.07869 5.81775 5.83063L6.28979 4.70061C6.33454 4.56466 6.44684 4.47461 6.55914 4.42959C6.69426 4.38456 6.82849 4.38456 6.9408 4.42959L7.97436 4.85863C8.06385 4.90366 8.17616 4.85863 8.24371 4.76858C8.73767 4.04555 9.34393 3.41256 10.0634 2.93759C10.1529 2.86962 10.1985 2.75661 10.1529 2.66657L9.7265 1.62659C9.68175 1.49064 9.68175 1.35557 9.7265 1.24257C9.77124 1.10661 9.88355 1.01656 9.99585 0.971542L11.1189 0.496573C11.254 0.451548 11.3882 0.451548 11.5005 0.496573C11.6357 0.541597 11.7252 0.654599 11.7699 0.767597L12.1963 1.80757C12.241 1.89762 12.3314 1.9656 12.4437 1.94353C13.2974 1.76255 14.173 1.76255 15.0267 1.94353C15.139 1.96648 15.2285 1.89851 15.2742 1.80757L15.7006 0.767597C15.7453 0.631642 15.8576 0.541593 15.9699 0.496573C16.105 0.451548 16.2393 0.451548 16.3516 0.496573L17.4746 0.971542C17.6097 1.01657 17.6992 1.12957 17.744 1.24257C17.7887 1.35556 17.7887 1.51359 17.744 1.62659L17.3176 2.66657C17.2728 2.75662 17.3176 2.86962 17.4071 2.93759C18.1256 3.43462 18.7547 4.04465 19.2267 4.76858C19.2943 4.85863 19.4066 4.90454 19.4961 4.85863L20.5297 4.42959C20.7771 4.31659 21.0912 4.45254 21.1807 4.70061L21.6527 5.83063C21.6975 5.96658 21.6975 6.10165 21.6527 6.21466C21.608 6.35061 21.4957 6.44066 21.3834 6.48568L20.3498 6.91472C20.2603 6.95975 20.1927 7.07275 20.2147 7.16369C20.3945 8.02268 20.3945 8.90374 20.2147 9.76273C20.1919 9.87573 20.2594 9.96578 20.3498 10.0117L21.3834 10.4407C21.6308 10.5537 21.765 10.8477 21.6527 11.0958L21.1807 12.2258C21.0684 12.4748 20.7762 12.6098 20.5297 12.4968L19.4961 12.0678C19.4066 12.0228 19.2943 12.0678 19.2267 12.1578C18.7328 12.8809 18.1265 13.5139 17.4071 13.9888C17.3176 14.0568 17.2719 14.1698 17.3176 14.2599L17.744 15.2998C17.7887 15.4358 17.7887 15.5709 17.744 15.6839C17.6992 15.8198 17.5869 15.9099 17.4746 15.9549L16.3516 16.4298C16.2164 16.4749 16.0822 16.4749 15.9699 16.4298C15.8348 16.3848 15.7453 16.2718 15.7006 16.1588L15.2742 15.1188C15.2294 15.0058 15.0943 14.9379 14.982 15.0058C14.8697 15.0509 14.8021 15.1868 14.8697 15.2998L15.2961 16.3398C15.3856 16.5658 15.5654 16.7689 15.8129 16.8598C15.9252 16.9048 16.0603 16.9278 16.1726 16.9278C16.2849 16.9278 16.42 16.9048 16.5323 16.8598L17.6554 16.3848C17.88 16.2948 18.0818 16.1138 18.1722 15.8648C18.2616 15.6388 18.2616 15.3678 18.1722 15.1418L17.8124 14.2608C18.4634 13.7858 19.0249 13.2208 19.497 12.5657L20.3726 12.9277C20.8666 13.1307 21.4062 12.9047 21.608 12.4077L22.08 11.2777C22.2818 10.7807 22.0572 10.2377 21.5632 10.0347L20.6867 9.6727C20.8218 8.88169 20.8218 8.06771 20.6867 7.27661L21.5623 6.91464C21.7869 6.80252 21.9669 6.62162 22.0564 6.39562ZM3.97535 15.5718C3.97535 14.1928 5.0984 13.0858 6.44605 13.0858C7.79371 13.0858 8.91675 14.1928 8.91675 15.5718C8.91675 16.9508 7.79371 18.0579 6.44605 18.0579C5.0984 18.0579 3.97535 16.9499 3.97535 15.5718ZM0 16.0238V15.1198C0 14.7128 0.336913 14.3518 0.763311 14.3518H1.3924C1.52751 13.8097 1.72931 13.2897 2.02148 12.8148L1.57226 12.3627C1.28009 12.0688 1.28009 11.5947 1.57226 11.3007L2.20135 10.6677C2.49352 10.3737 2.98748 10.3737 3.25683 10.6677L3.70605 11.1197C4.17809 10.8257 4.69397 10.5997 5.23357 10.4867V9.85374C5.23357 9.44676 5.57048 9.08569 5.99688 9.08569H6.89532C7.29979 9.08569 7.65863 9.4247 7.65863 9.85374V10.4867C8.19733 10.6227 8.71411 10.8257 9.18615 11.1197L9.63536 10.6677C9.92754 10.3737 10.4215 10.3737 10.6908 10.6677L11.3199 11.3007C11.6121 11.5947 11.6121 12.0688 11.3199 12.3627L10.8707 12.8148C11.1629 13.2897 11.3875 13.8088 11.4998 14.3518H12.1289C12.5334 14.3518 12.8922 14.6908 12.8922 15.1198V16.0238C12.8922 16.4308 12.5553 16.7919 12.1289 16.7919H11.5226C11.3875 17.3339 11.1857 17.8539 10.8935 18.3289L11.3428 18.7809C11.4779 18.9168 11.5674 19.1199 11.5674 19.3229C11.5674 19.526 11.4998 19.707 11.3428 19.865L10.7137 20.498C10.4215 20.792 9.92754 20.792 9.65819 20.498L9.20897 20.046C8.73693 20.34 8.22105 20.566 7.68145 20.679V21.3119C7.68145 21.7189 7.34453 22.08 6.91814 22.08H6.0197C5.61522 22.08 5.25639 21.741 5.25639 21.3119V20.679C4.71769 20.543 4.20091 20.34 3.72887 20.046L3.27965 20.498C2.98748 20.792 2.49352 20.792 2.22417 20.498L1.57229 19.8429C1.43717 19.707 1.34768 19.5039 1.34768 19.3009C1.34768 19.0978 1.41523 18.9169 1.57229 18.7588L2.0215 18.3068C1.72933 17.8319 1.50472 17.3128 1.39242 16.7698L0.764209 16.7689C0.336936 16.7689 0 16.4299 0 16.0238ZM0.449218 16.0238C0.449218 16.1819 0.584334 16.3399 0.763311 16.3399H1.57226C1.68457 16.3399 1.77406 16.4078 1.79687 16.5208C1.90918 17.1309 2.15661 17.7188 2.49352 18.2388C2.56108 18.3289 2.53827 18.4419 2.47071 18.5328L1.88636 19.1208C1.77406 19.2338 1.77406 19.4368 1.88636 19.5498L2.51545 20.1828C2.62775 20.2958 2.82954 20.2958 2.94185 20.1828L3.52619 19.5949C3.57094 19.5498 3.61568 19.5269 3.68324 19.5269C3.72799 19.5269 3.77273 19.5498 3.81836 19.5719C4.33514 19.9109 4.91858 20.1599 5.52574 20.2729C5.63805 20.2958 5.70561 20.3859 5.70561 20.4989V21.3129C5.70561 21.4709 5.84072 21.6289 6.0197 21.6289H6.91814C7.07519 21.6289 7.23223 21.4929 7.23223 21.3129V20.4989C7.23223 20.3859 7.29979 20.2958 7.41209 20.2729C8.01836 20.1599 8.6027 19.9109 9.11948 19.5719C9.20897 19.5039 9.32128 19.5269 9.41165 19.5949L9.99599 20.1828C10.1083 20.2958 10.3101 20.2958 10.4224 20.1828L11.0515 19.5498C11.1638 19.4368 11.1638 19.2338 11.0515 19.1208L10.4671 18.5328C10.3996 18.4648 10.3776 18.3298 10.4443 18.2388C10.7812 17.7188 11.0287 17.1318 11.141 16.5208C11.1638 16.4078 11.2533 16.3399 11.3656 16.3399H12.1745C12.3316 16.3399 12.4886 16.2039 12.4886 16.0238V15.1198C12.4886 14.9618 12.3535 14.8038 12.1745 14.8038H11.3656C11.2533 14.8038 11.1638 14.7358 11.141 14.6228C11.0287 14.0128 10.7812 13.4248 10.4443 12.9048C10.3768 12.8147 10.3996 12.7017 10.4671 12.6108L11.0515 12.0228C11.1638 11.9098 11.1638 11.7068 11.0515 11.5938L10.4224 10.9608C10.3101 10.8478 10.1083 10.8478 9.99599 10.9608L9.41165 11.5488C9.34409 11.6168 9.20985 11.6388 9.11948 11.5717C8.6027 11.2327 8.01925 10.9838 7.41209 10.8708C7.29979 10.8478 7.23223 10.7578 7.23223 10.6448V9.83078C7.23223 9.67275 7.09711 9.51473 6.91814 9.51473H6.0197C5.86265 9.51473 5.70561 9.65069 5.70561 9.83078V10.6448C5.70561 10.7578 5.63805 10.8478 5.52574 10.8708C4.91948 10.9838 4.33514 11.2327 3.81836 11.5717C3.72886 11.6397 3.61656 11.6168 3.52619 11.5488L2.94184 10.9608C2.82954 10.8478 2.62775 10.8478 2.51545 10.9608L1.88636 11.5938C1.77406 11.7068 1.77406 11.9098 1.88636 12.0228L2.4707 12.6108C2.53826 12.6788 2.5602 12.8139 2.49351 12.9048C2.1566 13.4248 1.90917 14.0119 1.79687 14.6228C1.77406 14.7358 1.68456 14.8038 1.57226 14.8038L0.764183 14.8029C0.607131 14.8029 0.450089 14.9388 0.450089 15.1189L0.449218 16.0238Z" transform="translate(4.26924 4.38002) scale(1.5)" stroke="#3F3A40" stroke-opacity="0.2" stroke-width="0.8" mask="url(#path-1-outside-1)"/>
<mask id="path-2-outside-2" maskUnits="userSpaceOnUse" x="-1" y="-1" width="24" height="24" fill="black">
<rect fill="white" x="-1" y="-1" width="24" height="24"/>
<path d="M16.1945 10.9387C15.5435 11.5938 14.667 11.9787 13.7467 11.9787C13.6344 11.9787 13.5221 11.8887 13.5221 11.7527C13.5221 11.6168 13.6116 11.5267 13.7467 11.5267C14.5557 11.5267 15.319 11.1877 15.8805 10.6227C16.442 10.0347 16.7561 9.26668 16.7561 8.4527C16.7333 6.78064 15.3857 5.42471 13.7239 5.42471H13.7011C12.0394 5.44766 10.6689 6.82575 10.6918 8.49881C10.6918 8.63476 10.6023 8.72481 10.4672 8.72481C10.3549 8.72481 10.2426 8.63476 10.2426 8.49881C10.2198 6.57778 11.7701 4.9727 13.7011 4.9727H13.7239C15.6331 4.9727 17.1824 6.53176 17.2054 8.4527C17.2054 9.3788 16.8455 10.2607 16.1945 10.9387ZM22.0564 6.39562C22.1459 6.16961 22.1459 5.89859 22.0564 5.67259L21.5843 4.54257C21.4054 4.02258 20.8438 3.79657 20.3499 3.99964L19.4742 4.36161C19.0022 3.70656 18.4407 3.14155 17.7897 2.66658L18.1494 1.78553C18.2389 1.55952 18.2389 1.2885 18.1494 1.0625C18.0599 0.836492 17.8801 0.63345 17.6326 0.542506L16.5096 0.0675367C16.285 -0.0225122 16.0156 -0.0225122 15.791 0.0675367C15.5664 0.157586 15.3646 0.33856 15.2742 0.587526L14.9145 1.46858C14.1284 1.33262 13.3194 1.33262 12.5332 1.46858L12.1735 0.587526C12.084 0.361522 11.9041 0.158481 11.6567 0.0675367C11.4321 -0.0225122 11.1627 -0.0225122 10.9381 0.0675367L9.81507 0.542506C9.59047 0.632555 9.38868 0.81353 9.29829 1.0625C9.2088 1.2885 9.2088 1.55952 9.29829 1.78553L9.65803 2.66658C9.00702 3.14155 8.4455 3.70656 7.97346 4.36161L7.09784 3.99964C6.60388 3.79659 6.06428 4.02259 5.8625 4.51963L5.39046 5.64965C5.18866 6.14667 5.41327 6.68963 5.90724 6.89267L6.9408 7.32171C7.0531 7.36674 7.18823 7.32171 7.23297 7.20871C7.27772 7.09571 7.23297 6.95974 7.12067 6.91472L6.0871 6.48568C5.83968 6.37268 5.70545 6.07869 5.81775 5.83063L6.28979 4.70061C6.33454 4.56466 6.44684 4.47461 6.55914 4.42959C6.69426 4.38456 6.82849 4.38456 6.9408 4.42959L7.97436 4.85863C8.06385 4.90366 8.17616 4.85863 8.24371 4.76858C8.73767 4.04555 9.34393 3.41256 10.0634 2.93759C10.1529 2.86962 10.1985 2.75661 10.1529 2.66657L9.7265 1.62659C9.68175 1.49064 9.68175 1.35557 9.7265 1.24257C9.77124 1.10661 9.88355 1.01656 9.99585 0.971542L11.1189 0.496573C11.254 0.451548 11.3882 0.451548 11.5005 0.496573C11.6357 0.541597 11.7252 0.654599 11.7699 0.767597L12.1963 1.80757C12.241 1.89762 12.3314 1.9656 12.4437 1.94353C13.2974 1.76255 14.173 1.76255 15.0267 1.94353C15.139 1.96648 15.2285 1.89851 15.2742 1.80757L15.7006 0.767597C15.7453 0.631642 15.8576 0.541593 15.9699 0.496573C16.105 0.451548 16.2393 0.451548 16.3516 0.496573L17.4746 0.971542C17.6097 1.01657 17.6992 1.12957 17.744 1.24257C17.7887 1.35556 17.7887 1.51359 17.744 1.62659L17.3176 2.66657C17.2728 2.75662 17.3176 2.86962 17.4071 2.93759C18.1256 3.43462 18.7547 4.04465 19.2267 4.76858C19.2943 4.85863 19.4066 4.90454 19.4961 4.85863L20.5297 4.42959C20.7771 4.31659 21.0912 4.45254 21.1807 4.70061L21.6527 5.83063C21.6975 5.96658 21.6975 6.10165 21.6527 6.21466C21.608 6.35061 21.4957 6.44066 21.3834 6.48568L20.3498 6.91472C20.2603 6.95975 20.1927 7.07275 20.2147 7.16369C20.3945 8.02268 20.3945 8.90374 20.2147 9.76273C20.1919 9.87573 20.2594 9.96578 20.3498 10.0117L21.3834 10.4407C21.6308 10.5537 21.765 10.8477 21.6527 11.0958L21.1807 12.2258C21.0684 12.4748 20.7762 12.6098 20.5297 12.4968L19.4961 12.0678C19.4066 12.0228 19.2943 12.0678 19.2267 12.1578C18.7328 12.8809 18.1265 13.5139 17.4071 13.9888C17.3176 14.0568 17.2719 14.1698 17.3176 14.2599L17.744 15.2998C17.7887 15.4358 17.7887 15.5709 17.744 15.6839C17.6992 15.8198 17.5869 15.9099 17.4746 15.9549L16.3516 16.4298C16.2164 16.4749 16.0822 16.4749 15.9699 16.4298C15.8348 16.3848 15.7453 16.2718 15.7006 16.1588L15.2742 15.1188C15.2294 15.0058 15.0943 14.9379 14.982 15.0058C14.8697 15.0509 14.8021 15.1868 14.8697 15.2998L15.2961 16.3398C15.3856 16.5658 15.5654 16.7689 15.8129 16.8598C15.9252 16.9048 16.0603 16.9278 16.1726 16.9278C16.2849 16.9278 16.42 16.9048 16.5323 16.8598L17.6554 16.3848C17.88 16.2948 18.0818 16.1138 18.1722 15.8648C18.2616 15.6388 18.2616 15.3678 18.1722 15.1418L17.8124 14.2608C18.4634 13.7858 19.0249 13.2208 19.497 12.5657L20.3726 12.9277C20.8666 13.1307 21.4062 12.9047 21.608 12.4077L22.08 11.2777C22.2818 10.7807 22.0572 10.2377 21.5632 10.0347L20.6867 9.6727C20.8218 8.88169 20.8218 8.06771 20.6867 7.27661L21.5623 6.91464C21.7869 6.80252 21.9669 6.62162 22.0564 6.39562ZM3.97535 15.5718C3.97535 14.1928 5.0984 13.0858 6.44605 13.0858C7.79371 13.0858 8.91675 14.1928 8.91675 15.5718C8.91675 16.9508 7.79371 18.0579 6.44605 18.0579C5.0984 18.0579 3.97535 16.9499 3.97535 15.5718ZM4.42457 15.5718C4.42457 16.7018 5.34583 17.6058 6.44605 17.6058C7.54628 17.6058 8.46753 16.6789 8.46753 15.5718C8.46753 14.4648 7.54628 13.5378 6.44605 13.5378C5.34583 13.5378 4.42457 14.4418 4.42457 15.5718ZM0 16.0238V15.1198C0 14.7128 0.336913 14.3518 0.763311 14.3518H1.3924C1.52751 13.8097 1.72931 13.2897 2.02148 12.8148L1.57226 12.3627C1.28009 12.0688 1.28009 11.5947 1.57226 11.3007L2.20135 10.6677C2.49352 10.3737 2.98748 10.3737 3.25683 10.6677L3.70605 11.1197C4.17809 10.8257 4.69397 10.5997 5.23357 10.4867V9.85374C5.23357 9.44676 5.57048 9.08569 5.99688 9.08569H6.89532C7.29979 9.08569 7.65863 9.4247 7.65863 9.85374V10.4867C8.19733 10.6227 8.71411 10.8257 9.18615 11.1197L9.63536 10.6677C9.92754 10.3737 10.4215 10.3737 10.6908 10.6677L11.3199 11.3007C11.6121 11.5947 11.6121 12.0688 11.3199 12.3627L10.8707 12.8148C11.1629 13.2897 11.3875 13.8088 11.4998 14.3518H12.1289C12.5334 14.3518 12.8922 14.6908 12.8922 15.1198V16.0238C12.8922 16.4308 12.5553 16.7919 12.1289 16.7919H11.5226C11.3875 17.3339 11.1857 17.8539 10.8935 18.3289L11.3428 18.7809C11.4779 18.9168 11.5674 19.1199 11.5674 19.3229C11.5674 19.526 11.4998 19.707 11.3428 19.865L10.7137 20.498C10.4215 20.792 9.92754 20.792 9.65819 20.498L9.20897 20.046C8.73693 20.34 8.22105 20.566 7.68145 20.679V21.3119C7.68145 21.7189 7.34453 22.08 6.91814 22.08H6.0197C5.61522 22.08 5.25639 21.741 5.25639 21.3119V20.679C4.71769 20.543 4.20091 20.34 3.72887 20.046L3.27965 20.498C2.98748 20.792 2.49352 20.792 2.22417 20.498L1.57229 19.8429C1.43717 19.707 1.34768 19.5039 1.34768 19.3009C1.34768 19.0978 1.41523 18.9169 1.57229 18.7588L2.0215 18.3068C1.72933 17.8319 1.50472 17.3128 1.39242 16.7698L0.764209 16.7689C0.336936 16.7689 0 16.4299 0 16.0238ZM0.449218 16.0238C0.449218 16.1819 0.584334 16.3399 0.763311 16.3399H1.57226C1.68457 16.3399 1.77406 16.4078 1.79687 16.5208C1.90918 17.1309 2.15661 17.7188 2.49352 18.2388C2.56108 18.3289 2.53827 18.4419 2.47071 18.5328L1.88636 19.1208C1.77406 19.2338 1.77406 19.4368 1.88636 19.5498L2.51545 20.1828C2.62775 20.2958 2.82954 20.2958 2.94185 20.1828L3.52619 19.5949C3.57094 19.5498 3.61568 19.5269 3.68324 19.5269C3.72799 19.5269 3.77273 19.5498 3.81836 19.5719C4.33514 19.9109 4.91858 20.1599 5.52574 20.2729C5.63805 20.2958 5.70561 20.3859 5.70561 20.4989V21.3129C5.70561 21.4709 5.84072 21.6289 6.0197 21.6289H6.91814C7.07519 21.6289 7.23223 21.4929 7.23223 21.3129V20.4989C7.23223 20.3859 7.29979 20.2958 7.41209 20.2729C8.01836 20.1599 8.6027 19.9109 9.11948 19.5719C9.20897 19.5039 9.32128 19.5269 9.41165 19.5949L9.99599 20.1828C10.1083 20.2958 10.3101 20.2958 10.4224 20.1828L11.0515 19.5498C11.1638 19.4368 11.1638 19.2338 11.0515 19.1208L10.4671 18.5328C10.3996 18.4648 10.3776 18.3298 10.4443 18.2388C10.7812 17.7188 11.0287 17.1318 11.141 16.5208C11.1638 16.4078 11.2533 16.3399 11.3656 16.3399H12.1745C12.3316 16.3399 12.4886 16.2039 12.4886 16.0238V15.1198C12.4886 14.9618 12.3535 14.8038 12.1745 14.8038H11.3656C11.2533 14.8038 11.1638 14.7358 11.141 14.6228C11.0287 14.0128 10.7812 13.4248 10.4443 12.9048C10.3768 12.8147 10.3996 12.7017 10.4671 12.6108L11.0515 12.0228C11.1638 11.9098 11.1638 11.7068 11.0515 11.5938L10.4224 10.9608C10.3101 10.8478 10.1083 10.8478 9.99599 10.9608L9.41165 11.5488C9.34409 11.6168 9.20985 11.6388 9.11948 11.5717C8.6027 11.2327 8.01925 10.9838 7.41209 10.8708C7.29979 10.8478 7.23223 10.7578 7.23223 10.6448V9.83078C7.23223 9.67275 7.09711 9.51473 6.91814 9.51473H6.0197C5.86265 9.51473 5.70561 9.65069 5.70561 9.83078V10.6448C5.70561 10.7578 5.63805 10.8478 5.52574 10.8708C4.91948 10.9838 4.33514 11.2327 3.81836 11.5717C3.72886 11.6397 3.61656 11.6168 3.52619 11.5488L2.94184 10.9608C2.82954 10.8478 2.62775 10.8478 2.51545 10.9608L1.88636 11.5938C1.77406 11.7068 1.77406 11.9098 1.88636 12.0228L2.4707 12.6108C2.53826 12.6788 2.5602 12.8139 2.49351 12.9048C2.1566 13.4248 1.90917 14.0119 1.79687 14.6228C1.77406 14.7358 1.68456 14.8038 1.57226 14.8038L0.764183 14.8029C0.607131 14.8029 0.450089 14.9388 0.450089 15.1189L0.449218 16.0238Z"/>
</mask>
<path d="M16.1945 10.9387C15.5435 11.5938 14.667 11.9787 13.7467 11.9787C13.6344 11.9787 13.5221 11.8887 13.5221 11.7527C13.5221 11.6168 13.6116 11.5267 13.7467 11.5267C14.5557 11.5267 15.319 11.1877 15.8805 10.6227C16.442 10.0347 16.7561 9.26668 16.7561 8.4527C16.7333 6.78064 15.3857 5.42471 13.7239 5.42471H13.7011C12.0394 5.44766 10.6689 6.82575 10.6918 8.49881C10.6918 8.63476 10.6023 8.72481 10.4672 8.72481C10.3549 8.72481 10.2426 8.63476 10.2426 8.49881C10.2198 6.57778 11.7701 4.9727 13.7011 4.9727H13.7239C15.6331 4.9727 17.1824 6.53176 17.2054 8.4527C17.2054 9.3788 16.8455 10.2607 16.1945 10.9387ZM22.0564 6.39562C22.1459 6.16961 22.1459 5.89859 22.0564 5.67259L21.5843 4.54257C21.4054 4.02258 20.8438 3.79657 20.3499 3.99964L19.4742 4.36161C19.0022 3.70656 18.4407 3.14155 17.7897 2.66658L18.1494 1.78553C18.2389 1.55952 18.2389 1.2885 18.1494 1.0625C18.0599 0.836492 17.8801 0.63345 17.6326 0.542506L16.5096 0.0675367C16.285 -0.0225122 16.0156 -0.0225122 15.791 0.0675367C15.5664 0.157586 15.3646 0.33856 15.2742 0.587526L14.9145 1.46858C14.1284 1.33262 13.3194 1.33262 12.5332 1.46858L12.1735 0.587526C12.084 0.361522 11.9041 0.158481 11.6567 0.0675367C11.4321 -0.0225122 11.1627 -0.0225122 10.9381 0.0675367L9.81507 0.542506C9.59047 0.632555 9.38868 0.81353 9.29829 1.0625C9.2088 1.2885 9.2088 1.55952 9.29829 1.78553L9.65803 2.66658C9.00702 3.14155 8.4455 3.70656 7.97346 4.36161L7.09784 3.99964C6.60388 3.79659 6.06428 4.02259 5.8625 4.51963L5.39046 5.64965C5.18866 6.14667 5.41327 6.68963 5.90724 6.89267L6.9408 7.32171C7.0531 7.36674 7.18823 7.32171 7.23297 7.20871C7.27772 7.09571 7.23297 6.95974 7.12067 6.91472L6.0871 6.48568C5.83968 6.37268 5.70545 6.07869 5.81775 5.83063L6.28979 4.70061C6.33454 4.56466 6.44684 4.47461 6.55914 4.42959C6.69426 4.38456 6.82849 4.38456 6.9408 4.42959L7.97436 4.85863C8.06385 4.90366 8.17616 4.85863 8.24371 4.76858C8.73767 4.04555 9.34393 3.41256 10.0634 2.93759C10.1529 2.86962 10.1985 2.75661 10.1529 2.66657L9.7265 1.62659C9.68175 1.49064 9.68175 1.35557 9.7265 1.24257C9.77124 1.10661 9.88355 1.01656 9.99585 0.971542L11.1189 0.496573C11.254 0.451548 11.3882 0.451548 11.5005 0.496573C11.6357 0.541597 11.7252 0.654599 11.7699 0.767597L12.1963 1.80757C12.241 1.89762 12.3314 1.9656 12.4437 1.94353C13.2974 1.76255 14.173 1.76255 15.0267 1.94353C15.139 1.96648 15.2285 1.89851 15.2742 1.80757L15.7006 0.767597C15.7453 0.631642 15.8576 0.541593 15.9699 0.496573C16.105 0.451548 16.2393 0.451548 16.3516 0.496573L17.4746 0.971542C17.6097 1.01657 17.6992 1.12957 17.744 1.24257C17.7887 1.35556 17.7887 1.51359 17.744 1.62659L17.3176 2.66657C17.2728 2.75662 17.3176 2.86962 17.4071 2.93759C18.1256 3.43462 18.7547 4.04465 19.2267 4.76858C19.2943 4.85863 19.4066 4.90454 19.4961 4.85863L20.5297 4.42959C20.7771 4.31659 21.0912 4.45254 21.1807 4.70061L21.6527 5.83063C21.6975 5.96658 21.6975 6.10165 21.6527 6.21466C21.608 6.35061 21.4957 6.44066 21.3834 6.48568L20.3498 6.91472C20.2603 6.95975 20.1927 7.07275 20.2147 7.16369C20.3945 8.02268 20.3945 8.90374 20.2147 9.76273C20.1919 9.87573 20.2594 9.96578 20.3498 10.0117L21.3834 10.4407C21.6308 10.5537 21.765 10.8477 21.6527 11.0958L21.1807 12.2258C21.0684 12.4748 20.7762 12.6098 20.5297 12.4968L19.4961 12.0678C19.4066 12.0228 19.2943 12.0678 19.2267 12.1578C18.7328 12.8809 18.1265 13.5139 17.4071 13.9888C17.3176 14.0568 17.2719 14.1698 17.3176 14.2599L17.744 15.2998C17.7887 15.4358 17.7887 15.5709 17.744 15.6839C17.6992 15.8198 17.5869 15.9099 17.4746 15.9549L16.3516 16.4298C16.2164 16.4749 16.0822 16.4749 15.9699 16.4298C15.8348 16.3848 15.7453 16.2718 15.7006 16.1588L15.2742 15.1188C15.2294 15.0058 15.0943 14.9379 14.982 15.0058C14.8697 15.0509 14.8021 15.1868 14.8697 15.2998L15.2961 16.3398C15.3856 16.5658 15.5654 16.7689 15.8129 16.8598C15.9252 16.9048 16.0603 16.9278 16.1726 16.9278C16.2849 16.9278 16.42 16.9048 16.5323 16.8598L17.6554 16.3848C17.88 16.2948 18.0818 16.1138 18.1722 15.8648C18.2616 15.6388 18.2616 15.3678 18.1722 15.1418L17.8124 14.2608C18.4634 13.7858 19.0249 13.2208 19.497 12.5657L20.3726 12.9277C20.8666 13.1307 21.4062 12.9047 21.608 12.4077L22.08 11.2777C22.2818 10.7807 22.0572 10.2377 21.5632 10.0347L20.6867 9.6727C20.8218 8.88169 20.8218 8.06771 20.6867 7.27661L21.5623 6.91464C21.7869 6.80252 21.9669 6.62162 22.0564 6.39562ZM3.97535 15.5718C3.97535 14.1928 5.0984 13.0858 6.44605 13.0858C7.79371 13.0858 8.91675 14.1928 8.91675 15.5718C8.91675 16.9508 7.79371 18.0579 6.44605 18.0579C5.0984 18.0579 3.97535 16.9499 3.97535 15.5718ZM4.42457 15.5718C4.42457 16.7018 5.34583 17.6058 6.44605 17.6058C7.54628 17.6058 8.46753 16.6789 8.46753 15.5718C8.46753 14.4648 7.54628 13.5378 6.44605 13.5378C5.34583 13.5378 4.42457 14.4418 4.42457 15.5718ZM0 16.0238V15.1198C0 14.7128 0.336913 14.3518 0.763311 14.3518H1.3924C1.52751 13.8097 1.72931 13.2897 2.02148 12.8148L1.57226 12.3627C1.28009 12.0688 1.28009 11.5947 1.57226 11.3007L2.20135 10.6677C2.49352 10.3737 2.98748 10.3737 3.25683 10.6677L3.70605 11.1197C4.17809 10.8257 4.69397 10.5997 5.23357 10.4867V9.85374C5.23357 9.44676 5.57048 9.08569 5.99688 9.08569H6.89532C7.29979 9.08569 7.65863 9.4247 7.65863 9.85374V10.4867C8.19733 10.6227 8.71411 10.8257 9.18615 11.1197L9.63536 10.6677C9.92754 10.3737 10.4215 10.3737 10.6908 10.6677L11.3199 11.3007C11.6121 11.5947 11.6121 12.0688 11.3199 12.3627L10.8707 12.8148C11.1629 13.2897 11.3875 13.8088 11.4998 14.3518H12.1289C12.5334 14.3518 12.8922 14.6908 12.8922 15.1198V16.0238C12.8922 16.4308 12.5553 16.7919 12.1289 16.7919H11.5226C11.3875 17.3339 11.1857 17.8539 10.8935 18.3289L11.3428 18.7809C11.4779 18.9168 11.5674 19.1199 11.5674 19.3229C11.5674 19.526 11.4998 19.707 11.3428 19.865L10.7137 20.498C10.4215 20.792 9.92754 20.792 9.65819 20.498L9.20897 20.046C8.73693 20.34 8.22105 20.566 7.68145 20.679V21.3119C7.68145 21.7189 7.34453 22.08 6.91814 22.08H6.0197C5.61522 22.08 5.25639 21.741 5.25639 21.3119V20.679C4.71769 20.543 4.20091 20.34 3.72887 20.046L3.27965 20.498C2.98748 20.792 2.49352 20.792 2.22417 20.498L1.57229 19.8429C1.43717 19.707 1.34768 19.5039 1.34768 19.3009C1.34768 19.0978 1.41523 18.9169 1.57229 18.7588L2.0215 18.3068C1.72933 17.8319 1.50472 17.3128 1.39242 16.7698L0.764209 16.7689C0.336936 16.7689 0 16.4299 0 16.0238ZM0.449218 16.0238C0.449218 16.1819 0.584334 16.3399 0.763311 16.3399H1.57226C1.68457 16.3399 1.77406 16.4078 1.79687 16.5208C1.90918 17.1309 2.15661 17.7188 2.49352 18.2388C2.56108 18.3289 2.53827 18.4419 2.47071 18.5328L1.88636 19.1208C1.77406 19.2338 1.77406 19.4368 1.88636 19.5498L2.51545 20.1828C2.62775 20.2958 2.82954 20.2958 2.94185 20.1828L3.52619 19.5949C3.57094 19.5498 3.61568 19.5269 3.68324 19.5269C3.72799 19.5269 3.77273 19.5498 3.81836 19.5719C4.33514 19.9109 4.91858 20.1599 5.52574 20.2729C5.63805 20.2958 5.70561 20.3859 5.70561 20.4989V21.3129C5.70561 21.4709 5.84072 21.6289 6.0197 21.6289H6.91814C7.07519 21.6289 7.23223 21.4929 7.23223 21.3129V20.4989C7.23223 20.3859 7.29979 20.2958 7.41209 20.2729C8.01836 20.1599 8.6027 19.9109 9.11948 19.5719C9.20897 19.5039 9.32128 19.5269 9.41165 19.5949L9.99599 20.1828C10.1083 20.2958 10.3101 20.2958 10.4224 20.1828L11.0515 19.5498C11.1638 19.4368 11.1638 19.2338 11.0515 19.1208L10.4671 18.5328C10.3996 18.4648 10.3776 18.3298 10.4443 18.2388C10.7812 17.7188 11.0287 17.1318 11.141 16.5208C11.1638 16.4078 11.2533 16.3399 11.3656 16.3399H12.1745C12.3316 16.3399 12.4886 16.2039 12.4886 16.0238V15.1198C12.4886 14.9618 12.3535 14.8038 12.1745 14.8038H11.3656C11.2533 14.8038 11.1638 14.7358 11.141 14.6228C11.0287 14.0128 10.7812 13.4248 10.4443 12.9048C10.3768 12.8147 10.3996 12.7017 10.4671 12.6108L11.0515 12.0228C11.1638 11.9098 11.1638 11.7068 11.0515 11.5938L10.4224 10.9608C10.3101 10.8478 10.1083 10.8478 9.99599 10.9608L9.41165 11.5488C9.34409 11.6168 9.20985 11.6388 9.11948 11.5717C8.6027 11.2327 8.01925 10.9838 7.41209 10.8708C7.29979 10.8478 7.23223 10.7578 7.23223 10.6448V9.83078C7.23223 9.67275 7.09711 9.51473 6.91814 9.51473H6.0197C5.86265 9.51473 5.70561 9.65069 5.70561 9.83078V10.6448C5.70561 10.7578 5.63805 10.8478 5.52574 10.8708C4.91948 10.9838 4.33514 11.2327 3.81836 11.5717C3.72886 11.6397 3.61656 11.6168 3.52619 11.5488L2.94184 10.9608C2.82954 10.8478 2.62775 10.8478 2.51545 10.9608L1.88636 11.5938C1.77406 11.7068 1.77406 11.9098 1.88636 12.0228L2.4707 12.6108C2.53826 12.6788 2.5602 12.8139 2.49351 12.9048C2.1566 13.4248 1.90917 14.0119 1.79687 14.6228C1.77406 14.7358 1.68456 14.8038 1.57226 14.8038L0.764183 14.8029C0.607131 14.8029 0.450089 14.9388 0.450089 15.1189L0.449218 16.0238Z" transform="translate(1.5 3) scale(1.5)" fill="#3F3A40"/>
<path d="M16.1945 10.9387C15.5435 11.5938 14.667 11.9787 13.7467 11.9787C13.6344 11.9787 13.5221 11.8887 13.5221 11.7527C13.5221 11.6168 13.6116 11.5267 13.7467 11.5267C14.5557 11.5267 15.319 11.1877 15.8805 10.6227C16.442 10.0347 16.7561 9.26668 16.7561 8.4527C16.7333 6.78064 15.3857 5.42471 13.7239 5.42471H13.7011C12.0394 5.44766 10.6689 6.82575 10.6918 8.49881C10.6918 8.63476 10.6023 8.72481 10.4672 8.72481C10.3549 8.72481 10.2426 8.63476 10.2426 8.49881C10.2198 6.57778 11.7701 4.9727 13.7011 4.9727H13.7239C15.6331 4.9727 17.1824 6.53176 17.2054 8.4527C17.2054 9.3788 16.8455 10.2607 16.1945 10.9387ZM22.0564 6.39562C22.1459 6.16961 22.1459 5.89859 22.0564 5.67259L21.5843 4.54257C21.4054 4.02258 20.8438 3.79657 20.3499 3.99964L19.4742 4.36161C19.0022 3.70656 18.4407 3.14155 17.7897 2.66658L18.1494 1.78553C18.2389 1.55952 18.2389 1.2885 18.1494 1.0625C18.0599 0.836492 17.8801 0.63345 17.6326 0.542506L16.5096 0.0675367C16.285 -0.0225122 16.0156 -0.0225122 15.791 0.0675367C15.5664 0.157586 15.3646 0.33856 15.2742 0.587526L14.9145 1.46858C14.1284 1.33262 13.3194 1.33262 12.5332 1.46858L12.1735 0.587526C12.084 0.361522 11.9041 0.158481 11.6567 0.0675367C11.4321 -0.0225122 11.1627 -0.0225122 10.9381 0.0675367L9.81507 0.542506C9.59047 0.632555 9.38868 0.81353 9.29829 1.0625C9.2088 1.2885 9.2088 1.55952 9.29829 1.78553L9.65803 2.66658C9.00702 3.14155 8.4455 3.70656 7.97346 4.36161L7.09784 3.99964C6.60388 3.79659 6.06428 4.02259 5.8625 4.51963L5.39046 5.64965C5.18866 6.14667 5.41327 6.68963 5.90724 6.89267L6.9408 7.32171C7.0531 7.36674 7.18823 7.32171 7.23297 7.20871C7.27772 7.09571 7.23297 6.95974 7.12067 6.91472L6.0871 6.48568C5.83968 6.37268 5.70545 6.07869 5.81775 5.83063L6.28979 4.70061C6.33454 4.56466 6.44684 4.47461 6.55914 4.42959C6.69426 4.38456 6.82849 4.38456 6.9408 4.42959L7.97436 4.85863C8.06385 4.90366 8.17616 4.85863 8.24371 4.76858C8.73767 4.04555 9.34393 3.41256 10.0634 2.93759C10.1529 2.86962 10.1985 2.75661 10.1529 2.66657L9.7265 1.62659C9.68175 1.49064 9.68175 1.35557 9.7265 1.24257C9.77124 1.10661 9.88355 1.01656 9.99585 0.971542L11.1189 0.496573C11.254 0.451548 11.3882 0.451548 11.5005 0.496573C11.6357 0.541597 11.7252 0.654599 11.7699 0.767597L12.1963 1.80757C12.241 1.89762 12.3314 1.9656 12.4437 1.94353C13.2974 1.76255 14.173 1.76255 15.0267 1.94353C15.139 1.96648 15.2285 1.89851 15.2742 1.80757L15.7006 0.767597C15.7453 0.631642 15.8576 0.541593 15.9699 0.496573C16.105 0.451548 16.2393 0.451548 16.3516 0.496573L17.4746 0.971542C17.6097 1.01657 17.6992 1.12957 17.744 1.24257C17.7887 1.35556 17.7887 1.51359 17.744 1.62659L17.3176 2.66657C17.2728 2.75662 17.3176 2.86962 17.4071 2.93759C18.1256 3.43462 18.7547 4.04465 19.2267 4.76858C19.2943 4.85863 19.4066 4.90454 19.4961 4.85863L20.5297 4.42959C20.7771 4.31659 21.0912 4.45254 21.1807 4.70061L21.6527 5.83063C21.6975 5.96658 21.6975 6.10165 21.6527 6.21466C21.608 6.35061 21.4957 6.44066 21.3834 6.48568L20.3498 6.91472C20.2603 6.95975 20.1927 7.07275 20.2147 7.16369C20.3945 8.02268 20.3945 8.90374 20.2147 9.76273C20.1919 9.87573 20.2594 9.96578 20.3498 10.0117L21.3834 10.4407C21.6308 10.5537 21.765 10.8477 21.6527 11.0958L21.1807 12.2258C21.0684 12.4748 20.7762 12.6098 20.5297 12.4968L19.4961 12.0678C19.4066 12.0228 19.2943 12.0678 19.2267 12.1578C18.7328 12.8809 18.1265 13.5139 17.4071 13.9888C17.3176 14.0568 17.2719 14.1698 17.3176 14.2599L17.744 15.2998C17.7887 15.4358 17.7887 15.5709 17.744 15.6839C17.6992 15.8198 17.5869 15.9099 17.4746 15.9549L16.3516 16.4298C16.2164 16.4749 16.0822 16.4749 15.9699 16.4298C15.8348 16.3848 15.7453 16.2718 15.7006 16.1588L15.2742 15.1188C15.2294 15.0058 15.0943 14.9379 14.982 15.0058C14.8697 15.0509 14.8021 15.1868 14.8697 15.2998L15.2961 16.3398C15.3856 16.5658 15.5654 16.7689 15.8129 16.8598C15.9252 16.9048 16.0603 16.9278 16.1726 16.9278C16.2849 16.9278 16.42 16.9048 16.5323 16.8598L17.6554 16.3848C17.88 16.2948 18.0818 16.1138 18.1722 15.8648C18.2616 15.6388 18.2616 15.3678 18.1722 15.1418L17.8124 14.2608C18.4634 13.7858 19.0249 13.2208 19.497 12.5657L20.3726 12.9277C20.8666 13.1307 21.4062 12.9047 21.608 12.4077L22.08 11.2777C22.2818 10.7807 22.0572 10.2377 21.5632 10.0347L20.6867 9.6727C20.8218 8.88169 20.8218 8.06771 20.6867 7.27661L21.5623 6.91464C21.7869 6.80252 21.9669 6.62162 22.0564 6.39562ZM3.97535 15.5718C3.97535 14.1928 5.0984 13.0858 6.44605 13.0858C7.79371 13.0858 8.91675 14.1928 8.91675 15.5718C8.91675 16.9508 7.79371 18.0579 6.44605 18.0579C5.0984 18.0579 3.97535 16.9499 3.97535 15.5718ZM4.42457 15.5718C4.42457 16.7018 5.34583 17.6058 6.44605 17.6058C7.54628 17.6058 8.46753 16.6789 8.46753 15.5718C8.46753 14.4648 7.54628 13.5378 6.44605 13.5378C5.34583 13.5378 4.42457 14.4418 4.42457 15.5718ZM0 16.0238V15.1198C0 14.7128 0.336913 14.3518 0.763311 14.3518H1.3924C1.52751 13.8097 1.72931 13.2897 2.02148 12.8148L1.57226 12.3627C1.28009 12.0688 1.28009 11.5947 1.57226 11.3007L2.20135 10.6677C2.49352 10.3737 2.98748 10.3737 3.25683 10.6677L3.70605 11.1197C4.17809 10.8257 4.69397 10.5997 5.23357 10.4867V9.85374C5.23357 9.44676 5.57048 9.08569 5.99688 9.08569H6.89532C7.29979 9.08569 7.65863 9.4247 7.65863 9.85374V10.4867C8.19733 10.6227 8.71411 10.8257 9.18615 11.1197L9.63536 10.6677C9.92754 10.3737 10.4215 10.3737 10.6908 10.6677L11.3199 11.3007C11.6121 11.5947 11.6121 12.0688 11.3199 12.3627L10.8707 12.8148C11.1629 13.2897 11.3875 13.8088 11.4998 14.3518H12.1289C12.5334 14.3518 12.8922 14.6908 12.8922 15.1198V16.0238C12.8922 16.4308 12.5553 16.7919 12.1289 16.7919H11.5226C11.3875 17.3339 11.1857 17.8539 10.8935 18.3289L11.3428 18.7809C11.4779 18.9168 11.5674 19.1199 11.5674 19.3229C11.5674 19.526 11.4998 19.707 11.3428 19.865L10.7137 20.498C10.4215 20.792 9.92754 20.792 9.65819 20.498L9.20897 20.046C8.73693 20.34 8.22105 20.566 7.68145 20.679V21.3119C7.68145 21.7189 7.34453 22.08 6.91814 22.08H6.0197C5.61522 22.08 5.25639 21.741 5.25639 21.3119V20.679C4.71769 20.543 4.20091 20.34 3.72887 20.046L3.27965 20.498C2.98748 20.792 2.49352 20.792 2.22417 20.498L1.57229 19.8429C1.43717 19.707 1.34768 19.5039 1.34768 19.3009C1.34768 19.0978 1.41523 18.9169 1.57229 18.7588L2.0215 18.3068C1.72933 17.8319 1.50472 17.3128 1.39242 16.7698L0.764209 16.7689C0.336936 16.7689 0 16.4299 0 16.0238ZM0.449218 16.0238C0.449218 16.1819 0.584334 16.3399 0.763311 16.3399H1.57226C1.68457 16.3399 1.77406 16.4078 1.79687 16.5208C1.90918 17.1309 2.15661 17.7188 2.49352 18.2388C2.56108 18.3289 2.53827 18.4419 2.47071 18.5328L1.88636 19.1208C1.77406 19.2338 1.77406 19.4368 1.88636 19.5498L2.51545 20.1828C2.62775 20.2958 2.82954 20.2958 2.94185 20.1828L3.52619 19.5949C3.57094 19.5498 3.61568 19.5269 3.68324 19.5269C3.72799 19.5269 3.77273 19.5498 3.81836 19.5719C4.33514 19.9109 4.91858 20.1599 5.52574 20.2729C5.63805 20.2958 5.70561 20.3859 5.70561 20.4989V21.3129C5.70561 21.4709 5.84072 21.6289 6.0197 21.6289H6.91814C7.07519 21.6289 7.23223 21.4929 7.23223 21.3129V20.4989C7.23223 20.3859 7.29979 20.2958 7.41209 20.2729C8.01836 20.1599 8.6027 19.9109 9.11948 19.5719C9.20897 19.5039 9.32128 19.5269 9.41165 19.5949L9.99599 20.1828C10.1083 20.2958 10.3101 20.2958 10.4224 20.1828L11.0515 19.5498C11.1638 19.4368 11.1638 19.2338 11.0515 19.1208L10.4671 18.5328C10.3996 18.4648 10.3776 18.3298 10.4443 18.2388C10.7812 17.7188 11.0287 17.1318 11.141 16.5208C11.1638 16.4078 11.2533 16.3399 11.3656 16.3399H12.1745C12.3316 16.3399 12.4886 16.2039 12.4886 16.0238V15.1198C12.4886 14.9618 12.3535 14.8038 12.1745 14.8038H11.3656C11.2533 14.8038 11.1638 14.7358 11.141 14.6228C11.0287 14.0128 10.7812 13.4248 10.4443 12.9048C10.3768 12.8147 10.3996 12.7017 10.4671 12.6108L11.0515 12.0228C11.1638 11.9098 11.1638 11.7068 11.0515 11.5938L10.4224 10.9608C10.3101 10.8478 10.1083 10.8478 9.99599 10.9608L9.41165 11.5488C9.34409 11.6168 9.20985 11.6388 9.11948 11.5717C8.6027 11.2327 8.01925 10.9838 7.41209 10.8708C7.29979 10.8478 7.23223 10.7578 7.23223 10.6448V9.83078C7.23223 9.67275 7.09711 9.51473 6.91814 9.51473H6.0197C5.86265 9.51473 5.70561 9.65069 5.70561 9.83078V10.6448C5.70561 10.7578 5.63805 10.8478 5.52574 10.8708C4.91948 10.9838 4.33514 11.2327 3.81836 11.5717C3.72886 11.6397 3.61656 11.6168 3.52619 11.5488L2.94184 10.9608C2.82954 10.8478 2.62775 10.8478 2.51545 10.9608L1.88636 11.5938C1.77406 11.7068 1.77406 11.9098 1.88636 12.0228L2.4707 12.6108C2.53826 12.6788 2.5602 12.8139 2.49351 12.9048C2.1566 13.4248 1.90917 14.0119 1.79687 14.6228C1.77406 14.7358 1.68456 14.8038 1.57226 14.8038L0.764183 14.8029C0.607131 14.8029 0.450089 14.9388 0.450089 15.1189L0.449218 16.0238Z" transform="translate(1.5 3) scale(1.5)" stroke="#3F3A40" stroke-width="0.8" mask="url(#path-2-outside-2)"/>
</svg>
