<svg width="28" height="27" viewBox="0 0 28 27" fill="none" xmlns="http://www.w3.org/2000/svg">
<path fill-rule="evenodd" clip-rule="evenodd" d="M22.1951 20.0423H8.18525V21.6056C7.91252 23.208 6.56408 24.4249 4.94064 24.4249C3.12167 24.4249 1.64688 22.8958 1.64688 21.0094C1.64688 19.8449 2.20872 18.8169 3.06671 18.1999L2.12096 16.8C0.839261 17.7255 0 19.2657 0 21.0093C0 23.8396 2.21226 26.1333 4.94064 26.1333C7.38818 26.1333 9.42011 24.2883 9.81355 21.8665H22.1286C22.413 22.375 22.9444 22.7165 23.5531 22.7165C24.4626 22.7165 25.2 21.9519 25.2 21.0093C25.2 20.0655 24.4626 19.3009 23.5531 19.3009C22.9901 19.3009 22.4914 19.5947 22.1953 20.0423L22.1951 20.0423Z" fill="#9E66BF"/>
<path fill-rule="evenodd" clip-rule="evenodd" d="M2.94974 20.1118C2.97897 20.0427 3.01171 19.9737 3.05146 19.908C3.35312 19.3922 3.90032 19.1032 4.46392 19.0998L10.6339 8.57625C8.81576 7.09905 8.29311 4.50161 9.51262 2.42332C10.8701 0.106745 13.8774 -0.687787 16.2277 0.649059C17.6717 1.47 18.5323 2.90344 18.6667 4.42335L17.0345 4.56382C16.9444 3.55061 16.3703 2.59497 15.408 2.04806C13.8413 1.1569 11.8359 1.68651 10.931 3.23051C10.0448 4.74341 10.5405 6.66731 12.0336 7.58399L12.9351 8.09636L5.94765 20.0155C6.14642 20.4243 6.16747 20.9078 5.97805 21.3454C5.74654 21.9613 5.14556 22.4 4.43934 22.4C3.53435 22.4 2.80005 21.6781 2.80005 20.7869C2.80005 20.5463 2.85383 20.3171 2.94971 20.1122L2.94974 20.1118Z" fill="#9E66BF"/>
<path fill-rule="evenodd" clip-rule="evenodd" d="M13.6767 6.17956L20.6031 18.6245L21.4272 18.1303L21.4413 18.1558C21.4483 18.1509 21.4553 18.1473 21.4624 18.1424C23.0322 17.2025 25.0327 17.7478 25.9294 19.3605C26.8272 20.9732 26.2817 23.0426 24.7119 23.9824C23.7438 24.5629 22.6118 24.5774 21.6765 24.1257L20.9776 25.6607C22.38 26.3347 24.0751 26.3104 25.5244 25.4421C27.8797 24.0322 28.698 20.9271 27.3517 18.5091C26.1354 16.3244 23.5719 15.4464 21.3512 16.3341L15.2054 5.29152C15.4712 4.79118 15.4852 4.16578 15.1926 3.63874C14.743 2.83237 13.7433 2.56034 12.9579 3.03034C12.1735 3.5003 11.9008 4.53619 12.3491 5.34132C12.6348 5.85378 13.1428 6.15133 13.6766 6.17924L13.6767 6.17956Z" fill="#9E66BF"/>
</svg>
