<svg width="18" height="18" viewBox="0 0 18 18" version="1.1" xmlns="http://www.w3.org/2000/svg" xmlns:xlink="http://www.w3.org/1999/xlink">
<g id="Canvas" fill="none">
<g id="Group">
<g id="Vector">
<path d="M 9 0C 4.03723 0 0 4.03723 0 9C 0 13.9628 4.03723 18 9 18C 13.9628 18 18 13.9628 18 9C 18 4.03723 13.9628 0 9 0ZM 8.37209 1.36047L 8.37209 4.17956L 6.19409 4.17956C 6.70427 2.74224 7.44827 1.68991 8.37209 1.36047L 8.37209 1.36047ZM 9.62791 1.36047C 10.5518 1.68995 11.2958 2.7422 11.8059 4.17956L 9.62791 4.17956L 9.62791 1.36047ZM 6.10242 1.81831C 5.64212 2.46912 5.24886 3.26708 4.93817 4.17945L 2.93672 4.17945C 3.7633 3.14031 4.85069 2.32271 6.10242 1.81831L 6.10242 1.81831ZM 11.8976 1.81831C 13.1493 2.32277 14.2367 3.14035 15.0633 4.17945L 13.0618 4.17945C 12.7511 3.26702 12.3579 2.46906 11.8976 1.81831L 11.8976 1.81831ZM 2.12567 5.43527L 4.57849 5.43527C 4.36837 6.3436 4.23837 7.33289 4.19913 8.3655L 1.28187 8.3655C 1.3669 7.31572 1.66531 6.32399 2.12561 5.43527L 2.12567 5.43527ZM 5.82781 5.43527L 8.37209 5.43527L 8.37209 8.3655L 5.45484 8.3655C 5.49245 7.33778 5.61917 6.33952 5.82765 5.43527L 5.82781 5.43527ZM 9.62791 5.43527L 12.1722 5.43527C 12.3807 6.33952 12.5074 7.33778 12.545 8.3655L 9.62774 8.3655L 9.62791 5.43527ZM 13.4215 5.43527L 15.8743 5.43527C 16.3346 6.32399 16.633 7.31572 16.7181 8.3655L 13.8008 8.3655C 13.7616 7.33289 13.6316 6.3436 13.4214 5.43527L 13.4215 5.43527ZM 1.28198 9.62131L 4.19923 9.62131C 4.23684 10.6564 4.36847 11.6416 4.57859 12.5515L 2.11929 12.5515C 1.66063 11.662 1.36547 10.6711 1.28208 9.62131L 1.28198 9.62131ZM 5.45505 9.62131L 8.3723 9.62131L 8.3723 12.5515L 5.82802 12.5515C 5.61954 11.6465 5.4928 10.6498 5.45521 9.62131L 5.45505 9.62131ZM 9.62812 9.62131L 12.5454 9.62131C 12.5078 10.6498 12.381 11.6465 12.1726 12.5515L 9.62828 12.5515L 9.62812 9.62131ZM 13.8012 9.62131L 16.7184 9.62131C 16.635 10.6711 16.3399 11.662 15.8812 12.5515L 13.4219 12.5515C 13.632 11.6416 13.7637 10.6564 13.8013 9.62131L 13.8012 9.62131ZM 2.93044 13.8074L 4.9319 13.8074C 5.2434 14.7247 5.63992 15.5284 6.10269 16.1817C 4.84769 15.6764 3.75788 14.8506 2.9305 13.8074L 2.93044 13.8074ZM 6.1876 13.8074L 8.3723 13.8074L 8.3723 16.6329C 7.44679 16.3035 6.69788 15.2488 6.1876 13.8074ZM 9.62812 13.8074L 11.8128 13.8074C 11.3026 15.2488 10.5537 16.3035 9.62812 16.6329L 9.62812 13.8074ZM 13.0686 13.8074L 15.0701 13.8074C 14.2427 14.8506 13.1528 15.6764 11.8979 16.1817C 12.3606 15.5284 12.7572 14.7248 13.0687 13.8074L 13.0686 13.8074Z" fill="#3F3A40"/>
</g>
</g>
</g>
</svg>

